<?xml version="1.0" encoding="UTF-8"?>
<!DOCTYPE svg PUBLIC "-//W3C//DTD SVG 1.1//EN" "http://www.w3.org/Graphics/SVG/1.1/DTD/svg11.dtd">
<!-- Creator: CorelDRAW -->
<svg xmlns="http://www.w3.org/2000/svg" xml:space="preserve" width="4.2332mm" height="4.2332mm" style="shape-rendering:geometricPrecision; text-rendering:geometricPrecision; image-rendering:optimizeQuality; fill-rule:evenodd; clip-rule:evenodd"
viewBox="0 0 4.2332 4.2332"
 xmlns:xlink="http://www.w3.org/1999/xlink">
 <defs>
  <style type="text/css">
   <![CDATA[
    .fil0 {fill:black;fill-rule:nonzero}
   ]]>
  </style>
 </defs>
 <g id="Capa_x0020_1">
  <metadata id="CorelCorpID_0Corel-Layer"/>
  <path class="fil0" d="M2.8036 1.2415l-0.5431 1.4474c-0.0014,0.0014 -0.0035,0.005 -0.0064,0.0106 -0.0216,0.085 -0.0694,0.1953 -0.1424,0.3323 -0.0737,0.1363 -0.1844,0.2044 -0.3318,0.2044 -0.054,0 -0.106,-0.0076 -0.1565,-0.0246l-0.0245 -0.2283c0.0407,0.0133 0.0876,0.0204 0.1396,0.0204 0.0547,0 0.101,-0.0106 0.1389,-0.0317 0.0372,-0.021 0.0736,-0.0765 0.108,-0.1658 0.0337,-0.0892 0.0512,-0.1355 0.0512,-0.1398l-0.5387 -1.4249 0.2609 0c0.2561,0.7111 0.388,1.0947 0.395,1.151l0.0098 0c0.026,-0.1223 0.0604,-0.241 0.1032,-0.3563l0.2918 -0.7947 0.245 0zm-0.6869 2.3735c0.4083,0 0.7599,-0.1468 1.0552,-0.4413 0.2954,-0.2944 0.4434,-0.6457 0.4434,-1.0553 0,-0.2656 -0.0673,-0.5151 -0.2013,-0.7476 -0.1348,-0.2325 -0.3179,-0.4167 -0.5501,-0.5509 -0.2323,-0.1348 -0.4813,-0.2016 -0.7472,-0.2016 -0.4112,0 -0.7634,0.1475 -1.0574,0.4427 -0.294,0.2951 -0.4413,0.6478 -0.4413,1.0574 0,0.4096 0.148,0.7609 0.4434,1.0553 0.2953,0.2945 0.6469,0.4413 1.0553,0.4413zm0 -3.2623c0.3135,0 0.6076,0.0794 0.8805,0.2375 0.2737,0.1588 0.4891,0.3745 0.6469,0.6479 0.1572,0.2725 0.2364,0.5662 0.2364,0.8803 0,0.3134 -0.0792,0.6064 -0.2378,0.8789 -0.1578,0.2734 -0.3739,0.4891 -0.6476,0.6465 -0.273,0.1581 -0.5662,0.2367 -0.8784,0.2367 -0.3123,0 -0.6055,-0.0786 -0.8785,-0.2367 -0.2737,-0.1574 -0.4898,-0.3731 -0.6476,-0.6465 -0.1586,-0.2725 -0.2379,-0.5655 -0.2379,-0.8789 0,-0.3141 0.0793,-0.6078 0.2365,-0.8818 0.1578,-0.274 0.3732,-0.4897 0.6469,-0.6471 0.2729,-0.1581 0.567,-0.2368 0.8806,-0.2368z"/>
 </g>
</svg>
