<?xml version="1.0" encoding="UTF-8"?>
<!DOCTYPE svg PUBLIC "-//W3C//DTD SVG 1.1//EN" "http://www.w3.org/Graphics/SVG/1.1/DTD/svg11.dtd">
<!-- Creator: CorelDRAW -->
<svg xmlns="http://www.w3.org/2000/svg" xml:space="preserve" width="4.2332mm" height="4.2332mm" style="shape-rendering:geometricPrecision; text-rendering:geometricPrecision; image-rendering:optimizeQuality; fill-rule:evenodd; clip-rule:evenodd"
viewBox="0 0 4.2332 4.2332"
 xmlns:xlink="http://www.w3.org/1999/xlink">
 <defs>
  <style type="text/css">
   <![CDATA[
    .fil0 {fill:black;fill-rule:nonzero}
   ]]>
  </style>
 </defs>
 <g id="Capa_x0020_1">
  <metadata id="CorelCorpID_0Corel-Layer"/>
  <path class="fil0" d="M2.3944 1.812c-0.0111,-0.078 -0.0427,-0.1371 -0.0939,-0.1771 -0.0512,-0.04 -0.1235,-0.0597 -0.2168,-0.0597 -0.0877,0 -0.1607,0.0161 -0.2196,0.0471 -0.059,0.0315 -0.0884,0.0779 -0.0884,0.1384 0,0.0548 0.0231,0.0941 0.0694,0.1194 0.0471,0.0246 0.1362,0.0534 0.2673,0.0864 0.2168,0.0577 0.3663,0.1132 0.4484,0.1665 0.0821,0.0534 0.1234,0.1476 0.1234,0.2818 0,0.1264 -0.0526,0.2333 -0.1564,0.3204 -0.1038,0.0872 -0.2427,0.1307 -0.4154,0.1307 -0.1796,0 -0.3192,-0.0387 -0.4202,-0.1152 -0.1011,-0.0766 -0.1628,-0.1925 -0.186,-0.3457l0.2407 -0.0331c0.0119,0.0984 0.0484,0.1722 0.1095,0.2214 0.061,0.0484 0.1466,0.073 0.256,0.073 0.1045,0 0.1846,-0.0217 0.2407,-0.0646 0.0562,-0.0435 0.0842,-0.0976 0.0842,-0.1616 0,-0.0618 -0.0252,-0.1061 -0.0758,-0.1321 -0.0512,-0.026 -0.1607,-0.0604 -0.329,-0.1026 -0.2042,-0.0527 -0.3368,-0.1124 -0.3979,-0.1805 -0.061,-0.0675 -0.0912,-0.1476 -0.0912,-0.2396 0,-0.1166 0.047,-0.2129 0.1417,-0.2895 0.0948,-0.0759 0.2211,-0.1138 0.3803,-0.1138 0.1712,0 0.3038,0.0329 0.3979,0.0984 0.0932,0.066 0.1494,0.1651 0.1669,0.2964l-0.2358 0.0352zm-0.2777 1.8029c0.4083,0 0.7599,-0.1468 1.0552,-0.4413 0.2954,-0.2944 0.4434,-0.6457 0.4434,-1.0553 0,-0.2656 -0.0673,-0.5151 -0.2013,-0.7476 -0.1348,-0.2325 -0.3179,-0.4167 -0.5501,-0.5509 -0.2323,-0.1348 -0.4813,-0.2016 -0.7472,-0.2016 -0.4112,0 -0.7634,0.1475 -1.0574,0.4427 -0.294,0.2951 -0.4413,0.6478 -0.4413,1.0574 0,0.4096 0.148,0.7609 0.4434,1.0553 0.2953,0.2945 0.6469,0.4413 1.0553,0.4413zm0 -3.2622c0.3135,0 0.6076,0.0793 0.8805,0.2374 0.2737,0.1588 0.4891,0.3745 0.6469,0.6479 0.1572,0.2725 0.2364,0.5662 0.2364,0.8803 0,0.3134 -0.0792,0.6064 -0.2378,0.8789 -0.1578,0.2734 -0.3739,0.4891 -0.6476,0.6465 -0.273,0.1581 -0.5662,0.2368 -0.8784,0.2368 -0.3123,0 -0.6055,-0.0787 -0.8785,-0.2368 -0.2737,-0.1574 -0.4898,-0.3731 -0.6476,-0.6465 -0.1586,-0.2725 -0.2379,-0.5655 -0.2379,-0.8789 0,-0.3141 0.0793,-0.6078 0.2365,-0.8818 0.1578,-0.274 0.3732,-0.4897 0.6469,-0.6471 0.2729,-0.1581 0.567,-0.2367 0.8806,-0.2367z"/>
 </g>
</svg>
