<?xml version="1.0" encoding="UTF-8"?>
<!DOCTYPE svg PUBLIC "-//W3C//DTD SVG 1.1//EN" "http://www.w3.org/Graphics/SVG/1.1/DTD/svg11.dtd">
<!-- Creator: CorelDRAW -->
<svg xmlns="http://www.w3.org/2000/svg" xml:space="preserve" width="4.2332mm" height="4.2332mm" style="shape-rendering:geometricPrecision; text-rendering:geometricPrecision; image-rendering:optimizeQuality; fill-rule:evenodd; clip-rule:evenodd"
viewBox="0 0 4.2332 4.2332"
 xmlns:xlink="http://www.w3.org/1999/xlink">
 <defs>
  <style type="text/css">
   <![CDATA[
    .fil0 {fill:black;fill-rule:nonzero}
   ]]>
  </style>
 </defs>
 <g id="Capa_x0020_1">
  <metadata id="CorelCorpID_0Corel-Layer"/>
  <path class="fil0" d="M2.4499 2.2069l0 -0.0885c-0.0785,0.0295 -0.2105,0.059 -0.3971,0.0885 -0.1382,0.0211 -0.2288,0.0513 -0.2722,0.092 -0.0436,0.0401 -0.0646,0.0915 -0.0646,0.1532 0,0.0647 0.0239,0.1181 0.073,0.1609 0.0484,0.0422 0.1186,0.0633 0.2105,0.0633 0.1249,0 0.2308,-0.0366 0.3185,-0.1097 0.0877,-0.0737 0.1319,-0.1932 0.1319,-0.3597zm0.3144 0.6239l-0.247 0c-0.0288,-0.0492 -0.0456,-0.1081 -0.0513,-0.177 -0.1627,0.1412 -0.3368,0.2122 -0.5219,0.2122 -0.1495,0 -0.2673,-0.0373 -0.3537,-0.1125 -0.0863,-0.0744 -0.1297,-0.1734 -0.1297,-0.2971 0,-0.1223 0.0357,-0.215 0.1073,-0.279 0.0709,-0.0639 0.1417,-0.104 0.2119,-0.1215 0.0694,-0.0169 0.169,-0.0345 0.2974,-0.0527 0.1797,-0.0246 0.3038,-0.0492 0.3726,-0.0738 0,-0.0865 -0.0063,-0.1511 -0.019,-0.1932 -0.0119,-0.0429 -0.0434,-0.0801 -0.0946,-0.1124 -0.0505,-0.0324 -0.1277,-0.0485 -0.2322,-0.0485 -0.1039,0 -0.186,0.0197 -0.2464,0.059 -0.0603,0.0386 -0.1017,0.1103 -0.1235,0.215l-0.2363 -0.0288c0.0287,-0.1455 0.0967,-0.2551 0.2034,-0.3288 0.1073,-0.0731 0.254,-0.1096 0.4399,-0.1096 0.1698,0 0.2947,0.0246 0.374,0.0751 0.0799,0.0499 0.1284,0.1104 0.1474,0.1806 0.0181,0.071 0.0273,0.1623 0.0273,0.2754l0 0.3246c0,0.1968 0.0035,0.3288 0.0105,0.3963 0.007,0.0682 0.0281,0.1335 0.0639,0.1967zm-0.6476 0.7842c0.4083,0 0.7599,-0.1468 1.0552,-0.4413 0.2954,-0.2944 0.4434,-0.6457 0.4434,-1.0553 0,-0.2656 -0.0673,-0.5151 -0.2013,-0.7476 -0.1348,-0.2325 -0.3179,-0.4167 -0.5501,-0.5509 -0.2323,-0.1348 -0.4813,-0.2016 -0.7472,-0.2016 -0.4112,0 -0.7634,0.1475 -1.0574,0.4427 -0.294,0.2951 -0.4413,0.6478 -0.4413,1.0574 0,0.4096 0.148,0.7609 0.4434,1.0553 0.2953,0.2945 0.6469,0.4413 1.0553,0.4413zm0 -3.2623c0.3135,0 0.6076,0.0794 0.8805,0.2375 0.2737,0.1588 0.4891,0.3745 0.6469,0.6479 0.1572,0.2725 0.2364,0.5662 0.2364,0.8803 0,0.3134 -0.0792,0.6064 -0.2378,0.8789 -0.1578,0.2734 -0.3739,0.4891 -0.6476,0.6465 -0.273,0.1581 -0.5662,0.2367 -0.8784,0.2367 -0.3123,0 -0.6055,-0.0786 -0.8785,-0.2367 -0.2737,-0.1574 -0.4898,-0.3731 -0.6476,-0.6465 -0.1586,-0.2725 -0.2379,-0.5655 -0.2379,-0.8789 0,-0.3141 0.0793,-0.6078 0.2365,-0.8818 0.1578,-0.274 0.3732,-0.4897 0.6469,-0.6471 0.2729,-0.1581 0.567,-0.2368 0.8806,-0.2368z"/>
 </g>
</svg>
