<?xml version="1.0" encoding="UTF-8"?>
<!DOCTYPE svg PUBLIC "-//W3C//DTD SVG 1.1//EN" "http://www.w3.org/Graphics/SVG/1.1/DTD/svg11.dtd">
<!-- Creator: CorelDRAW -->
<svg xmlns="http://www.w3.org/2000/svg" xml:space="preserve" width="4.2332mm" height="4.2332mm" style="shape-rendering:geometricPrecision; text-rendering:geometricPrecision; image-rendering:optimizeQuality; fill-rule:evenodd; clip-rule:evenodd"
viewBox="0 0 4.2332 4.2332"
 xmlns:xlink="http://www.w3.org/1999/xlink">
 <defs>
  <style type="text/css">
   <![CDATA[
    .fil0 {fill:black;fill-rule:nonzero}
   ]]>
  </style>
 </defs>
 <g id="Capa_x0020_1">
  <metadata id="CorelCorpID_0Corel-Layer"/>
  <path class="fil0" d="M3.0807 2.8308l-0.2406 0 0 -0.8972c0,-0.0661 -0.0043,-0.1222 -0.012,-0.1686 -0.0084,-0.0471 -0.0316,-0.0879 -0.0688,-0.1237 -0.0379,-0.0358 -0.0967,-0.0534 -0.1761,-0.0534 -0.1003,0 -0.1824,0.0338 -0.2476,0.1026 -0.0653,0.0689 -0.0976,0.1736 -0.0976,0.3148l0 0.8255 -0.2427 0 0 -0.9217c0,-0.1237 -0.0218,-0.2081 -0.0646,-0.2538 -0.0435,-0.0449 -0.1045,-0.0674 -0.1838,-0.0674 -0.2357,0 -0.3537,0.1686 -0.3537,0.5059l0 0.737 -0.2406 0 0 -1.42 0.2197 0 0 0.1975 0.0041 0c0.0933,-0.1511 0.2343,-0.2262 0.4238,-0.2262 0.1039,0 0.1894,0.0203 0.2568,0.0625 0.0674,0.0421 0.1151,0.104 0.1438,0.1862 0.1032,-0.1659 0.2491,-0.2487 0.4379,-0.2487 0.1466,0 0.2568,0.0393 0.3311,0.1194 0.0737,0.0794 0.1109,0.1981 0.1109,0.3555l0 0.9738zm-0.964 0.7842c0.4083,0 0.7599,-0.1468 1.0552,-0.4413 0.2954,-0.2944 0.4434,-0.6457 0.4434,-1.0553 0,-0.2656 -0.0673,-0.5151 -0.2013,-0.7476 -0.1348,-0.2325 -0.3179,-0.4167 -0.5501,-0.5509 -0.2323,-0.1348 -0.4813,-0.2016 -0.7472,-0.2016 -0.4112,0 -0.7634,0.1475 -1.0574,0.4427 -0.294,0.2951 -0.4413,0.6478 -0.4413,1.0574 0,0.4096 0.148,0.7609 0.4434,1.0553 0.2953,0.2945 0.6469,0.4413 1.0553,0.4413zm0 -3.2623c0.3135,0 0.6076,0.0794 0.8805,0.2375 0.2737,0.1588 0.4891,0.3745 0.6469,0.6479 0.1572,0.2725 0.2364,0.5662 0.2364,0.8803 0,0.3134 -0.0792,0.6064 -0.2378,0.8789 -0.1578,0.2734 -0.3739,0.4891 -0.6476,0.6465 -0.273,0.1581 -0.5662,0.2367 -0.8784,0.2367 -0.3123,0 -0.6055,-0.0786 -0.8785,-0.2367 -0.2737,-0.1574 -0.4898,-0.3731 -0.6476,-0.6465 -0.1586,-0.2725 -0.2379,-0.5655 -0.2379,-0.8789 0,-0.3141 0.0793,-0.6078 0.2365,-0.8818 0.1578,-0.274 0.3732,-0.4897 0.6469,-0.6471 0.2729,-0.1581 0.567,-0.2368 0.8806,-0.2368z"/>
 </g>
</svg>
