<?xml version="1.0" encoding="UTF-8"?>
<!DOCTYPE svg PUBLIC "-//W3C//DTD SVG 1.1//EN" "http://www.w3.org/Graphics/SVG/1.1/DTD/svg11.dtd">
<!-- Creator: CorelDRAW -->
<svg xmlns="http://www.w3.org/2000/svg" xml:space="preserve" width="4.2332mm" height="4.2332mm" style="shape-rendering:geometricPrecision; text-rendering:geometricPrecision; image-rendering:optimizeQuality; fill-rule:evenodd; clip-rule:evenodd"
viewBox="0 0 4.2332 4.2332"
 xmlns:xlink="http://www.w3.org/1999/xlink">
 <defs>
  <style type="text/css">
   <![CDATA[
    .fil0 {fill:black;fill-rule:nonzero}
   ]]>
  </style>
 </defs>
 <g id="Capa_x0020_1">
  <metadata id="CorelCorpID_0Corel-Layer"/>
  <path class="fil0" d="M2.137 2.9194c0.1116,0 0.2034,-0.0477 0.2778,-0.144 0.0737,-0.0963 0.1109,-0.2305 0.1109,-0.4034 0,-0.1623 -0.033,-0.2929 -0.0996,-0.3934 -0.0667,-0.0998 -0.16,-0.1504 -0.2807,-0.1504 -0.115,0 -0.2084,0.0513 -0.2792,0.1525 -0.0716,0.1018 -0.1074,0.229 -0.1074,0.3829 0,0.1496 0.0147,0.2558 0.0436,0.319 0.0287,0.0633 0.0728,0.1187 0.1325,0.1659 0.0597,0.047 0.127,0.0709 0.2021,0.0709zm-0.3536 -1.0947c0.0891,-0.1265 0.2174,-0.1897 0.3845,-0.1897 0.1824,0 0.3284,0.066 0.4371,0.1989 0.1088,0.132 0.1635,0.3049 0.1635,0.5177 0,0.2467 -0.0611,0.4364 -0.1831,0.5691 -0.1221,0.1322 -0.2659,0.1982 -0.4316,0.1982 -0.1663,0 -0.2947,-0.0702 -0.3865,-0.2115l-0.0042 0 0 0.1771 -0.2239 0 0 -1.9603 0.2407 0 0 0.7005 0.0035 0zm0.3333 1.7903c0.4083,0 0.7599,-0.1468 1.0552,-0.4413 0.2954,-0.2944 0.4434,-0.6457 0.4434,-1.0553 0,-0.2656 -0.0673,-0.5151 -0.2013,-0.7476 -0.1348,-0.2325 -0.3179,-0.4167 -0.5501,-0.5509 -0.2323,-0.1348 -0.4813,-0.2016 -0.7472,-0.2016 -0.4112,0 -0.7634,0.1475 -1.0574,0.4427 -0.294,0.2951 -0.4413,0.6478 -0.4413,1.0574 0,0.4096 0.148,0.7609 0.4434,1.0553 0.2953,0.2945 0.6469,0.4413 1.0553,0.4413zm0 -3.2623c0.3135,0 0.6076,0.0794 0.8805,0.2375 0.2737,0.1588 0.4891,0.3745 0.6469,0.6479 0.1572,0.2725 0.2364,0.5662 0.2364,0.8803 0,0.3134 -0.0792,0.6064 -0.2378,0.8789 -0.1578,0.2734 -0.3739,0.4891 -0.6476,0.6465 -0.273,0.1581 -0.5662,0.2367 -0.8784,0.2367 -0.3123,0 -0.6055,-0.0786 -0.8785,-0.2367 -0.2737,-0.1574 -0.4898,-0.3731 -0.6476,-0.6465 -0.1586,-0.2725 -0.2379,-0.5655 -0.2379,-0.8789 0,-0.3141 0.0793,-0.6078 0.2365,-0.8818 0.1578,-0.274 0.3732,-0.4897 0.6469,-0.6471 0.2729,-0.1581 0.567,-0.2368 0.8806,-0.2368z"/>
 </g>
</svg>
