<?xml version="1.0" encoding="UTF-8"?>
<!DOCTYPE svg PUBLIC "-//W3C//DTD SVG 1.1//EN" "http://www.w3.org/Graphics/SVG/1.1/DTD/svg11.dtd">
<!-- Creator: CorelDRAW -->
<svg xmlns="http://www.w3.org/2000/svg" xml:space="preserve" width="4.2332mm" height="4.2332mm" style="shape-rendering:geometricPrecision; text-rendering:geometricPrecision; image-rendering:optimizeQuality; fill-rule:evenodd; clip-rule:evenodd"
viewBox="0 0 4.2332 4.2332"
 xmlns:xlink="http://www.w3.org/1999/xlink">
 <defs>
  <style type="text/css">
   <![CDATA[
    .fil0 {fill:black;fill-rule:nonzero}
   ]]>
  </style>
 </defs>
 <g id="Capa_x0020_1">
  <metadata id="CorelCorpID_0Corel-Layer"/>
  <path class="fil0" d="M2.1167 0.3527c0.3135,0 0.6076,0.0794 0.8805,0.2375 0.2737,0.1588 0.4891,0.3745 0.6469,0.6479 0.1572,0.2725 0.2364,0.5662 0.2364,0.8803 0,0.3134 -0.0792,0.6064 -0.2378,0.8789 -0.1578,0.2734 -0.3739,0.4891 -0.6476,0.6465 -0.273,0.1581 -0.5662,0.2367 -0.8784,0.2367 -0.3123,0 -0.6055,-0.0786 -0.8785,-0.2367 -0.2737,-0.1574 -0.4898,-0.3731 -0.6476,-0.6465 -0.1586,-0.2725 -0.2379,-0.5655 -0.2379,-0.8789 0,-0.3141 0.0793,-0.6078 0.2365,-0.8818 0.1578,-0.274 0.3732,-0.4897 0.6469,-0.6471 0.2729,-0.1581 0.567,-0.2368 0.8806,-0.2368zm0 3.2623c0.4083,0 0.7599,-0.1468 1.0552,-0.4413 0.2954,-0.2944 0.4434,-0.6457 0.4434,-1.0553 0,-0.2656 -0.0673,-0.5151 -0.2013,-0.7476 -0.1348,-0.2325 -0.3179,-0.4167 -0.5501,-0.5509 -0.2323,-0.1348 -0.4813,-0.2016 -0.7472,-0.2016 -0.4112,0 -0.7634,0.1475 -1.0574,0.4427 -0.294,0.2951 -0.4413,0.6478 -0.4413,1.0574 0,0.4096 0.148,0.7609 0.4434,1.0553 0.2953,0.2945 0.6469,0.4413 1.0553,0.4413zm0.6104 -2.4985c0.1684,0 0.2953,0.0836 0.3796,0.2508 0.0841,0.1672 0.1263,0.4181 0.1263,0.7511 0,0.3337 -0.0422,0.5839 -0.1263,0.7504 -0.0843,0.1673 -0.2112,0.2501 -0.3796,0.2501 -0.1713,0 -0.2996,-0.0828 -0.3853,-0.2501 -0.0855,-0.1665 -0.1283,-0.4167 -0.1283,-0.7504 0,-0.333 0.0428,-0.5839 0.1283,-0.7511 0.0857,-0.1672 0.214,-0.2508 0.3853,-0.2508zm0 1.8029c0.0849,0 0.1502,-0.0696 0.1943,-0.2101 0.0443,-0.1398 0.0666,-0.3366 0.0666,-0.5909 0,-0.2684 -0.0223,-0.4707 -0.0666,-0.6057 -0.0441,-0.1356 -0.1109,-0.203 -0.1986,-0.203 -0.0876,0 -0.1529,0.0674 -0.1964,0.203 -0.0427,0.135 -0.0645,0.3373 -0.0645,0.6057 0,0.2677 0.0218,0.4686 0.0659,0.6015 0.0435,0.1327 0.1102,0.1995 0.1993,0.1995zm-0.6785 0.1651l-1.0483 0c0,-0.1132 0.031,-0.227 0.0919,-0.3429 0.0604,-0.1159 0.1678,-0.253 0.3214,-0.411 0.2547,-0.2564 0.3824,-0.4813 0.3824,-0.6753 0,-0.1053 -0.0225,-0.1897 -0.0666,-0.2521 -0.045,-0.0619 -0.1067,-0.0935 -0.186,-0.0935 -0.073,0 -0.1333,0.033 -0.1824,0.099 -0.0484,0.0661 -0.073,0.1666 -0.073,0.3022l-0.2484 -0.031c0.0106,-0.1777 0.0618,-0.3169 0.153,-0.4152 0.0913,-0.099 0.2098,-0.1482 0.3565,-0.1482 0.1536,0 0.2749,0.0526 0.3633,0.1595 0.0878,0.1061 0.132,0.2339 0.132,0.3836 0,0.1208 -0.0316,0.2375 -0.0955,0.3498 -0.0638,0.1125 -0.1621,0.2403 -0.2946,0.3831 -0.2273,0.2276 -0.3571,0.3815 -0.3887,0.4608l0.783 0 0 0.2312z"/>
 </g>
</svg>
