<?xml version="1.0" encoding="UTF-8"?>
<!DOCTYPE svg PUBLIC "-//W3C//DTD SVG 1.1//EN" "http://www.w3.org/Graphics/SVG/1.1/DTD/svg11.dtd">
<!-- Creator: CorelDRAW -->
<svg xmlns="http://www.w3.org/2000/svg" xml:space="preserve" width="4.2332mm" height="4.2332mm" style="shape-rendering:geometricPrecision; text-rendering:geometricPrecision; image-rendering:optimizeQuality; fill-rule:evenodd; clip-rule:evenodd"
viewBox="0 0 4.2332 4.2332"
 xmlns:xlink="http://www.w3.org/1999/xlink">
 <defs>
  <style type="text/css">
   <![CDATA[
    .fil0 {fill:black;fill-rule:nonzero}
   ]]>
  </style>
 </defs>
 <g id="Capa_x0020_1">
  <metadata id="CorelCorpID_0Corel-Layer"/>
  <path class="fil0" d="M2.1167 0.3527c0.3135,0 0.6076,0.0794 0.8805,0.2375 0.2737,0.1588 0.4891,0.3745 0.6469,0.6479 0.1572,0.2725 0.2364,0.5662 0.2364,0.8803 0,0.3134 -0.0792,0.6064 -0.2378,0.8789 -0.1578,0.2734 -0.3739,0.4891 -0.6476,0.6465 -0.273,0.1581 -0.5662,0.2367 -0.8784,0.2367 -0.3123,0 -0.6055,-0.0786 -0.8785,-0.2367 -0.2737,-0.1574 -0.4898,-0.3731 -0.6476,-0.6465 -0.1586,-0.2725 -0.2379,-0.5655 -0.2379,-0.8789 0,-0.3141 0.0793,-0.6078 0.2365,-0.8818 0.1578,-0.274 0.3732,-0.4897 0.6469,-0.6471 0.2729,-0.1581 0.567,-0.2368 0.8806,-0.2368zm0 3.2623c0.4083,0 0.7599,-0.1468 1.0552,-0.4413 0.2954,-0.2944 0.4434,-0.6457 0.4434,-1.0553 0,-0.2656 -0.0673,-0.5151 -0.2013,-0.7476 -0.1348,-0.2325 -0.3179,-0.4167 -0.5501,-0.5509 -0.2323,-0.1348 -0.4813,-0.2016 -0.7472,-0.2016 -0.4112,0 -0.7634,0.1475 -1.0574,0.4427 -0.294,0.2951 -0.4413,0.6478 -0.4413,1.0574 0,0.4096 0.148,0.7609 0.4434,1.0553 0.2953,0.2945 0.6469,0.4413 1.0553,0.4413zm1.0651 -0.5305l-1.2974 0c0,-0.1103 0.0379,-0.2206 0.113,-0.333 0.0757,-0.1118 0.221,-0.2551 0.4357,-0.4308 0.141,-0.1131 0.2589,-0.2234 0.3537,-0.3316 0.0946,-0.1082 0.1417,-0.22 0.1417,-0.3338 0,-0.0983 -0.0344,-0.1805 -0.1039,-0.2466 -0.0688,-0.066 -0.1565,-0.099 -0.2617,-0.099 -0.1074,0 -0.1972,0.0337 -0.2716,0.0997 -0.0737,0.0668 -0.1108,0.1672 -0.1108,0.3015l-0.2491 -0.031c0.0154,-0.1763 0.0793,-0.3147 0.1923,-0.4145 0.1129,-0.099 0.261,-0.1489 0.4434,-0.1489 0.1915,0 0.341,0.0526 0.4491,0.158 0.1073,0.1062 0.1613,0.234 0.1613,0.3851 0,0.1293 -0.0393,0.2495 -0.1186,0.3611 -0.0785,0.1124 -0.1986,0.2361 -0.3605,0.3718 -0.2099,0.1756 -0.3341,0.2824 -0.3734,0.3203 -0.0385,0.0373 -0.075,0.0844 -0.1074,0.1405l0.9642 0 0 0.2312zm-1.5401 0l-0.2407 0 0 -1.5338c-0.1214,0.1124 -0.2835,0.2094 -0.4848,0.2901l0 -0.2325c0.2757,-0.1342 0.4651,-0.2986 0.5697,-0.4918l0.1558 0 0 1.968z"/>
 </g>
</svg>
