<?xml version="1.0" encoding="UTF-8"?>
<!DOCTYPE svg PUBLIC "-//W3C//DTD SVG 1.1//EN" "http://www.w3.org/Graphics/SVG/1.1/DTD/svg11.dtd">
<!-- Creator: CorelDRAW -->
<svg xmlns="http://www.w3.org/2000/svg" xml:space="preserve" width="4.2332mm" height="4.2332mm" style="shape-rendering:geometricPrecision; text-rendering:geometricPrecision; image-rendering:optimizeQuality; fill-rule:evenodd; clip-rule:evenodd"
viewBox="0 0 4.2332 4.2332"
 xmlns:xlink="http://www.w3.org/1999/xlink">
 <defs>
  <style type="text/css">
   <![CDATA[
    .fil0 {fill:black;fill-rule:nonzero}
   ]]>
  </style>
 </defs>
 <g id="Capa_x0020_1">
  <metadata id="CorelCorpID_0Corel-Layer"/>
  <path class="fil0" d="M2.1167 2.8947c0.1985,0 0.3599,-0.0696 0.4841,-0.2087 0.1242,-0.1398 0.186,-0.333 0.186,-0.5797 0,-0.2501 -0.0625,-0.4447 -0.1881,-0.5859 -0.1256,-0.1405 -0.2849,-0.2108 -0.4778,-0.2108 -0.1923,0 -0.3523,0.0667 -0.4813,0.1995 -0.1284,0.1335 -0.1931,0.3408 -0.1931,0.6218 0,0.2263 0.0625,0.4103 0.1874,0.5516 0.1242,0.1413 0.2856,0.2122 0.4828,0.2122zm0 -1.805c0.2757,0 0.5009,0.0927 0.6763,0.2789 0.1754,0.1854 0.2632,0.4314 0.2632,0.7377 0,0.31 -0.0891,0.5565 -0.2667,0.7392 -0.1768,0.182 -0.4013,0.2733 -0.6728,0.2733 -0.2807,0 -0.5074,-0.0955 -0.6785,-0.2881 -0.1713,-0.1918 -0.2568,-0.4264 -0.2568,-0.7039 0,-0.3212 0.0869,-0.5742 0.261,-0.7596 0.174,-0.1855 0.3985,-0.2775 0.6743,-0.2775zm0 2.5252c0.4083,0 0.7599,-0.1468 1.0552,-0.4413 0.2954,-0.2944 0.4434,-0.6457 0.4434,-1.0553 0,-0.2656 -0.0673,-0.5151 -0.2013,-0.7476 -0.1348,-0.2325 -0.3179,-0.4167 -0.5501,-0.5509 -0.2323,-0.1348 -0.4813,-0.2016 -0.7472,-0.2016 -0.4112,0 -0.7634,0.1475 -1.0574,0.4427 -0.294,0.2951 -0.4413,0.6478 -0.4413,1.0574 0,0.4096 0.148,0.7609 0.4434,1.0553 0.2953,0.2945 0.6469,0.4413 1.0553,0.4413zm0 -3.2622c0.3135,0 0.6076,0.0793 0.8805,0.2374 0.2737,0.1588 0.4891,0.3745 0.6469,0.6479 0.1572,0.2725 0.2364,0.5662 0.2364,0.8803 0,0.3134 -0.0792,0.6064 -0.2378,0.8789 -0.1578,0.2734 -0.3739,0.4891 -0.6476,0.6465 -0.273,0.1581 -0.5662,0.2368 -0.8784,0.2368 -0.3123,0 -0.6055,-0.0787 -0.8785,-0.2368 -0.2737,-0.1574 -0.4898,-0.3731 -0.6476,-0.6465 -0.1586,-0.2725 -0.2379,-0.5655 -0.2379,-0.8789 0,-0.3141 0.0793,-0.6078 0.2365,-0.8818 0.1578,-0.274 0.3732,-0.4897 0.6469,-0.6471 0.2729,-0.1581 0.567,-0.2367 0.8806,-0.2367z"/>
 </g>
</svg>
