<?xml version="1.0" encoding="UTF-8"?>
<!DOCTYPE svg PUBLIC "-//W3C//DTD SVG 1.1//EN" "http://www.w3.org/Graphics/SVG/1.1/DTD/svg11.dtd">
<!-- Creator: CorelDRAW -->
<svg xmlns="http://www.w3.org/2000/svg" xml:space="preserve" width="4.2332mm" height="4.2332mm" style="shape-rendering:geometricPrecision; text-rendering:geometricPrecision; image-rendering:optimizeQuality; fill-rule:evenodd; clip-rule:evenodd"
viewBox="0 0 4.2332 4.2332"
 xmlns:xlink="http://www.w3.org/1999/xlink">
 <defs>
  <style type="text/css">
   <![CDATA[
    .fil0 {fill:black;fill-rule:nonzero}
   ]]>
  </style>
 </defs>
 <g id="Capa_x0020_1">
  <metadata id="CorelCorpID_0Corel-Layer"/>
  <path class="fil0" d="M2.5418 1.6967c-0.0105,-0.125 -0.0561,-0.2185 -0.1354,-0.281 -0.0793,-0.0625 -0.1929,-0.0935 -0.341,-0.0935 -0.1319,0 -0.24,0.0246 -0.3241,0.0752 -0.0842,0.0499 -0.1263,0.123 -0.1263,0.2192 0,0.085 0.0329,0.1483 0.0976,0.189 0.0652,0.0415 0.1886,0.0823 0.3711,0.1237 0.1621,0.0372 0.2939,0.0738 0.3971,0.111 0.1024,0.0373 0.1901,0.0948 0.2631,0.1743 0.0723,0.0787 0.1088,0.1847 0.1088,0.3176 0,0.1679 -0.0674,0.307 -0.2028,0.4194 -0.1347,0.1118 -0.3101,0.1672 -0.5248,0.1672 -0.2603,0 -0.4603,-0.0547 -0.5985,-0.1658 -0.1382,-0.1103 -0.2161,-0.2761 -0.2344,-0.4967l0.247 -0.0246c0,0.1272 0.0505,0.2353 0.1523,0.3231 0.101,0.0879 0.2427,0.1315 0.4252,0.1315 0.1438,0 0.2616,-0.0303 0.3521,-0.0914 0.0913,-0.0611 0.1369,-0.1433 0.1369,-0.2459 0,-0.0745 -0.021,-0.1327 -0.0646,-0.1764 -0.0434,-0.0428 -0.0996,-0.0765 -0.1683,-0.0998 -0.0695,-0.0232 -0.1944,-0.0575 -0.3754,-0.1025 -0.2561,-0.0633 -0.4253,-0.1391 -0.508,-0.227 -0.0821,-0.0878 -0.1228,-0.1904 -0.1228,-0.3084 0,-0.1602 0.0624,-0.2916 0.188,-0.3935 0.1249,-0.1011 0.2926,-0.1517 0.5024,-0.1517 0.2182,0 0.3929,0.0513 0.5241,0.1538 0.132,0.1033 0.2014,0.2488 0.2098,0.4363l-0.2491 0.0169zm-0.4251 1.9182c0.4083,0 0.7599,-0.1468 1.0552,-0.4413 0.2954,-0.2944 0.4434,-0.6457 0.4434,-1.0553 0,-0.2656 -0.0673,-0.5151 -0.2013,-0.7476 -0.1348,-0.2325 -0.3179,-0.4167 -0.5501,-0.5509 -0.2323,-0.1348 -0.4813,-0.2016 -0.7472,-0.2016 -0.4112,0 -0.7634,0.1475 -1.0574,0.4427 -0.294,0.2951 -0.4413,0.6478 -0.4413,1.0574 0,0.4096 0.148,0.7609 0.4434,1.0553 0.2953,0.2945 0.6469,0.4413 1.0553,0.4413zm0 -3.2622c0.3135,0 0.6076,0.0793 0.8805,0.2374 0.2737,0.1588 0.4891,0.3745 0.6469,0.6479 0.1572,0.2725 0.2364,0.5662 0.2364,0.8803 0,0.3134 -0.0792,0.6064 -0.2378,0.8789 -0.1578,0.2734 -0.3739,0.4891 -0.6476,0.6465 -0.273,0.1581 -0.5662,0.2368 -0.8784,0.2368 -0.3123,0 -0.6055,-0.0787 -0.8785,-0.2368 -0.2737,-0.1574 -0.4898,-0.3731 -0.6476,-0.6465 -0.1586,-0.2725 -0.2379,-0.5655 -0.2379,-0.8789 0,-0.3141 0.0793,-0.6078 0.2365,-0.8818 0.1578,-0.274 0.3732,-0.4897 0.6469,-0.6471 0.2729,-0.1581 0.567,-0.2367 0.8806,-0.2367z"/>
 </g>
</svg>
