<?xml version="1.0" encoding="UTF-8"?>
<!DOCTYPE svg PUBLIC "-//W3C//DTD SVG 1.1//EN" "http://www.w3.org/Graphics/SVG/1.1/DTD/svg11.dtd">
<!-- Creator: CorelDRAW -->
<svg xmlns="http://www.w3.org/2000/svg" xml:space="preserve" width="4.2332mm" height="4.2332mm" style="shape-rendering:geometricPrecision; text-rendering:geometricPrecision; image-rendering:optimizeQuality; fill-rule:evenodd; clip-rule:evenodd"
viewBox="0 0 4.2332 4.2332"
 xmlns:xlink="http://www.w3.org/1999/xlink">
 <defs>
  <style type="text/css">
   <![CDATA[
    .fil0 {fill:black;fill-rule:nonzero}
   ]]>
  </style>
 </defs>
 <g id="Capa_x0020_1">
  <metadata id="CorelCorpID_0Corel-Layer"/>
  <path class="fil0" d="M2.9635 2.8105c-0.2504,0.2059 -0.5206,0.3084 -0.8097,0.3084 -0.3002,0 -0.5423,-0.092 -0.7255,-0.2754 -0.1837,-0.1841 -0.2757,-0.4286 -0.2757,-0.7329 0,-0.2894 0.0835,-0.5326 0.2505,-0.7278 0.1676,-0.1953 0.4105,-0.293 0.7297,-0.293 0.2196,0 0.3957,0.0485 0.5298,0.1461 0.1332,0.097 0.2237,0.2424 0.27,0.4364l-0.2301 0.0639c-0.0399,-0.1419 -0.1067,-0.2481 -0.2013,-0.3197 -0.0948,-0.071 -0.2175,-0.1068 -0.3684,-0.1068 -0.2365,0 -0.4154,0.0731 -0.5354,0.2191 -0.1199,0.1462 -0.1796,0.3346 -0.1796,0.565 0,0.2705 0.0688,0.47 0.2063,0.5993 0.1382,0.1287 0.3087,0.1933 0.5129,0.1933 0.2126,0 0.4041,-0.0682 0.574,-0.2059l0 -0.3639 -0.5782 0 0 -0.2306 0.8307 0 0 0.7245zm-0.8468 0.8045c0.4083,0 0.7599,-0.1468 1.0552,-0.4413 0.2954,-0.2944 0.4434,-0.6457 0.4434,-1.0553 0,-0.2656 -0.0673,-0.5151 -0.2013,-0.7476 -0.1348,-0.2325 -0.3179,-0.4167 -0.5501,-0.5509 -0.2323,-0.1348 -0.4813,-0.2016 -0.7472,-0.2016 -0.4112,0 -0.7634,0.1475 -1.0574,0.4427 -0.294,0.2951 -0.4413,0.6478 -0.4413,1.0574 0,0.4096 0.148,0.7609 0.4434,1.0553 0.2953,0.2945 0.6469,0.4413 1.0553,0.4413zm0 -3.2623c0.3135,0 0.6076,0.0794 0.8805,0.2375 0.2737,0.1588 0.4891,0.3745 0.6469,0.6479 0.1572,0.2725 0.2364,0.5662 0.2364,0.8803 0,0.3134 -0.0792,0.6064 -0.2378,0.8789 -0.1578,0.2734 -0.3739,0.4891 -0.6476,0.6465 -0.273,0.1581 -0.5662,0.2367 -0.8784,0.2367 -0.3123,0 -0.6055,-0.0786 -0.8785,-0.2367 -0.2737,-0.1574 -0.4898,-0.3731 -0.6476,-0.6465 -0.1586,-0.2725 -0.2379,-0.5655 -0.2379,-0.8789 0,-0.3141 0.0793,-0.6078 0.2365,-0.8818 0.1578,-0.274 0.3732,-0.4897 0.6469,-0.6471 0.2729,-0.1581 0.567,-0.2368 0.8806,-0.2368z"/>
 </g>
</svg>
