<?xml version="1.0" encoding="UTF-8"?>
<!DOCTYPE svg PUBLIC "-//W3C//DTD SVG 1.1//EN" "http://www.w3.org/Graphics/SVG/1.1/DTD/svg11.dtd">
<!-- Creator: CorelDRAW -->
<svg xmlns="http://www.w3.org/2000/svg" xml:space="preserve" width="4.2332mm" height="4.2332mm" style="shape-rendering:geometricPrecision; text-rendering:geometricPrecision; image-rendering:optimizeQuality; fill-rule:evenodd; clip-rule:evenodd"
viewBox="0 0 4.2332 4.2332"
 xmlns:xlink="http://www.w3.org/1999/xlink">
 <defs>
  <style type="text/css">
   <![CDATA[
    .fil0 {fill:black;fill-rule:nonzero}
   ]]>
  </style>
 </defs>
 <g id="Capa_x0020_1">
  <metadata id="CorelCorpID_0Corel-Layer"/>
  <path class="fil0" d="M2.5545 2.7302c0.155,-0.1391 0.2323,-0.3484 0.2323,-0.628 0,-0.2481 -0.0632,-0.4427 -0.1888,-0.5825 -0.1263,-0.1398 -0.287,-0.2101 -0.4813,-0.2101 -0.193,0 -0.3529,0.0674 -0.4799,0.203 -0.1271,0.135 -0.1903,0.3316 -0.1903,0.5896 0,0.2704 0.0661,0.47 0.1972,0.5993 0.132,0.1285 0.2891,0.1932 0.473,0.1932 0.0988,0 0.1873,-0.0169 0.2651,-0.0513 -0.0876,-0.0562 -0.1732,-0.0941 -0.2567,-0.1132l0.0638 -0.1897c0.1586,0.0464 0.2806,0.1097 0.3656,0.1897zm0.5346 0.3289l-0.0765 0.177c-0.1887,-0.0723 -0.3277,-0.1524 -0.4168,-0.2403 -0.1466,0.0823 -0.308,0.123 -0.4834,0.123 -0.2729,0 -0.496,-0.0941 -0.67,-0.2838 -0.1741,-0.1897 -0.261,-0.4336 -0.261,-0.7328 0,-0.298 0.0855,-0.5411 0.2568,-0.7301 0.1711,-0.1883 0.3978,-0.2824 0.6785,-0.2824 0.2771,0 0.5023,0.0927 0.677,0.2789 0.1747,0.1854 0.2625,0.43 0.2625,0.7336 0,0.3224 -0.099,0.5796 -0.2962,0.7721 0.0934,0.0682 0.2028,0.13 0.3291,0.1848zm-0.9724 0.5558c0.4083,0 0.7599,-0.1468 1.0552,-0.4413 0.2954,-0.2944 0.4434,-0.6457 0.4434,-1.0553 0,-0.2656 -0.0673,-0.5151 -0.2013,-0.7476 -0.1348,-0.2325 -0.3179,-0.4167 -0.5501,-0.5509 -0.2323,-0.1348 -0.4813,-0.2016 -0.7472,-0.2016 -0.4112,0 -0.7634,0.1475 -1.0574,0.4427 -0.294,0.2951 -0.4413,0.6478 -0.4413,1.0574 0,0.4096 0.148,0.7609 0.4434,1.0553 0.2953,0.2945 0.6469,0.4413 1.0553,0.4413zm0 -3.2622c0.3135,0 0.6076,0.0793 0.8805,0.2374 0.2737,0.1588 0.4891,0.3745 0.6469,0.6479 0.1572,0.2725 0.2364,0.5662 0.2364,0.8803 0,0.3134 -0.0792,0.6064 -0.2378,0.8789 -0.1578,0.2734 -0.3739,0.4891 -0.6476,0.6465 -0.273,0.1581 -0.5662,0.2368 -0.8784,0.2368 -0.3123,0 -0.6055,-0.0787 -0.8785,-0.2368 -0.2737,-0.1574 -0.4898,-0.3731 -0.6476,-0.6465 -0.1586,-0.2725 -0.2379,-0.5655 -0.2379,-0.8789 0,-0.3141 0.0793,-0.6078 0.2365,-0.8818 0.1578,-0.274 0.3732,-0.4897 0.6469,-0.6471 0.2729,-0.1581 0.567,-0.2367 0.8806,-0.2367z"/>
 </g>
</svg>
