<?xml version="1.0" encoding="UTF-8"?>
<!DOCTYPE svg PUBLIC "-//W3C//DTD SVG 1.1//EN" "http://www.w3.org/Graphics/SVG/1.1/DTD/svg11.dtd">
<!-- Creator: CorelDRAW -->
<svg xmlns="http://www.w3.org/2000/svg" xml:space="preserve" width="4.2332mm" height="4.2332mm" style="shape-rendering:geometricPrecision; text-rendering:geometricPrecision; image-rendering:optimizeQuality; fill-rule:evenodd; clip-rule:evenodd"
viewBox="0 0 4.2332 4.2332"
 xmlns:xlink="http://www.w3.org/1999/xlink">
 <defs>
  <style type="text/css">
   <![CDATA[
    .fil0 {fill:black;fill-rule:nonzero}
   ]]>
  </style>
 </defs>
 <g id="Capa_x0020_1">
  <metadata id="CorelCorpID_0Corel-Layer"/>
  <path class="fil0" d="M2.1167 0.3527c0.3135,0 0.6076,0.0794 0.8805,0.2375 0.2737,0.1588 0.4891,0.3745 0.6469,0.6479 0.1572,0.2725 0.2364,0.5662 0.2364,0.8803 0,0.3134 -0.0792,0.6064 -0.2378,0.8789 -0.1578,0.2734 -0.3739,0.4891 -0.6476,0.6465 -0.273,0.1581 -0.5662,0.2367 -0.8784,0.2367 -0.3123,0 -0.6055,-0.0786 -0.8785,-0.2367 -0.2737,-0.1574 -0.4898,-0.3731 -0.6476,-0.6465 -0.1586,-0.2725 -0.2379,-0.5655 -0.2379,-0.8789 0,-0.3141 0.0793,-0.6078 0.2365,-0.8818 0.1578,-0.274 0.3732,-0.4897 0.6469,-0.6471 0.2729,-0.1581 0.567,-0.2368 0.8806,-0.2368zm0 3.2623c0.4083,0 0.7599,-0.1468 1.0552,-0.4413 0.2954,-0.2944 0.4434,-0.6457 0.4434,-1.0553 0,-0.2656 -0.0673,-0.5151 -0.2013,-0.7476 -0.1348,-0.2325 -0.3179,-0.4167 -0.5501,-0.5509 -0.2323,-0.1348 -0.4813,-0.2016 -0.7472,-0.2016 -0.4112,0 -0.7634,0.1475 -1.0574,0.4427 -0.294,0.2951 -0.4413,0.6478 -0.4413,1.0574 0,0.4096 0.148,0.7609 0.4434,1.0553 0.2953,0.2945 0.6469,0.4413 1.0553,0.4413zm0.4623 -1.5767c0.1235,0.0387 0.2154,0.1005 0.2758,0.1855 0.0603,0.085 0.0905,0.1827 0.0905,0.2922 0,0.1441 -0.0512,0.2748 -0.1537,0.3921 -0.1017,0.1174 -0.2946,0.1764 -0.5781,0.1764l-0.7487 0 0 -1.9603 0.736 0c0.2301,0 0.3957,0.0513 0.4968,0.1525 0.1003,0.1019 0.1508,0.2185 0.1508,0.3498 0,0.1842 -0.0898,0.3212 -0.2694,0.4118zm-0.8531 -0.0928l0.4237 0c0.1796,0 0.2989,-0.0253 0.3578,-0.0766 0.059,-0.052 0.0884,-0.1229 0.0884,-0.2136 0,-0.0927 -0.0294,-0.1665 -0.0877,-0.2199 -0.0582,-0.0533 -0.1886,-0.08 -0.3914,-0.08l-0.3908 0 0 0.5901zm0 0.9078l0.4876 0c0.1698,0 0.289,-0.0294 0.3586,-0.0892 0.0694,-0.0597 0.1038,-0.1426 0.1038,-0.2481 0,-0.1067 -0.0358,-0.1904 -0.1081,-0.2493 -0.0715,-0.0591 -0.2014,-0.0886 -0.3873,-0.0886l-0.4546 0 0 0.6752z"/>
 </g>
</svg>
