<?xml version="1.0" encoding="UTF-8"?>
<!DOCTYPE svg PUBLIC "-//W3C//DTD SVG 1.1//EN" "http://www.w3.org/Graphics/SVG/1.1/DTD/svg11.dtd">
<!-- Creator: CorelDRAW -->
<svg xmlns="http://www.w3.org/2000/svg" xml:space="preserve" width="4.2332mm" height="4.2332mm" style="shape-rendering:geometricPrecision; text-rendering:geometricPrecision; image-rendering:optimizeQuality; fill-rule:evenodd; clip-rule:evenodd"
viewBox="0 0 4.2332 4.2332"
 xmlns:xlink="http://www.w3.org/1999/xlink">
 <defs>
  <style type="text/css">
   <![CDATA[
    .fil0 {fill:black;fill-rule:nonzero}
   ]]>
  </style>
 </defs>
 <g id="Capa_x0020_1">
  <metadata id="CorelCorpID_0Corel-Layer"/>
  <path class="fil0" d="M2.5934 0.8562c0,0.0998 -0.0256,0.1751 -0.0766,0.2269 -0.051,0.051 -0.1135,0.0767 -0.1865,0.0767 -0.041,0 -0.0752,-0.0046 -0.1026,-0.0141 -0.0278,-0.0093 -0.0605,-0.0266 -0.0988,-0.0512 -0.0634,-0.0402 -0.1136,-0.0604 -0.151,-0.0604 -0.0739,0 -0.1121,0.0419 -0.1149,0.1257l-0.164 0c0,-0.0993 0.0263,-0.1745 0.0797,-0.2261 0.054,-0.0515 0.1172,-0.0775 0.1911,-0.0775 0.0579,0 0.1202,0.0209 0.1877,0.063 0.0671,0.0419 0.1223,0.0624 0.1651,0.0624 0.0617,0 0.0972,-0.0415 0.1066,-0.1254l0.1642 0zm0.2932 2.4209l-0.2659 0 -1.0234 -1.5393 -0.005 0 0 1.5393 -0.2457 0 0 -1.9608 0.2644 0 1.0231 1.5396 0.0054 0 0 -1.5396 0.2471 0 0 1.9608zm-0.77 -2.9244c0.3135,0 0.6076,0.0794 0.8805,0.2375 0.2737,0.1588 0.4891,0.3745 0.6469,0.6479 0.1572,0.2725 0.2365,0.5662 0.2365,0.8803 0,0.3134 -0.0793,0.6064 -0.2379,0.8789 -0.1578,0.2734 -0.3739,0.4891 -0.6476,0.6465 -0.273,0.1581 -0.5662,0.2367 -0.8784,0.2367 -0.3123,0 -0.6055,-0.0786 -0.8785,-0.2367 -0.2737,-0.1574 -0.4898,-0.3731 -0.6476,-0.6465 -0.1586,-0.2725 -0.2378,-0.5655 -0.2378,-0.8789 0,-0.3141 0.0792,-0.6078 0.2364,-0.8818 0.1578,-0.274 0.3732,-0.4897 0.6469,-0.6471 0.2729,-0.1581 0.567,-0.2368 0.8806,-0.2368zm0 3.2623c0.4083,0 0.7599,-0.1468 1.0552,-0.4413 0.2954,-0.2944 0.4434,-0.6457 0.4434,-1.0553 0,-0.2656 -0.0673,-0.5151 -0.2013,-0.7476 -0.1348,-0.2325 -0.3179,-0.4167 -0.5501,-0.5509 -0.2323,-0.1348 -0.4813,-0.2016 -0.7472,-0.2016 -0.4112,0 -0.7634,0.1475 -1.0574,0.4427 -0.294,0.2951 -0.4413,0.6478 -0.4413,1.0574 0,0.4096 0.148,0.7609 0.4434,1.0553 0.2953,0.2945 0.6469,0.4413 1.0553,0.4413z"/>
 </g>
</svg>
