<?xml version="1.0" encoding="UTF-8"?>
<!DOCTYPE svg PUBLIC "-//W3C//DTD SVG 1.1//EN" "http://www.w3.org/Graphics/SVG/1.1/DTD/svg11.dtd">
<!-- Creator: CorelDRAW -->
<svg xmlns="http://www.w3.org/2000/svg" xml:space="preserve" width="254mm" height="307.849mm" style="shape-rendering:geometricPrecision; text-rendering:geometricPrecision; image-rendering:optimizeQuality; fill-rule:evenodd; clip-rule:evenodd"
viewBox="0 0 254 307.849"
 xmlns:xlink="http://www.w3.org/1999/xlink">
 <defs>
  <style type="text/css">
   <![CDATA[
    .fil0 {fill:black;fill-rule:nonzero}
   ]]>
  </style>
 </defs>
 <g id="Capa_x0020_1">
  <metadata id="CorelCorpID_0Corel-Layer"/>
  <path class="fil0" d="M127.006 264.16c14.5436,0 27.8929,-3.0922 40.0535,-9.286l-80.1132 0c12.1613,6.1939 25.5122,9.2861 40.0594,9.2861l0.0003 -0.0001zm67.6226 -30.8501c5.1034,-5.6891 9.3462,-11.711 12.7274,-18.0681l-160.707 0c3.3812,6.3571 7.624,12.379 12.7274,18.0681l135.252 0zm20.6488 -39.7681c1.3466,-6.2542 2.0218,-12.7714 2.0218,-19.5546 0,-0.6563 -0.0074,-1.3108 -0.0211,-1.9639l-180.552 0c-0.0126,0.6524 -0.0202,1.3067 -0.0202,1.964 0,6.7831 0.6751,13.3003 2.0217,19.5545l176.549 0zm-1.1228 -43.2184c-1.8317,-6.6757 -4.4624,-13.154 -7.8896,-19.4298l-158.699 0c-3.4388,6.1584 -6.0613,12.6354 -7.8669,19.4298l174.455 0zm-24.1145 -40.9483c-5.3345,-5.2202 -11.3372,-9.7658 -18.0141,-13.6247 -13.9965,-8.122 -28.9993,-12.1468 -45.0202,-12.1468 -24.3529,0 -45.271,8.5871 -62.8005,25.7715l125.835 0zm-63.0341 -41.7683c18.8889,0 36.609,4.778 53.0519,14.3038 16.4909,9.568 29.4692,22.5643 38.9769,39.0371 9.4716,16.4186 14.2436,34.1145 14.2436,53.0394 0,18.8829 -4.772,36.5366 -14.3279,52.9553 -9.5077,16.4728 -22.5282,29.4691 -39.0191,38.9528 -16.4488,9.5258 -34.1146,14.2676 -52.9253,14.2676 -18.8167,0 -36.4825,-4.7418 -52.9311,-14.2676 -16.4909,-9.4836 -29.5113,-22.48 -39.0191,-38.9528 -9.5559,-16.4186 -14.3339,-34.0724 -14.3339,-52.9553 0,-18.9251 4.778,-36.621 14.2496,-53.1302 9.5077,-16.509 22.486,-29.5053 38.9769,-38.9889 16.4427,-9.5258 34.1628,-14.2616 53.0577,-14.2616l-0.0002 0.0004z"/>
 </g>
</svg>
