<?xml version="1.0" encoding="UTF-8"?>
<!DOCTYPE svg PUBLIC "-//W3C//DTD SVG 1.1//EN" "http://www.w3.org/Graphics/SVG/1.1/DTD/svg11.dtd">
<!-- Creator: CorelDRAW -->
<svg xmlns="http://www.w3.org/2000/svg" xml:space="preserve" width="254mm" height="307.849mm" style="shape-rendering:geometricPrecision; text-rendering:geometricPrecision; image-rendering:optimizeQuality; fill-rule:evenodd; clip-rule:evenodd"
viewBox="0 0 254 307.849"
 xmlns:xlink="http://www.w3.org/1999/xlink">
 <defs>
  <style type="text/css">
   <![CDATA[
    .fil0 {fill:black;fill-rule:nonzero}
   ]]>
  </style>
 </defs>
 <g id="Capa_x0020_1">
  <metadata id="CorelCorpID_0Corel-Layer"/>
  <path class="fil0" d="M91.525 161.374c0,-22.267 -8.298,-33.3581 -24.935,-33.3581 -16.34,0 -24.553,11.0911 -24.553,33.3581 0,22.0561 8.213,33.1051 24.553,33.1051 16.637,0 24.935,-11.049 24.935,-33.1051zm70.569 17.8651c0,-9.0171 -7.069,-13.5471 -21.209,-13.5471l-13.758 0 0 27.3051 15.367 0c13.081,0 19.6,-4.6141 19.6,-13.758zm-3.725 -37.4651c0,-8.2129 -6.731,-12.2771 -20.193,-12.2771l-11.049 0 0 24.0461 12.531 0c12.488,0 18.711,-3.937 18.711,-11.769zm-118.322 110.744l-40.047 0 0 -40.0471 12.404 0 0 27.643 27.643 0 0 12.4041zm71.332 0l-40.047 0 0 -12.4041 40.047 0 0 12.4041zm-98.975 -71.3321l-12.404 0 0 -40.0471 12.404 0 0 40.0471zm93.5141 -19.8121c0,14.309 -3.3871,25.4 -10.1601,33.3591 -6.773,7.916 -16.51,11.896 -29.168,11.896 -12.657,0 -22.309,-3.98 -28.956,-11.896 -6.646,-7.9591 -9.99,-19.0501 -9.99,-33.3591 0,-14.478 3.344,-25.6959 9.99,-33.6121 6.647,-7.959 16.299,-11.938 28.956,-11.938 12.658,0 22.395,3.979 29.168,11.938 6.773,7.9162 10.1601,19.1341 10.1601,33.6121zm76.7499 91.1442l-40.047 0 0 -12.4041 40.047 0 0 12.4041zm-142.621 -170.265l-27.643 0 0 27.644 -12.404 0 0 -40.0471 40.047 0 0 12.4031zm136.441 96.9862c0,17.272 -11.346,25.908 -33.994,25.908l-29.76 0 0 -87.7992 29.167 0c20.574,0 30.861,7.662 30.861,23.0711 0,7.493 -3.683,13.505 -11.049,17.95 9.864,3.81 14.775,10.752 14.775,20.8701zm77.512 73.2791l-40.047 0 0 -12.4041 27.643 0 0 -27.643 12.404 0 0 40.0471zm-142.621 -170.265l-40.047 0 0 -12.4031 40.047 0 0 12.4031zm109.643 94.4882c0,19.939 -8.72,29.888 -26.162,29.888 -7.112,0 -12.827,-1.863 -17.145,-5.588l9.06 -9.779c2.074,2.159 4.741,3.217 8.085,3.217 7.832,0 11.769,-5.7151 11.769,-17.103l0 -60.0282 14.393 0 0 59.3932zm32.978 4.445l-12.404 0 0 -40.0471 12.404 0 0 40.0471zm-71.332 -98.9332l-40.047 0 0 -12.4031 40.047 0 0 12.4031zm71.332 27.644l-12.404 0 0 -27.644 -27.643 0 0 -12.4031 40.047 0 0 40.0471z"/>
 </g>
</svg>
