<?xml version="1.0" encoding="UTF-8"?>
<!DOCTYPE svg PUBLIC "-//W3C//DTD SVG 1.1//EN" "http://www.w3.org/Graphics/SVG/1.1/DTD/svg11.dtd">
<!-- Creator: CorelDRAW -->
<svg xmlns="http://www.w3.org/2000/svg" xml:space="preserve" width="4096mm" height="4096mm" style="shape-rendering:geometricPrecision; text-rendering:geometricPrecision; image-rendering:optimizeQuality; fill-rule:evenodd; clip-rule:evenodd"
viewBox="0 0 4096 4096"
 xmlns:xlink="http://www.w3.org/1999/xlink">
 <defs>
  <style type="text/css">
   <![CDATA[
    .fil0 {fill:black;fill-rule:nonzero}
   ]]>
  </style>
 </defs>
 <g id="Capa_x0020_1">
  <metadata id="CorelCorpID_0Corel-Layer"/>
  <path class="fil0" d="M2048.12 0c363.993,0 705.462,92.1885 1022.32,275.753 317.783,184.377 567.876,434.818 751.092,752.253 182.519,316.39 274.476,657.394 274.476,1022.08 0,363.877 -91.9563,704.069 -276.101,1020.46 -183.216,317.435 -434.122,567.876 -751.905,750.628 -316.97,183.564 -657.394,274.824 -1019.88,274.824 -362.6,0 -703.024,-91.2596 -1019.99,-274.824 -317.783,-182.751 -568.689,-433.193 -751.905,-750.628 -184.145,-316.39 -276.217,-656.582 -276.217,-1020.46 0,-364.69 92.0724,-705.694 274.592,-1023.83 183.216,-318.131 433.309,-568.573 751.092,-751.324 316.854,-183.564 658.323,-274.94 1022.43,-274.94z"/>
 </g>
</svg>
