<?xml version="1.0" encoding="UTF-8"?>
<!DOCTYPE svg PUBLIC "-//W3C//DTD SVG 1.1//EN" "http://www.w3.org/Graphics/SVG/1.1/DTD/svg11.dtd">
<!-- Creator: CorelDRAW -->
<svg xmlns="http://www.w3.org/2000/svg" xml:space="preserve" width="254mm" height="307.849mm" style="shape-rendering:geometricPrecision; text-rendering:geometricPrecision; image-rendering:optimizeQuality; fill-rule:evenodd; clip-rule:evenodd"
viewBox="0 0 254 307.849"
 xmlns:xlink="http://www.w3.org/1999/xlink">
 <defs>
  <style type="text/css">
   <![CDATA[
    .fil0 {fill:black;fill-rule:nonzero}
   ]]>
  </style>
 </defs>
 <g id="Capa_x0020_1">
  <metadata id="CorelCorpID_0Corel-Layer"/>
  <path class="fil0" d="M127.006 264.16c24.6008,0 45.7853,-8.845 63.5775,-26.5891 17.7984,-17.7381 26.7157,-38.9046 26.7157,-63.5837 0,-16.0028 -4.055,-31.0356 -12.1287,-45.0441 -8.1219,-14.0086 -19.1541,-25.1069 -33.1445,-33.1927 -13.9965,-8.122 -28.9993,-12.1468 -45.0202,-12.1468 -24.7756,0 -45.9963,8.8872 -63.7104,26.6735 -17.7141,17.7803 -26.5892,39.0311 -26.5892,63.7102 0,24.6792 8.9173,45.8456 26.7157,63.5837 17.7924,17.7441 38.977,26.5891 63.5838,26.5891l0.0003 -0.0001zm0 -196.553c18.8889,0 36.609,4.778 53.0519,14.3038 16.4909,9.568 29.4692,22.5643 38.9769,39.0371 9.4716,16.4186 14.2436,34.1145 14.2436,53.0394 0,18.8829 -4.772,36.5366 -14.3279,52.9553 -9.5077,16.4728 -22.5282,29.4691 -39.0191,38.9528 -16.4488,9.5258 -34.1146,14.2676 -52.9253,14.2676 -18.8167,0 -36.4825,-4.7418 -52.9311,-14.2676 -16.4909,-9.4836 -29.5113,-22.48 -39.0191,-38.9528 -9.5559,-16.4186 -14.3339,-34.0724 -14.3339,-52.9553 0,-18.9251 4.778,-36.621 14.2496,-53.1302 9.5077,-16.509 22.486,-29.5053 38.9769,-38.9889 16.4427,-9.5258 34.1628,-14.2616 53.0577,-14.2616l-0.0002 0.0004zm-47.3314 201.675l-32.997 -25.7289c-2.5706,1.2608 -5.0945,2.5215 -7.6183,3.7357 -2.4772,1.2607 -4.9543,2.4747 -7.4313,3.6421l-3.9728 -1.6343 -1.9163 -8.0782 3.4119 -3.1286 -0.9348 -2.4748 -6.59 -0.1401 -1.9163 -4.3894 -1.2151 -13.5415 6.8237 -5.043 0.7011 -5.0897 9.8617 -10.7865c18.3213,-7.6581 37.998,-15.3628 58.9834,-23.1141l48.8879 -17.6506c11.2171,-3.8291 22.4811,-7.6113 33.6982,-11.3002 11.2171,-3.6889 22.5277,-7.1911 33.9317,-10.4598l12.4791 -3.5487c2.1966,-0.5603 5.5618,-1.3542 10.1421,-2.4749 2.9913,2.755 4.7673,7.2378 5.3281,13.5416l-3.4118 2.4748 2.851 6.7241 3.4586 0.7937 1.6359 10.5532 -2.0565 0.9338c0.5608,1.6343 0.888,3.6423 1.075,6.0237l-2.851 2.0545 2.3368 5.6035 2.9913 0.8405 1.3553 8.872 -5.8889 2.755 -0.5142 1.9145c-4.5803,1.4476 -7.5248,2.3814 -8.9269,2.7083l-13.9747 4.5294c-8.7399,2.8484 -17.4332,5.8369 -25.9863,9.0122 -8.5998,3.2218 -17.0126,6.7241 -25.1917,10.553l-32.3428 13.6816c0.2804,0 0.5608,-0.0467 0.7478,-0.1868 0.2337,-0.14 0.5141,-0.2802 0.7945,-0.3736l35.9883 -12.9811c7.3846,-2.4749 14.7692,-4.9496 22.2006,-7.4713 7.3846,-2.4747 14.8159,-4.8562 22.294,-7.0508l14.2551 -4.1092c3.4586,-0.8872 6.076,-1.5409 7.8053,-1.9145 2.2901,2.0079 3.5988,5.3699 3.9727,9.9927l-2.4771 1.7744 2.0564 4.9497 2.6174 0.7004 1.0749 7.7981 -5.0477 2.288 -0.5608 1.6343c-4.3933,1.4009 -8.74,2.755 -12.9932,4.1092l-37.9512 13.4014c-4.5336,1.8678 -9.0673,3.7823 -13.5541,5.7902l-37.7643 16.1098c-1.1217,0.3735 -1.9163,0.7004 -2.3368,0.9806l-26.594 11.4869c-6.5433,2.9885 -13.1334,6.1638 -19.7235,9.4324l-2.851 -1.2141 -1.3554 -5.8835 2.4304 -2.3348 -0.6543 -1.9144 -4.8141 -0.1402 -1.4955 -3.1285 -0.2805 -4.1092zm-0.7066 -18.761c0.7479,0.467 1.6165,1.1388 2.2682,1.4945 0.6877,0.3753 1.449,0.7471 2.2902,1.1207l0.7203 -5.189c-1.1684,0.5603 -3.082,1.4531 -5.2787,2.5738zm67.773 -69.3732l49.4428 -19.7755 -102.748 36.0874c13.8588,-3.1579 24.5179,-8.6112 38.6272,-10.0732 2.3715,-0.2457 7.9903,0.6937 14.6784,-6.2387z"/>
 </g>
</svg>
