<?xml version="1.0" encoding="UTF-8"?>
<!DOCTYPE svg PUBLIC "-//W3C//DTD SVG 1.1//EN" "http://www.w3.org/Graphics/SVG/1.1/DTD/svg11.dtd">
<!-- Creator: CorelDRAW -->
<svg xmlns="http://www.w3.org/2000/svg" xml:space="preserve" width="4096mm" height="4096mm" style="shape-rendering:geometricPrecision; text-rendering:geometricPrecision; image-rendering:optimizeQuality; fill-rule:evenodd; clip-rule:evenodd"
viewBox="0 0 4096 4096"
 xmlns:xlink="http://www.w3.org/1999/xlink">
 <defs>
  <style type="text/css">
   <![CDATA[
    .fil0 {fill:black;fill-rule:nonzero}
   ]]>
  </style>
 </defs>
 <g id="Capa_x0020_1">
  <metadata id="CorelCorpID_0Corel-Layer"/>
  <path class="fil0" d="M2048.12 3787.74c382.57,0 722.414,-111.23 1019.65,-333.806 -9.8691,-2.5543 -29.4911,-10.6818 -58.6338,-25.3112 -35.9929,-17.1837 -76.1657,-52.3639 -121.215,-105.657 -41.7983,-55.6149 -82.6677,-86.8475 -124.466,-93.3495 -24.6146,-13.12 -38.5473,-22.0602 -43.4238,-28.6782 -52.4801,-63.8585 -101.593,-104.844 -146.642,-122.841 -22.1763,-10.6818 -40.1728,-31.1165 -54.9183,-59.7948l-261.239 -446.545c-144.204,123.769 -314.648,294.097 -511.216,511.216 -194.13,220.486 -357.375,391.743 -489.621,515.628 239.644,126.208 503.437,189.137 791.729,189.137zm1045.77 -353.776c61.5364,-47.9519 121.447,-100.896 179.384,-158.601 342.978,-341.817 514.816,-749.699 514.816,-1225.27 0,-308.379 -78.1396,-598.064 -233.722,-868.011 -46.5586,-80.2295 -97.9938,-155.583 -154.538,-225.943l-13.0039 19.8542 -203.999 321.963c-102.406,169.631 -184.261,297.348 -246.494,383.383 -48.4164,63.8585 -82.7839,117.151 -104.96,158.95 -21.2475,41.7983 -31.9292,88.4731 -31.9292,141.65 0,117.964 34.4835,272.037 103.218,460.478 68.8511,189.137 156.511,363.645 263.794,525.846 68.851,99.1548 103.218,154.886 103.218,168.006l-14.7455 28.6783c-12.3073,22.0602 -18.8092,42.611 -18.8092,59.7948 0,4.8764 3.251,19.6219 9.869,43.4237 -90.2146,49.113 -138.515,77.7913 -145.83,83.4805 -6.618,6.6181 -10.6818,27.0528 -10.6818,60.6075l4.4121 21.7119zm7.8952 -2767.98c-58.7498,-44.5848 -120.751,-85.8026 -186.119,-123.537 -259.846,-150.822 -537.805,-228.265 -833.876,-233.722 26.7044,25.4273 54.5699,55.0344 83.5965,88.9375 115.526,134.335 253.112,396.503 412.874,787.201 63.9746,-49.9257 127.02,-107.282 190.066,-172.766l266.232 -273.663 67.2256 -72.4504zm-1378.3 -329.394c-340.888,61.4202 -641.836,223.389 -903.075,485.789 -341.353,342.63 -512.377,752.137 -512.377,1227.71 0,475.572 171.837,883.453 514.816,1225.27 128.181,127.833 265.419,231.516 411.945,311.513l0 -37.7346c-13.1201,-26.24 -31.1165,-55.731 -53.1768,-89.2858 -13.12,-17.2998 -22.1763,-38.5473 -28.6782,-62.3491 -8.2436,-30.3037 -24.6146,-48.3002 -50.8546,-54.8022 -10.5657,0 -22.0602,-11.4945 -33.5548,-33.6708 -9.0562,-30.3038 -24.6145,-50.7385 -45.0492,-60.6075 -26.2401,-8.9402 -38.5473,-20.4348 -38.5473,-33.5548 0,-2.4382 3.3671,-17.9965 9.869,-45.0493 -9.869,-19.6219 -14.7455,-33.5547 -14.7455,-43.4237 0,-41.7983 204.812,-293.285 614.435,-756.085 179.384,-206.437 329.278,-388.376 451.305,-547.209l-249.861 -1005.13c-58.982,-236.741 -88.4731,-363.761 -88.4731,-379.32 0,-37.154 5.457,-71.2893 16.0227,-102.057zm1590.42 103.683c29.1427,-30.4198 50.7385,-52.5961 64.7874,-66.2967 44.2365,-43.4238 94.975,-64.7873 152.331,-64.7873 63.8585,0 119.59,31.9292 165.452,96.7166 46.6748,64.6712 69.6638,121.215 69.6638,169.515l0 18.8093c-18.9253,6.618 -36.9218,9.869 -52.4801,9.869 -65.7162,9.1724 -107.863,41.1017 -125.859,95.7878 87.312,100.084 165.219,209.34 233.722,328.117 182.519,316.39 274.476,657.394 274.476,1022.08 0,363.877 -91.9563,704.069 -276.101,1020.46 -183.216,317.435 -434.122,567.876 -751.905,750.628 -316.97,183.564 -657.394,274.824 -1019.88,274.824 -362.6,0 -703.024,-91.2596 -1019.99,-274.824 -317.783,-182.751 -568.689,-433.193 -751.905,-750.628 -184.145,-316.39 -276.217,-656.582 -276.217,-1020.46 0,-364.69 92.0724,-705.694 274.592,-1023.83 183.216,-318.131 433.309,-568.573 751.092,-751.324 316.854,-183.564 658.323,-274.94 1022.43,-274.94 363.993,0 705.462,92.1885 1022.32,275.753 86.1509,49.9258 167.309,104.844 243.475,164.523z"/>
 </g>
</svg>
