<?xml version="1.0" encoding="UTF-8"?>
<!DOCTYPE svg PUBLIC "-//W3C//DTD SVG 1.1//EN" "http://www.w3.org/Graphics/SVG/1.1/DTD/svg11.dtd">
<!-- Creator: CorelDRAW -->
<svg xmlns="http://www.w3.org/2000/svg" xml:space="preserve" width="254mm" height="307.849mm" style="shape-rendering:geometricPrecision; text-rendering:geometricPrecision; image-rendering:optimizeQuality; fill-rule:evenodd; clip-rule:evenodd"
viewBox="0 0 254 307.849"
 xmlns:xlink="http://www.w3.org/1999/xlink">
 <defs>
  <style type="text/css">
   <![CDATA[
    .fil0 {fill:black;fill-rule:nonzero}
   ]]>
  </style>
 </defs>
 <g id="Capa_x0020_1">
  <metadata id="CorelCorpID_0Corel-Layer"/>
  <path class="fil0" d="M127.006 67.6065c18.8889,0 36.609,4.7779 53.052,14.3037 4.7682,2.7665 9.2421,5.8203 13.4239,9.1611 1.9216,-1.8998 4.0071,-3.6848 6.1915,-5.0042 4.9554,-2.8027 11.2665,-5.2782 19.0266,-7.3803 8.5083,-2.1021 17.2503,-3.4566 26.1792,-4.1104 2.3864,0.1836 2.599,2.5236 1.075,5.6052 -10.3715,11.4664 -20.5722,23.0955 -30.5366,34.9194 1.2569,1.8976 2.4629,3.8462 3.6173,5.8463 9.4716,16.4186 14.2435,34.1145 14.2435,53.0395 0,18.8829 -4.772,36.5367 -14.3279,52.9554 -9.5077,16.4729 -22.5282,29.4691 -39.0191,38.9528 -16.4488,9.5258 -34.1146,14.2676 -52.9253,14.2676 -9.2193,0 -18.1622,-1.139 -26.8212,-3.4206l-0.6001 0.7888c-5.2357,4.1104 -11.8274,6.1657 -19.8682,6.1657 -6.1238,0 -10.0508,-0.5136 -11.7805,-1.4948 -2.1972,-1.2143 -4.2541,-3.7835 -6.1707,-7.8006 -2.945,-5.5114 -5.5164,-11.4903 -7.807,-18.0766l-2.2074 -7.482c-6.422,-6.4456 -11.9891,-13.7468 -16.6951,-21.9003 -9.5559,-16.4186 -14.3339,-34.0724 -14.3339,-52.9554 0,-18.9251 4.778,-36.621 14.2496,-53.1303 9.5077,-16.509 22.486,-29.5053 38.9769,-38.9889 16.4427,-9.5258 34.1628,-14.2616 53.0577,-14.2616l-0.0002 0.0005zm-82.4041 143.516c0.2161,-0.7995 0.4998,-1.5201 0.8482,-2.1615 0.7482,-1.3545 2.6178,-3.1293 5.6098,-5.3247 3.6932,-2.3821 7.6666,-4.3909 11.9208,-6.0258 4.1138,-1.5412 7.9004,-2.3353 11.4068,-2.3353 2.431,0 5.5628,4.9514 9.303,14.8071 0.1868,0.8874 0.4206,1.6346 0.7947,2.1951 0,0.2335 0.2337,0.8409 0.7012,1.7751 3.1788,9.482 6.0304,14.1998 8.5083,14.1998 1.9166,0 9.5364,-10.6967 22.8597,-32.1366 13.23,-21.2527 26.8336,-41.4783 40.8117,-60.6294 9.0224,-12.3313 17.3903,-23.028 25.057,-32.1362l0.3235 -0.3659c-3.3572,-2.631 -6.93,-5.0434 -10.7206,-7.2341 -13.9965,-8.1219 -28.9992,-12.1468 -45.0202,-12.1468 -24.7755,0 -45.9963,8.8872 -63.7104,26.6735 -17.714,17.7803 -26.5891,39.0311 -26.5891,63.7103 0,13.4115 2.6345,25.7852 7.8956,37.1354zm160.029 -83.0973l-1.5451 1.8559c-11.1262,13.6862 -21.7848,27.372 -32.0228,41.0581 -22.5794,30.0814 -42.1669,59.5085 -58.9029,88.235 -0.3094,0.4947 -0.9672,1.6649 -1.9864,3.51 5.4208,0.9838 11.0311,1.4758 16.8319,1.4758l0.0002 -0.0001 0 0c24.6008,0 45.7854,-8.845 63.5776,-26.5891 17.7983,-17.7381 26.7156,-38.9046 26.7156,-63.5838 0,-16.0029 -4.0549,-31.0357 -12.1286,-45.0442 -0.1782,-0.3074 -0.3584,-0.613 -0.5395,-0.9176z"/>
 </g>
</svg>
