<?xml version="1.0" encoding="UTF-8"?>
<!DOCTYPE svg PUBLIC "-//W3C//DTD SVG 1.1//EN" "http://www.w3.org/Graphics/SVG/1.1/DTD/svg11.dtd">
<!-- Creator: CorelDRAW -->
<svg xmlns="http://www.w3.org/2000/svg" xml:space="preserve" width="254mm" height="307.849mm" style="shape-rendering:geometricPrecision; text-rendering:geometricPrecision; image-rendering:optimizeQuality; fill-rule:evenodd; clip-rule:evenodd"
viewBox="0 0 254 307.849"
 xmlns:xlink="http://www.w3.org/1999/xlink">
 <defs>
  <style type="text/css">
   <![CDATA[
    .fil0 {fill:black;fill-rule:nonzero}
   ]]>
  </style>
 </defs>
 <g id="Capa_x0020_1">
  <metadata id="CorelCorpID_0Corel-Layer"/>
  <path class="fil0" d="M127.006 264.166c24.6008,0 45.7853,-8.8449 63.5775,-26.589 17.7984,-17.7381 26.7157,-38.9045 26.7157,-63.5837 0,-16.0029 -4.0549,-31.0356 -12.1287,-45.0441 -1.8719,-3.2319 -3.8968,-6.3064 -6.0785,-9.2249 -6.2846,8.4147 -12.6606,17.7073 -19.1304,27.8785 -17.185,27.0168 -30.8173,53.2074 -40.897,78.5304 -4.7919,11.6495 -7.8489,18.4656 -9.2121,20.4898 -1.3632,1.9829 -3.47,3.8832 -6.2791,5.6182 -2.8504,1.735 -8.6338,2.6025 -17.4329,2.6025 -6.9401,0 -11.4016,-0.4544 -13.3018,-1.2806 -1.9416,-0.8675 -3.4288,-1.7763 -4.5028,-2.7264 -1.0328,-0.9502 -4.0071,-5.1638 -8.9643,-12.5996 -5.0811,-7.8076 -12.4343,-17.0611 -22.1422,-27.7191 -5.5769,-6.1139 -8.3446,-11.2363 -8.3446,-15.3673 0,-5.9487 3.1808,-11.1537 9.5013,-15.6152 6.3204,-4.4202 11.9386,-6.6509 16.7719,-6.6509 5.329,0 10.9884,2.1894 17.061,6.4856 6.0313,4.3376 11.4842,10.0797 16.3175,17.2676 5.9073,-12.3517 12.9301,-25.9014 21.0681,-40.6904 8.1381,-14.7477 17.3916,-29.4954 27.6778,-44.1604 4.7802,-6.8343 8.9533,-12.5885 12.5285,-17.2763 -13.3612,-7.2872 -27.626,-10.9008 -42.8051,-10.9008 -24.7755,0 -45.9963,8.8871 -63.7104,26.6734 -17.714,17.7803 -26.5891,39.031 -26.5891,63.7102 0,24.6792 8.9173,45.8456 26.7157,63.5837 17.7924,17.7441 38.9769,26.589 63.5838,26.589l0.0002 -0.0002zm53.2755 -182.119c4.4972,-4.5604 8.3041,-8.1981 11.4948,-10.95 3.2635,-2.8091 9.0469,-4.8746 17.3502,-6.1552 8.3033,-1.2807 14.6238,-1.9416 18.8787,-1.9416 2.8091,0 5.1638,0.8675 6.9401,2.6025 1.8177,1.735 2.7265,4.0071 2.7265,6.8575 0,2.1481 -0.4957,4.0484 -1.5698,5.6182 -1.0328,1.5697 -3.2222,3.9244 -6.527,7.064 -6.6537,6.1179 -13.4159,13.3211 -20.2896,21.6082 3.5781,4.4065 6.8292,9.141 9.7492,14.2037 9.4716,16.4187 14.2436,34.1145 14.2436,53.0394 0,18.8829 -4.772,36.5366 -14.3279,52.9553 -9.5077,16.4729 -22.5282,29.4691 -39.0191,38.9528 -16.4488,9.5258 -34.1146,14.2616 -52.9253,14.2616 -18.8167,0 -36.4825,-4.7358 -52.9311,-14.2616 -16.4909,-9.4836 -29.5113,-22.4799 -39.0191,-38.9528 -9.5559,-16.4186 -14.3339,-34.0723 -14.3339,-52.9553 0,-18.9251 4.778,-36.6209 14.2496,-53.1302 9.5077,-16.509 22.486,-29.5052 38.9769,-38.9889 16.4427,-9.5258 34.1628,-14.2676 53.0577,-14.2676 18.8889,0 36.609,4.784 53.0519,14.3098l0.2236 0.1302z"/>
 </g>
</svg>
