<?xml version="1.0" encoding="UTF-8"?>
<!DOCTYPE svg PUBLIC "-//W3C//DTD SVG 1.1//EN" "http://www.w3.org/Graphics/SVG/1.1/DTD/svg11.dtd">
<!-- Creator: CorelDRAW -->
<svg xmlns="http://www.w3.org/2000/svg" xml:space="preserve" width="254mm" height="307.849mm" style="shape-rendering:geometricPrecision; text-rendering:geometricPrecision; image-rendering:optimizeQuality; fill-rule:evenodd; clip-rule:evenodd"
viewBox="0 0 254 307.849"
 xmlns:xlink="http://www.w3.org/1999/xlink">
 <defs>
  <style type="text/css">
   <![CDATA[
    .fil0 {fill:black}
   ]]>
  </style>
 </defs>
 <g id="Capa_x0020_1">
  <metadata id="CorelCorpID_0Corel-Layer"/>
  <path class="fil0" d="M125.299 162.889l-14.0133 -56.9569c-0.6027,-1.8458 -0.904,-3.5033 -0.904,-4.9724 0,-4.4074 1.2807,-8.1744 3.767,-11.2633 2.4862,-3.089 5.3114,-4.6334 8.4003,-4.6334 5.5752,0 11.414,3.88 17.5166,11.64 6.1402,7.76 11.7153,18.1192 16.8008,31.0777 1.3937,-1.0925 7.4963,-7.5717 18.3075,-19.4377 2.2091,-2.4057 4.2297,-4.5786 6.0614,-6.5173 -2.9128,-2.1843 -5.982,-4.2101 -9.209,-6.0751 -13.9965,-8.122 -28.9993,-12.1468 -45.0202,-12.1468 -24.7756,0 -45.9963,8.8872 -63.7104,26.6735 -17.7141,17.7803 -26.5892,39.0311 -26.5892,63.7102 0,24.6792 8.9173,45.8456 26.7157,63.5837 17.7924,17.7441 38.977,26.5891 63.5838,26.5891l0.0003 -0.0001c24.6008,0 45.7853,-8.845 63.5775,-26.5891 17.7984,-17.7381 26.7157,-38.9046 26.7157,-63.5837 0,-16.0028 -4.055,-31.0356 -12.1287,-45.0441 -1.3108,-2.2608 -2.6978,-4.4453 -4.1604,-6.5541 -3.6061,4.8298 -8.0582,11.4521 -13.3677,19.8567 -8.8901,13.7495 -13.9379,21.2835 -15.1056,22.602 -1.8459,2.2978 -2.75,4.6334 -2.75,7.0819 0,5.0855 1.6199,11.9791 4.8971,20.7562 3.2773,8.7394 7.7224,17.1021 13.4105,25.0505 2.4109,3.654 3.654,6.1025 3.654,7.2703 0,0.7534 -0.6404,2.1095 -1.8835,4.0683 0.4897,0.6781 0.7534,1.3561 0.7534,1.9965 0,1.3938 -0.4144,2.4486 -1.3184,3.089 -0.8664,0.678 -2.9383,1.8458 -6.1779,3.5409 0,4.3321 -1.8082,6.5169 -5.4245,6.5169 -1.5444,0 -3.6916,-0.9417 -6.4792,-2.7499 -2.8252,-1.8458 -4.7087,-3.5786 -5.7635,-5.1984 -1.0924,-1.3185 -2.1849,-2.2226 -3.315,-2.6369 -1.1677,-0.3014 -2.0341,-0.6781 -2.6368,-1.1678 -0.6028,-0.4897 -1.9966,-1.8835 -4.1814,-4.2567 -0.1507,-0.3014 -1.0548,-0.9041 -2.6746,-1.8835 -2.0342,-0.8664 -4.0307,-3.2019 -5.9518,-6.9313 -0.9418,-2.3732 -3.5033,-6.7429 -7.6094,-13.1468 -24.071,25.9546 -36.7658,39.6665 -38.0843,41.0979 -1.3184,1.4315 -2.9005,2.976 -4.7464,4.5958 -1.8081,1.6198 -3.3149,2.4108 -4.4073,2.4108 -1.2432,0 -2.2602,-0.339 -3.0136,-1.0924 -0.7911,-0.7157 -1.2055,-3.1643 -1.2808,-7.2703l-1.4315 -1.5444c-0.452,-0.4521 -0.9041,-1.5822 -1.3184,-3.428l-2.2226 -1.0924c-1.1677,-2.2226 -3.1642,-4.5581 -5.9518,-6.969l-0.226 -3.4279 -0.6781 -2.976c0,-0.8664 0.4897,-2.2978 1.3938,-4.2943 0.9041,-1.9965 5.4998,-7.9861 13.7495,-17.9309 8.2497,-9.9826 13.2975,-15.8967 15.2187,-17.7049 7.1949,-6.7806 11.0373,-11.2256 11.4893,-13.3728 1.5445,-5.8012 4.106,-9.2668 7.7224,-10.3593zm67.5498 -72.3191c2.7275,-1.9751 5.5645,-2.9454 8.5811,-2.9454 3.8423,0 7.3833,1.8458 10.6606,5.5752 3.2773,3.6916 4.8971,7.534 4.8971,11.527 0,3.2787 -1.6131,5.1658 -4.8963,5.633 2.4904,3.354 4.8052,6.8829 6.9438,10.5882 9.4716,16.4186 14.2436,34.1145 14.2436,53.0394 0,18.8829 -4.772,36.5366 -14.3279,52.9553 -9.5077,16.4728 -22.5282,29.4691 -39.0191,38.9528 -16.4488,9.5258 -34.1146,14.2676 -52.9253,14.2676 -18.8167,0 -36.4825,-4.7418 -52.9311,-14.2676 -16.4909,-9.4836 -29.5113,-22.48 -39.0191,-38.9528 -9.5559,-16.4186 -14.3339,-34.0724 -14.3339,-52.9553 0,-18.9251 4.778,-36.621 14.2496,-53.1302 9.5077,-16.509 22.486,-29.5053 38.9769,-38.9889 16.4427,-9.5258 34.1628,-14.2616 53.0577,-14.2616l-0.0002 0.0004c18.8889,0 36.609,4.778 53.0519,14.3038 4.5283,2.6273 8.7912,5.5137 12.7906,8.6591z"/>
 </g>
</svg>
