<?xml version="1.0" encoding="UTF-8"?>
<!DOCTYPE svg PUBLIC "-//W3C//DTD SVG 1.1//EN" "http://www.w3.org/Graphics/SVG/1.1/DTD/svg11.dtd">
<!-- Creator: CorelDRAW -->
<svg xmlns="http://www.w3.org/2000/svg" xml:space="preserve" width="254mm" height="307.849mm" style="shape-rendering:geometricPrecision; text-rendering:geometricPrecision; image-rendering:optimizeQuality; fill-rule:evenodd; clip-rule:evenodd"
viewBox="0 0 254 307.849"
 xmlns:xlink="http://www.w3.org/1999/xlink">
 <defs>
  <style type="text/css">
   <![CDATA[
    .fil0 {fill:black;fill-rule:nonzero}
   ]]>
  </style>
 </defs>
 <g id="Capa_x0020_1">
  <metadata id="CorelCorpID_0Corel-Layer"/>
  <path class="fil0" d="M127.006 264.16c24.6008,0 45.7853,-8.845 63.5775,-26.5891 17.7984,-17.7381 26.7157,-38.9046 26.7157,-63.5837 0,-16.0028 -4.055,-31.0356 -12.1287,-45.0441 -4.2951,-7.4081 -9.4045,-14.0021 -15.3344,-19.7674 -17.0152,21.2437 -29.9145,38.3312 -38.7378,51.3863l28.7958 63.2478 -3.5996 2.9918 0 2.6177 -5.7499 4.5346 1.5428 4.3943c-1.4025,2.1503 -2.8514,3.7865 -4.3943,4.768 -1.9165,1.2622 -3.5058,1.9165 -4.8148,1.9165 -2.01,0 -5.5627,-3.7396 -10.6582,-11.2191 -5.0486,-7.1054 -13.4632,-20.7554 -25.3366,-40.9499 -9.6766,13.3228 -18.5117,26.2246 -26.4584,38.7528 -4.2053,6.6619 -8.8929,14.3253 -14.0623,22.9566 12.3174,6.3942 25.8625,9.587 40.6429,9.587l0.0003 -0.0001zm41.8446 -170.172c-13.0838,-6.9416 -27.0289,-10.3841 -41.8448,-10.3841 -24.7756,0 -45.9963,8.8872 -63.7104,26.6735 -17.7141,17.7803 -26.5892,39.0311 -26.5892,63.7102 0,22.5401 7.44,42.1492 22.2893,58.8932 2.841,-4.6795 6.4367,-10.1029 10.7638,-16.3165 8.6013,-12.5278 22.2982,-30.2914 41.0903,-53.2909l-22.8592 -64.7905c1.0753,-2.805 2.384,-5.0487 3.8334,-6.6849 1.2621,-1.3087 2.6177,-1.9165 3.9733,-1.9165 0.6543,0 1.2622,0.1868 1.9165,0.5609 0.6543,0.4206 1.4494,1.1218 2.4778,2.0099l2.8515 -2.1502 2.0568 1.0753 4.3943 -4.9083 4.3939 1.6358 22.0176 44.3628 32.9451 -38.4797zm-90.4568 174.283l-0.2669 0.4626c-0.8416,1.2622 -1.6362,2.6177 -2.384,3.9733 -0.7947,1.3556 -1.5428,2.805 -2.2906,4.254l-4.628 1.9165 -12.0607 1.3556 -6.0301 -8.2273 -1.9169 -6.0302 1.9169 -8.6013 -2.8984 -4.3943c0.7478,-1.7296 1.6363,-3.4593 2.6178,-5.189l0.0981 -0.1727c-5.9179,-6.1416 -11.0847,-13.0343 -15.4951,-20.6756 -9.5559,-16.4186 -14.3339,-34.0724 -14.3339,-52.9553 0,-18.9251 4.778,-36.621 14.2496,-53.1302 9.5077,-16.509 22.486,-29.5053 38.9769,-38.9889 16.4427,-9.5258 34.1628,-14.2616 53.0577,-14.2616l-0.0002 0.0004c18.6449,0 36.151,4.6559 52.414,13.9376l0.9881 -1.2465 4.675 0.2807 6.4507 4.3474 6.6849 -5.8902 1.6362 4.1136 5.2355 7.1524 -5.1858 6.3434c7.4586,7.0276 13.8333,15.1252 19.1302,24.3025 9.4716,16.4186 14.2436,34.1145 14.2436,53.0394 0,18.8829 -4.772,36.5366 -14.3279,52.9553 -9.5077,16.4728 -22.5282,29.4691 -39.0191,38.9528 -16.4488,9.5258 -34.1146,14.2676 -52.9253,14.2676 -17.1804,0 -33.4012,-3.9539 -48.6123,-11.892z"/>
 </g>
</svg>
