<?xml version="1.0" encoding="UTF-8"?>
<!DOCTYPE svg PUBLIC "-//W3C//DTD SVG 1.1//EN" "http://www.w3.org/Graphics/SVG/1.1/DTD/svg11.dtd">
<!-- Creator: CorelDRAW -->
<svg xmlns="http://www.w3.org/2000/svg" xml:space="preserve" width="254mm" height="307.849mm" style="shape-rendering:geometricPrecision; text-rendering:geometricPrecision; image-rendering:optimizeQuality; fill-rule:evenodd; clip-rule:evenodd"
viewBox="0 0 254 307.849"
 xmlns:xlink="http://www.w3.org/1999/xlink">
 <defs>
  <style type="text/css">
   <![CDATA[
    .fil0 {fill:black;fill-rule:nonzero}
   ]]>
  </style>
 </defs>
 <g id="Capa_x0020_1">
  <metadata id="CorelCorpID_0Corel-Layer"/>
  <path class="fil0" d="M127.006 264.16c15.372,0 29.4102,-3.4535 42.1203,-10.3738l-1.3676 0.1993 -44.1478 8.1875 -6.4055 1.4997c3.2043,0.3241 6.4707,0.4874 9.8003,0.4874l0.0003 -0.0001zm89.6922 -79.326c0.3996,-3.5373 0.601,-7.1524 0.601,-10.8468 0,-1.1184 -0.0205,-2.2318 -0.0601,-3.3407l-57.389 7.418c10.095,1.1163 18.9802,2.0936 26.7025,2.9306 7.7227,0.8842 14.3284,1.6284 19.7712,2.2795 2.1865,0.3723 4.373,0.6978 6.5596,1.0235 1.2586,0.1917 2.5334,0.3671 3.8148,0.5359zm-38.5911 -85.2514c-1.9611,-1.3445 -3.9877,-2.6223 -6.0811,-3.8322 -13.9965,-8.122 -28.9993,-12.1468 -45.0202,-12.1468 -14.0159,0 -26.8937,2.8452 -38.643,8.5358 2.627,0.1765 5.2894,0.3597 7.9871,0.5606 4.3267,0.3256 8.746,0.6043 13.212,0.8837l48.2413 3.8149c4.7916,0.5582 9.3971,1.0696 13.6769,1.4886 2.2756,0.2447 4.4868,0.4765 6.627,0.6954zm-132.33 34.6913c-0.9895,1.9752 -1.8985,3.9817 -2.7262,6.0199 3.6194,-0.5553 7.8875,-1.2007 12.8261,-1.9576 6.327,-0.9305 13.8166,-1.954 22.4694,-3.0236l7.7687 -0.8376c-6.559,-0.2791 -13.6301,-0.4185 -21.2598,-0.4185 -3.1632,0 -6.652,0.0462 -10.3739,0.093 -2.7962,0.0349 -5.6977,0.0698 -8.7043,0.1244zm0.324 79.92c0.9983,1.942 2.0759,3.8532 3.2331,5.7334 4.1837,-1.1888 8.9542,-2.3192 14.3119,-3.3906 2.0468,-0.3722 6.2334,-1.1164 12.5137,-2.1865 -6.8847,-0.1859 -12.3278,-0.2789 -16.2352,-0.2789 -2.6055,0 -5.3503,0 -8.2342,0.0463 -1.7891,0.0294 -3.6523,0.0587 -5.5893,0.0763zm189.949 4.25l2.047 4.0938 -8.3271 3.6751 0.2789 3.8149 5.722 3.2561 0.9305 8.4668 -5.3036 2.9774 -29.2814 4.2543c-6.5189,6.5179 -13.9156,12.1571 -22.1852,16.9129 -16.4488,9.5258 -34.1146,14.2676 -52.9253,14.2676 -14.8181,0 -28.9223,-2.9414 -42.2805,-8.8433l-26.9409 6.5308 -5.0705 -4.0936 -5.8618 -11.0256 1.7679 -2.1861 -2.6983 -5.0241 -3.0237 -0.419 -3.3962 -9.8157 1.2097 -2.8844 3.6112 -1.8694c-3.3901,-4.2308 -6.4798,-8.7608 -9.2671,-13.59 -2.3715,-4.0747 -4.4485,-8.2256 -6.2315,-12.4524 -1.2104,0.0005 -2.4536,0.005 -3.697,0.0465 -1.3953,0.0463 -2.7911,0.093 -4.1401,0.093l-2.7446 -2.7448 1.4886 -7.6292 4.0938 -1.3493 0.1396 -2.4655 -5.4431 -2.7447 0 -4.3262 2.1865 -6.001 -0.2789 -0.2795 0.5581 -0.6978 0.3419 -0.9062c-0.1027,-0.9603 -0.1923,-1.924 -0.269,-2.891l-1.7479 -2.7157 -3.3958 -0.558 -3.8148 -9.6762 1.3493 -3.0241 7.769 -3.5355 -5.3035 -13.3512 2.4653 -4.2335c2.7205,-0.7829 4.9657,-1.3833 6.7041,-1.7689 0.919,-3.0744 1.9829,-6.1118 3.1908,-9.1126 -0.9851,0.0128 -1.7222,0.0579 -2.2651,0.1354l-2.7448 -2.884 1.535 -7.6292 4.0937 -1.3495 0.0934 -2.4654 -5.4432 -2.698 0 -4.373 4.2334 -12.0023 7.7689 -1.6284 6.001 -9.5364c3.2566,0.093 6.6061,0.186 9.9553,0.2789 3.0623,0.0854 6.1634,0.1703 9.339,0.2554 4.0901,-3.2302 8.4582,-6.1817 13.1052,-8.8541 16.4427,-9.5258 34.1628,-14.2616 53.0577,-14.2616l-0.0002 0.0004c18.8889,0 36.609,4.778 53.0519,14.3038 9.8133,5.6937 18.3825,12.6015 25.7169,20.7333 1.4448,0.1827 3.266,0.4344 5.4336,0.7556 12.0951,1.5353 23.3533,3.3029 33.8202,5.3034 0.7445,1.628 1.0701,3.5819 1.0701,5.8613 -0.1396,2.2796 -0.7446,4.8846 -1.768,7.769l-3.8144 0.6979 -0.2792 6.7922 2.7446 2.0467 -2.8376 9.5366 -4.9312 0 3.117 5.4893 -7.7817 2.9792c0.4373,1.8759 0.8215,3.7659 1.1539,5.6694l4.069 2.0976 0.9305 8.3271 -3.594 1.8604c0.1139,2.0378 0.1708,4.0903 0.1708,6.1575 0,4.509 -0.2728,8.9478 -0.8172,13.3166 1.2199,0.2463 2.4044,0.4579 3.5891,0.6696 1.2561,0.2326 2.5584,0.4651 3.9542,0.7444 0.7907,1.9071 1.163,3.8611 1.0701,5.8613 -0.1864,2.2795 -0.7908,4.8383 -1.768,7.7689l-3.8145 0.6977 -0.1396 6.7922 2.6051 2.0469 -1.9073 6.5592z"/>
 </g>
</svg>
