<?xml version="1.0" encoding="UTF-8"?>
<!DOCTYPE svg PUBLIC "-//W3C//DTD SVG 1.1//EN" "http://www.w3.org/Graphics/SVG/1.1/DTD/svg11.dtd">
<!-- Creator: CorelDRAW -->
<svg xmlns="http://www.w3.org/2000/svg" xml:space="preserve" width="4096mm" height="4096mm" style="shape-rendering:geometricPrecision; text-rendering:geometricPrecision; image-rendering:optimizeQuality; fill-rule:evenodd; clip-rule:evenodd"
viewBox="0 0 4096 4096"
 xmlns:xlink="http://www.w3.org/1999/xlink">
 <defs>
  <style type="text/css">
   <![CDATA[
    .fil0 {fill:black;fill-rule:nonzero}
   ]]>
  </style>
 </defs>
 <g id="Capa_x0020_1">
  <metadata id="CorelCorpID_0Corel-Layer"/>
  <path class="fil0" d="M2048.12 3787.74c474.062,0 882.292,-170.444 1225.15,-512.377 342.978,-341.817 514.816,-749.699 514.816,-1225.27 0,-308.379 -78.1396,-598.064 -233.722,-868.011 -60.7236,-104.844 -129.807,-201.096 -207.598,-288.873 -106.121,140.953 -213.636,293.633 -322.543,458.04 -351.454,530.026 -647.99,1091.98 -889.723,1687.49 -90.9112,221.995 -154.77,358.885 -190.879,408.811 -35.993,50.8545 -148.268,76.1657 -336.592,76.1657 -123.769,0 -200.748,-12.3072 -231.864,-35.9929 -31.1165,-24.6146 -87.6603,-99.9676 -169.631,-228.613 -140.024,-212.126 -291.543,-404.631 -452.931,-575.888 -85.222,-89.2858 -127.833,-158.021 -127.833,-206.437 0,-67.1095 47.4875,-132.71 141.766,-197.381 94.1623,-65.484 171.954,-97.5294 232.561,-97.5294 85.2221,0 186.815,47.6036 306.405,142.579 118.777,94.975 245.797,259.73 380.132,493.104 147.455,-335.78 305.592,-656.93 474.294,-963.334 168.703,-306.405 342.398,-589.008 521.782,-848.621 114.829,-165.103 216.306,-305.128 304.663,-420.073 -23.2213,-14.8616 -46.6748,-29.1427 -70.7088,-43.0755 -269.715,-156.511 -558.82,-234.07 -867.547,-234.07 -477.429,0 -886.356,171.257 -1227.71,514.003 -341.353,342.63 -512.377,752.137 -512.377,1227.71 0,475.572 171.837,883.453 514.816,1225.27 342.862,341.933 751.092,512.377 1225.27,512.377zm1135.52 -3441.62c76.9785,-85.8026 150.009,-156.279 218.164,-211.314 40.1728,-31.9292 103.218,-55.7311 190.066,-72.102 208.875,-38.5474 355.518,-57.3566 439.114,-57.3566 36.8057,0 54.8022,12.3073 54.8022,38.5473 0,23.6857 -17.9965,52.364 -54.8022,85.9187 -159.762,142.23 -323.356,314.648 -490.666,517.486 106.702,113.9 200.516,240.805 281.21,380.713 182.519,316.39 274.476,657.394 274.476,1022.08 0,363.877 -91.9563,704.069 -276.101,1020.46 -183.216,317.435 -434.122,567.876 -751.905,750.628 -316.97,183.564 -657.394,274.824 -1019.88,274.824 -362.6,0 -703.024,-91.2596 -1019.99,-274.824 -317.783,-182.751 -568.689,-433.193 -751.905,-750.628 -184.145,-316.39 -276.217,-656.582 -276.217,-1020.46 0,-364.69 92.0724,-705.694 274.592,-1023.83 183.216,-318.131 433.309,-568.573 751.092,-751.324 316.854,-183.564 658.323,-274.94 1022.43,-274.94 363.993,0 705.462,92.1885 1022.32,275.753 38.7795,22.5247 76.5141,45.9781 113.204,70.3605z"/>
 </g>
</svg>
