<?xml version="1.0" encoding="UTF-8"?>
<!DOCTYPE svg PUBLIC "-//W3C//DTD SVG 1.1//EN" "http://www.w3.org/Graphics/SVG/1.1/DTD/svg11.dtd">
<!-- Creator: CorelDRAW -->
<svg xmlns="http://www.w3.org/2000/svg" xml:space="preserve" width="254mm" height="307.849mm" style="shape-rendering:geometricPrecision; text-rendering:geometricPrecision; image-rendering:optimizeQuality; fill-rule:evenodd; clip-rule:evenodd"
viewBox="0 0 254 307.849"
 xmlns:xlink="http://www.w3.org/1999/xlink">
 <defs>
  <style type="text/css">
   <![CDATA[
    .fil0 {fill:black;fill-rule:nonzero}
   ]]>
  </style>
 </defs>
 <g id="Capa_x0020_1">
  <metadata id="CorelCorpID_0Corel-Layer"/>
  <path class="fil0" d="M127.006 264.16c24.6008,0 45.7853,-8.845 63.5775,-26.5891 17.7984,-17.7381 26.7157,-38.9046 26.7157,-63.5837 0,-16.0028 -4.055,-31.0356 -12.1287,-45.0441 -8.1219,-14.0086 -19.1541,-25.1069 -33.1445,-33.1927 -13.9965,-8.122 -28.9993,-12.1468 -45.0202,-12.1468 -24.7756,0 -45.9963,8.8872 -63.7104,26.6735 -17.7141,17.7803 -26.5892,39.0311 -26.5892,63.7102 0,24.6792 8.9173,45.8456 26.7157,63.5837 17.7924,17.7441 38.977,26.5891 63.5838,26.5891l0.0003 -0.0001zm-9.0512 -120.033c3.6929,0 7.1522,0.7475 10.4245,2.1957 3.2723,1.4482 6.7315,2.4292 10.2843,2.8496l11.3593 1.7752c2.2907,0.3738 3.4126,2.3825 3.4126,5.9796 0,3.5971 0.5609,6.2132 1.636,7.8483 4.2072,7.054 6.3108,14.4818 6.3108,22.3301 0,7.1942 -1.7296,14.0613 -5.1889,20.5082 -1.1219,1.8219 -1.823,3.8306 -2.1502,6.0263 -0.2805,2.1956 -1.1219,3.9708 -2.5244,5.3255 -1.3556,1.4015 -3.1787,2.3358 -5.4693,2.8497 -2.2905,0.4671 -4.1605,1.168 -5.6095,2.1023 -6.8718,4.1109 -14.3513,6.1664 -22.4852,6.1664 -12.0138,0 -22.298,-4.2044 -30.8059,-12.6133 -8.4612,-8.362 -12.7151,-18.4994 -12.7151,-30.3651 0,-7.1943 1.7764,-14.0615 5.3291,-20.5549 0.374,-0.7942 0.7948,-2.0555 1.2154,-3.7373 0.4676,-1.6818 1.0753,-3.2234 1.8232,-4.5782 0.4206,-0.9343 1.6829,-2.1956 3.6929,-3.8306 7.4795,-6.8672 17.9507,-10.2775 31.4604,-10.2775zm9.0512 -76.5198c18.8889,0 36.609,4.778 53.0519,14.3038 16.4909,9.568 29.4692,22.5643 38.9769,39.0371 9.4716,16.4186 14.2436,34.1145 14.2436,53.0394 0,18.8829 -4.772,36.5366 -14.3279,52.9553 -9.5077,16.4728 -22.5282,29.4691 -39.0191,38.9528 -16.4488,9.5258 -34.1146,14.2676 -52.9253,14.2676 -18.8167,0 -36.4825,-4.7418 -52.9311,-14.2676 -16.4909,-9.4836 -29.5113,-22.48 -39.0191,-38.9528 -9.5559,-16.4186 -14.3339,-34.0724 -14.3339,-52.9553 0,-18.9251 4.778,-36.621 14.2496,-53.1302 9.5077,-16.509 22.486,-29.5053 38.9769,-38.9889 16.4427,-9.5258 34.1628,-14.2616 53.0577,-14.2616l-0.0002 0.0004z"/>
 </g>
</svg>
