<?xml version="1.0" encoding="UTF-8"?>
<!DOCTYPE svg PUBLIC "-//W3C//DTD SVG 1.1//EN" "http://www.w3.org/Graphics/SVG/1.1/DTD/svg11.dtd">
<!-- Creator: CorelDRAW -->
<svg xmlns="http://www.w3.org/2000/svg" xml:space="preserve" width="254mm" height="307.849mm" style="shape-rendering:geometricPrecision; text-rendering:geometricPrecision; image-rendering:optimizeQuality; fill-rule:evenodd; clip-rule:evenodd"
viewBox="0 0 254 307.849"
 xmlns:xlink="http://www.w3.org/1999/xlink">
 <defs>
  <style type="text/css">
   <![CDATA[
    .fil0 {fill:black;fill-rule:nonzero}
   ]]>
  </style>
 </defs>
 <g id="Capa_x0020_1">
  <metadata id="CorelCorpID_0Corel-Layer"/>
  <path class="fil0" d="M232.41 152.315l-105.41 105.41 -105.41 -105.41 105.41 -105.41 105.41 105.41zm-67.8182 -26.6701c0,-9.525 -3.514,-17.441 -10.541,-23.749 -7.027,-6.35 -15.579,-9.483 -25.696,-9.483 -12.1501,0 -22.7331,1.863 -31.7501,5.588l-2.202 22.183c6.858,-4.36 14.394,-6.562 22.691,-6.562 6.181,0 11.3031,1.694 15.3671,5.08 4.064,3.387 6.054,7.832 6.054,13.3781 0,6.053 -3.472,13.673 -10.457,22.902 -6.9851,9.229 -10.4981,18.627 -10.4981,28.1941l18.8801 0c0,-4.445 2.413,-9.6941 7.324,-15.7481 8.255,-10.245 12.742,-16.002 13.504,-17.23 4.869,-7.789 7.324,-15.959 7.324,-24.5531zm-23.199 97.1133l0 -26.0351 -28.7861 0 0 26.0351 28.7861 0z"/>
 </g>
</svg>
