<?xml version="1.0" encoding="UTF-8"?>
<!DOCTYPE svg PUBLIC "-//W3C//DTD SVG 1.1//EN" "http://www.w3.org/Graphics/SVG/1.1/DTD/svg11.dtd">
<!-- Creator: CorelDRAW -->
<svg xmlns="http://www.w3.org/2000/svg" xml:space="preserve" width="4.2332mm" height="4.2332mm" style="shape-rendering:geometricPrecision; text-rendering:geometricPrecision; image-rendering:optimizeQuality; fill-rule:evenodd; clip-rule:evenodd"
viewBox="0 0 4.2332 4.2332"
 xmlns:xlink="http://www.w3.org/1999/xlink">
 <defs>
  <style type="text/css">
   <![CDATA[
    .fil0 {fill:black;fill-rule:nonzero}
   ]]>
  </style>
 </defs>
 <g id="Capa_x0020_1">
  <metadata id="CorelCorpID_0Corel-Layer"/>
  <path class="fil0" d="M2.1167 3.615c0.4083,0 0.7599,-0.1468 1.0552,-0.4413 0.2954,-0.2944 0.4434,-0.6457 0.4434,-1.0553 0,-0.2656 -0.0673,-0.5151 -0.2013,-0.7476 -0.0523,-0.0903 -0.1118,-0.1732 -0.1788,-0.2488 -0.0914,0.1214 -0.184,0.2529 -0.2778,0.3945 -0.3027,0.4565 -0.5581,0.9405 -0.7663,1.4534 -0.0783,0.1912 -0.1333,0.3091 -0.1644,0.3521 -0.031,0.0438 -0.1277,0.0656 -0.2899,0.0656 -0.1066,0 -0.1729,-0.0106 -0.1997,-0.031 -0.0268,-0.0212 -0.0755,-0.0861 -0.1461,-0.1969 -0.1206,-0.1827 -0.2511,-0.3485 -0.3901,-0.496 -0.0734,-0.0769 -0.1101,-0.1361 -0.1101,-0.1778 0,-0.0578 0.0409,-0.1143 0.1221,-0.17 0.0811,-0.0564 0.1481,-0.084 0.2003,-0.084 0.0734,0 0.1609,0.041 0.2639,0.1228 0.1023,0.0818 0.2117,0.2237 0.3274,0.4247 0.127,-0.2892 0.2632,-0.5658 0.4085,-0.8297 0.1453,-0.2639 0.2949,-0.5073 0.4494,-0.7309 0.0989,-0.1422 0.1863,-0.2628 0.2624,-0.3618 -0.02,-0.0128 -0.0402,-0.0251 -0.0609,-0.0371 -0.2323,-0.1348 -0.4813,-0.2016 -0.7472,-0.2016 -0.4112,0 -0.7634,0.1475 -1.0574,0.4427 -0.294,0.2951 -0.4413,0.6478 -0.4413,1.0574 0,0.4096 0.148,0.7609 0.4434,1.0553 0.2953,0.2945 0.6469,0.4413 1.0553,0.4413zm0.978 -2.9642c0.0663,-0.0739 0.1292,-0.1346 0.1879,-0.182 0.0346,-0.0275 0.0889,-0.048 0.1637,-0.0621 0.1799,-0.0332 0.3062,-0.0494 0.3782,-0.0494 0.0317,0 0.0472,0.0106 0.0472,0.0332 0,0.0204 -0.0155,0.0451 -0.0472,0.074 -0.1376,0.1225 -0.2785,0.271 -0.4226,0.4457 0.0919,0.0981 0.1727,0.2074 0.2422,0.3279 0.1572,0.2725 0.2364,0.5662 0.2364,0.8803 0,0.3134 -0.0792,0.6064 -0.2378,0.8789 -0.1578,0.2734 -0.3739,0.4891 -0.6476,0.6465 -0.273,0.1581 -0.5662,0.2367 -0.8784,0.2367 -0.3123,0 -0.6055,-0.0786 -0.8785,-0.2367 -0.2737,-0.1574 -0.4898,-0.3731 -0.6476,-0.6465 -0.1586,-0.2725 -0.2379,-0.5655 -0.2379,-0.8789 0,-0.3141 0.0793,-0.6078 0.2365,-0.8818 0.1578,-0.274 0.3732,-0.4897 0.6469,-0.6471 0.2729,-0.1581 0.567,-0.2368 0.8806,-0.2368 0.3135,0 0.6076,0.0794 0.8805,0.2375 0.0334,0.0194 0.0659,0.0396 0.0975,0.0606z"/>
 </g>
</svg>
