<?xml version="1.0" encoding="UTF-8"?>
<!DOCTYPE svg PUBLIC "-//W3C//DTD SVG 1.1//EN" "http://www.w3.org/Graphics/SVG/1.1/DTD/svg11.dtd">
<!-- Creator: CorelDRAW -->
<svg xmlns="http://www.w3.org/2000/svg" xml:space="preserve" width="4.2332mm" height="4.2332mm" style="shape-rendering:geometricPrecision; text-rendering:geometricPrecision; image-rendering:optimizeQuality; fill-rule:evenodd; clip-rule:evenodd"
viewBox="0 0 4.2332 4.2332"
 xmlns:xlink="http://www.w3.org/1999/xlink">
 <defs>
  <style type="text/css">
   <![CDATA[
    .fil0 {fill:black;fill-rule:nonzero}
   ]]>
  </style>
 </defs>
 <g id="Capa_x0020_1">
  <metadata id="CorelCorpID_0Corel-Layer"/>
  <path class="fil0" d="M2.1167 3.615c0.3295,0 0.6222,-0.0958 0.8782,-0.2875 -0.0085,-0.0022 -0.0254,-0.0092 -0.0505,-0.0218 -0.031,-0.0148 -0.0656,-0.0451 -0.1044,-0.091 -0.036,-0.0479 -0.0712,-0.0748 -0.1072,-0.0804 -0.0212,-0.0113 -0.0332,-0.019 -0.0374,-0.0247 -0.0452,-0.055 -0.0875,-0.0903 -0.1263,-0.1058 -0.0191,-0.0092 -0.0346,-0.0268 -0.0473,-0.0515l-0.225 -0.3846c-0.1242,0.1066 -0.271,0.2533 -0.4403,0.4403 -0.1672,0.1899 -0.3078,0.3374 -0.4217,0.4441 0.2064,0.1087 0.4336,0.1629 0.6819,0.1629zm0.9007 -0.3047c0.053,-0.0413 0.1046,-0.0869 0.1545,-0.1366 0.2954,-0.2944 0.4434,-0.6457 0.4434,-1.0553 0,-0.2656 -0.0673,-0.5151 -0.2013,-0.7476 -0.0401,-0.0691 -0.0844,-0.134 -0.1331,-0.1946l-0.0112 0.0171 -0.1757 0.2773c-0.0882,0.1461 -0.1587,0.2561 -0.2123,0.3302 -0.0417,0.055 -0.0713,0.1009 -0.0904,0.1369 -0.0183,0.036 -0.0275,0.0762 -0.0275,0.122 0,0.1016 0.0297,0.2343 0.0889,0.3966 0.0593,0.1629 0.1348,0.3132 0.2272,0.4529 0.0593,0.0854 0.0889,0.1334 0.0889,0.1447l-0.0127 0.0247c-0.0106,0.019 -0.0162,0.0367 -0.0162,0.0515 0,0.0042 0.0028,0.0169 0.0085,0.0374 -0.0777,0.0423 -0.1193,0.067 -0.1256,0.0719 -0.0057,0.0057 -0.0092,0.0233 -0.0092,0.0522l0.0038 0.0187zm0.0068 -2.384c-0.0506,-0.0384 -0.104,-0.0739 -0.1603,-0.1064 -0.2238,-0.1299 -0.4632,-0.1966 -0.7182,-0.2013 0.023,0.0219 0.047,0.0474 0.072,0.0766 0.0995,0.1157 0.218,0.3415 0.3556,0.678 0.0551,-0.043 0.1094,-0.0924 0.1637,-0.1488l0.2293 -0.2357 0.0579 -0.0624zm-1.1871 -0.2837c-0.2936,0.0529 -0.5528,0.1924 -0.7778,0.4184 -0.294,0.2951 -0.4413,0.6478 -0.4413,1.0574 0,0.4096 0.148,0.7609 0.4434,1.0553 0.1104,0.1101 0.2286,0.1994 0.3548,0.2683l0 -0.0325c-0.0113,-0.0226 -0.0268,-0.048 -0.0458,-0.0769 -0.0113,-0.0149 -0.0191,-0.0332 -0.0247,-0.0537 -0.0071,-0.0261 -0.0212,-0.0416 -0.0438,-0.0472 -0.0091,0 -0.019,-0.0099 -0.0289,-0.029 -0.0078,-0.0261 -0.0212,-0.0437 -0.0388,-0.0522 -0.0226,-0.0077 -0.0332,-0.0176 -0.0332,-0.0289 0,-0.0021 0.0029,-0.0155 0.0085,-0.0388 -0.0085,-0.0169 -0.0127,-0.0289 -0.0127,-0.0374 0,-0.036 0.1764,-0.2526 0.5292,-0.6512 0.1545,-0.1778 0.2836,-0.3345 0.3887,-0.4713l-0.2152 -0.8657c-0.0508,-0.2039 -0.0762,-0.3133 -0.0762,-0.3267 0,-0.032 0.0047,-0.0614 0.0138,-0.0879zm1.3698 0.0893c0.0251,-0.0262 0.0437,-0.0453 0.0558,-0.0571 0.0381,-0.0374 0.0818,-0.0558 0.1312,-0.0558 0.055,0 0.103,0.0275 0.1425,0.0833 0.0402,0.0557 0.06,0.1044 0.06,0.146l0 0.0162c-0.0163,0.0057 -0.0318,0.0085 -0.0452,0.0085 -0.0566,0.0079 -0.0929,0.0354 -0.1084,0.0825 0.0752,0.0862 0.1423,0.1803 0.2013,0.2826 0.1572,0.2725 0.2364,0.5662 0.2364,0.8803 0,0.3134 -0.0792,0.6064 -0.2378,0.8789 -0.1578,0.2734 -0.3739,0.4891 -0.6476,0.6465 -0.273,0.1581 -0.5662,0.2367 -0.8784,0.2367 -0.3123,0 -0.6055,-0.0786 -0.8785,-0.2367 -0.2737,-0.1574 -0.4898,-0.3731 -0.6476,-0.6465 -0.1586,-0.2725 -0.2379,-0.5655 -0.2379,-0.8789 0,-0.3141 0.0793,-0.6078 0.2365,-0.8818 0.1578,-0.274 0.3732,-0.4897 0.6469,-0.6471 0.2729,-0.1581 0.567,-0.2368 0.8806,-0.2368 0.3135,0 0.6076,0.0794 0.8805,0.2375 0.0742,0.043 0.1441,0.0903 0.2097,0.1417z"/>
 </g>
</svg>
