<?xml version="1.0" encoding="UTF-8"?>
<!DOCTYPE svg PUBLIC "-//W3C//DTD SVG 1.1//EN" "http://www.w3.org/Graphics/SVG/1.1/DTD/svg11.dtd">
<!-- Creator: CorelDRAW -->
<svg xmlns="http://www.w3.org/2000/svg" xml:space="preserve" width="254mm" height="307.849mm" style="shape-rendering:geometricPrecision; text-rendering:geometricPrecision; image-rendering:optimizeQuality; fill-rule:evenodd; clip-rule:evenodd"
viewBox="0 0 254 307.849"
 xmlns:xlink="http://www.w3.org/1999/xlink">
 <defs>
  <style type="text/css">
   <![CDATA[
    .fil0 {fill:black;fill-rule:nonzero}
   ]]>
  </style>
 </defs>
 <g id="Capa_x0020_1">
  <metadata id="CorelCorpID_0Corel-Layer"/>
  <path class="fil0" d="M127.006 67.6065c18.8889,0 36.609,4.778 53.0519,14.3038 16.4909,9.568 29.4692,22.5643 38.9769,39.0371 9.4716,16.4186 14.2436,34.1145 14.2436,53.0394 0,18.8829 -4.772,36.5366 -14.3279,52.9553 -9.5077,16.4728 -22.5282,29.4691 -39.0191,38.9528 -16.4488,9.5258 -34.1146,14.2676 -52.9253,14.2676 -18.8167,0 -36.4825,-4.7418 -52.9311,-14.2676 -16.4909,-9.4836 -29.5113,-22.48 -39.0191,-38.9528 -9.5559,-16.4186 -14.3339,-34.0724 -14.3339,-52.9553 0,-18.9251 4.778,-36.621 14.2496,-53.1302 9.5077,-16.509 22.486,-29.5053 38.9769,-38.9889 16.4427,-9.5258 34.1628,-14.2616 53.0577,-14.2616l-0.0002 0.0004zm0 196.553c24.6008,0 45.7853,-8.845 63.5775,-26.5891 17.7984,-17.7381 26.7157,-38.9046 26.7157,-63.5837 0,-16.0028 -4.055,-31.0356 -12.1287,-45.0441 -8.1219,-14.0086 -19.1541,-25.1069 -33.1445,-33.1927 -13.9965,-8.122 -28.9993,-12.1468 -45.0202,-12.1468 -24.7756,0 -45.9963,8.8872 -63.7104,26.6735 -17.7141,17.7803 -26.5892,39.0311 -26.5892,63.7102 0,24.6792 8.9173,45.8456 26.7157,63.5837 17.7924,17.7441 38.977,26.5891 63.5838,26.5891l0.0003 -0.0001zm17.4549 -95.9751c7.7002,1.7412 13.2795,5.4226 16.7801,11.0501 3.5127,5.5854 5.2841,11.6828 5.2841,18.2081 0,11.0019 -3.9706,19.8951 -11.8334,26.6674 -7.9051,6.7784 -17.1236,10.1584 -27.6858,10.1584 -10.3995,0 -18.9793,-3.0487 -25.7456,-9.1401 -6.8085,-6.1397 -10.6948,-14.1893 -11.7973,-24.2212l14.4966 -1.9823c1.3135,7.7845 3.8922,13.6289 7.7363,17.485 3.8501,3.8923 8.9655,5.8384 15.31,5.8384 6.6759,0 12.3878,-2.3739 17.0754,-7.1157 4.7358,-4.778 7.0615,-10.5802 7.0615,-17.4369 0,-6.6096 -2.1148,-12.1106 -6.4228,-16.4246 -4.3141,-4.3622 -9.8512,-6.5253 -16.744,-6.5253 -3.1271,0 -6.5133,0.5544 -10.1465,1.6088l1.8618 -12.7855c9.1704,0 15.8523,-1.8618 20.0759,-5.6275 4.1875,-3.7657 6.3024,-8.5075 6.3024,-14.1832 0,-5.7962 -1.9883,-10.3271 -5.9167,-13.5868 -3.9767,-3.2656 -8.5377,-4.9105 -13.6591,-4.9105 -6.0011,0 -10.7791,1.8196 -14.2857,5.4166 -3.5127,3.5971 -5.748,8.9775 -6.7664,16.1716l-14.7075 -2.5004c1.898,-10.3211 6.0433,-18.0273 12.5083,-23.1126 6.4289,-5.0792 14.0809,-7.6158 23.0042,-7.6158 9.9295,0 18.1298,2.9644 24.643,8.851 6.5494,5.9167 9.809,13.2012 9.809,21.8774 0,10.8393 -5.4106,18.7142 -16.2379,23.5825l0 0.2531 0.0001 0z"/>
 </g>
</svg>
