<?xml version="1.0" encoding="UTF-8"?>
<!DOCTYPE svg PUBLIC "-//W3C//DTD SVG 1.1//EN" "http://www.w3.org/Graphics/SVG/1.1/DTD/svg11.dtd">
<!-- Creator: CorelDRAW -->
<svg xmlns="http://www.w3.org/2000/svg" xml:space="preserve" width="254mm" height="307.849mm" style="shape-rendering:geometricPrecision; text-rendering:geometricPrecision; image-rendering:optimizeQuality; fill-rule:evenodd; clip-rule:evenodd"
viewBox="0 0 254 307.849"
 xmlns:xlink="http://www.w3.org/1999/xlink">
 <defs>
  <style type="text/css">
   <![CDATA[
    .fil0 {fill:black;fill-rule:nonzero}
   ]]>
  </style>
 </defs>
 <g id="Capa_x0020_1">
  <metadata id="CorelCorpID_0Corel-Layer"/>
  <path class="fil0" d="M127.006 67.6065c18.8889,0 36.609,4.778 53.0519,14.3038 16.4909,9.568 29.4692,22.5643 38.9769,39.0371 9.4716,16.4186 14.2436,34.1145 14.2436,53.0394 0,18.8829 -4.772,36.5366 -14.3279,52.9553 -9.5077,16.4728 -22.5282,29.4691 -39.0191,38.9528 -16.4488,9.5258 -34.1146,14.2676 -52.9253,14.2676 -18.8167,0 -36.4825,-4.7418 -52.9311,-14.2676 -16.4909,-9.4836 -29.5113,-22.48 -39.0191,-38.9528 -9.5559,-16.4186 -14.3339,-34.0724 -14.3339,-52.9553 0,-18.9251 4.778,-36.621 14.2496,-53.1302 9.5077,-16.509 22.486,-29.5053 38.9769,-38.9889 16.4427,-9.5258 34.1628,-14.2616 53.0577,-14.2616l-0.0002 0.0004zm0 196.553c24.6008,0 45.7853,-8.845 63.5775,-26.5891 17.7984,-17.7381 26.7157,-38.9046 26.7157,-63.5837 0,-16.0028 -4.055,-31.0356 -12.1287,-45.0441 -8.1219,-14.0086 -19.1541,-25.1069 -33.1445,-33.1927 -13.9965,-8.122 -28.9993,-12.1468 -45.0202,-12.1468 -24.7756,0 -45.9963,8.8872 -63.7104,26.6735 -17.7141,17.7803 -26.5892,39.0311 -26.5892,63.7102 0,24.6792 8.9173,45.8456 26.7157,63.5837 17.7924,17.7441 38.977,26.5891 63.5838,26.5891l0.0003 -0.0001zm-26.8905 -92.8843c6.8507,-10.4959 16.3223,-15.7438 28.3666,-15.7438 9.6825,0 17.8828,3.597 24.6491,10.7911 6.7662,7.194 10.1403,16.3824 10.1403,27.517 0,11.261 -3.3379,20.7868 -10.056,28.6617 -6.7663,7.8749 -15.7318,11.7672 -26.9687,11.7672 -11.2069,0 -20.8472,-4.1875 -28.8366,-12.5685 -8.0316,-8.381 -12.0022,-23.3295 -12.0022,-44.8334 0,-21.0037 3.6332,-36.7897 10.8574,-47.3699 7.2784,-10.5862 17.7562,-15.8763 31.4937,-15.8763 8.8389,0 16.28,2.4101 22.4137,7.3266 6.0854,4.8623 9.7608,12.1407 11.0261,21.7991l-14.3641 1.6027c-1.3134,-6.3445 -3.6813,-11.1285 -7.0253,-14.3098 -3.338,-3.1693 -7.6942,-4.778 -13.0626,-4.778 -7.3508,0 -13.6531,3.7657 -18.9372,11.2189 -5.2841,7.4953 -7.9472,19.0938 -7.9472,34.7954l0.2531 0 -0.0001 0zm25.9144 50.9729c6.6819,0 12.0925,-2.6691 16.28,-8.0436 4.1393,-5.3744 6.2541,-11.9419 6.2541,-19.5999 0,-7.7062 -2.157,-14.0145 -6.3867,-18.9672 -4.2658,-4.9949 -9.8029,-7.4532 -16.6536,-7.4532 -6.3867,0 -11.8395,2.3257 -16.4849,7.0736 -4.6093,4.6996 -6.935,10.9176 -6.935,18.5816 0,7.8749 2.2836,14.5629 6.8085,20.106 4.5671,5.5492 10.2248,8.3027 17.1175,8.3027l0.0001 0z"/>
 </g>
</svg>
