<?xml version="1.0" encoding="UTF-8"?>
<!DOCTYPE svg PUBLIC "-//W3C//DTD SVG 1.1//EN" "http://www.w3.org/Graphics/SVG/1.1/DTD/svg11.dtd">
<!-- Creator: CorelDRAW -->
<svg xmlns="http://www.w3.org/2000/svg" xml:space="preserve" width="254mm" height="307.849mm" style="shape-rendering:geometricPrecision; text-rendering:geometricPrecision; image-rendering:optimizeQuality; fill-rule:evenodd; clip-rule:evenodd"
viewBox="0 0 254 307.849"
 xmlns:xlink="http://www.w3.org/1999/xlink">
 <defs>
  <style type="text/css">
   <![CDATA[
    .fil0 {fill:black;fill-rule:nonzero}
   ]]>
  </style>
 </defs>
 <g id="Capa_x0020_1">
  <metadata id="CorelCorpID_0Corel-Layer"/>
  <path class="fil0" d="M127.006 67.6065c18.8889,0 36.609,4.7779 53.052,14.3037 16.4909,9.568 29.4691,22.5642 38.9769,39.0371 9.4716,16.4186 14.2435,34.1145 14.2435,53.0395 0,18.8829 -4.772,36.5367 -14.3279,52.9554 -9.5077,16.4729 -22.5282,29.4691 -39.0191,38.9528 -16.4488,9.5258 -34.1146,14.2676 -52.9253,14.2676 -18.8167,0 -36.4825,-4.7418 -52.9311,-14.2676 -16.4909,-9.4836 -29.5113,-22.4799 -39.0191,-38.9528 -9.5559,-16.4186 -14.3339,-34.0724 -14.3339,-52.9554 0,-18.9251 4.778,-36.621 14.2496,-53.1303 9.5077,-16.509 22.486,-29.5053 38.9769,-38.9889 16.4427,-9.5258 34.1628,-14.2616 53.0577,-14.2616l-0.0002 0.0005zm0 196.553c24.6008,0 45.7854,-8.845 63.5776,-26.5891 17.7983,-17.7381 26.7156,-38.9046 26.7156,-63.5838 0,-16.0029 -4.0549,-31.0357 -12.1286,-45.0442 -8.122,-14.0085 -19.1541,-25.1069 -33.1446,-33.1927 -13.9965,-8.1219 -28.9992,-12.1468 -45.0202,-12.1468 -24.7755,0 -45.9963,8.8872 -63.7104,26.6735 -17.714,17.7803 -26.5891,39.0311 -26.5891,63.7103 0,24.6792 8.9172,45.8456 26.7157,63.5838 17.7924,17.7442 38.9769,26.5891 63.5838,26.5891l0.0002 -0.0001 0 0zm0.7532 -150.539c12.689,0 22.245,5.037 28.6678,15.1111 6.3867,10.0742 9.5981,25.1913 9.5981,45.2552 0,20.106 -3.2114,35.181 -9.5981,45.2129 -6.4228,10.0802 -15.9788,15.069 -28.6678,15.069 -12.8879,0 -22.5282,-4.9888 -28.9089,-15.069 -6.4289,-10.0319 -9.6403,-25.1069 -9.6403,-45.2129 0,-20.0638 3.2115,-35.181 9.6403,-45.2552 6.3807,-10.0741 16.021,-15.1111 28.9089,-15.1111zm0 108.628c7.8267,0 13.7494,-4.0249 17.72,-12.0203 3.9285,-8.0074 5.9168,-20.112 5.9168,-36.2414 0,-17.3585 -2.0305,-29.8005 -6.0433,-37.3802 -4.061,-7.5797 -10.0259,-11.3454 -17.8406,-11.3454 -7.7785,0 -13.6169,3.85 -17.461,11.5563 -3.8923,7.658 -5.8324,20.0698 -5.8324,37.1693 0,11.6828 0.8436,20.9555 2.5788,27.8604 1.7292,6.8988 4.3562,12.0142 7.899,15.3642 3.5127,3.3862 7.8689,5.0371 13.0626,5.0371l0.0001 0 0 0z"/>
 </g>
</svg>
