<?xml version="1.0" encoding="UTF-8"?>
<!DOCTYPE svg PUBLIC "-//W3C//DTD SVG 1.1//EN" "http://www.w3.org/Graphics/SVG/1.1/DTD/svg11.dtd">
<!-- Creator: CorelDRAW -->
<svg xmlns="http://www.w3.org/2000/svg" xml:space="preserve" width="254mm" height="307.849mm" style="shape-rendering:geometricPrecision; text-rendering:geometricPrecision; image-rendering:optimizeQuality; fill-rule:evenodd; clip-rule:evenodd"
viewBox="0 0 254 307.849"
 xmlns:xlink="http://www.w3.org/1999/xlink">
 <defs>
  <style type="text/css">
   <![CDATA[
    .fil0 {fill:black;fill-rule:nonzero}
   ]]>
  </style>
 </defs>
 <g id="Capa_x0020_1">
  <metadata id="CorelCorpID_0Corel-Layer"/>
  <path class="fil0" d="M127.006 67.6064c18.8889,0 36.609,4.778 53.0519,14.3038 16.4909,9.568 29.4692,22.5642 38.9769,39.0371 9.4716,16.4186 14.2436,34.1145 14.2436,53.0395 0,18.8829 -4.772,36.5367 -14.3279,52.9554 -9.5077,16.4729 -22.5282,29.4691 -39.0191,38.9528 -16.4488,9.5258 -34.1146,14.2676 -52.9253,14.2676 -18.8167,0 -36.4825,-4.7418 -52.9311,-14.2676 -16.4909,-9.4836 -29.5113,-22.4799 -39.0191,-38.9528 -9.5559,-16.4186 -14.3339,-34.0724 -14.3339,-52.9554 0,-18.9251 4.778,-36.621 14.2496,-53.1303 9.5077,-16.509 22.486,-29.5053 38.9769,-38.9889 16.4427,-9.5258 34.1628,-14.2616 53.0577,-14.2616l-0.0002 0.0004zm0 196.553c24.6008,0 45.7853,-8.8449 63.5775,-26.5891 17.7984,-17.7381 26.7157,-38.9045 26.7157,-63.5837 0,-16.0029 -4.055,-31.0357 -12.1287,-45.0442 -8.1219,-14.0086 -19.1541,-25.1069 -33.1445,-33.1927 -13.9965,-8.122 -28.9993,-12.1468 -45.0202,-12.1468 -24.7756,0 -45.9963,8.8872 -63.7104,26.6735 -17.7141,17.7803 -26.5892,39.0311 -26.5892,63.7103 0,24.6792 8.9173,45.8456 26.7157,63.5838 17.7924,17.7442 38.977,26.5891 63.5838,26.5891l0.0003 -0.0001 0 -0.0001zm25.4021 -87.5519c-6.8867,10.3332 -16.1475,15.4968 -27.9026,15.4968 -9.809,0 -18.0936,-3.5549 -24.8539,-10.6646 -6.8024,-7.1158 -10.1886,-16.4307 -10.1886,-28.0291 0,-11.6407 3.4705,-21.2086 10.3573,-28.6558 6.8928,-7.4109 15.774,-11.1345 26.6735,-11.1345 11.0743,0 20.5881,4.1875 28.4931,12.5685 7.9533,8.3811 11.8817,23.2451 11.8817,44.5803 0,21.1725 -3.5127,37.0428 -10.526,47.6231 -7.0193,10.5862 -17.5454,15.8763 -31.578,15.8763 -8.9234,0 -16.3644,-2.4101 -22.3655,-7.3266 -5.965,-4.8623 -9.6343,-12.2733 -10.9478,-22.1786l13.9905 -0.9761c2.0727,12.3215 8.5798,18.4611 19.5759,18.4611 8.7485,0 15.551,-4.0248 20.3771,-12.0202 4.8142,-8.0075 7.2242,-19.2263 7.2242,-33.6205l-0.2109 0 0 0 0 -0.0001zm-24.649 2.7113c7.1097,0 12.7252,-2.4944 16.8765,-7.4953 4.1815,-4.9888 6.2542,-11.3876 6.2542,-19.1299 0,-7.7906 -2.1149,-14.3099 -6.3385,-19.5638 -4.2719,-5.2419 -9.6825,-7.8689 -16.3223,-7.8689 -6.7662,0 -12.4721,2.8379 -17.0753,8.4233 -4.6093,5.6335 -6.935,12.3576 -6.935,20.2385 0,7.4532 2.2836,13.5386 6.8085,18.2864 4.5189,4.7418 10.0982,7.1097 16.7319,7.1097l0 0z"/>
 </g>
</svg>
