<?xml version="1.0" encoding="UTF-8"?>
<!DOCTYPE svg PUBLIC "-//W3C//DTD SVG 1.1//EN" "http://www.w3.org/Graphics/SVG/1.1/DTD/svg11.dtd">
<!-- Creator: CorelDRAW -->
<svg xmlns="http://www.w3.org/2000/svg" xml:space="preserve" width="254mm" height="307.849mm" style="shape-rendering:geometricPrecision; text-rendering:geometricPrecision; image-rendering:optimizeQuality; fill-rule:evenodd; clip-rule:evenodd"
viewBox="0 0 254 307.849"
 xmlns:xlink="http://www.w3.org/1999/xlink">
 <defs>
  <style type="text/css">
   <![CDATA[
    .fil0 {fill:black;fill-rule:nonzero}
   ]]>
  </style>
 </defs>
 <g id="Capa_x0020_1">
  <metadata id="CorelCorpID_0Corel-Layer"/>
  <path class="fil0" d="M127.006 67.6065c18.8889,0 36.609,4.778 53.0519,14.3038 16.4909,9.568 29.4692,22.5643 38.9769,39.0371 9.4716,16.4186 14.2436,34.1145 14.2436,53.0394 0,18.8829 -4.772,36.5366 -14.3279,52.9553 -9.5077,16.4728 -22.5282,29.4691 -39.0191,38.9528 -16.4488,9.5258 -34.1146,14.2676 -52.9253,14.2676 -18.8167,0 -36.4825,-4.7418 -52.9311,-14.2676 -16.4909,-9.4836 -29.5113,-22.48 -39.0191,-38.9528 -9.5559,-16.4186 -14.3339,-34.0724 -14.3339,-52.9553 0,-18.9251 4.778,-36.621 14.2496,-53.1302 9.5077,-16.509 22.486,-29.5053 38.9769,-38.9889 16.4427,-9.5258 34.1628,-14.2616 53.0577,-14.2616l-0.0002 0.0004zm0 196.553c24.6008,0 45.7853,-8.845 63.5775,-26.5891 17.7984,-17.7381 26.7157,-38.9046 26.7157,-63.5837 0,-16.0028 -4.055,-31.0356 -12.1287,-45.0441 -8.1219,-14.0086 -19.1541,-25.1069 -33.1445,-33.1927 -13.9965,-8.122 -28.9993,-12.1468 -45.0202,-12.1468 -24.7756,0 -45.9963,8.8872 -63.7104,26.6735 -17.7141,17.7803 -26.5892,39.0311 -26.5892,63.7102 0,24.6792 8.9173,45.8456 26.7157,63.5837 17.7924,17.7441 38.977,26.5891 63.5838,26.5891l0.0003 -0.0001zm-20.805 -102.784c7.1098,-5.1274 14.5448,-7.7122 22.2811,-7.7122 9.8452,0 18.3949,3.5187 25.6613,10.5019 7.2302,6.9831 10.8634,16.2981 10.8634,27.9387 0,11.6828 -3.6332,21.5882 -10.9899,29.8487 -7.3568,8.2123 -17.0332,12.3154 -28.9992,12.3154 -9.809,0 -18.3467,-2.7956 -25.6191,-8.3388 -7.2724,-5.5853 -11.4599,-13.8398 -12.5143,-24.7634l15.2196 -1.2292c1.2231,7.5797 3.9284,13.2072 8.0737,16.8464 4.1032,3.6452 9.0438,5.4648 14.8401,5.4648 7.2663,0 13.1891,-2.7535 17.708,-8.3027 4.5249,-5.5432 6.8084,-12.3998 6.8084,-20.57 0,-8.5557 -2.3679,-15.1111 -7.0976,-19.7264 -4.784,-4.6634 -10.7369,-6.941 -17.931,-6.941 -9.1281,0 -16.274,3.7597 -21.3894,11.3816l-13.6531 -1.7353 11.6708 -60.7456 58.3358 0 0 14.0146 -46.9724 0 -6.2963 31.7526 0.0001 -0.0001z"/>
 </g>
</svg>
