<?xml version="1.0" encoding="UTF-8"?>
<!DOCTYPE svg PUBLIC "-//W3C//DTD SVG 1.1//EN" "http://www.w3.org/Graphics/SVG/1.1/DTD/svg11.dtd">
<!-- Creator: CorelDRAW -->
<svg xmlns="http://www.w3.org/2000/svg" xml:space="preserve" width="254mm" height="307.849mm" style="shape-rendering:geometricPrecision; text-rendering:geometricPrecision; image-rendering:optimizeQuality; fill-rule:evenodd; clip-rule:evenodd"
viewBox="0 0 254 307.849"
 xmlns:xlink="http://www.w3.org/1999/xlink">
 <defs>
  <style type="text/css">
   <![CDATA[
    .fil0 {fill:black;fill-rule:nonzero}
   ]]>
  </style>
 </defs>
 <g id="Capa_x0020_1">
  <metadata id="CorelCorpID_0Corel-Layer"/>
  <path class="fil0" d="M127.006 67.6064c18.8889,0 36.609,4.778 53.0519,14.3038 16.4909,9.568 29.4692,22.5642 38.9769,39.0371 9.4716,16.4186 14.2436,34.1145 14.2436,53.0395 0,18.8829 -4.772,36.5367 -14.3279,52.9554 -9.5077,16.4729 -22.5282,29.4691 -39.0191,38.9528 -16.4488,9.5258 -34.1146,14.2676 -52.9253,14.2676 -18.8167,0 -36.4825,-4.7418 -52.9311,-14.2676 -16.4909,-9.4836 -29.5113,-22.4799 -39.0191,-38.9528 -9.5559,-16.4186 -14.3339,-34.0724 -14.3339,-52.9554 0,-18.9251 4.778,-36.621 14.2496,-53.1303 9.5077,-16.5089 22.486,-29.5053 38.9769,-38.9889 16.4427,-9.5258 34.1628,-14.2616 53.0577,-14.2616l-0.0002 0.0004zm0 196.553c24.6008,0 45.7853,-8.8449 63.5775,-26.5891 17.7984,-17.738 26.7157,-38.9045 26.7157,-63.5837 0,-16.0029 -4.055,-31.0357 -12.1287,-45.0442 -8.1219,-14.0086 -19.1541,-25.1069 -33.1445,-33.1927 -13.9965,-8.122 -28.9993,-12.1468 -45.0202,-12.1468 -24.7756,0 -45.9963,8.8872 -63.7104,26.6735 -17.7141,17.7803 -26.5892,39.0311 -26.5892,63.7103 0,24.6792 8.9173,45.8456 26.7157,63.5838 17.7924,17.7441 38.977,26.5891 63.5838,26.5891l0.0003 -0.0001 0 -0.0001zm16.2318 -95.9753c14.6653,4.7901 22.0281,14.8642 22.0281,30.2705 0,10.2489 -3.5548,18.7985 -10.7007,25.613 -7.1459,6.8205 -16.4005,10.2007 -27.8183,10.2007 -11.5382,0 -20.9194,-3.4223 -28.1557,-10.3272 -7.2242,-6.9049 -10.8634,-15.5811 -10.8634,-25.9986 0,-7.5255 2.0727,-14.0508 6.1336,-19.5095 4.0971,-5.501 9.556,-8.9354 16.4427,-10.2489l0 -0.253c-11.9178,-3.6392 -17.8405,-11.5563 -17.8405,-23.8296 0,-8.6823 3.0849,-15.9185 9.339,-21.7629 6.224,-5.7962 14.3761,-8.7185 24.4442,-8.7185 10.2669,0 18.5575,2.9644 24.896,8.9294 6.3867,5.9228 9.556,13.2072 9.556,21.7991 0,11.6888 -5.8384,19.5216 -17.461,23.5825l0 0.253 0 0zm-16.4909 -5.5853c5.3685,0 9.8934,-1.7353 13.5748,-5.2118 3.6753,-3.4645 5.4949,-7.8267 5.4949,-13.0385 0,-5.3745 -1.8617,-9.9054 -5.6214,-13.5446 -3.7658,-3.6814 -8.3329,-5.5432 -13.7013,-5.5432 -5.4468,0 -9.9717,1.8196 -13.6109,5.4588 -3.6392,3.6392 -5.4528,7.9171 -5.4528,12.7855 0,5.8444 1.898,10.5018 5.6215,13.9242 3.7597,3.4343 8.3268,5.1696 13.6953,5.1696l-0.0001 0 0 0zm0 59.6492c6.7663,0 12.4299,-2.2053 16.991,-6.6458 4.525,-4.4044 6.8085,-10.1223 6.8085,-17.1477 0,-7.0254 -2.3679,-12.7855 -7.0555,-17.2742 -4.7358,-4.4405 -10.4477,-6.6819 -17.2441,-6.6819 -6.941,0 -12.6047,2.3257 -17.0031,6.941 -4.4345,4.6575 -6.6337,10.2007 -6.6337,16.7621 0,6.8567 2.2414,12.5686 6.7603,17.1838 4.4827,4.5731 10.2789,6.8627 17.3766,6.8627z"/>
 </g>
</svg>
