<?xml version="1.0" encoding="UTF-8"?>
<!DOCTYPE svg PUBLIC "-//W3C//DTD SVG 1.1//EN" "http://www.w3.org/Graphics/SVG/1.1/DTD/svg11.dtd">
<!-- Creator: CorelDRAW -->
<svg xmlns="http://www.w3.org/2000/svg" xml:space="preserve" width="254mm" height="307.849mm" style="shape-rendering:geometricPrecision; text-rendering:geometricPrecision; image-rendering:optimizeQuality; fill-rule:evenodd; clip-rule:evenodd"
viewBox="0 0 254 307.849"
 xmlns:xlink="http://www.w3.org/1999/xlink">
 <defs>
  <style type="text/css">
   <![CDATA[
    .fil0 {fill:black;fill-rule:nonzero}
   ]]>
  </style>
 </defs>
 <g id="Capa_x0020_1">
  <metadata id="CorelCorpID_0Corel-Layer"/>
  <path class="fil0" d="M127.006 67.6065c18.8889,0 36.609,4.778 53.0519,14.3038 16.4909,9.568 29.4692,22.5643 38.9769,39.0371 9.4716,16.4186 14.2436,34.1145 14.2436,53.0394 0,18.8829 -4.772,36.5366 -14.3279,52.9553 -9.5077,16.4728 -22.5282,29.4691 -39.0191,38.9528 -16.4488,9.5258 -34.1146,14.2676 -52.9253,14.2676 -18.8167,0 -36.4825,-4.7418 -52.9311,-14.2676 -16.4909,-9.4836 -29.5113,-22.48 -39.0191,-38.9528 -9.5559,-16.4186 -14.3339,-34.0724 -14.3339,-52.9553 0,-18.9251 4.778,-36.621 14.2496,-53.1302 9.5077,-16.509 22.486,-29.5053 38.9769,-38.9889 16.4427,-9.5258 34.1628,-14.2616 53.0577,-14.2616l-0.0002 0.0004zm0 196.553c24.6008,0 45.7853,-8.845 63.5775,-26.5891 17.7984,-17.7381 26.7157,-38.9046 26.7157,-63.5837 0,-16.0028 -4.055,-31.0356 -12.1287,-45.0441 -8.1219,-14.0086 -19.1541,-25.1069 -33.1445,-33.1927 -13.9965,-8.122 -28.9993,-12.1468 -45.0202,-12.1468 -24.7756,0 -45.9963,8.8872 -63.7104,26.6735 -17.7141,17.7803 -26.5892,39.0311 -26.5892,63.7102 0,24.6792 8.9173,45.8456 26.7157,63.5837 17.7924,17.7441 38.977,26.5891 63.5838,26.5891l0.0003 -0.0001zm38.2599 -31.9636l-78.1286 0c0,-6.6457 2.2414,-13.2915 6.8085,-20.0638 4.5189,-6.7361 13.2735,-15.3702 26.2517,-25.9564 8.4955,-6.8145 15.5992,-13.4603 21.3111,-19.9795 5.6998,-6.5193 8.5377,-13.2554 8.5377,-20.1121 0,-5.9227 -2.0727,-10.8754 -6.2602,-14.858 -4.1875,-3.9766 -9.4294,-5.9649 -15.8101,-5.9649 -6.4289,0 -11.8817,2.0305 -16.3222,6.0071 -4.4828,4.0248 -6.6759,10.0801 -6.6759,18.1659l-15.0088 -1.8678c0.9701,-10.6224 4.8624,-18.9613 11.6286,-24.9744 6.8025,-5.9649 15.6836,-8.9714 26.6313,-8.9714 11.6648,0 20.7146,3.1692 27.1435,9.5197 6.4228,6.3988 9.6343,14.0989 9.6343,23.203 0,7.7906 -2.3679,15.0328 -7.1037,21.7569 -4.7298,6.7723 -12.0082,14.2254 -21.7269,22.4016 -12.6408,10.5802 -20.1241,17.015 -22.492,19.2986 -2.3618,2.2474 -4.5189,5.0853 -6.5132,8.4654l58.095 0 0 13.9302 -0.0001 -0.0001z"/>
 </g>
</svg>
