<?xml version="1.0" encoding="UTF-8"?>
<!DOCTYPE svg PUBLIC "-//W3C//DTD SVG 1.1//EN" "http://www.w3.org/Graphics/SVG/1.1/DTD/svg11.dtd">
<!-- Creator: CorelDRAW -->
<svg xmlns="http://www.w3.org/2000/svg" xml:space="preserve" width="89.0mm" height="25.4mm" style="shape-rendering:geometricPrecision; text-rendering:geometricPrecision; image-rendering:optimizeQuality; fill-rule:evenodd; clip-rule:evenodd"
viewBox="0 0 89.0 25.4"
 xmlns:xlink="http://www.w3.org/1999/xlink">
 <defs>
  <style type="text/css">
   <![CDATA[
    .fil0 {fill:black;fill-rule:nonzero}
   ]]>
  </style>
 </defs>
 <g id="Capa_x0020_1">
  <metadata id="CorelCorpID_0Corel-Layer"/>
  <path class="fil0" d="M9.4776 2.7611c2.3538,0 4.3254,0.6626 5.9118,1.9877 1.7846,-1.6718 3.643,-3.0855 5.5751,-4.2413l0.4201 0.7256c-1.7745,1.2564 -3.4643,2.7265 -5.0707,4.4143 4.2424,4.7999 1.8442,14.7118 -6.8998,14.7118 -9.4182,0 -11.0737,-10.3806 -6.549,-15.0073 1.6128,-1.6491 4.2752,-2.5908 6.6125,-2.5908zm5.5735 4.2777c-0.4265,0.4924 -0.8468,1.0011 -1.261,1.5263 -2.3294,2.9547 -4.0097,5.8474 -5.0455,8.6828l-0.6158 0.4058c-0.5298,0.3437 -0.9881,0.6921 -1.37,1.0358 -0.2969,-1.4851 -2.1106,-5.285 -2.6349,-6.0336 -0.4821,-0.6874 -1.0024,-1.0597 -1.5609,-1.1122 2.7159,-2.4926 3.5963,0.0427 5.0216,3.2029 1.7865,-3.2052 4.0081,-6.1688 6.5916,-8.81 -1.4825,-1.5794 -3.3181,-2.3712 -5.5029,-2.3712 -4.1231,0 -6.2654,3.1393 -6.2654,7.1671 0,2.5062 0.7196,4.6186 2.1632,6.3374 4.1702,4.9652 11.9424,2.5323 11.9424,-4.8515 0,-1.992 -0.4883,-3.7192 -1.4624,-5.1796zm8.3798 4.4176c1.2234,-1.2234 2.4384,-1.8373 3.6449,-1.8373 4.3861,0 5.6921,5.8125 2.8449,9.0299 -1.8068,2.0417 -4.0484,2.0746 -6.4898,0.9779l0 2.4934c0,1.6738 0.2423,2.2691 1.9092,2.2691 0.4716,0 0.5421,0.4793 0.0381,0.4742 -1.3757,-0.0138 -2.7449,-0.0691 -4.119,0 -0.2057,0.0103 -0.8552,0.1311 -0.8552,-0.2117 0,-0.5489 1.362,0.2595 1.3293,-2.159 -0.0462,-3.4212 0.0453,-6.8459 -0.0381,-10.266 -0.0481,-1.9751 -1.7738,-0.8625 -1.7738,-1.4393 0,-0.4818 1.8953,-0.422 3.1496,-1.469 0.3967,-0.3311 0.425,0.1214 0.4107,0.4614l-0.0508 1.6764zm0 1.3251l0 4.2291c0,2.8443 4.0377,3.5228 5.6727,1.6087 1.894,-2.2174 0.8907,-7.8741 -2.9083,-7.8741 -1.2189,0 -2.7644,0.7284 -2.7644,2.0363zm12.5477 -1.6595l0 6.24c0,1.4225 0.3753,2.1082 1.7992,2.1082 1.2944,0 2.1463,-0.9371 2.1463,-0.4741 0,1.0765 -5.6558,3.0744 -5.6558,-1.6129l0 -6.2612c-0.5849,0 -2.1013,0.2067 -1.1049,-0.635 3.0195,-2.5534 2.9217,-5.0319 2.8152,-0.5334l2.6416 0c0.8468,0 1.2569,-0.6226 1.2404,-0.2117 -0.0086,0.2156 -0.3072,0.7864 -0.3979,1.0203 -0.0889,0.2413 -0.2709,0.3598 -0.5461,0.3598l-2.938 0zm7.3958 -6.6126c0.3663,0 1.0234,1.0405 1.0287,1.2785 0.0074,0.3333 -0.7526,1.3039 -1.1176,1.3039 -0.3547,0 -1.0668,-0.9635 -1.0668,-1.2785 0,-0.3264 0.8064,-1.3039 1.1557,-1.3039zm0.7705 13.4876c0,1.4712 0.3264,1.4677 1.5748,1.6256 0.4933,0.0624 0.6237,0.5292 0.1016,0.5292l-2.4723 -0.0889 -1.7399 0.1228c-0.3995,0 -0.4503,-0.3739 -0.1101,-0.4869 0.849,-0.2819 0.944,-0.6357 0.944,-1.6256l0 -5.406c0,-1.0879 -0.0077,-1.6468 -1.0541,-1.6468 -0.7785,0 -0.4916,-0.3492 0.1736,-0.5673l2.4215 -1.1049c0.1058,0.0085 0.1609,0.1058 0.1609,0.2963l0 8.3525zm8.8392 -15.2359c2.6124,0 3.0575,1.3044 3.7932,0.5207 0.2083,-0.2219 0.4445,0.0909 0.4445,0.5588 0,0.5532 0.4233,2.3951 0.4233,3.0353 0,0.5512 -0.4069,0.5531 -0.6604,-0.2117 -0.8521,-2.5708 -4.9961,-4.1366 -7.1079,-2.286 -1.5846,1.3886 -0.9233,3.8526 0.7959,4.7075 2.4245,1.2056 7.5439,1.6321 7.5439,6.003 0,4.1169 -4.0442,5.9676 -8.1196,4.9996 -2.3808,-0.5654 -1.905,-0.809 -2.5104,-2.9422 -0.1756,-0.6187 -0.591,-1.9755 -0.072,-1.9474 0.4711,0.0255 0.3128,1.7588 2.2818,3.192 2.9607,2.155 7.201,0.7222 7.201,-2.4088 0,-0.9186 -0.3641,-1.6891 -1.0922,-2.3199 -1.0903,-0.943 -5.3392,-1.6813 -7.1206,-3.4332 -2.3787,-2.3393 -1.2022,-7.4677 4.1995,-7.4677zm12.7002 6.858c2.9308,0 5.4315,2.3643 5.4315,5.3087 0,7.1302 -10.9518,7.3066 -10.9518,0.1101 0,-3.0432 2.4898,-5.4188 5.5203,-5.4188zm-0.3217 0.4953c-5.2239,0 -4.1485,9.7157 0.6816,9.7157 4.0323,0 3.8902,-5.8335 2.1929,-8.1789 -0.7409,-1.0245 -1.7018,-1.5368 -2.8745,-1.5368zm11.0153 -0.1227c0.3297,0 2.3852,0.0819 2.5527,-0.0974 1.0203,-1.0922 0.3782,1.128 -0.199,1.1515l-2.341 0 0 6.8962c0,1.2461 0.166,1.601 1.4012,1.6976 0.5485,0.0429 0.6373,0.4741 0.1101,0.4741 -1.2586,-0.0317 -2.4997,-0.1517 -3.5942,-0.0169 -1.1029,0.1375 -0.8264,-0.3591 -0.5588,-0.4488 0.8599,-0.2881 0.9398,-0.6094 0.9398,-1.6256l0 -6.9766c-0.2492,0 -1.8426,0.1112 -1.8246,-0.1609 0.0753,-1.1397 0.5956,-0.8932 1.8373,-0.8932 0.1848,-3.0387 1.0338,-5.4198 3.2132,-6.9766 1.4845,-1.0604 3.3613,-1.0243 3.3613,-0.3641 0,0.4092 -0.5029,2.1623 -0.8467,1.3758 -0.1736,-0.4106 -0.6096,-0.618 -1.3123,-0.618 -2.6465,0 -2.8004,3.4109 -2.739,6.5829zm7.4168 1.1303l0 6.24c0,1.4225 0.3753,2.1082 1.7992,2.1082 1.2944,0 2.1463,-0.9371 2.1463,-0.4741 0,1.0765 -5.6558,3.0744 -5.6558,-1.6129l0 -6.2612c-0.5849,0 -2.1013,0.2067 -1.1049,-0.635 3.0195,-2.5534 2.9217,-5.0319 2.8152,-0.5334l2.6416 0c0.8468,0 1.2569,-0.6226 1.2404,-0.2117 -0.0086,0.2156 -0.3072,0.7864 -0.3979,1.0203 -0.0889,0.2413 -0.2709,0.3598 -0.5461,0.3598l-2.938 0z"/>
 </g>
</svg>
