<?xml version="1.0" encoding="UTF-8"?>
<!DOCTYPE svg PUBLIC "-//W3C//DTD SVG 1.1//EN" "http://www.w3.org/Graphics/SVG/1.1/DTD/svg11.dtd">
<!-- Creator: CorelDRAW -->
<svg xmlns="http://www.w3.org/2000/svg" xml:space="preserve" width="109.0mm" height="25.4mm" style="shape-rendering:geometricPrecision; text-rendering:geometricPrecision; image-rendering:optimizeQuality; fill-rule:evenodd; clip-rule:evenodd"
viewBox="0 0 109.0 25.4"
 xmlns:xlink="http://www.w3.org/1999/xlink">
 <defs>
  <style type="text/css">
   <![CDATA[
    .fil0 {fill:black;fill-rule:nonzero}
   ]]>
  </style>
 </defs>
 <g id="Capa_x0020_1">
  <metadata id="CorelCorpID_0Corel-Layer"/>
  <path class="fil0" d="M9.4776 2.7611c2.3538,0 4.3254,0.6626 5.9118,1.9877 1.7846,-1.6718 3.643,-3.0855 5.5751,-4.2413l0.4201 0.7256c-1.7745,1.2564 -3.4643,2.7265 -5.0707,4.4143 4.2424,4.7999 1.8442,14.7118 -6.8998,14.7118 -9.4182,0 -11.0737,-10.3806 -6.549,-15.0073 1.6128,-1.6491 4.2752,-2.5908 6.6125,-2.5908zm5.5735 4.2777c-0.4265,0.4924 -0.8468,1.0011 -1.261,1.5263 -2.3294,2.9547 -4.0097,5.8474 -5.0455,8.6828l-0.6158 0.4058c-0.5298,0.3437 -0.9881,0.6921 -1.37,1.0358 -0.2969,-1.4851 -2.1106,-5.285 -2.6349,-6.0336 -0.4821,-0.6874 -1.0024,-1.0597 -1.5609,-1.1122 2.7563,-2.5297 3.6528,0.168 5.0216,3.2029 1.7865,-3.2052 4.0081,-6.1688 6.5916,-8.81 -1.4825,-1.5794 -3.3181,-2.3712 -5.5029,-2.3712 -4.1231,0 -6.2654,3.1393 -6.2654,7.1671 0,2.5062 0.7196,4.6186 2.1632,6.3374 4.1702,4.9652 11.9424,2.5323 11.9424,-4.8515 0,-1.992 -0.4883,-3.7192 -1.4624,-5.1796zm8.3798 4.4176c1.2234,-1.2234 2.4384,-1.8373 3.6449,-1.8373 4.3861,0 5.6921,5.8125 2.8449,9.0299 -1.8068,2.0417 -4.0484,2.0746 -6.4898,0.9779l0 2.4934c0,1.6738 0.2423,2.2691 1.9092,2.2691 0.4716,0 0.5421,0.4793 0.0381,0.4742 -1.3757,-0.0138 -2.7449,-0.0691 -4.119,0 -0.2057,0.0103 -0.8552,0.1311 -0.8552,-0.2117 0,-0.5489 1.362,0.2595 1.3293,-2.159 -0.0462,-3.4212 0.0453,-6.8459 -0.0381,-10.266 -0.0481,-1.9751 -1.7738,-0.8625 -1.7738,-1.4393 0,-0.4818 1.8953,-0.422 3.1496,-1.469 0.3967,-0.3311 0.425,0.1214 0.4107,0.4614l-0.0508 1.6764zm0 1.3251l0 4.2291c0,2.8443 4.0377,3.5228 5.6727,1.6087 1.894,-2.2174 0.8907,-7.8741 -2.9083,-7.8741 -1.2189,0 -2.7644,0.7284 -2.7644,2.0363zm12.5477 -1.6595l0 6.24c0,1.4225 0.3753,2.1082 1.7992,2.1082 1.2944,0 2.1463,-0.9371 2.1463,-0.4741 0,1.0765 -5.6558,3.0744 -5.6558,-1.6129l0 -6.2612c-0.5849,0 -2.1013,0.2067 -1.1049,-0.635 3.0151,-2.5497 2.9217,-5.0312 2.8152,-0.5334l2.6416 0c0.8468,0 1.2569,-0.6226 1.2404,-0.2117 -0.0086,0.2156 -0.3072,0.7864 -0.3979,1.0203 -0.0889,0.2413 -0.2709,0.3598 -0.5461,0.3598l-2.938 0zm7.3958 -6.6126c0.3663,0 1.0234,1.0405 1.0287,1.2785 0.0074,0.3333 -0.7526,1.3039 -1.1176,1.3039 -0.3547,0 -1.0668,-0.9635 -1.0668,-1.2785 0,-0.3264 0.8064,-1.3039 1.1557,-1.3039zm0.7705 13.4876c0,1.4712 0.3264,1.4677 1.5748,1.6256 0.4933,0.0624 0.6237,0.5292 0.1016,0.5292l-2.4723 -0.0889 -1.7399 0.1228c-0.3995,0 -0.4503,-0.3739 -0.1101,-0.4869 0.849,-0.2819 0.944,-0.6357 0.944,-1.6256l0 -5.406c0,-1.0879 -0.0077,-1.6468 -1.0541,-1.6468 -0.7785,0 -0.4916,-0.3492 0.1736,-0.5673l2.4215 -1.1049c0.1058,0.0085 0.1609,0.1058 0.1609,0.2963l0 8.3525zm17.4203 -2.1294l0 -2.794c0,-2.0055 -2.108,-0.9391 -2.1463,-1.6976 -0.0159,-0.3159 0.6734,-0.2249 0.9186,-0.2201l3.1539 -0.0127c0.6044,-0.047 1.2785,-0.2058 1.2785,0.1693 0,0.4729 -1.3417,0.1212 -1.3166,1.6764l0.0127 4.3689c0.0329,1.0205 -0.0149,0.2967 -1.4393,1.126 -2.0756,1.2085 -3.4901,1.8881 -6.0157,1.8881 -8.6567,0 -10.823,-9.9918 -5.9606,-15.0073 2.5052,-2.584 5.9535,-3.0722 9.4278,-2.1802 3.0816,0.7912 2.4156,1.588 3.3655,0.8297 0.4727,-0.3774 0.3993,0.7238 0.4741,1.3505 0.0844,0.7066 0.1177,1.4139 0.2964,2.1082 0.1899,0.7378 -0.257,0.8572 -0.4572,0.4572 -2.1123,-4.2195 -8.4621,-6.3574 -11.8112,-2.3241 -3.767,4.5366 -1.4272,13.9956 5.3214,13.9956 1.9177,0 3.4163,-0.6774 4.5001,-2.0363 0.2667,-0.3302 0.3979,-0.8975 0.3979,-1.6976zm8.4075 -3.9921c0.961,-1.5028 1.8458,-2.2564 2.6543,-2.2564 0.3916,0 1.6294,0.7654 1.6638,1.2023 0.0163,0.2062 -0.754,1.1898 -0.9779,1.1981 -0.2703,0.01 -1.5888,-1.4436 -2.8279,-0.127 -0.3387,0.3598 -0.508,0.8128 -0.508,1.3504l0 4.4281c0,1.7398 0.4096,1.9263 1.8965,2.0321 0.506,0.036 0.5358,0.4953 0.0508,0.4953 -1.2649,-0.0419 -2.9088,-0.214 -4.0937,-0.0381 -0.3105,0.0461 -0.7832,0.1813 -0.7832,-0.1821 0,-0.3339 0.8455,-0.2571 1.0711,-0.7408 0.1058,-0.2244 0.1566,-0.7028 0.1566,-1.4309l0 -5.3214c0,-2.1662 -2.0701,-0.9824 -2.0701,-1.6637 0,-0.2178 0.2658,-0.246 0.4572,-0.2624 2.1987,-0.1889 3.3558,-2.1966 3.3105,-0.5335l0 1.85zm11.2989 2.7052c0,-1.0678 0.1242,-2.8322 -0.5334,-3.5053 -1.0917,-1.1175 -4.3193,-1.3376 -3.4079,1.5833 0.0748,0.2397 0.2065,0.6181 -0.1609,0.6181 -0.4707,0 -1.5367,-0.2458 -1.5367,-0.7959 0,-0.5122 0.2752,-1.0668 0.8298,-1.6595 1.8748,-2.006 6.5109,-1.6379 6.5109,1.6637l0 4.86c0,2.7187 1.2639,2.0654 1.8119,2.0489 0.6068,-0.0182 -0.1393,0.8552 -1.5029,0.8552 -0.6773,0 -1.2911,-0.4191 -1.8373,-1.2531 -1.5738,1.1957 -3.7942,2.0063 -5.1858,0.7366 -1.1269,-1.0281 -0.8872,-2.9893 0.6096,-3.8947 0.8678,-0.525 2.3368,-0.9441 4.4027,-1.2573zm0 0.4868c-1.803,0.1601 -4.0387,0.7974 -4.0387,2.6628 0,1.9978 2.3513,2.4044 3.6069,1.1769 0.2878,-0.2879 0.4318,-0.7493 0.4318,-1.3759l0 -2.4638zm13.17 3.446c-1.3675,1.182 -2.2347,1.8457 -3.8312,1.8457 -4.3399,0 -5.8175,-5.9476 -2.8956,-9.1017 1.7949,-1.9375 4.4678,-2.0886 6.7268,-0.7578l0 -4.898c0,-3.4003 -1.929,-1.7611 -1.9981,-2.4681 -0.048,-0.4913 0.9363,-0.0522 3.2639,-1.4436 0.3982,-0.2381 0.4265,0.0715 0.4361,0.4107l0 15.7693c0,2.3064 1.8373,0.9077 1.8373,1.5833 0,0.4937 -2.2071,0.4059 -2.883,0.7705 -0.8654,0.4668 -0.6562,-0.52 -0.6562,-1.7103zm0 -1.5029l0 -4.0894c0,-0.7451 -0.182,-1.2912 -0.5461,-1.6383 -2.3491,-2.2457 -6.2569,-1.3718 -6.2569,2.9633 0,2.368 1.5739,5.0251 4.064,5.0251 1.4321,0 2.739,-0.7755 2.739,-2.2607zm6.7015 -3.1496c-0.119,2.5383 1.3624,5.2875 4.0429,5.2875 2,0 3.3021,-1.9213 3.3021,-1.1049 0,0.9376 -4.5955,4.2245 -7.6709,0.7789 -2.9976,-3.3584 -0.747,-9.2034 3.3528,-9.2034 1.9262,0 3.1629,1.1196 3.9201,2.866 0.7663,1.7673 -0.0015,1.4098 -2.2606,1.3759l-4.6864 0zm0.0551 -0.6731l4.2037 0c0.652,0 0.9779,-0.1312 0.9779,-0.398 0,-2.7494 -4.6519,-4.2858 -5.1816,0.398z"/>
 </g>
</svg>
