<?xml version="1.0" encoding="UTF-8"?>
<!DOCTYPE svg PUBLIC "-//W3C//DTD SVG 1.1//EN" "http://www.w3.org/Graphics/SVG/1.1/DTD/svg11.dtd">
<!-- Creator: CorelDRAW -->
<svg xmlns="http://www.w3.org/2000/svg" xml:space="preserve" width="114.0mm" height="25.4mm" style="shape-rendering:geometricPrecision; text-rendering:geometricPrecision; image-rendering:optimizeQuality; fill-rule:evenodd; clip-rule:evenodd"
viewBox="0 0 114.0 25.4"
 xmlns:xlink="http://www.w3.org/1999/xlink">
 <defs>
  <style type="text/css">
   <![CDATA[
    .fil0 {fill:black;fill-rule:nonzero}
   ]]>
  </style>
 </defs>
 <g id="Capa_x0020_1">
  <metadata id="CorelCorpID_0Corel-Layer"/>
  <path class="fil0" d="M9.4776 2.7611c2.3538,0 4.3254,0.6626 5.9118,1.9877 1.7846,-1.6718 3.643,-3.0855 5.5751,-4.2413l0.4201 0.7256c-1.7745,1.2564 -3.4643,2.7265 -5.0707,4.4143 4.2424,4.7999 1.8442,14.7118 -6.8998,14.7118 -9.4182,0 -11.0737,-10.3806 -6.549,-15.0073 1.6128,-1.6491 4.2752,-2.5908 6.6125,-2.5908zm5.5735 4.2777c-0.4265,0.4924 -0.8468,1.0011 -1.261,1.5263 -2.3294,2.9547 -4.0097,5.8474 -5.0455,8.6828l-0.6158 0.4058c-0.5298,0.3437 -0.9881,0.6921 -1.37,1.0358 -0.2969,-1.4851 -2.1106,-5.285 -2.6349,-6.0336 -0.4821,-0.6874 -1.0024,-1.0597 -1.5609,-1.1122 2.7563,-2.5297 3.6528,0.168 5.0216,3.2029 1.7865,-3.2052 4.0081,-6.1688 6.5916,-8.81 -1.4825,-1.5794 -3.3181,-2.3712 -5.5029,-2.3712 -4.1231,0 -6.2654,3.1393 -6.2654,7.1671 0,2.5062 0.7196,4.6186 2.1632,6.3374 4.1702,4.9652 11.9424,2.5323 11.9424,-4.8515 0,-1.992 -0.4883,-3.7192 -1.4624,-5.1796zm8.3798 4.4176c1.2234,-1.2234 2.4384,-1.8373 3.6449,-1.8373 4.3861,0 5.6921,5.8125 2.8449,9.0299 -1.8068,2.0417 -4.0484,2.0746 -6.4898,0.9779l0 2.4934c0,1.6738 0.2423,2.2691 1.9092,2.2691 0.4716,0 0.5421,0.4793 0.0381,0.4742 -1.3757,-0.0138 -2.7449,-0.0691 -4.119,0 -0.2057,0.0103 -0.8552,0.1311 -0.8552,-0.2117 0,-0.5489 1.362,0.2595 1.3293,-2.159 -0.0462,-3.4212 0.0453,-6.8459 -0.0381,-10.266 -0.0481,-1.9751 -1.7738,-0.8625 -1.7738,-1.4393 0,-0.4818 1.8953,-0.422 3.1496,-1.469 0.3967,-0.3311 0.425,0.1214 0.4107,0.4614l-0.0508 1.6764zm0 1.3251l0 4.2291c0,2.8443 4.0377,3.5228 5.6727,1.6087 1.894,-2.2174 0.8907,-7.8741 -2.9083,-7.8741 -1.2189,0 -2.7644,0.7284 -2.7644,2.0363zm12.5477 -1.6595l0 6.24c0,1.4225 0.3753,2.1082 1.7992,2.1082 1.2944,0 2.1463,-0.9371 2.1463,-0.4741 0,1.0765 -5.6558,3.0744 -5.6558,-1.6129l0 -6.2612c-0.5849,0 -2.1013,0.2067 -1.1049,-0.635 3.0151,-2.5497 2.9217,-5.0312 2.8152,-0.5334l2.6416 0c0.8468,0 1.2569,-0.6226 1.2404,-0.2117 -0.0086,0.2156 -0.3072,0.7864 -0.3979,1.0203 -0.0889,0.2413 -0.2709,0.3598 -0.5461,0.3598l-2.938 0zm7.3958 -6.6126c0.3663,0 1.0234,1.0405 1.0287,1.2785 0.0074,0.3333 -0.7526,1.3039 -1.1176,1.3039 -0.3547,0 -1.0668,-0.9635 -1.0668,-1.2785 0,-0.3264 0.8064,-1.3039 1.1557,-1.3039zm0.7705 13.4876c0,1.4712 0.3264,1.4677 1.5748,1.6256 0.4933,0.0624 0.6237,0.5292 0.1016,0.5292l-2.4723 -0.0889 -1.7399 0.1228c-0.3995,0 -0.4503,-0.3739 -0.1101,-0.4869 0.849,-0.2819 0.944,-0.6357 0.944,-1.6256l0 -5.406c0,-1.0879 -0.0077,-1.6468 -1.0541,-1.6468 -0.7785,0 -0.4916,-0.3492 0.1736,-0.5673l2.4215 -1.1049c0.1058,0.0085 0.1609,0.1058 0.1609,0.2963l0 8.3525zm8.8392 -15.2359c2.6124,0 3.0575,1.3044 3.7932,0.5207 0.2083,-0.2219 0.4445,0.0909 0.4445,0.5588 0,0.5532 0.4233,2.3951 0.4233,3.0353 0,0.5512 -0.4069,0.5531 -0.6604,-0.2117 -0.8521,-2.5708 -4.9961,-4.1366 -7.1079,-2.286 -1.5846,1.3886 -0.9233,3.8526 0.7959,4.7075 2.4245,1.2056 7.5439,1.6321 7.5439,6.003 0,4.1169 -4.0442,5.9676 -8.1196,4.9996 -2.3417,-0.5561 -1.8974,-0.7822 -2.5104,-2.9422 -0.1756,-0.6187 -0.591,-1.9755 -0.072,-1.9474 0.4711,0.0255 0.3128,1.7588 2.2818,3.192 2.9607,2.155 7.201,0.7222 7.201,-2.4088 0,-0.9186 -0.3641,-1.6891 -1.0922,-2.3199 -1.0903,-0.943 -5.3392,-1.6813 -7.1206,-3.4332 -2.3787,-2.3393 -1.2022,-7.4677 4.1995,-7.4677zm15.5578 15.7397c-0.961,1.2404 -2.1252,1.8584 -3.501,1.8584 -2.4309,0 -3.7018,-1.6557 -3.6831,-4.0682l0.0127 -4.9277c0,-1.6686 -1.5579,-0.8156 -1.524,-1.4224 0.018,-0.3218 1.3742,-0.2762 1.7061,-0.2964 1.9593,-0.1195 1.523,-1.7501 1.4901,6.0919 -0.0022,0.5284 0.088,1.4104 0.199,1.8965 0.2383,1.0438 1.4858,1.8373 2.5061,1.8373 1.186,0 2.7941,-0.823 2.7941,-2.0997l0 -5.931c0,-1.8801 -1.5367,-0.8526 -1.5367,-1.4605 0,-0.5144 1.3899,-0.1694 2.6882,-0.5588 0.338,-0.1014 0.5588,-0.1229 0.5588,0.381l0 8.0603c0,1.3523 0.2281,1.5928 1.4139,1.5495 0.403,-0.0147 0.4895,0.4325 -0.436,0.4868l-1.8204 0.1482c-0.9227,0.23 -0.8319,-0.2158 -0.8678,-1.5452zm8.3778 -6.6253c0.961,-1.5028 1.8458,-2.2564 2.6543,-2.2564 0.3916,0 1.6294,0.7654 1.6638,1.2023 0.0163,0.2062 -0.754,1.1898 -0.9779,1.1981 -0.2703,0.01 -1.5888,-1.4436 -2.8279,-0.127 -0.3387,0.3598 -0.508,0.8128 -0.508,1.3504l0 4.4281c0,1.7398 0.4096,1.9263 1.8965,2.0321 0.506,0.036 0.5358,0.4953 0.0508,0.4953 -1.2649,-0.0419 -2.9088,-0.214 -4.0937,-0.0381 -0.3105,0.0461 -0.7832,0.1813 -0.7832,-0.1821 0,-0.3339 0.8455,-0.2571 1.0711,-0.7408 0.1058,-0.2244 0.1566,-0.7028 0.1566,-1.4309l0 -5.3214c0,-2.1662 -2.0701,-0.9824 -2.0701,-1.6637 0,-0.2178 0.2658,-0.246 0.4572,-0.2624 2.1987,-0.1889 3.3558,-2.1966 3.3105,-0.5335l0 1.85zm11.337 6.3332l2.0828 -4.4027c0.4233,-0.9102 0.635,-1.6892 0.635,-2.3326 0,-1.1718 -1.524,-0.8688 -1.524,-1.2997 0,-0.4198 0.7667,-0.1947 1.6849,-0.1947l2.159 -0.0635c0.4749,0 0.3499,0.3398 -0.2371,0.5673 -0.3386,0.1312 -0.6604,0.5122 -0.9567,1.143l-4.0429 8.4371c-0.2082,0.439 -0.6825,0.3937 -0.8678,-0.0381l-3.5942 -8.162c-0.6398,-1.4482 -1.6129,-1.3652 -1.6129,-1.6975 0,-0.2988 0.3842,-0.2672 0.6562,-0.2329 0.3214,0.0405 2.5961,0.1104 3.3105,0.0466 0.349,-0.0312 0.8424,-0.1722 0.8424,0.2117 0,0.5407 -2.1052,-0.2035 -1.2531,1.7737l2.7179 6.2443zm7.0189 -4.3477c-0.119,2.5383 1.3624,5.2875 4.0429,5.2875 2,0 3.3021,-1.9213 3.3021,-1.1049 0,0.9376 -4.5955,4.2245 -7.6709,0.7789 -2.9976,-3.3584 -0.747,-9.2034 3.3528,-9.2034 1.9262,0 3.1629,1.1196 3.9201,2.866 0.7663,1.7673 -0.0015,1.4098 -2.2606,1.3759l-4.6864 0zm0.0551 -0.6731l4.2037 0c0.652,0 0.9779,-0.1312 0.9779,-0.398 0,-2.7494 -4.6519,-4.2858 -5.1816,0.398zm13.6018 5.0758l1.8627 -5.1224c1.1638,-3.2226 -1.3293,-2.4198 -1.3293,-3.0396 0,-0.3311 0.4628,-0.1973 0.7451,-0.1735 0.7089,0.0598 2.3453,-0.0254 2.976,-0.0254 0.375,0 0.3079,0.3613 0,0.4868 -0.7201,0.2934 -0.8385,0.4897 -1.1176,1.2658l-4.39 12.3784c-0.2777,0.8336 -0.1774,0.8171 -1.2277,0.8171 -1.7603,0 -0.3847,-0.2617 0.8128,-2.4639 0.8128,-1.4947 0.8358,-1.8679 0.1821,-3.3951l-3.1116 -7.2222c-0.8212,-1.9 -1.5028,-1.1395 -1.5028,-1.6087 0,-0.4041 0.6936,-0.269 1.016,-0.2328 0.7711,0.0865 2.6618,-0.0126 3.3359,-0.0254 0.4554,-0.0086 0.5659,0.4294 -0.3345,0.5673 -1.1494,0.1761 -0.7408,1.0694 -0.3471,1.9981l2.43 5.7955z"/>
 </g>
</svg>
