<?xml version="1.0" encoding="UTF-8"?>
<!DOCTYPE svg PUBLIC "-//W3C//DTD SVG 1.1//EN" "http://www.w3.org/Graphics/SVG/1.1/DTD/svg11.dtd">
<!-- Creator: CorelDRAW -->
<svg xmlns="http://www.w3.org/2000/svg" xml:space="preserve" width="84.0mm" height="25.4mm" style="shape-rendering:geometricPrecision; text-rendering:geometricPrecision; image-rendering:optimizeQuality; fill-rule:evenodd; clip-rule:evenodd"
viewBox="0 0 84.0 25.4"
 xmlns:xlink="http://www.w3.org/1999/xlink">
 <defs>
  <style type="text/css">
   <![CDATA[
    .fil0 {fill:black;fill-rule:nonzero}
   ]]>
  </style>
 </defs>
 <g id="Capa_x0020_1">
  <metadata id="CorelCorpID_0Corel-Layer"/>
  <path class="fil0" d="M9.4776 2.7611c2.3538,0 4.3254,0.6626 5.9118,1.9877 1.7846,-1.6718 3.643,-3.0855 5.5751,-4.2413l0.4201 0.7256c-1.7745,1.2564 -3.4643,2.7265 -5.0707,4.4143 4.2424,4.7999 1.8442,14.7118 -6.8998,14.7118 -9.4182,0 -11.0737,-10.3806 -6.549,-15.0073 1.6128,-1.6491 4.2752,-2.5908 6.6125,-2.5908zm5.5735 4.2777c-0.4265,0.4924 -0.8468,1.0011 -1.261,1.5263 -2.3294,2.9547 -4.0097,5.8474 -5.0455,8.6828l-0.6158 0.4058c-0.5298,0.3437 -0.9881,0.6921 -1.37,1.0358 -0.2969,-1.4851 -2.1106,-5.285 -2.6349,-6.0336 -0.4821,-0.6874 -1.0024,-1.0597 -1.5609,-1.1122 2.7159,-2.4926 3.5963,0.0427 5.0216,3.2029 1.7865,-3.2052 4.0081,-6.1688 6.5916,-8.81 -1.4825,-1.5794 -3.3181,-2.3712 -5.5029,-2.3712 -4.1231,0 -6.2654,3.1393 -6.2654,7.1671 0,2.5062 0.7196,4.6186 2.1632,6.3374 4.1702,4.9652 11.9424,2.5323 11.9424,-4.8515 0,-1.992 -0.4883,-3.7192 -1.4624,-5.1796zm8.3798 4.4176c1.2234,-1.2234 2.4384,-1.8373 3.6449,-1.8373 4.3861,0 5.6921,5.8125 2.8449,9.0299 -1.8068,2.0417 -4.0484,2.0746 -6.4898,0.9779l0 2.4934c0,1.6738 0.2423,2.2691 1.9092,2.2691 0.4716,0 0.5421,0.4793 0.0381,0.4742 -1.3757,-0.0138 -2.7449,-0.0691 -4.119,0 -0.2057,0.0103 -0.8552,0.1311 -0.8552,-0.2117 0,-0.5489 1.362,0.2595 1.3293,-2.159 -0.0462,-3.4212 0.0453,-6.8459 -0.0381,-10.266 -0.0481,-1.9751 -1.7738,-0.8625 -1.7738,-1.4393 0,-0.4818 1.8953,-0.422 3.1496,-1.469 0.3967,-0.3311 0.425,0.1214 0.4107,0.4614l-0.0508 1.6764zm0 1.3251l0 4.2291c0,2.8443 4.0377,3.5228 5.6727,1.6087 1.894,-2.2174 0.8907,-7.8741 -2.9083,-7.8741 -1.2189,0 -2.7644,0.7284 -2.7644,2.0363zm12.5477 -1.6595l0 6.24c0,1.4225 0.3753,2.1082 1.7992,2.1082 1.2944,0 2.1463,-0.9371 2.1463,-0.4741 0,1.0765 -5.6558,3.0744 -5.6558,-1.6129l0 -6.2612c-0.5849,0 -2.1013,0.2067 -1.1049,-0.635 3.0195,-2.5534 2.9217,-5.0319 2.8152,-0.5334l2.6416 0c0.8468,0 1.2569,-0.6226 1.2404,-0.2117 -0.0086,0.2156 -0.3072,0.7864 -0.3979,1.0203 -0.0889,0.2413 -0.2709,0.3598 -0.5461,0.3598l-2.938 0zm7.3958 -6.6126c0.3663,0 1.0234,1.0405 1.0287,1.2785 0.0074,0.3333 -0.7526,1.3039 -1.1176,1.3039 -0.3547,0 -1.0668,-0.9635 -1.0668,-1.2785 0,-0.3264 0.8064,-1.3039 1.1557,-1.3039zm0.7705 13.4876c0,1.4712 0.3264,1.4677 1.5748,1.6256 0.4933,0.0624 0.6237,0.5292 0.1016,0.5292l-2.4723 -0.0889 -1.7399 0.1228c-0.3995,0 -0.4503,-0.3739 -0.1101,-0.4869 0.849,-0.2819 0.944,-0.6357 0.944,-1.6256l0 -5.406c0,-1.0879 -0.0077,-1.6468 -1.0541,-1.6468 -0.7785,0 -0.4916,-0.3492 0.1736,-0.5673l2.4215 -1.1049c0.1058,0.0085 0.1609,0.1058 0.1609,0.2963l0 8.3525zm7.4719 -1.3208c0.066,2.2439 -0.2079,2.4681 2.159,2.4681 1.9409,0 5.375,-0.3918 6.2061,-2.0109 0.4793,-0.9336 0.9944,0.09 -0.2751,1.7145 -1.3013,1.6653 -3.7034,1.3645 -5.7193,1.215 -1.4662,-0.1087 -3.692,-0.1364 -5.0505,0.0593 -0.3036,0.0437 -1.0033,0.2341 -1.0033,-0.144 0,-0.3588 1.0922,-0.3822 1.4859,-1.0583 0.2474,-0.4249 0.2964,-1.5078 0.3048,-2.2649l0 -11.0914c0,-2.4275 -2.1971,-1.7247 -2.1971,-2.2818 0,-0.4405 0.825,-0.2678 1.2023,-0.2329 1.1457,0.106 2.8263,0.078 3.9667,0.0085 0.357,-0.0218 0.8297,-0.1215 0.8297,0.1609 0,0.7697 -1.9092,-0.2647 -1.9092,2.6755l0 10.7824zm15.4815 -2.0955c0,-1.0678 0.1242,-2.8322 -0.5334,-3.5053 -1.0917,-1.1175 -4.3193,-1.3376 -3.4079,1.5833 0.0748,0.2397 0.2065,0.6181 -0.1609,0.6181 -0.4707,0 -1.5367,-0.2458 -1.5367,-0.7959 0,-0.5122 0.2752,-1.0668 0.8298,-1.6595 1.786,-1.911 6.5109,-1.736 6.5109,1.6637l0 4.86c0,2.7187 1.2639,2.0654 1.8119,2.0489 0.6068,-0.0182 -0.1393,0.8552 -1.5029,0.8552 -0.6773,0 -1.2911,-0.4191 -1.8373,-1.2531 -1.5738,1.1957 -3.7942,2.0063 -5.1858,0.7366 -1.1269,-1.0281 -0.8872,-2.9893 0.6096,-3.8947 0.8678,-0.525 2.3368,-0.9441 4.4027,-1.2573zm0 0.4868c-1.803,0.1601 -4.0387,0.7974 -4.0387,2.6628 0,1.9978 2.3513,2.4044 3.6069,1.1769 0.2878,-0.2879 0.4318,-0.7493 0.4318,-1.3759l0 -2.4638zm7.7301 -3.8608c1.3276,-1.0546 2.1764,-1.5876 3.7297,-1.5876 4.6631,0 5.5167,6.0554 2.8956,9.068 -1.8499,2.1261 -4.7813,2.1668 -6.9597,0.4699 -0.4144,-0.3228 -0.4908,-0.0819 -0.8043,0.5334 -0.5296,1.0395 -0.8798,0.8126 -0.6604,-0.1609 0.0635,-0.2921 0.0973,-0.7535 0.0973,-1.3886l0 -12.3657c0,-1.1782 0.0207,-1.7568 -0.563,-2.2098 -0.5047,-0.3917 -0.8278,0.019 -1.2616,-0.1355 -0.2761,-0.0984 -0.034,-0.4114 0.3006,-0.4868 2.4037,-0.5418 3.2258,-1.7897 3.2258,-0.8043l0 9.0679zm0 1.4605l-0.0127 4.3604c0.0863,0.9751 0.5403,1.639 1.4563,2.1886 2.4685,1.4811 5.368,0.0315 5.368,-3.6703 0,-3.6237 -3.6779,-6.728 -6.3925,-4.081 -0.2794,0.2709 -0.4191,0.6731 -0.4191,1.2023z"/>
 </g>
</svg>
