<?xml version="1.0" encoding="UTF-8"?>
<!DOCTYPE svg PUBLIC "-//W3C//DTD SVG 1.1//EN" "http://www.w3.org/Graphics/SVG/1.1/DTD/svg11.dtd">
<!-- Creator: CorelDRAW -->
<svg xmlns="http://www.w3.org/2000/svg" xml:space="preserve" width="90.0mm" height="25.4mm" style="shape-rendering:geometricPrecision; text-rendering:geometricPrecision; image-rendering:optimizeQuality; fill-rule:evenodd; clip-rule:evenodd"
viewBox="0 0 90.0 25.4"
 xmlns:xlink="http://www.w3.org/1999/xlink">
 <defs>
  <style type="text/css">
   <![CDATA[
    .fil0 {fill:black;fill-rule:nonzero}
   ]]>
  </style>
 </defs>
 <g id="Capa_x0020_1">
  <metadata id="CorelCorpID_0Corel-Layer"/>
  <path class="fil0" d="M9.7244 2.3978c2.3775,0 4.3338,0.6372 5.8688,1.9149 1.0059,-1.3749 1.6567,-2.2584 2.7505,-3.1363 0.621,-0.4984 2.9115,-0.6689 3.2512,-0.6689 0.4755,0 0.271,0.3995 0,0.6435 -1.3943,1.241 -2.8458,2.9296 -4.3518,5.0659 0.7415,1.2285 1.1131,2.6769 1.1131,4.3427 0,2.6543 -0.8171,4.9022 -2.4554,6.7437 -1.5959,1.8034 -3.7973,2.7051 -6.5997,2.7051 -9.4722,0 -10.7749,-10.1931 -6.5744,-14.7828 1.715,-1.8739 4.4126,-2.8278 6.9977,-2.8278zm-0.2495 12.6427c1.3144,-2.9938 2.8528,-5.9026 4.6063,-8.5618 -2.1835,-3.7126 -6.9645,-4.1913 -9.1574,-1.3039 -2.8126,3.7034 -1.6031,13.915 4.9361,13.915 4.8037,0 6.2752,-5.585 5.3359,-9.7304 -1.3029,2.1738 -2.4365,4.4472 -3.4011,6.8241 -0.4699,1.1473 -0.8001,1.8542 -0.9863,2.1125 -0.2999,0.4191 -2.4796,0.5633 -2.938,0.2074 -0.1608,-0.127 -0.4529,-0.5165 -0.8763,-1.1811 -0.7239,-1.0964 -1.507,-2.0913 -2.341,-2.976 -0.8423,-0.8882 -0.9466,-1.383 0.072,-2.0871 1.1133,-0.7696 1.6789,-0.6494 2.7855,0.2329 0.6138,0.491 1.27,1.3419 1.9643,2.5484zm11.9674 6.0686l0 -8.4794c0.0227,-0.9298 0.0452,-1.9433 -1.2912,-1.7991 -0.4781,0.0516 -0.4686,-0.5214 -0.11,-0.5842 1.172,-0.2054 2.2033,-0.3779 2.976,-0.9314 0.7848,-0.5622 0.9171,-0.6051 0.9313,0.199 0.0049,0.2752 -0.1596,1.6231 0.4572,1.1557 1.3387,-1.0145 1.8166,-1.4901 3.2512,-1.4901 4.9081,0 5.365,6.5222 2.3834,9.4022 -2.6399,2.5501 -5.5142,0.9779 -5.9182,0.9779 -0.292,0 -0.1863,1.3251 -0.1863,1.5494 0,2.8783 2.3199,1.6372 2.3199,2.4596 0,0.7867 -1.2526,0.0635 -2.5188,0.0635l-2.9295 0.1735c-0.5417,0 -0.6468,-0.5075 -0.1482,-0.6858 0.8507,-0.3042 0.7832,-0.9343 0.7832,-2.0108zm2.4934 -8.9789l0 4.826c0,1.6694 3.6117,3.3041 5.1478,1.2404 1.7456,-2.345 0.356,-7.3787 -3.0777,-7.3787 -0.8285,0 -2.0701,0.3989 -2.0701,1.3123zm13.1826 -1.397l0 6.0537c0,1.7527 0.7088,2.304 2.3495,1.8118 0.8666,-0.26 1.0124,-0.7684 1.16,-0.055 -1.0084,1.4405 -4.1145,2.0345 -5.351,0.834 -0.436,-0.4234 -0.6519,-1.0753 -0.6519,-1.9601l0 -6.6844c-0.3448,0 -1.3504,0.1167 -1.3504,-0.3217 0,-0.1355 0.1016,-0.271 0.309,-0.4107 0.5956,-0.4027 2.4674,-2.32 2.8533,-2.9294 0.252,-0.398 0.6637,-0.8966 0.6815,-0.4107l0 2.8787c0.5216,0 2.112,0.1094 2.5062,-0.1609 1.1551,-0.7922 0.6295,0.1177 0.508,0.7197 -0.0889,0.4233 -0.3175,0.635 -0.6816,0.635l-2.3326 0zm7.0189 -7.7766c0.2737,0 1.6288,1.5308 1.651,1.9473 0.0189,0.3547 -1.2488,1.96 -1.6383,1.96 -0.3614,0 -0.7028,-0.6057 -0.9144,-0.8551 -0.8513,-1.0032 -1.0976,-0.8758 -0.0254,-2.1717 0.4869,-0.5884 0.7959,-0.8805 0.9271,-0.8805zm1.342 6.7733l0 7.0273c0,3.2689 2.1971,1.8038 2.1971,2.6078 0,0.6201 -2.9599,0.11 -3.4629,0.11 -1.2453,0 -2.4553,0.4957 -2.4553,-0.0127 0,-0.4058 0.7031,-0.1956 1.0499,-1.1049 0.1957,-0.513 0.1844,-1.0439 0.1778,-1.5875l0 -4.1994c0,-2.5364 -1.1864,-1.358 -1.5494,-1.8077 -0.2209,-0.2736 0.2094,-0.5399 0.7196,-0.6477 2.0849,-0.4403 3.0044,-1.2974 3.175,-1.2911 0.265,0.0097 0.1482,0.6327 0.1482,0.9059zm7.8021 -7.3194c2.1598,0 3.4726,1.3118 4.2629,0.9271 1.1152,-0.5429 0.9247,-0.3461 0.906,1.1303 -0.0107,0.844 0.3344,2.208 0.3344,3.0395 0,0.6725 -0.4906,0.7228 -0.6308,0.0635 -0.649,-3.0526 -4.5139,-5.6193 -6.8368,-3.5094 -1.0406,0.9452 -1.124,2.4613 -0.0974,3.4332 1.026,0.9714 5.3793,2.035 6.8326,3.8058 2.7582,3.3608 0.1827,8.7079 -4.0894,8.7079 -1.2262,0 -2.7728,-0.7081 -3.992,-0.9567 -1.1247,-0.2293 -0.5486,-0.2432 -1.1938,-2.5442 -0.292,-1.0415 -0.8436,-2.7517 -0.0847,-2.7517 0.4211,0 0.3459,1.9421 2.3538,3.882 3.9847,3.8498 7.7937,-0.9008 5.825,-3.319 -1.1167,-1.3716 -5.5852,-2.3973 -7.2855,-4.2841 -2.1474,-2.3828 -0.6961,-7.6242 3.6957,-7.6242zm13.4238 6.7691c5.3104,0 7.0396,6.062 3.7423,9.2329 -3.3521,3.2236 -9.5335,1.412 -9.5335,-3.5899 0,-3.1785 2.6314,-5.643 5.7912,-5.643zm-0.6434 0.6731c-4.2712,0 -2.9498,9.4826 1.1006,9.4826 4.3692,0 2.8715,-9.4826 -1.1006,-9.4826zm13.6355 0.9228c-0.968,0 -1.9346,-0.2295 -1.9346,0.779l0 5.0715c0,1.6072 0.1386,2.1847 1.6595,2.4892 0.5192,0.1039 0.5963,0.6477 0.0635,0.6477 -0.4477,0 -1.8914,-0.2371 -2.6797,-0.2371 -0.9576,0 -1.9578,0.2117 -2.43,0.2117 -0.3675,0 -0.2793,-0.3988 -0.0254,-0.5461 0.538,-0.3121 0.9187,-0.5679 0.9187,-1.3377l0 -6.4728c0,-1.1091 -2.0667,-0.0811 -1.723,-1.0033 0.299,-0.8022 -0.1728,-0.7281 0.9525,-0.7959 0.615,-0.0371 0.7721,-0.1931 0.8213,-0.817 0.1397,-1.8203 0.5249,-3.2935 1.1514,-4.4196 0.9441,-1.6891 2.0236,-2.5315 3.2385,-2.5315 1.8968,0 0.9709,1.1935 0.8171,2.2479 -0.0509,0.3491 -0.37,0.4304 -0.4318,0.1354 -0.0777,-0.3711 -0.1344,-0.602 -0.5123,-0.8847 -2.1034,-1.5735 -1.84,3.2995 -1.8542,4.3476 -0.0134,0.9845 -0.2813,1.8838 0.9144,1.8838 1.3421,0 1.1242,0.104 1.8585,-0.4191 0.1951,-0.139 0.3165,-0.0789 0.1989,0.2202 -0.382,0.972 -0.1753,1.4308 -1.0033,1.4308zm5.9182 -0.0423l0 6.0537c0,1.7527 0.7088,2.304 2.3495,1.8118 0.8666,-0.26 1.0124,-0.7684 1.16,-0.055 -1.0084,1.4405 -4.1145,2.0345 -5.351,0.834 -0.436,-0.4234 -0.6519,-1.0753 -0.6519,-1.9601l0 -6.6844c-0.3448,0 -1.3504,0.1167 -1.3504,-0.3217 0,-0.1355 0.1016,-0.271 0.309,-0.4107 0.5956,-0.4027 2.4674,-2.32 2.8533,-2.9294 0.252,-0.398 0.6637,-0.8966 0.6815,-0.4107l0 2.8787c0.5216,0 2.112,0.1094 2.5062,-0.1609 1.1551,-0.7922 0.6295,0.1177 0.508,0.7197 -0.0889,0.4233 -0.3175,0.635 -0.6816,0.635l-2.3326 0z"/>
 </g>
</svg>
