<?xml version="1.0" encoding="UTF-8"?>
<!DOCTYPE svg PUBLIC "-//W3C//DTD SVG 1.1//EN" "http://www.w3.org/Graphics/SVG/1.1/DTD/svg11.dtd">
<!-- Creator: CorelDRAW -->
<svg xmlns="http://www.w3.org/2000/svg" xml:space="preserve" width="111.0mm" height="25.4mm" style="shape-rendering:geometricPrecision; text-rendering:geometricPrecision; image-rendering:optimizeQuality; fill-rule:evenodd; clip-rule:evenodd"
viewBox="0 0 111.0 25.4"
 xmlns:xlink="http://www.w3.org/1999/xlink">
 <defs>
  <style type="text/css">
   <![CDATA[
    .fil0 {fill:black;fill-rule:nonzero}
   ]]>
  </style>
 </defs>
 <g id="Capa_x0020_1">
  <metadata id="CorelCorpID_0Corel-Layer"/>
  <path class="fil0" d="M9.7244 2.3978c2.3775,0 4.3338,0.6372 5.8688,1.9149 1.0059,-1.3749 1.6567,-2.2584 2.7505,-3.1363 0.621,-0.4984 2.9115,-0.6689 3.2512,-0.6689 0.4755,0 0.271,0.3995 0,0.6435 -1.3943,1.241 -2.8458,2.9296 -4.3518,5.0659 0.7415,1.2285 1.1131,2.6769 1.1131,4.3427 0,2.6543 -0.8171,4.9022 -2.4554,6.7437 -1.5959,1.8034 -3.7973,2.7051 -6.5997,2.7051 -9.4722,0 -10.7749,-10.1931 -6.5744,-14.7828 1.715,-1.8739 4.4126,-2.8278 6.9977,-2.8278zm-0.2495 12.6427c1.3144,-2.9938 2.8528,-5.9026 4.6063,-8.5618 -2.1835,-3.7126 -6.9645,-4.1913 -9.1574,-1.3039 -2.8126,3.7034 -1.6031,13.915 4.9361,13.915 4.8037,0 6.2752,-5.585 5.3359,-9.7304 -1.3029,2.1738 -2.4365,4.4472 -3.4011,6.8241 -0.4699,1.1473 -0.8001,1.8542 -0.9863,2.1125 -0.2999,0.4191 -2.4796,0.5633 -2.938,0.2074 -0.1608,-0.127 -0.4529,-0.5165 -0.8763,-1.1811 -0.7239,-1.0964 -1.507,-2.0913 -2.341,-2.976 -0.8423,-0.8882 -0.9466,-1.383 0.072,-2.0871 1.1133,-0.7696 1.6789,-0.6494 2.7855,0.2329 0.6138,0.491 1.27,1.3419 1.9643,2.5484zm11.9674 6.0686l0 -8.4794c0.0227,-0.9298 0.0452,-1.9433 -1.2912,-1.7991 -0.4781,0.0516 -0.4686,-0.5214 -0.11,-0.5842 1.172,-0.2054 2.2033,-0.3779 2.976,-0.9314 0.7848,-0.5622 0.9171,-0.6051 0.9313,0.199 0.0049,0.2752 -0.1596,1.6231 0.4572,1.1557 1.3387,-1.0145 1.8166,-1.4901 3.2512,-1.4901 4.9081,0 5.365,6.5222 2.3834,9.4022 -2.6398,2.55 -5.4793,0.9779 -5.9182,0.9779 -0.292,0 -0.1863,1.3251 -0.1863,1.5494 0,2.8783 2.3199,1.6372 2.3199,2.4596 0,0.7867 -1.2526,0.0635 -2.5188,0.0635l-2.9295 0.1735c-0.5417,0 -0.6468,-0.5075 -0.1482,-0.6858 0.8507,-0.3042 0.7832,-0.9343 0.7832,-2.0108zm2.4934 -8.9789l0 4.826c0,1.6694 3.6117,3.3041 5.1478,1.2404 1.7456,-2.345 0.356,-7.3787 -3.0777,-7.3787 -0.8285,0 -2.0701,0.3989 -2.0701,1.3123zm13.1826 -1.397l0 6.0537c0,1.7527 0.7088,2.304 2.3495,1.8118 0.8666,-0.26 1.0124,-0.7684 1.16,-0.055 -1.0084,1.4405 -4.1145,2.0345 -5.351,0.834 -0.436,-0.4234 -0.6519,-1.0753 -0.6519,-1.9601l0 -6.6844c-0.3448,0 -1.3504,0.1167 -1.3504,-0.3217 0,-0.1355 0.1016,-0.271 0.309,-0.4107 0.5956,-0.4027 2.4674,-2.32 2.8533,-2.9294 0.252,-0.398 0.6637,-0.8966 0.6815,-0.4107l0 2.8787c0.5216,0 2.112,0.1094 2.5062,-0.1609 1.1551,-0.7922 0.6295,0.1177 0.508,0.7197 -0.0889,0.4233 -0.3175,0.635 -0.6816,0.635l-2.3326 0zm7.0189 -7.7766c0.2737,0 1.6288,1.5308 1.651,1.9473 0.0189,0.3547 -1.2488,1.96 -1.6383,1.96 -0.3614,0 -0.7028,-0.6057 -0.9144,-0.8551 -0.8513,-1.0032 -1.0976,-0.8758 -0.0254,-2.1717 0.4869,-0.5884 0.7959,-0.8805 0.9271,-0.8805zm1.342 6.7733l0 7.0273c0,3.2689 2.1971,1.8038 2.1971,2.6078 0,0.6201 -2.9599,0.11 -3.4629,0.11 -1.2453,0 -2.4553,0.4957 -2.4553,-0.0127 0,-0.4058 0.7031,-0.1956 1.0499,-1.1049 0.1957,-0.513 0.1844,-1.0439 0.1778,-1.5875l0 -4.1994c0,-2.5364 -1.1864,-1.358 -1.5494,-1.8077 -0.2209,-0.2736 0.2094,-0.5399 0.7196,-0.6477 2.0849,-0.4403 3.0044,-1.2974 3.175,-1.2911 0.265,0.0097 0.1482,0.6327 0.1482,0.9059zm11.5782 -7.3194c3.3624,0 5.4481,1.9366 6.0664,1.38 1.3137,-1.1825 0.565,1.6872 0.8551,4.3604 0.0349,0.3216 0.0072,0.6186 -0.3725,0.5969 -0.5376,-0.0308 -0.0903,-1.4664 -1.922,-3.4333 -3.4121,-3.6641 -10.0922,-2.6306 -10.0922,5.2832 0,2.3622 0.5207,4.3519 1.5663,5.969 1.5032,2.3218 3.2272,2.7947 5.5965,2.1167 2.1746,-0.6223 2.4807,-1.2287 2.4807,-3.5221 0,-3.7909 -2.9125,-2.0451 -2.9125,-3.0734 0,-0.4149 0.5149,-0.3451 0.8805,-0.3133 1.2445,0.1082 3.9471,0.166 5.0842,0.0254 0.4058,-0.0502 1.3759,-0.2757 1.3759,0.2498 0,0.5342 -1.0315,0.2267 -1.4394,1.1514 -0.5985,1.357 0.0684,3.8744 -0.3386,4.3477 -0.2237,0.2601 -1.475,0.6961 -2.5993,1.1811 -3.8477,1.6598 -7.8111,2.0357 -10.6468,-0.9906 -4.5328,-4.8374 -1.6555,-15.3289 6.4177,-15.3289zm14.1055 11.0278l0 3.484c0,1.3039 0.6096,2.0405 1.833,2.2056 0.4893,0.0656 0.6583,0.7282 -0.2455,0.5715 -1.472,-0.2427 -3.1063,-0.2188 -4.5762,-0.0635 -0.2892,0.0306 -0.7832,0.1181 -0.7832,-0.2963 0,-0.5336 1.3174,-0.0007 1.2912,-2.1463l-0.0127 -4.9573c0,-1.1188 -0.1171,-1.4418 -1.2192,-1.5367 -0.4291,-0.0369 -0.3393,-0.5249 0.0508,-0.5842 3.6837,-0.5599 3.8727,-2.6302 3.7126,0.0212 -0.0418,0.6915 -0.2063,1.7725 0.69,0.4953 0.2627,-0.3743 1.5241,-1.5494 1.9939,-1.5494 0.4485,0 2.1024,1.0978 2.1125,1.6129 0.0029,0.1466 -0.8979,2.3247 -1.5875,1.7018 -0.5324,-0.481 -1.0596,-0.8932 -1.7992,-0.8932 -0.9737,0 -1.4605,0.6434 -1.4605,1.9346zm11.6375 0.3133c0.3707,-1.5887 -0.1328,-3.8143 -2.0066,-3.8143 -1.3793,0 -1.2016,0.801 -1.1388,1.5875 0,0.5631 -0.6392,0.8425 -1.9134,0.8425 -0.6896,0 -0.4245,-0.5951 -0.3345,-1.0287 0.5213,-2.5118 5.4625,-2.7329 7.1459,-1.1684 1.0905,1.0135 0.826,3.3015 0.7451,4.9995 -0.0508,1.0922 -0.0762,1.8204 -0.0762,2.1844 0,1.9381 1.6587,1.1007 1.8372,1.1007 0.3987,0 0.0691,0.5539 -0.309,0.7578 -1.2689,0.6843 -2.5839,1.4939 -3.7253,-0.6816 -6.7362,4.3241 -7.4037,-2.1229 -4.3646,-3.6745 0.7027,-0.3556 2.0828,-0.7239 4.1402,-1.1049zm-0.2455 0.7112c-1.3303,-0.095 -3.0015,1.2106 -3.0015,2.5823 0,2.0439 1.7616,1.8524 2.739,1.2531 0.7453,-0.457 0.5903,-2.2483 0.5969,-3.2385 0.0023,-0.3472 0.0354,-0.5732 -0.3344,-0.5969zm15.7606 -8.3482l0 10.3209c0,1.3284 0.0949,2.0955 1.4267,2.0955 0.5735,0 0.5098,0.655 0.0127,0.6858 -1.0308,0.0638 -2.5188,0.346 -3.5095,0.7197 -0.6948,0.2621 -0.489,-0.126 -0.4826,-1.1557 0.0016,-0.2522 -0.1059,-0.4692 -0.3217,-0.2371 -0.763,0.8209 -2.3797,1.4647 -3.4883,1.4647 -6.3872,0 -5.0684,-10.8288 1.0668,-10.8288 3.2501,0 2.7898,2.3117 2.7898,-2.8279 0,-1.4362 -0.0106,-2.5654 -1.3758,-2.5654 -0.4972,0 -0.5521,-0.5576 -0.1609,-0.6223 1.2977,-0.2146 2.5994,-0.5183 3.5475,-1.1896 0.8575,-0.6072 0.5394,0.6697 0.5334,1.3039l-0.0381 2.8363zm-2.5061 10.7823l0 -4.5635c0,-2.5231 -5.8632,-4.3761 -5.8632,1.1769 0,2.8569 2.0069,5.8002 4.9107,4.627 0.7306,-0.2952 0.9525,-0.5203 0.9525,-1.2404zm10.342 -7.7258c2.4042,0 4.4789,2.1666 4.4789,4.0682 0,0.6575 -1.0455,0.4532 -1.524,0.4572l-4.7456 0.0508c-0.4712,-0.0071 -0.5969,0.0837 -0.5969,0.5461 0,1.9729 1.4896,4.1529 3.5475,4.1529 2.1519,0 2.7703,-1.3885 3.1242,-1.3885 1.1219,0 -1.4745,2.9506 -4.3053,2.9506 -4.7733,0 -6.2683,-5.9235 -3.4078,-9.1863 0.9652,-1.1007 2.1082,-1.651 3.429,-1.651zm-0.3429 0.6223c-1.8035,0 -2.5065,2.9851 -1.9304,3.2173 0.5206,0.2098 2.6964,0 3.1284,0 0.7282,0 1.0922,-0.2201 1.0922,-0.6688 0,-1.2276 -1.0331,-2.5485 -2.2902,-2.5485z"/>
 </g>
</svg>
