<?xml version="1.0" encoding="UTF-8"?>
<!DOCTYPE svg PUBLIC "-//W3C//DTD SVG 1.1//EN" "http://www.w3.org/Graphics/SVG/1.1/DTD/svg11.dtd">
<!-- Creator: CorelDRAW -->
<svg xmlns="http://www.w3.org/2000/svg" xml:space="preserve" width="117.5mm" height="25.4mm" style="shape-rendering:geometricPrecision; text-rendering:geometricPrecision; image-rendering:optimizeQuality; fill-rule:evenodd; clip-rule:evenodd"
viewBox="0 0 117.5 25.4"
 xmlns:xlink="http://www.w3.org/1999/xlink">
 <defs>
  <style type="text/css">
   <![CDATA[
    .fil0 {fill:black;fill-rule:nonzero}
   ]]>
  </style>
 </defs>
 <g id="Capa_x0020_1">
  <metadata id="CorelCorpID_0Corel-Layer"/>
  <path class="fil0" d="M9.7244 2.3978c2.3775,0 4.3338,0.6372 5.8688,1.9149 1.0059,-1.3749 1.6567,-2.2584 2.7505,-3.1363 0.621,-0.4984 2.9115,-0.6689 3.2512,-0.6689 0.4755,0 0.271,0.3995 0,0.6435 -1.3943,1.241 -2.8458,2.9296 -4.3518,5.0659 0.7415,1.2285 1.1131,2.6769 1.1131,4.3427 0,2.6543 -0.8171,4.9022 -2.4554,6.7437 -1.5959,1.8034 -3.7973,2.7051 -6.5997,2.7051 -9.4722,0 -10.7749,-10.1931 -6.5744,-14.7828 1.715,-1.8739 4.4126,-2.8278 6.9977,-2.8278zm-0.2495 12.6427c1.3144,-2.9938 2.8528,-5.9026 4.6063,-8.5618 -2.1835,-3.7126 -6.9645,-4.1913 -9.1574,-1.3039 -2.8126,3.7034 -1.6031,13.915 4.9361,13.915 4.8037,0 6.2752,-5.585 5.3359,-9.7304 -1.3029,2.1738 -2.4365,4.4472 -3.4011,6.8241 -0.4699,1.1473 -0.8001,1.8542 -0.9863,2.1125 -0.2999,0.4191 -2.4796,0.5633 -2.938,0.2074 -0.1608,-0.127 -0.4529,-0.5165 -0.8763,-1.1811 -0.7239,-1.0964 -1.507,-2.0913 -2.341,-2.976 -0.8423,-0.8882 -0.9466,-1.383 0.072,-2.0871 1.1133,-0.7696 1.6789,-0.6494 2.7855,0.2329 0.6138,0.491 1.27,1.3419 1.9643,2.5484zm11.9674 6.0686l0 -8.4794c0.0227,-0.9298 0.0452,-1.9433 -1.2912,-1.7991 -0.4781,0.0516 -0.4686,-0.5214 -0.11,-0.5842 1.172,-0.2054 2.2033,-0.3779 2.976,-0.9314 0.7848,-0.5622 0.9171,-0.6051 0.9313,0.199 0.0049,0.2752 -0.1596,1.6231 0.4572,1.1557 1.3387,-1.0145 1.8166,-1.4901 3.2512,-1.4901 4.9081,0 5.365,6.5222 2.3834,9.4022 -2.6398,2.55 -5.4793,0.9779 -5.9182,0.9779 -0.292,0 -0.1863,1.3251 -0.1863,1.5494 0,2.8783 2.3199,1.6372 2.3199,2.4596 0,0.7867 -1.2526,0.0635 -2.5188,0.0635l-2.9295 0.1735c-0.5417,0 -0.6468,-0.5075 -0.1482,-0.6858 0.8507,-0.3042 0.7832,-0.9343 0.7832,-2.0108zm2.4934 -8.9789l0 4.826c0,1.6694 3.6117,3.3041 5.1478,1.2404 1.7456,-2.345 0.356,-7.3787 -3.0777,-7.3787 -0.8285,0 -2.0701,0.3989 -2.0701,1.3123zm13.1826 -1.397l0 6.0537c0,1.7527 0.7088,2.304 2.3495,1.8118 0.8666,-0.26 1.0124,-0.7684 1.16,-0.055 -1.0084,1.4405 -4.1145,2.0345 -5.351,0.834 -0.436,-0.4234 -0.6519,-1.0753 -0.6519,-1.9601l0 -6.6844c-0.3448,0 -1.3504,0.1167 -1.3504,-0.3217 0,-0.1355 0.1016,-0.271 0.309,-0.4107 0.5956,-0.4027 2.4674,-2.32 2.8533,-2.9294 0.252,-0.398 0.6637,-0.8966 0.6815,-0.4107l0 2.8787c0.5216,0 2.112,0.1094 2.5062,-0.1609 1.1551,-0.7922 0.6295,0.1177 0.508,0.7197 -0.0889,0.4233 -0.3175,0.635 -0.6816,0.635l-2.3326 0zm7.0189 -7.7766c0.2737,0 1.6288,1.5308 1.651,1.9473 0.0189,0.3547 -1.2488,1.96 -1.6383,1.96 -0.3614,0 -0.7028,-0.6057 -0.9144,-0.8551 -0.8513,-1.0032 -1.0976,-0.8758 -0.0254,-2.1717 0.4869,-0.5884 0.7959,-0.8805 0.9271,-0.8805zm1.342 6.7733l0 7.0273c0,3.2689 2.1971,1.8038 2.1971,2.6078 0,0.6201 -2.9599,0.11 -3.4629,0.11 -1.2453,0 -2.4553,0.4957 -2.4553,-0.0127 0,-0.4058 0.7031,-0.1956 1.0499,-1.1049 0.1957,-0.513 0.1844,-1.0439 0.1778,-1.5875l0 -4.1994c0,-2.5364 -1.1864,-1.358 -1.5494,-1.8077 -0.2209,-0.2736 0.2094,-0.5399 0.7196,-0.6477 2.0849,-0.4403 3.0044,-1.2974 3.175,-1.2911 0.265,0.0097 0.1482,0.6327 0.1482,0.9059zm7.8021 -7.3194c2.1598,0 3.4726,1.3118 4.2629,0.9271 1.1152,-0.5429 0.9247,-0.3461 0.906,1.1303 -0.0107,0.844 0.3344,2.208 0.3344,3.0395 0,0.6725 -0.4906,0.7228 -0.6308,0.0635 -0.649,-3.0526 -4.5139,-5.6193 -6.8368,-3.5094 -1.0406,0.9452 -1.124,2.4613 -0.0974,3.4332 1.026,0.9714 5.3793,2.035 6.8326,3.8058 2.7471,3.3472 0.1702,8.7079 -4.0894,8.7079 -1.2262,0 -2.7728,-0.7081 -3.992,-0.9567 -1.1247,-0.2293 -0.5486,-0.2432 -1.1938,-2.5442 -0.292,-1.0415 -0.8436,-2.7517 -0.0847,-2.7517 0.4211,0 0.3459,1.9421 2.3538,3.882 3.9847,3.8498 7.7937,-0.9008 5.825,-3.319 -1.1167,-1.3716 -5.5852,-2.3973 -7.2855,-4.2841 -2.1474,-2.3828 -0.6961,-7.6242 3.6957,-7.6242zm18.6605 6.9215l0 7.6877c0,1.5864 0.0861,1.7684 1.5494,1.7357 0.6567,-0.0147 0.6454,0.7323 -0.4064,0.7323 -1.185,0 -1.9556,-0.0057 -3.1539,0.3218 -1.0237,0.2798 -0.0959,-1.5799 -0.6096,-1.6002 -0.2222,-0.0088 -1.2384,1.7991 -3.3824,1.7991 -2.5639,0 -3.6957,-1.4958 -3.6957,-4.0301 0,-1.7611 0.0339,-3.2851 0.0974,-4.5762 0.054,-1.2565 0.0064,-1.4451 -1.215,-1.5367 -0.4846,-0.0363 -0.394,-0.5505 0.055,-0.652 0.755,-0.1707 2.0214,0.0195 3.1327,-0.3302 0.8941,-0.2813 0.7644,0.1258 0.707,0.8679 -0.0804,1.0388 -0.3621,6.6738 0.3471,7.9798 0.682,1.2559 4.0809,1.5084 4.0809,-1.6425l0 -4.6228c0,-1.3048 -0.0154,-1.5041 -1.2784,-1.6468 -0.6375,-0.072 -0.5066,-0.6858 0.3598,-0.6858 3.3452,0 3.4568,-0.8964 3.4121,0.199zm7.0485 4.1063l0 3.484c0,1.3039 0.6096,2.0405 1.833,2.2056 0.4893,0.0656 0.6583,0.7282 -0.2455,0.5715 -1.472,-0.2427 -3.1063,-0.2188 -4.5762,-0.0635 -0.2892,0.0306 -0.7832,0.1181 -0.7832,-0.2963 0,-0.5336 1.3174,-0.0007 1.2912,-2.1463l-0.0127 -4.9573c0,-1.1188 -0.1171,-1.4418 -1.2192,-1.5367 -0.4291,-0.0369 -0.3393,-0.5249 0.0508,-0.5842 3.6837,-0.5599 3.8727,-2.6302 3.7126,0.0212 -0.0418,0.6915 -0.2063,1.7725 0.69,0.4953 0.2627,-0.3743 1.5241,-1.5494 1.9939,-1.5494 0.4485,0 2.1024,1.0978 2.1125,1.6129 0.0029,0.1466 -0.8979,2.3247 -1.5875,1.7018 -0.5324,-0.481 -1.0596,-0.8932 -1.7992,-0.8932 -0.9737,0 -1.4605,0.6434 -1.4605,1.9346zm9.6944 -1.6002l1.7018 3.8185c0.5202,1.1712 0.6886,1.0675 1.9939,-1.5791 0.9399,-1.9056 2.0715,-4.0527 -0.1228,-4.174 -0.4176,-0.0231 -0.4195,-0.5593 0.0381,-0.5461 0.9187,0.0265 2.1103,0.1808 2.9803,0.0719 0.2925,-0.0366 0.6223,-0.1568 0.6223,0.2032 0,0.4822 -0.628,0.1837 -1.1303,1.2023 -1.1178,2.2667 -4.3572,9.0382 -4.898,9.0382 -0.2747,0 -0.448,-0.4483 -0.5715,-0.7324l-3.103 -6.8199c-0.2864,-0.597 -0.9068,-2.1331 -1.4266,-2.3326 -0.6923,-0.2657 -0.6139,-0.6787 -0.1101,-0.618 1.6115,0.1941 1.8056,0.1895 3.4671,0.0592 0.5685,-0.0446 1.3169,-0.1352 1.6298,-0.0169 0.2585,0.0977 0.1074,0.4687 -0.2286,0.5249 -1.4645,0.2451 -1.345,0.795 -0.8424,1.9008zm11.993 -2.667c2.4042,0 4.4789,2.1666 4.4789,4.0682 0,0.6575 -1.0455,0.4532 -1.524,0.4572l-4.7456 0.0508c-0.4712,-0.0071 -0.5969,0.0837 -0.5969,0.5461 0,1.9729 1.4896,4.1529 3.5475,4.1529 2.1519,0 2.7703,-1.3885 3.1242,-1.3885 1.1219,0 -1.4745,2.9506 -4.3053,2.9506 -4.7733,0 -6.2683,-5.9235 -3.4078,-9.1863 0.9652,-1.1007 2.1082,-1.651 3.429,-1.651zm-0.3429 0.6223c-1.8035,0 -2.5065,2.9851 -1.9304,3.2173 0.5206,0.2098 2.6964,0 3.1284,0 0.7282,0 1.0922,-0.2201 1.0922,-0.6688 0,-1.2276 -1.0331,-2.5485 -2.2902,-2.5485zm9.453 2.1505l2.1082 4.0344c0.5793,1.0964 0.637,0.5162 1.5452,-1.7611 0.563,-1.4139 0.8424,-2.4257 0.8424,-3.0353 0,-0.6445 -0.6518,-1.1602 -1.2657,-1.2911 -0.454,-0.0968 -0.4663,-0.5334 -0.072,-0.5334l2.1971 0.1354c1.1101,0 1.7865,-0.2858 1.7865,0.1863 0,0.5085 -0.867,0.0371 -1.5875,1.8246l-4.8133 12.0142c-0.2319,0.5721 -0.9197,0.3625 -1.5113,0.3217 -0.2725,-0.0188 -0.1993,-0.2317 -0.0762,-0.3937 1.3504,-1.6722 2.0235,-2.8109 2.0235,-3.4248 0,-0.1735 -0.0889,-0.4402 -0.2709,-0.8043l-4.2926 -8.4709c-0.3584,-0.6853 -1.1176,-0.7293 -1.1176,-1.0202 0,-0.386 0.4415,-0.3313 0.7323,-0.2964 1.4763,0.1772 2.7505,0.1684 4.1783,-0.0254 0.83,-0.1126 0.6459,0.5609 0.2752,0.6308 -1.2785,0.2411 -1.3276,0.6481 -0.6816,1.9092z"/>
 </g>
</svg>
