<?xml version="1.0" encoding="UTF-8"?>
<!DOCTYPE svg PUBLIC "-//W3C//DTD SVG 1.1//EN" "http://www.w3.org/Graphics/SVG/1.1/DTD/svg11.dtd">
<!-- Creator: CorelDRAW -->
<svg xmlns="http://www.w3.org/2000/svg" xml:space="preserve" width="86.0mm" height="25.4mm" style="shape-rendering:geometricPrecision; text-rendering:geometricPrecision; image-rendering:optimizeQuality; fill-rule:evenodd; clip-rule:evenodd"
viewBox="0 0 86.0 25.4"
 xmlns:xlink="http://www.w3.org/1999/xlink">
 <defs>
  <style type="text/css">
   <![CDATA[
    .fil0 {fill:black;fill-rule:nonzero}
   ]]>
  </style>
 </defs>
 <g id="Capa_x0020_1">
  <metadata id="CorelCorpID_0Corel-Layer"/>
  <path class="fil0" d="M9.7244 2.3978c2.3775,0 4.3338,0.6372 5.8688,1.9149 1.0059,-1.3749 1.6567,-2.2584 2.7505,-3.1363 0.621,-0.4984 2.9115,-0.6689 3.2512,-0.6689 0.4755,0 0.271,0.3995 0,0.6435 -1.3943,1.241 -2.8458,2.9296 -4.3518,5.0659 0.7415,1.2285 1.1131,2.6769 1.1131,4.3427 0,2.6543 -0.8171,4.9022 -2.4554,6.7437 -1.5959,1.8034 -3.7973,2.7051 -6.5997,2.7051 -9.4722,0 -10.7749,-10.1931 -6.5744,-14.7828 1.715,-1.8739 4.4126,-2.8278 6.9977,-2.8278zm-0.2495 12.6427c1.3144,-2.9938 2.8528,-5.9026 4.6063,-8.5618 -2.1835,-3.7126 -6.9645,-4.1913 -9.1574,-1.3039 -2.8126,3.7034 -1.6031,13.915 4.9361,13.915 4.8037,0 6.2752,-5.585 5.3359,-9.7304 -1.3029,2.1738 -2.4365,4.4472 -3.4011,6.8241 -0.4699,1.1473 -0.8001,1.8542 -0.9863,2.1125 -0.2999,0.4191 -2.4796,0.5633 -2.938,0.2074 -0.1608,-0.127 -0.4529,-0.5165 -0.8763,-1.1811 -0.7239,-1.0964 -1.507,-2.0913 -2.341,-2.976 -0.8423,-0.8882 -0.9466,-1.383 0.072,-2.0871 1.1133,-0.7696 1.6789,-0.6494 2.7855,0.2329 0.6138,0.491 1.27,1.3419 1.9643,2.5484zm11.9674 6.0686l0 -8.4794c0.0227,-0.9298 0.0452,-1.9433 -1.2912,-1.7991 -0.4781,0.0516 -0.4686,-0.5214 -0.11,-0.5842 1.172,-0.2054 2.2033,-0.3779 2.976,-0.9314 0.7848,-0.5622 0.9171,-0.6051 0.9313,0.199 0.0049,0.2752 -0.1596,1.6231 0.4572,1.1557 1.3387,-1.0145 1.8166,-1.4901 3.2512,-1.4901 4.9081,0 5.365,6.5222 2.3834,9.4022 -2.6399,2.5501 -5.5142,0.9779 -5.9182,0.9779 -0.292,0 -0.1863,1.3251 -0.1863,1.5494 0,2.8783 2.3199,1.6372 2.3199,2.4596 0,0.7867 -1.2526,0.0635 -2.5188,0.0635l-2.9295 0.1735c-0.5417,0 -0.6468,-0.5075 -0.1482,-0.6858 0.8507,-0.3042 0.7832,-0.9343 0.7832,-2.0108zm2.4934 -8.9789l0 4.826c0,1.6694 3.6117,3.3041 5.1478,1.2404 1.7456,-2.345 0.356,-7.3787 -3.0777,-7.3787 -0.8285,0 -2.0701,0.3989 -2.0701,1.3123zm13.1826 -1.397l0 6.0537c0,1.7527 0.7088,2.304 2.3495,1.8118 0.8666,-0.26 1.0124,-0.7684 1.16,-0.055 -1.0084,1.4405 -4.1145,2.0345 -5.351,0.834 -0.436,-0.4234 -0.6519,-1.0753 -0.6519,-1.9601l0 -6.6844c-0.3448,0 -1.3504,0.1167 -1.3504,-0.3217 0,-0.1355 0.1016,-0.271 0.309,-0.4107 0.5956,-0.4027 2.4674,-2.32 2.8533,-2.9294 0.252,-0.398 0.6637,-0.8966 0.6815,-0.4107l0 2.8787c0.5216,0 2.112,0.1094 2.5062,-0.1609 1.1551,-0.7922 0.6295,0.1177 0.508,0.7197 -0.0889,0.4233 -0.3175,0.635 -0.6816,0.635l-2.3326 0zm7.0189 -7.7766c0.2737,0 1.6288,1.5308 1.651,1.9473 0.0189,0.3547 -1.2488,1.96 -1.6383,1.96 -0.3614,0 -0.7028,-0.6057 -0.9144,-0.8551 -0.8513,-1.0032 -1.0976,-0.8758 -0.0254,-2.1717 0.4869,-0.5884 0.7959,-0.8805 0.9271,-0.8805zm1.342 6.7733l0 7.0273c0,3.2689 2.1971,1.8038 2.1971,2.6078 0,0.6201 -2.9599,0.11 -3.4629,0.11 -1.2453,0 -2.4553,0.4957 -2.4553,-0.0127 0,-0.4058 0.7031,-0.1956 1.0499,-1.1049 0.1957,-0.513 0.1844,-1.0439 0.1778,-1.5875l0 -4.1994c0,-2.5364 -1.1864,-1.358 -1.5494,-1.8077 -0.2209,-0.2736 0.2094,-0.5399 0.7196,-0.6477 2.0849,-0.4403 3.0044,-1.2974 3.175,-1.2911 0.265,0.0097 0.1482,0.6327 0.1482,0.9059zm8.0476 6.0748c0,2.6593 0.3212,2.7644 1.7738,2.7644 5.4393,0 6.1644,-3.2343 6.6463,-3.2343 0.6299,0 0.1418,4.4154 -3.2724,4.4154 -3.2965,-0.0868 -5.0975,-0.4854 -8.6698,-0.0508 -0.4421,0.0538 -1.0414,0.2257 -1.0414,-0.2582 0,-0.7152 1.7229,0.3826 1.7229,-3.2639l0 -10.3675c0,-3.0365 -2.8659,-1.8856 -2.8659,-2.7432 0,-0.5854 0.8044,-0.3217 1.2149,-0.2836 2.7944,0.2597 2.9633,-0.1397 5.533,-0.1397 0.927,0 1.0137,0.6255 0.2117,0.6731 -0.834,0.0593 -1.2531,0.6308 -1.2531,1.723l0 10.7653zm15.1511 -2.0531c0.3707,-1.5887 -0.1328,-3.8143 -2.0066,-3.8143 -1.3793,0 -1.2016,0.801 -1.1388,1.5875 0,0.5631 -0.6392,0.8425 -1.9134,0.8425 -0.6896,0 -0.4245,-0.5951 -0.3345,-1.0287 0.5213,-2.5118 5.4625,-2.7329 7.1459,-1.1684 1.0905,1.0135 0.826,3.3015 0.7451,4.9995 -0.0508,1.0922 -0.0762,1.8204 -0.0762,2.1844 0,1.9381 1.6587,1.1007 1.8372,1.1007 0.3987,0 0.0691,0.5539 -0.309,0.7578 -1.2368,0.667 -2.575,1.5109 -3.7253,-0.6816 -6.7362,4.3241 -7.4037,-2.1229 -4.3646,-3.6745 0.7027,-0.3556 2.0828,-0.7239 4.1402,-1.1049zm-0.2455 0.7112c-1.3303,-0.095 -3.0015,1.2106 -3.0015,2.5823 0,2.0439 1.7616,1.8524 2.739,1.2531 0.7453,-0.457 0.5903,-2.2483 0.5969,-3.2385 0.0023,-0.3472 0.0354,-0.5732 -0.3344,-0.5969zm8.7206 -3.4248c0,0.1185 0.0296,0.1778 0.0889,0.1863l0.1228 -0.1355c0.8424,-1.2742 1.9939,-1.9092 3.4586,-1.9092 4.8461,0 5.2906,6.1994 2.6628,9.0847 -1.4664,1.6101 -3.7063,2.1103 -5.8209,1.4563 -1.8627,-0.5761 -1.3651,-1.3914 -2.1886,-0.271 -1.3341,1.815 -0.7832,-0.5354 -0.7832,-1.5875l0 -12.3147c0,-2.3762 -1.5875,-1.2978 -1.5875,-1.9982 0,-0.3961 0.7736,-0.4274 1.0668,-0.4953 2.3762,-0.5503 2.9803,-2.1028 2.9803,-0.5715l0 8.5556zm0 1.1303l0 4.7752c0,0.91 1.2981,2.4045 2.9591,2.4045 4.2658,0 3.5677,-8.6063 -0.7535,-8.6063 -0.9991,0 -1.7357,0.4741 -2.2056,1.4266z"/>
 </g>
</svg>
