<?xml version="1.0" encoding="UTF-8"?>
<!DOCTYPE svg PUBLIC "-//W3C//DTD SVG 1.1//EN" "http://www.w3.org/Graphics/SVG/1.1/DTD/svg11.dtd">
<!-- Creator: CorelDRAW -->
<svg xmlns="http://www.w3.org/2000/svg" xml:space="preserve" width="78.0mm" height="25.4mm" style="shape-rendering:geometricPrecision; text-rendering:geometricPrecision; image-rendering:optimizeQuality; fill-rule:evenodd; clip-rule:evenodd"
viewBox="0 0 78.0 25.4"
 xmlns:xlink="http://www.w3.org/1999/xlink">
 <defs>
  <style type="text/css">
   <![CDATA[
    .fil0 {fill:black;fill-rule:nonzero}
   ]]>
  </style>
 </defs>
 <g id="Capa_x0020_1">
  <metadata id="CorelCorpID_0Corel-Layer"/>
  <path class="fil0" d="M9.2798 2.5394c2.3823,0 4.352,0.8432 5.8665,2.5038 1.8794,-1.8007 3.8413,-3.3127 5.8858,-4.5357l0.4201 0.7256c-1.9305,1.3668 -3.7606,2.9866 -5.4923,4.8644 1.8904,2.9386 1.5141,7.2482 -0.3301,10.1579 -1.5706,2.4807 -3.9624,3.7211 -7.1671,3.7211 -11.9132,0 -9.608,-17.4371 0.8171,-17.4371zm5.4614 4.9414c-0.2976,0.3533 -0.592,0.7148 -0.8835,1.0843 -2.3294,2.9547 -4.0097,5.8474 -5.0455,8.6828l-0.6158 0.4058c-0.5298,0.3437 -0.9881,0.6921 -1.37,1.0358 -0.2969,-1.4851 -2.1106,-5.285 -2.6349,-6.0336 -0.4821,-0.6874 -1.0024,-1.0597 -1.5609,-1.1122 2.7159,-2.4926 3.5963,0.0427 5.0216,3.2029 1.7551,-3.1488 3.9245,-6.0579 6.4511,-8.6656 -1.9858,-3.2293 -6.9312,-4.2174 -9.8231,-0.4471 -2.3268,3.0335 -2.6161,8.4252 -0.1016,11.4808 3.4946,4.2467 10.9813,2.321 10.9813,-6.6759 0,-1.1074 -0.1396,-2.0935 -0.4187,-2.958zm7.4545 2.3484c1.8163,-0.3045 3.6161,-0.3231 4.881,0.7112 3.1335,2.5622 -0.8277,9.8403 -5.4313,9.072 -0.5775,-0.0964 -0.6521,0.0231 -0.7282,0.5588 -0.4458,3.1381 -0.471,3.0137 1.3378,3.2851 0.6038,0.0906 0.6079,0.7539 -0.6943,0.5588 -1.7314,-0.2594 -2.2286,0.0254 -3.1284,0.0254 -0.5405,0 -0.7346,-0.5063 -0.1736,-0.6308 0.9098,-0.2019 0.876,-0.4858 1.0033,-1.5113l1.3674 -11.0998c-1.5638,0.5284 -1.8174,0.7696 -1.6002,0.1101 0.0742,-0.2252 1.2945,-0.5921 1.6721,-0.7324 0.2273,-1.7729 0.2792,-3.6237 1.8119,-3.6237 0.6268,0 -0.0556,1.0391 -0.1947,2.1717l-0.1228 1.1049zm-0.0889 0.6561c-0.1553,1.26 -0.944,7.1171 -0.944,7.9037 0,0.9555 2.5079,1.0502 4.0767,-1.0203 1.8562,-2.4497 2.3352,-7.7754 -3.1327,-6.8834zm10.2997 0.7239c-0.1571,1.2572 -0.6646,4.6928 -0.6646,5.7574 0,1.6517 1.4575,1.8248 2.6966,0.4741 0.7071,-0.7708 1.0075,0.3097 -0.563,1.5028 -2.1189,1.6097 -3.6195,0.8641 -3.6195,-1.4943 0,-0.9486 0.5696,-5.4173 0.745,-6.4262 0.1498,-0.8618 -1.3885,-0.0698 -1.3885,-0.6435 0,-0.4841 1.6064,-0.7995 2.6797,-2.5315 0.3185,-0.514 0.8388,-0.4538 0.6096,0.2624 -0.0624,0.1949 -0.309,1.1215 -0.309,1.3759 0,0.2488 0.2934,0.301 0.6053,0.2963l1.6976 -0.0508c0.6918,-0.0103 0.5177,0.875 -0.2074,0.8594 -1.7373,-0.0373 -2.1679,-0.3494 -2.2818,0.618zm5.279 3.4333c0.1301,-0.7679 0.5842,-3.0264 0.5842,-3.683 0,-0.9206 -1.9624,-0.1628 -1.9346,-0.7451 0.0084,-0.1905 0.1862,-0.2879 0.5334,-0.2879 2.1083,0 3.2147,-0.7253 3.0861,0.1524l-0.6943 3.4206c-0.2538,1.2459 -0.9674,4.5841 -0.1355,4.6397 0.7776,0.052 1.0405,-1.3166 1.4013,-1.3166 1.2572,0 -3.2258,6.0237 -3.2258,1.0203 0,-0.652 0.127,-1.7188 0.3852,-3.2004zm2.1251 -10.0754c0.1531,0.0171 0.4537,0.6588 0.4615,0.6689 0.6836,0.8832 0.358,0.6743 -0.4615,1.7018 -0.4493,0.5633 -0.617,-0.3271 -0.9948,-0.8551 -0.2994,-0.4185 0.1083,-0.5694 0.6858,-1.3039 0.1228,-0.1482 0.2286,-0.2201 0.309,-0.2117zm7.2771 4.2969l2.8533 2.976c3.7343,3.8885 1.7019,8.1492 -3.5137,8.1492 -1.6849,0 -2.7263,-0.1694 -3.1242,-0.508 -0.361,-0.309 -1.2832,-3.2639 -0.5165,-3.2639 0.3878,0 0.3905,1.3442 1.8204,2.3368 2.0359,1.4132 5.6896,0.8098 5.6896,-2.1252 0,-1.1801 -0.6305,-1.8954 -1.5494,-2.8871 -1.2169,-1.3134 -3.8535,-3.9444 -4.5424,-5.3552 -1.274,-2.6092 0.0191,-5.6472 3.3147,-5.6472 1.0815,0 3.1162,0.7313 3.247,0.7281 0.4028,-0.01 0.9694,-0.8619 0.9694,0.4614 0,0.9428 0.1806,1.877 0.2625,2.8152 0.0447,0.5127 -0.5612,0.5936 -0.7705,-0.1863 -0.9996,-3.7255 -5.9521,-4.3479 -5.9521,-1.0287 0,1.1092 0.6054,2.286 1.8119,3.5349zm11.5866 0.6942c5.8279,0 4.0863,10.3421 -1.4012,10.3421 -5.5198,0 -4.1825,-10.3421 1.4012,-10.3421zm0.0339 0.6096c-2.4138,0 -3.3105,3.3631 -3.3105,5.5626 0,2.3157 0.7028,3.4714 2.1082,3.4714 0.8509,0 1.5833,-0.5673 2.2014,-1.7061 0.6138,-1.1345 0.9228,-2.4934 0.9228,-4.0809 0,-2.1632 -0.6392,-3.247 -1.9219,-3.247zm7.4295 0.4107l-1.6383 0c-0.929,0 -0.7393,-0.8467 0.1016,-0.8467l1.6595 0c0.3622,-2.2936 1.1159,-4.3505 2.1759,-5.7573 0.7578,-1.0056 1.3511,-1.5113 2.557,-1.5113 0.5131,0 0.8678,0.0175 0.8678,0.5334 0,1.9655 -0.2562,1.7232 -0.8086,1.1006 -0.2963,-0.3471 -0.6731,-0.5207 -1.1303,-0.5207 -1.3868,0 -2.0133,4.314 -2.269,6.1553l1.8584 0c0.9302,0 0.714,0.8467 -0.0974,0.8467l-1.8753 0 -1.143 9.2244c-0.1651,1.3801 -0.5546,2.3918 -1.1642,3.0353 -1.1599,1.2345 -2.7305,1.4852 -2.7305,0.6096 0,-0.7396 0.6427,-2.295 0.8086,-1.342 0.2182,1.2533 1.2157,1.3164 1.4774,-0.8382 0.4316,-3.5531 0.8381,-7.156 1.3504,-10.6891zm7.9925 0.6307c-0.1571,1.2572 -0.6646,4.6928 -0.6646,5.7574 0,1.6517 1.4575,1.8248 2.6966,0.4741 0.7071,-0.7708 1.0075,0.3097 -0.563,1.5028 -2.1189,1.6097 -3.6195,0.8641 -3.6195,-1.4943 0,-0.9486 0.5696,-5.4173 0.745,-6.4262 0.1498,-0.8618 -1.3885,-0.0698 -1.3885,-0.6435 0,-0.4841 1.6064,-0.7995 2.6797,-2.5315 0.3185,-0.514 0.8388,-0.4538 0.6096,0.2624 -0.0624,0.1949 -0.309,1.1215 -0.309,1.3759 0,0.2488 0.2934,0.301 0.6053,0.2963l1.6976 -0.0508c0.6918,-0.0103 0.5177,0.875 -0.2074,0.8594 -1.7373,-0.0373 -2.1679,-0.3494 -2.2818,0.618z"/>
 </g>
</svg>
