<?xml version="1.0" encoding="UTF-8"?>
<!DOCTYPE svg PUBLIC "-//W3C//DTD SVG 1.1//EN" "http://www.w3.org/Graphics/SVG/1.1/DTD/svg11.dtd">
<!-- Creator: CorelDRAW -->
<svg xmlns="http://www.w3.org/2000/svg" xml:space="preserve" width="98.0mm" height="25.4mm" style="shape-rendering:geometricPrecision; text-rendering:geometricPrecision; image-rendering:optimizeQuality; fill-rule:evenodd; clip-rule:evenodd"
viewBox="0 0 98.0 25.4"
 xmlns:xlink="http://www.w3.org/1999/xlink">
 <defs>
  <style type="text/css">
   <![CDATA[
    .fil0 {fill:black;fill-rule:nonzero}
   ]]>
  </style>
 </defs>
 <g id="Capa_x0020_1">
  <metadata id="CorelCorpID_0Corel-Layer"/>
  <path class="fil0" d="M9.2689 2.5394c2.3823,0 4.352,0.8432 5.8665,2.5038 1.8794,-1.8007 3.8413,-3.3127 5.8858,-4.5357l0.4201 0.7256c-1.9305,1.3668 -3.7606,2.9866 -5.4923,4.8644 1.8904,2.9386 1.5141,7.2482 -0.3301,10.1579 -1.5706,2.4807 -3.9624,3.7211 -7.1671,3.7211 -11.8594,0 -9.6379,-17.4371 0.8171,-17.4371zm5.4614 4.9414c-0.2976,0.3533 -0.592,0.7148 -0.8835,1.0843 -2.3294,2.9547 -4.0097,5.8474 -5.0455,8.6828l-0.6158 0.4058c-0.5298,0.3437 -0.9881,0.6921 -1.37,1.0358 -0.2969,-1.4851 -2.1106,-5.285 -2.6349,-6.0336 -0.4821,-0.6874 -1.0024,-1.0597 -1.5609,-1.1122 2.7563,-2.5297 3.6528,0.168 5.0216,3.2029 1.7551,-3.1488 3.9245,-6.0579 6.4511,-8.6656 -1.9858,-3.2293 -6.9312,-4.2174 -9.8231,-0.4471 -2.3268,3.0335 -2.6161,8.4252 -0.1016,11.4808 3.4946,4.2467 10.9813,2.321 10.9813,-6.6759 0,-1.1074 -0.1396,-2.0935 -0.4187,-2.958zm7.4545 2.3484c1.8163,-0.3045 3.6161,-0.3231 4.881,0.7112 3.1335,2.5622 -0.8277,9.8403 -5.4313,9.072 -0.5775,-0.0964 -0.6521,0.0231 -0.7282,0.5588 -0.4323,3.0436 -0.5279,3.0051 1.3378,3.2851 0.6038,0.0906 0.6079,0.7539 -0.6943,0.5588 -1.7314,-0.2594 -2.2286,0.0254 -3.1284,0.0254 -0.5405,0 -0.7346,-0.5063 -0.1736,-0.6308 0.9098,-0.2019 0.876,-0.4858 1.0033,-1.5113l1.3674 -11.0998c-1.4764,0.4989 -1.8258,0.7949 -1.6002,0.1101 0.0742,-0.2252 1.2945,-0.5921 1.6721,-0.7324 0.2273,-1.7729 0.2792,-3.6237 1.8119,-3.6237 0.6268,0 -0.0556,1.0391 -0.1947,2.1717l-0.1228 1.1049zm-0.0889 0.6561c-0.1553,1.26 -0.944,7.1171 -0.944,7.9037 0,0.9555 2.5079,1.0502 4.0767,-1.0203 1.8562,-2.4497 2.3352,-7.7754 -3.1327,-6.8834zm10.2997 0.7239c-0.1571,1.2572 -0.6646,4.6928 -0.6646,5.7574 0,1.6517 1.4575,1.8248 2.6966,0.4741 0.7071,-0.7708 1.0075,0.3097 -0.563,1.5028 -2.1189,1.6097 -3.6195,0.8641 -3.6195,-1.4943 0,-0.9486 0.5696,-5.4173 0.745,-6.4262 0.1498,-0.8618 -1.3885,-0.0698 -1.3885,-0.6435 0,-0.4841 1.6064,-0.7995 2.6797,-2.5315 0.3185,-0.514 0.8388,-0.4538 0.6096,0.2624 -0.0624,0.1949 -0.309,1.1215 -0.309,1.3759 0,0.2488 0.2934,0.301 0.6053,0.2963l1.6976 -0.0508c0.6918,-0.0103 0.5177,0.875 -0.2074,0.8594 -1.7373,-0.0373 -2.1679,-0.3494 -2.2818,0.618zm5.279 3.4333c0.1301,-0.7679 0.5842,-3.0264 0.5842,-3.683 0,-0.9206 -1.9624,-0.1628 -1.9346,-0.7451 0.0084,-0.1905 0.1862,-0.2879 0.5334,-0.2879 2.1083,0 3.2147,-0.7253 3.0861,0.1524l-0.6943 3.4206c-0.2538,1.2459 -0.9674,4.5841 -0.1355,4.6397 0.7776,0.052 1.0405,-1.3166 1.4013,-1.3166 1.2466,0 -3.2258,6.028 -3.2258,1.0203 0,-0.652 0.127,-1.7188 0.3852,-3.2004zm2.1251 -10.0754c0.1531,0.0171 0.4537,0.6588 0.4615,0.6689 0.6836,0.8832 0.358,0.6743 -0.4615,1.7018 -0.4493,0.5633 -0.617,-0.3271 -0.9948,-0.8551 -0.2994,-0.4185 0.1083,-0.5694 0.6858,-1.3039 0.1228,-0.1482 0.2286,-0.2201 0.309,-0.2117zm11.3538 -1.2615c-3.3416,0 -4.9703,1.786 -5.7658,4.7583 -1.3126,4.9045 0.6422,11.1717 6.4135,11.1717 2.032,0 3.2766,-0.8128 3.7211,-2.4426 0.1754,-0.6403 0.7477,-3.8513 0.1566,-4.6059 -0.4092,-0.5224 -1.8498,-0.2909 -1.8288,-0.7069 0.0085,-0.199 0.1778,-0.2964 0.508,-0.2964l2.4215 0.0254 1.8965 -0.1354c0.5073,-0.0181 0.4467,0.4304 -0.1989,0.5969 -0.6714,0.1732 -0.6667,0.5207 -0.7578,1.2784 -0.1557,1.2961 -0.5731,3.8989 -0.3344,5.0546 0.1507,0.7294 -0.3288,0.4502 -1.7018,1.0033 -3.212,1.2939 -6.2053,1.4082 -9.017,-0.2836 -2.3411,-1.4055 -3.5095,-3.8015 -3.5095,-7.1924 0,-6.3102 5.0668,-10.2982 11.1252,-8.5768 0.9779,0.2794 1.8077,0.6181 2.4935,1.0245 0.7668,0.461 0.6244,-0.2371 1.0668,-0.2371 0.4434,0 0.2537,1.0836 0.2751,1.7103l0.1355 1.977c0.0527,0.706 -0.4073,0.8836 -0.5715,0.2455 -0.7151,-2.7789 -3.6865,-4.3688 -6.5278,-4.3688zm12.501 8.8815c0.9102,-1.6975 1.8712,-2.5442 2.8787,-2.5442 1.3362,0 0.7576,1.0161 0.5461,1.9219 -0.0994,0.4256 -0.4471,0.6148 -0.635,0.1482 -0.3595,-0.8928 -1.2951,-1.2027 -1.8838,0.5588 -0.4788,1.4325 -0.9296,5.059 -1.1261,7.0612 -0.0602,0.6136 -1.4393,0.6726 -1.4393,0.0847 0,-0.5948 0.5081,-4.196 0.618,-5.0758 0.4648,-3.72 -1.6009,-3.3181 -1.8711,-1.4139 -0.0999,0.7041 -0.5842,0.5935 -0.5842,-0.1228 0,-1.2359 0.4344,-2.1126 1.3631,-2.7771 1.0454,-0.748 1.57,-0.0334 2.1336,2.159zm10.033 4.8895c-3.7961,4.9687 -8.2287,3.0355 -5.7912,-2.7897 0.9138,-2.1837 2.9205,-4.6313 5.2451,-4.6313 1.5409,0 1.8013,0.9884 2.7517,-0.5334 0.3689,-0.5907 0.687,-0.4813 0.5207,0.0381 -0.2588,0.8081 -2.4895,11.1838 -0.0804,8.6572 0.488,-0.5118 0.7025,-1.287 0.9736,-1.287 1.1208,0 -2.2288,4.9362 -3.175,2.7009 -0.1566,-0.3725 -0.3048,-1.088 -0.4445,-2.1548zm-0.5334 -6.8961c-2.584,0 -4.373,4.3625 -4.373,6.621 0,2.3047 2.2032,2.3777 3.8015,0.7281 1.2799,-1.3209 1.1356,-2.1089 1.4351,-3.5433 0.142,-0.6802 0.6012,-2.5948 0.6012,-2.9887 0,-0.5485 -0.9946,-0.8171 -1.4648,-0.8171zm11.6628 7.1332c-0.9186,1.723 -2.0912,2.5866 -3.5221,2.5866 -1.7984,0 -2.5442,-1.4785 -2.5442,-3.2131 0,-1.7611 0.563,-3.3698 1.6891,-4.8303 1.5026,-1.9488 3.2384,-2.7428 5.262,-1.7526 0.1295,-1.0562 0.8086,-6.081 0.8086,-6.7564 0,-0.7615 -1.7881,-0.1376 -1.7611,-0.6604 0.0085,-0.1735 0.1693,-0.2709 0.4826,-0.2878 2.1217,-0.1189 2.942,-0.654 2.8279,0.1524l-1.6637 13.5297c-0.0884,0.7344 -0.2961,2.3326 0.508,2.3326 0.963,0 1.4465,-1.6256 1.7949,-1.6256 0.7359,0 -0.8246,2.9887 -2.4807,2.9887 -1.2732,0 -1.2824,-1.2743 -1.4013,-2.4638zm0.3133 -2.6204c0.0954,-0.7611 0.4233,-2.889 0.4233,-3.5137 0,-0.6731 -0.4995,-1.0118 -1.4901,-1.0118 -3.4416,0 -5.5913,8.509 -2.0362,8.509 1.9439,0 2.8611,-2.0152 3.103,-3.9835zm6.079 0.11c-0.1392,1.1699 -0.0324,2.1535 0.779,3.0015 1.2124,1.2671 3.3717,1.1021 4.5127,-0.0508 0.6954,-0.7026 0.9095,0.0826 -0.3344,1.0541 -2.6044,2.0256 -6.4389,1.3271 -6.4389,-2.4427 0,-1.6679 0.5545,-3.2215 1.6679,-4.6566 3.7487,-4.8318 8.5076,-0.4188 3.8015,2.2521 -0.9906,0.563 -2.3198,0.8424 -3.9878,0.8424zm0.0593 -0.4487c1.9185,0 4.4281,-0.9213 4.4281,-3.0014 0,-2.1315 -3.5823,-1.4745 -4.4281,3.0014z"/>
 </g>
</svg>
