<?xml version="1.0" encoding="UTF-8"?>
<!DOCTYPE svg PUBLIC "-//W3C//DTD SVG 1.1//EN" "http://www.w3.org/Graphics/SVG/1.1/DTD/svg11.dtd">
<!-- Creator: CorelDRAW -->
<svg xmlns="http://www.w3.org/2000/svg" xml:space="preserve" width="100.0mm" height="25.4mm" style="shape-rendering:geometricPrecision; text-rendering:geometricPrecision; image-rendering:optimizeQuality; fill-rule:evenodd; clip-rule:evenodd"
viewBox="0 0 100.0 25.4"
 xmlns:xlink="http://www.w3.org/1999/xlink">
 <defs>
  <style type="text/css">
   <![CDATA[
    .fil0 {fill:black;fill-rule:nonzero}
   ]]>
  </style>
 </defs>
 <g id="Capa_x0020_1">
  <metadata id="CorelCorpID_0Corel-Layer"/>
  <path class="fil0" d="M9.2689 2.5394c2.3823,0 4.352,0.8432 5.8665,2.5038 1.8794,-1.8007 3.8413,-3.3127 5.8858,-4.5357l0.4201 0.7256c-1.9305,1.3668 -3.7606,2.9866 -5.4923,4.8644 1.8904,2.9386 1.5141,7.2482 -0.3301,10.1579 -1.5706,2.4807 -3.9624,3.7211 -7.1671,3.7211 -11.8594,0 -9.6379,-17.4371 0.8171,-17.4371zm5.4614 4.9414c-0.2976,0.3533 -0.592,0.7148 -0.8835,1.0843 -2.3294,2.9547 -4.0097,5.8474 -5.0455,8.6828l-0.6158 0.4058c-0.5298,0.3437 -0.9881,0.6921 -1.37,1.0358 -0.2969,-1.4851 -2.1106,-5.285 -2.6349,-6.0336 -0.4821,-0.6874 -1.0024,-1.0597 -1.5609,-1.1122 2.7563,-2.5297 3.6528,0.168 5.0216,3.2029 1.7551,-3.1488 3.9245,-6.0579 6.4511,-8.6656 -1.9858,-3.2293 -6.9312,-4.2174 -9.8231,-0.4471 -2.3268,3.0335 -2.6161,8.4252 -0.1016,11.4808 3.4946,4.2467 10.9813,2.321 10.9813,-6.6759 0,-1.1074 -0.1396,-2.0935 -0.4187,-2.958zm7.4545 2.3484c1.8163,-0.3045 3.6161,-0.3231 4.881,0.7112 3.1335,2.5622 -0.8277,9.8403 -5.4313,9.072 -0.5775,-0.0964 -0.6521,0.0231 -0.7282,0.5588 -0.4323,3.0436 -0.5279,3.0051 1.3378,3.2851 0.6038,0.0906 0.6079,0.7539 -0.6943,0.5588 -1.7314,-0.2594 -2.2286,0.0254 -3.1284,0.0254 -0.5405,0 -0.7346,-0.5063 -0.1736,-0.6308 0.9098,-0.2019 0.876,-0.4858 1.0033,-1.5113l1.3674 -11.0998c-1.4764,0.4989 -1.8258,0.7949 -1.6002,0.1101 0.0742,-0.2252 1.2945,-0.5921 1.6721,-0.7324 0.2273,-1.7729 0.2792,-3.6237 1.8119,-3.6237 0.6268,0 -0.0556,1.0391 -0.1947,2.1717l-0.1228 1.1049zm-0.0889 0.6561c-0.1553,1.26 -0.944,7.1171 -0.944,7.9037 0,0.9555 2.5079,1.0502 4.0767,-1.0203 1.8562,-2.4497 2.3352,-7.7754 -3.1327,-6.8834zm10.2997 0.7239c-0.1571,1.2572 -0.6646,4.6928 -0.6646,5.7574 0,1.6517 1.4575,1.8248 2.6966,0.4741 0.7071,-0.7708 1.0075,0.3097 -0.563,1.5028 -2.1189,1.6097 -3.6195,0.8641 -3.6195,-1.4943 0,-0.9486 0.5696,-5.4173 0.745,-6.4262 0.1498,-0.8618 -1.3885,-0.0698 -1.3885,-0.6435 0,-0.4841 1.6064,-0.7995 2.6797,-2.5315 0.3185,-0.514 0.8388,-0.4538 0.6096,0.2624 -0.0624,0.1949 -0.309,1.1215 -0.309,1.3759 0,0.2488 0.2934,0.301 0.6053,0.2963l1.6976 -0.0508c0.6918,-0.0103 0.5177,0.875 -0.2074,0.8594 -1.7373,-0.0373 -2.1679,-0.3494 -2.2818,0.618zm5.279 3.4333c0.1301,-0.7679 0.5842,-3.0264 0.5842,-3.683 0,-0.9206 -1.9624,-0.1628 -1.9346,-0.7451 0.0084,-0.1905 0.1862,-0.2879 0.5334,-0.2879 2.1083,0 3.2147,-0.7253 3.0861,0.1524l-0.6943 3.4206c-0.2538,1.2459 -0.9674,4.5841 -0.1355,4.6397 0.7776,0.052 1.0405,-1.3166 1.4013,-1.3166 1.2466,0 -3.2258,6.028 -3.2258,1.0203 0,-0.652 0.127,-1.7188 0.3852,-3.2004zm2.1251 -10.0754c0.1531,0.0171 0.4537,0.6588 0.4615,0.6689 0.6836,0.8832 0.358,0.6743 -0.4615,1.7018 -0.4493,0.5633 -0.617,-0.3271 -0.9948,-0.8551 -0.2994,-0.4185 0.1083,-0.5694 0.6858,-1.3039 0.1228,-0.1482 0.2286,-0.2201 0.309,-0.2117zm7.2771 4.2969l2.8533 2.976c3.7343,3.8885 1.7019,8.1492 -3.5137,8.1492 -1.6849,0 -2.7263,-0.1694 -3.1242,-0.508 -0.361,-0.309 -1.2832,-3.2639 -0.5165,-3.2639 0.3878,0 0.3905,1.3442 1.8204,2.3368 2.0359,1.4132 5.6896,0.8098 5.6896,-2.1252 0,-1.1801 -0.6305,-1.8954 -1.5494,-2.8871 -1.2169,-1.3134 -3.8535,-3.9444 -4.5424,-5.3552 -1.274,-2.6092 0.0191,-5.6472 3.3147,-5.6472 1.0815,0 3.1162,0.7313 3.247,0.7281 0.4028,-0.01 0.9694,-0.8619 0.9694,0.4614 0,0.9428 0.1806,1.877 0.2625,2.8152 0.0447,0.5127 -0.5612,0.5936 -0.7705,-0.1863 -0.9996,-3.7255 -5.9521,-4.3479 -5.9521,-1.0287 0,1.1092 0.6054,2.286 1.8119,3.5349zm13.7414 5.7785c-1.4342,2.2147 -2.3047,3.5513 -3.9751,4.5889 -0.7573,0.4704 -1.4962,0.8493 -1.9389,0.1058 -0.9747,-1.6371 1.4549,-7.9722 0.4699,-8.0221 -0.4564,-0.0231 -0.9352,0.7806 -1.1049,1.1895 -0.4823,1.1623 -1.2443,-0.1362 0.2159,-1.8753 1.4358,-1.7101 3.0369,-1.3296 2.5993,1.3927 -0.1365,0.849 -0.8763,4.7971 -0.8763,5.8082 0,2.0913 4.2592,-2.4354 5.588,-7.3703 0.142,-0.5274 0.2087,-0.7323 0.7324,-0.7323 0.6212,0 0.7225,0.3542 0.6223,0.8212 -0.4272,1.9914 -1.2277,5.5516 -1.2277,7.0612 0,1.0159 1.1459,0.7987 1.96,-0.7662 0.4836,-0.9295 1.2641,0.252 -0.5376,1.9177 -1.1005,1.0174 -2.976,1.8832 -2.976,-0.2498 0,-1.1539 0.3133,-2.5687 0.4487,-3.8692zm7.984 -2.4554c0.9102,-1.6975 1.8712,-2.5442 2.8787,-2.5442 1.3362,0 0.7576,1.0161 0.5461,1.9219 -0.0994,0.4256 -0.4471,0.6148 -0.635,0.1482 -0.3595,-0.8928 -1.2951,-1.2027 -1.8838,0.5588 -0.4788,1.4325 -0.9296,5.059 -1.1261,7.0612 -0.0602,0.6136 -1.4393,0.6726 -1.4393,0.0847 0,-0.5948 0.5081,-4.196 0.618,-5.0758 0.4648,-3.72 -1.6009,-3.3181 -1.8711,-1.4139 -0.0999,0.7041 -0.5842,0.5935 -0.5842,-0.1228 0,-1.2359 0.4344,-2.1126 1.3631,-2.7771 1.0454,-0.748 1.57,-0.0334 2.1336,2.159zm8.2127 -0.0127c-0.1268,1.0563 -0.4402,3.0527 -0.4402,4.0429 0,4.8908 4.5254,0.6861 4.5254,-4.0302 0,-0.9379 -0.7811,-1.7165 -0.2244,-2.2648 0.479,-0.4717 1.215,-0.2128 1.215,0.9737 0,1.7624 -0.7723,4.3771 -1.7103,5.8674 -0.6683,1.0618 -2.5062,3.1369 -3.7338,3.1369 -1.0671,0 -1.4012,-2.0449 -1.4012,-2.9888 0,-0.3279 0.0769,-0.6584 -0.3725,-0.7196 -3.0683,-0.4177 -1.3088,-6.549 1.1514,-6.549 0.998,0 1.1182,1.4466 0.9906,2.5315zm-1.7314 -0.745c-0.4519,-0.0733 -2.1124,2.2568 -1.198,3.6491 0.234,0.3563 0.85,0.6762 1.0498,0.1863 0.1227,-0.3008 0.4445,-2.6529 0.4445,-3.2047 0,-0.3852 -0.0973,-0.5969 -0.2963,-0.6307zm9.2074 3.3739c-0.1392,1.1699 -0.0324,2.1535 0.779,3.0015 1.2124,1.2671 3.3717,1.1021 4.5127,-0.0508 0.6954,-0.7026 0.9095,0.0826 -0.3344,1.0541 -2.6044,2.0256 -6.4389,1.3271 -6.4389,-2.4427 0,-1.6679 0.5545,-3.2215 1.6679,-4.6566 3.7487,-4.8318 8.5076,-0.4188 3.8015,2.2521 -0.9906,0.563 -2.3198,0.8424 -3.9878,0.8424zm0.0593 -0.4487c1.9185,0 4.4281,-0.9213 4.4281,-3.0014 0,-2.1315 -3.5823,-1.4745 -4.4281,3.0014zm13.2968 2.1886c0.5439,-1.6897 1.136,-3.9818 0.4869,-5.3255 -0.9417,-1.9493 1.2869,-2.2515 1.2869,-0.0508 0,1.5429 -1.022,5.6659 -1.5748,7.1967 -0.9022,2.4984 -2.3199,5.6811 -4.754,5.6811 -2.1444,0 -1.9049,-2.9343 -0.1101,-1.6468 0.3556,0.2583 0.6435,0.3853 0.8678,0.3853 1.1931,0 2.9168,-2.7177 2.9168,-3.9201 0,-1.2655 -2.4571,-7.4337 -3.81,-7.4337 -1.2003,0 -0.9304,1.7229 -1.3504,1.7229 -0.8116,0 0.4084,-6.0038 3.3189,-2.1166 1.0109,1.3501 1.951,3.6512 2.722,5.5075z"/>
 </g>
</svg>
