<?xml version="1.0" encoding="UTF-8"?>
<!DOCTYPE svg PUBLIC "-//W3C//DTD SVG 1.1//EN" "http://www.w3.org/Graphics/SVG/1.1/DTD/svg11.dtd">
<!-- Creator: CorelDRAW -->
<svg xmlns="http://www.w3.org/2000/svg" xml:space="preserve" width="78.0mm" height="25.4mm" style="shape-rendering:geometricPrecision; text-rendering:geometricPrecision; image-rendering:optimizeQuality; fill-rule:evenodd; clip-rule:evenodd"
viewBox="0 0 78.0 25.4"
 xmlns:xlink="http://www.w3.org/1999/xlink">
 <defs>
  <style type="text/css">
   <![CDATA[
    .fil0 {fill:black;fill-rule:nonzero}
   ]]>
  </style>
 </defs>
 <g id="Capa_x0020_1">
  <metadata id="CorelCorpID_0Corel-Layer"/>
  <path class="fil0" d="M9.2798 2.5394c2.3823,0 4.352,0.8432 5.8665,2.5038 1.8794,-1.8007 3.8413,-3.3127 5.8858,-4.5357l0.4201 0.7256c-1.9305,1.3668 -3.7606,2.9866 -5.4923,4.8644 1.8904,2.9386 1.5141,7.2482 -0.3301,10.1579 -1.5706,2.4807 -3.9624,3.7211 -7.1671,3.7211 -11.9132,0 -9.608,-17.4371 0.8171,-17.4371zm5.4614 4.9414c-0.2976,0.3533 -0.592,0.7148 -0.8835,1.0843 -2.3294,2.9547 -4.0097,5.8474 -5.0455,8.6828l-0.6158 0.4058c-0.5298,0.3437 -0.9881,0.6921 -1.37,1.0358 -0.2969,-1.4851 -2.1106,-5.285 -2.6349,-6.0336 -0.4821,-0.6874 -1.0024,-1.0597 -1.5609,-1.1122 2.7159,-2.4926 3.5963,0.0427 5.0216,3.2029 1.7551,-3.1488 3.9245,-6.0579 6.4511,-8.6656 -1.9858,-3.2293 -6.9312,-4.2174 -9.8231,-0.4471 -2.3268,3.0335 -2.6161,8.4252 -0.1016,11.4808 3.4946,4.2467 10.9813,2.321 10.9813,-6.6759 0,-1.1074 -0.1396,-2.0935 -0.4187,-2.958zm7.4545 2.3484c1.8163,-0.3045 3.6161,-0.3231 4.881,0.7112 3.1335,2.5622 -0.8277,9.8403 -5.4313,9.072 -0.5775,-0.0964 -0.6521,0.0231 -0.7282,0.5588 -0.4458,3.1381 -0.471,3.0137 1.3378,3.2851 0.6038,0.0906 0.6079,0.7539 -0.6943,0.5588 -1.7314,-0.2594 -2.2286,0.0254 -3.1284,0.0254 -0.5405,0 -0.7346,-0.5063 -0.1736,-0.6308 0.9098,-0.2019 0.876,-0.4858 1.0033,-1.5113l1.3674 -11.0998c-1.5638,0.5284 -1.8174,0.7696 -1.6002,0.1101 0.0742,-0.2252 1.2945,-0.5921 1.6721,-0.7324 0.2273,-1.7729 0.2792,-3.6237 1.8119,-3.6237 0.6268,0 -0.0556,1.0391 -0.1947,2.1717l-0.1228 1.1049zm-0.0889 0.6561c-0.1553,1.26 -0.944,7.1171 -0.944,7.9037 0,0.9555 2.5079,1.0502 4.0767,-1.0203 1.8562,-2.4497 2.3352,-7.7754 -3.1327,-6.8834zm10.2997 0.7239c-0.1571,1.2572 -0.6646,4.6928 -0.6646,5.7574 0,1.6517 1.4575,1.8248 2.6966,0.4741 0.7071,-0.7708 1.0075,0.3097 -0.563,1.5028 -2.1189,1.6097 -3.6195,0.8641 -3.6195,-1.4943 0,-0.9486 0.5696,-5.4173 0.745,-6.4262 0.1498,-0.8618 -1.3885,-0.0698 -1.3885,-0.6435 0,-0.4841 1.6064,-0.7995 2.6797,-2.5315 0.3185,-0.514 0.8388,-0.4538 0.6096,0.2624 -0.0624,0.1949 -0.309,1.1215 -0.309,1.3759 0,0.2488 0.2934,0.301 0.6053,0.2963l1.6976 -0.0508c0.6918,-0.0103 0.5177,0.875 -0.2074,0.8594 -1.7373,-0.0373 -2.1679,-0.3494 -2.2818,0.618zm5.279 3.4333c0.1301,-0.7679 0.5842,-3.0264 0.5842,-3.683 0,-0.9206 -1.9624,-0.1628 -1.9346,-0.7451 0.0084,-0.1905 0.1862,-0.2879 0.5334,-0.2879 2.1083,0 3.2147,-0.7253 3.0861,0.1524l-0.6943 3.4206c-0.2538,1.2459 -0.9674,4.5841 -0.1355,4.6397 0.7776,0.052 1.0405,-1.3166 1.4013,-1.3166 1.2572,0 -3.2258,6.0237 -3.2258,1.0203 0,-0.652 0.127,-1.7188 0.3852,-3.2004zm2.1251 -10.0754c0.1531,0.0171 0.4537,0.6588 0.4615,0.6689 0.6836,0.8832 0.358,0.6743 -0.4615,1.7018 -0.4493,0.5633 -0.617,-0.3271 -0.9948,-0.8551 -0.2994,-0.4185 0.1083,-0.5694 0.6858,-1.3039 0.1228,-0.1482 0.2286,-0.2201 0.309,-0.2117zm4.7202 12.8736l1.4732 -12.0481c0.1239,-0.9619 0.081,-1.8388 -1.1007,-2.0701 -1.0833,-0.2121 -0.8628,-0.6846 0.0635,-0.5842 1.0669,0.1157 2.5434,0.0932 3.6237,0 1.143,-0.0986 0.9468,0.375 0.6054,0.4699 -1.1745,0.3264 -1.2016,0.5441 -1.3631,1.8754 -0.2035,1.6773 -1.5664,12.1273 -1.5664,12.8651 0,0.5122 0.7578,0.7705 2.2691,0.7705 6.3525,0 6.0334,-2.358 6.7352,-2.358 0.6801,0 -0.4594,2.6499 -1.6594,3.1877 -1.4539,0.6516 -7.0972,-0.1857 -9.6012,0.1863 -0.377,0.056 -1.0922,0.2047 -1.0922,-0.1736 0,-0.3978 1.3764,-0.2234 1.5367,-1.4732l0.0762 -0.6477zm18.0678 -0.3641c-3.7961,4.9687 -8.2287,3.0355 -5.7912,-2.7897 0.9138,-2.1837 2.9205,-4.6313 5.2451,-4.6313 1.5409,0 1.8013,0.9884 2.7517,-0.5334 0.3689,-0.5907 0.687,-0.4813 0.5207,0.0381 -0.2588,0.8081 -2.4895,11.1838 -0.0804,8.6572 0.488,-0.5118 0.7025,-1.287 0.9736,-1.287 1.1359,0 -2.2337,4.9246 -3.175,2.7009 -0.1566,-0.3725 -0.3048,-1.088 -0.4445,-2.1548zm-0.5334 -6.8961c-2.584,0 -4.373,4.3625 -4.373,6.621 0,2.3047 2.2032,2.3777 3.8015,0.7281 1.2799,-1.3209 1.1356,-2.1089 1.4351,-3.5433 0.142,-0.6802 0.6012,-2.5948 0.6012,-2.9887 0,-0.5485 -0.9946,-0.8171 -1.4648,-0.8171zm8.4751 1.8839c2.2705,-3.5237 6.5744,-3.4271 6.5744,0.5207 0,3.0624 -2.6352,7.3152 -6.0156,7.3152 -1.4012,0 -2.6289,-0.6277 -2.6289,-2.0828 0,-0.398 0.0297,-0.8128 0.0847,-1.2531 0.1977,-1.5973 1.6002,-12.5554 1.6002,-13.2165 0,-0.7608 -1.7624,-0.1391 -1.7357,-0.6604 0.0085,-0.1735 0.1694,-0.2709 0.4826,-0.2878 2.2561,-0.1261 2.909,-0.6452 2.8025,0.1524l-1.1642 9.5123zm-0.3598 2.9252c-0.2303,1.8883 -0.9386,4.2418 1.2319,4.2418 2.8905,0 5.3827,-5.4296 3.6322,-7.7174 -1.1417,-1.4922 -4.3046,-0.9862 -4.8641,3.4756z"/>
 </g>
</svg>
