<?xml version="1.0" encoding="UTF-8"?>
<!DOCTYPE svg PUBLIC "-//W3C//DTD SVG 1.1//EN" "http://www.w3.org/Graphics/SVG/1.1/DTD/svg11.dtd">
<!-- Creator: CorelDRAW -->
<svg xmlns="http://www.w3.org/2000/svg" xml:space="preserve" width="78.0mm" height="25.4mm" style="shape-rendering:geometricPrecision; text-rendering:geometricPrecision; image-rendering:optimizeQuality; fill-rule:evenodd; clip-rule:evenodd"
viewBox="0 0 78.0 25.4"
 xmlns:xlink="http://www.w3.org/1999/xlink">
 <defs>
  <style type="text/css">
   <![CDATA[
    .fil0 {fill:black;fill-rule:nonzero}
   ]]>
  </style>
 </defs>
 <g id="Capa_x0020_1">
  <metadata id="CorelCorpID_0Corel-Layer"/>
  <path class="fil0" d="M17.4495 10.8666c0.0087,2.0649 -0.5214,3.9456 -1.5873,5.6273 -1.6593,2.618 -4.093,3.7098 -7.4071,3.7211 -4.9366,0.0168 -8.0018,-3.0462 -8.001,-7.9486 0.0004,-2.6935 0.8258,-4.9851 2.5781,-6.8861 1.8107,-1.9644 3.9355,-2.7944 6.48,-2.8024 2.3716,-0.0074 4.3393,0.8402 5.8498,2.4855 1.8802,-1.8021 3.8431,-3.3149 5.8887,-4.5385 0.2627,-0.1626 0.7468,0.837 0.6201,0.9256 -1.9472,1.3787 -3.7924,3.0148 -5.5374,4.9134 0.7697,1.2946 1.1226,2.8159 1.1161,4.5027zm-2.609 -2.7845c-0.1893,0.2302 -0.3774,0.4636 -0.5642,0.7004 -2.3294,2.9547 -4.0097,5.8474 -5.0455,8.6828l-0.6158 0.4058c-2.0674,1.3518 -1.1917,1.7057 -2.1141,-0.5872 -0.7977,-1.9829 -1.9831,-5.3639 -3.6517,-5.5228 -0.4712,-0.0449 1.1729,-1.2277 1.9714,-1.2359 1.4261,-0.0147 2.2662,2.0571 3.1611,4.0413 1.685,-2.9843 3.7362,-5.7371 6.1194,-8.2383 -1.9404,-3.1676 -6.6864,-4.2393 -9.5885,-0.4558 -2.3002,2.9988 -2.5885,8.2586 -0.1016,11.2808 3.6561,4.443 10.7334,1.8565 10.7409,-6.5513 -0.0054,-0.9256 -0.1091,-1.7655 -0.3114,-2.5198zm9.393 1.5868c2.4058,-0.0119 4.1885,1.095 4.1887,3.5244 0.0002,3.2433 -2.6205,6.6958 -6.0475,6.6957 -1.5155,-0.0001 -1.021,-0.5929 -1.4494,2.3918 -0.2458,1.713 1.9117,0.7591 1.9307,1.5341 0.0125,0.5073 -0.2808,0.4768 -0.7187,0.4768 -1.1581,0 -1.2006,-0.2795 -3.1128,-0.0381 -0.3949,0.0498 -1.1141,0.1173 -1.104,-0.3647 0.0049,-0.2315 -0.0102,-0.3651 0.3306,-0.4407 0.9098,-0.2019 0.876,-0.4858 1.0033,-1.5113l1.3327 -10.8183c-0.8483,0.2606 -1.9409,0.9685 -1.5655,-0.1714 0.0742,-0.2252 1.2945,-0.5921 1.6721,-0.7324 0.2353,-1.8356 0.2859,-3.6572 1.8613,-3.6216 0.4077,0.0092 0.4658,0.0236 0.4658,0.4222 0,0.1388 -0.4148,1.4984 -0.4699,1.9474l-0.0958 0.8616c0.8008,-0.1254 1.204,-0.1555 1.7784,-0.1555zm-2.8359 8.8174c0.0795,0.9317 2.3822,0.8374 3.8343,-1.0791 1.8063,-2.384 2.0767,-6.7955 -1.9456,-6.7835 -0.2666,0.0072 -0.5823,0.0406 -0.9471,0.1001 -0.1612,1.3086 -0.9111,6.9095 -0.9416,7.7625zm10.5777 -1.4124c0.0158,0.5434 0.3291,1.3073 0.9346,1.3135 0.8398,0.0086 1.5788,-1.158 1.9062,-1.158 0.3734,0 0.439,-0.0076 0.439,0.399 0,1.5099 -5.7373,5.2598 -4.9178,-1.3684l0.6593 -5.2239c-0.0318,-0.4827 -1.3917,0.0748 -1.3917,-0.4181 0,-0.3488 0.0328,-0.4653 0.5207,-0.7249 2.1323,-1.1347 1.887,-2.3284 2.7096,-2.3284 0.8783,0 -0.0321,1.4622 0.0025,2.0472 0.0213,0.3598 1.7452,0.1545 2.2443,0.1598 0.4376,0.0047 0.4694,0.1977 0.4694,0.5203 0,1.0866 -2.3262,0.1618 -2.7432,0.6012 -0.2738,0.2811 -0.8273,5.8353 -0.8329,6.1807zm7.9006 -7.3911c0.3724,-0.0146 0.3521,0.3544 0.3111,0.6346 -0.1485,1.014 -1.8737,7.8191 -0.9057,7.8474 0.3167,-0.0708 0.6303,-0.4098 0.9408,-1.02 0.1553,-0.3186 0.2855,-0.2837 0.5364,-0.2837 0.377,0 0.2465,1.1507 -0.7705,2.232 -0.7334,0.7797 -1.1518,0.961 -1.8529,0.961 -0.7554,0 -0.8412,-1.4981 -0.8424,-2.1727 -0.0027,-1.517 0.984,-6.1361 0.9658,-6.7502 -0.0236,-0.7956 -1.9583,-0.1227 -1.931,-0.6783 0.0156,-0.317 0.0167,-0.4879 0.5334,-0.4879 1.1668,0 2.5511,-0.3198 3.015,-0.2822zm0.1671 -5.0772c0.1531,0.0171 0.4537,0.6588 0.4615,0.6689 0.7565,0.9773 0.2834,0.9679 -0.4615,1.9018 -0.2135,0.2677 -0.6163,0.2754 -0.7734,-0.0508 -0.2774,-0.5761 -0.8329,-1.1289 -0.4487,-1.5377 0.7221,-0.7824 0.567,-0.9215 1.2221,-0.9822zm7.2771 4.2969l2.8533 2.976c3.6439,3.7975 2.0087,8.3414 -3.5894,8.3491 -1.6071,0.0022 -2.8848,-0.1623 -3.2885,-0.5079 -0.4036,-0.3455 -1.2684,-3.4639 -0.5165,-3.4639 0.2628,0 0.4102,-0.0364 0.5364,0.3217 0.8507,2.4145 4.0398,3.7363 6.0549,1.9516 0.9165,-0.8116 1.1723,-2.096 0.5842,-3.1782 -0.9764,-1.7967 -4.7238,-4.8091 -5.7573,-6.9258 -0.3334,-0.6828 -0.4634,-1.5116 -0.4657,-2.3632 -0.0061,-2.2382 1.7787,-3.483 3.9204,-3.484 1.1841,-0.0006 3.1886,0.7022 3.2214,0.7007 0.1964,-0.009 1.095,-0.8213 1.095,0.4888 0,2.6961 0.7963,3.4004 -0.2993,3.4004 -0.5766,0 -0.3511,-1.5438 -1.9261,-2.8617 -2.9119,-2.4366 -6.3998,0.4798 -2.4228,4.5964zm11.5866 0.6942c4.419,0 4.3521,5.9202 2.1421,8.7006 -1.0631,1.3375 -2.277,1.8354 -3.7833,1.8415 -5.5166,0.0224 -4.2807,-10.5323 1.4735,-10.5416l0.1677 -0.0005zm-3.2761 6.2754c0.0201,2.1756 0.6795,3.2961 1.9782,3.3648 3.0476,-0.009 4.3605,-8.8259 1.2056,-8.8273 -0.8882,0.0458 -1.6335,0.578 -2.236,1.5969 -0.6179,1.0408 -0.935,2.3332 -0.9478,3.8656zm15.5458 -13.3701c0.7244,-0.0044 0.914,0.0778 0.9172,0.7331 0.0053,1.0795 -0.0755,1.7084 -0.4806,1.5319 -0.4241,0.2603 -2.3975,-4.3766 -3.6995,5.0033l1.8306 0c0.5579,0 0.5969,0.1819 0.5969,0.5344 0,0.4726 -0.494,0.5123 -0.9343,0.5123l-1.6353 0 -1.143 9.2244c-0.1651,1.3801 -0.5546,2.3918 -1.1642,3.0353 -0.8121,0.8644 -1.4568,1.1176 -2.3397,1.1176 -0.5628,0 -0.6308,-0.2997 -0.6308,-0.708 0,-0.2406 0.3021,-1.8451 0.6824,-1.6048l0.1201 -0.0104c0.3247,-0.14 0.275,1.1219 0.7636,1.1172 0.5495,-0.0053 0.7275,-1.7695 0.8173,-2.5246 0.3812,-3.2055 0.7653,-6.4601 1.2241,-9.6467l-1.6094 0c-0.5617,0 -0.6053,-0.1894 -0.6053,-0.5472 0,-0.4605 0.5041,-0.4995 0.9469,-0.4995l1.4195 0c0.3622,-2.2936 1.1159,-4.3505 2.1759,-5.7573 0.8218,-1.0906 1.4535,-1.511 2.7476,-1.511zm2.5226 14.5719c0.0158,0.5434 0.3291,1.3073 0.9346,1.3135 0.8398,0.0086 1.5788,-1.158 1.9062,-1.158 0.3734,0 0.439,-0.0076 0.439,0.399 0,1.5099 -5.7373,5.2598 -4.9178,-1.3684l0.6593 -5.2239c-0.0318,-0.4827 -1.3917,0.0748 -1.3917,-0.4181 0,-0.3488 0.0328,-0.4653 0.5207,-0.7249 2.1323,-1.1347 1.887,-2.3284 2.7096,-2.3284 0.8783,0 -0.0321,1.4622 0.0025,2.0472 0.0213,0.3598 1.7452,0.1545 2.2443,0.1598 0.4376,0.0047 0.4694,0.1977 0.4694,0.5203 0,1.0866 -2.3262,0.1618 -2.7432,0.6012 -0.2738,0.2811 -0.8273,5.8353 -0.8329,6.1807z"/>
 </g>
</svg>
