<?xml version="1.0" encoding="UTF-8"?>
<!DOCTYPE svg PUBLIC "-//W3C//DTD SVG 1.1//EN" "http://www.w3.org/Graphics/SVG/1.1/DTD/svg11.dtd">
<!-- Creator: CorelDRAW -->
<svg xmlns="http://www.w3.org/2000/svg" xml:space="preserve" width="98.0mm" height="25.4mm" style="shape-rendering:geometricPrecision; text-rendering:geometricPrecision; image-rendering:optimizeQuality; fill-rule:evenodd; clip-rule:evenodd"
viewBox="0 0 98.0 25.4"
 xmlns:xlink="http://www.w3.org/1999/xlink">
 <defs>
  <style type="text/css">
   <![CDATA[
    .fil0 {fill:black;fill-rule:nonzero}
   ]]>
  </style>
 </defs>
 <g id="Capa_x0020_1">
  <metadata id="CorelCorpID_0Corel-Layer"/>
  <path class="fil0" d="M17.4495 10.8666c0.0087,2.0649 -0.5214,3.9456 -1.5873,5.6273 -1.6593,2.618 -4.093,3.7098 -7.4071,3.7211 -4.9366,0.0168 -8.0018,-3.0462 -8.001,-7.9486 0.0004,-2.6935 0.8258,-4.9851 2.5781,-6.8861 1.8107,-1.9644 3.9355,-2.7944 6.48,-2.8024 2.3716,-0.0074 4.3393,0.8402 5.8498,2.4855 1.8802,-1.8021 3.8431,-3.3149 5.8887,-4.5385 0.2627,-0.1626 0.7468,0.837 0.6201,0.9256 -1.9472,1.3787 -3.7924,3.0148 -5.5374,4.9134 0.7697,1.2946 1.1226,2.8159 1.1161,4.5027zm-2.609 -2.7845c-0.1893,0.2302 -0.3774,0.4636 -0.5642,0.7004 -2.3294,2.9547 -4.0097,5.8474 -5.0455,8.6828l-0.6158 0.4058c-2.0674,1.3518 -1.1917,1.7057 -2.1141,-0.5872 -0.7977,-1.9829 -1.9831,-5.3639 -3.6517,-5.5228 -0.4712,-0.0449 1.1729,-1.2277 1.9714,-1.2359 1.4261,-0.0147 2.2662,2.0571 3.1611,4.0413 1.685,-2.9843 3.7362,-5.7371 6.1194,-8.2383 -1.9404,-3.1676 -6.6864,-4.2393 -9.5885,-0.4558 -2.3002,2.9988 -2.5885,8.2586 -0.1016,11.2808 3.6561,4.443 10.7334,1.8565 10.7409,-6.5513 -0.0054,-0.9256 -0.1091,-1.7655 -0.3114,-2.5198zm9.393 1.5868c2.4058,-0.0119 4.1885,1.095 4.1887,3.5244 0.0002,3.2433 -2.6205,6.6958 -6.0475,6.6957 -1.5155,-0.0001 -1.021,-0.5929 -1.4494,2.3918 -0.2458,1.713 1.9117,0.7591 1.9307,1.5341 0.0125,0.5073 -0.2808,0.4768 -0.7187,0.4768 -1.1581,0 -1.2006,-0.2795 -3.1128,-0.0381 -0.3949,0.0498 -1.1141,0.1173 -1.104,-0.3647 0.0049,-0.2315 -0.0102,-0.3651 0.3306,-0.4407 0.9098,-0.2019 0.876,-0.4858 1.0033,-1.5113l1.3327 -10.8183c-0.8483,0.2606 -1.9409,0.9685 -1.5655,-0.1714 0.0742,-0.2252 1.2945,-0.5921 1.6721,-0.7324 0.2353,-1.8356 0.2859,-3.6572 1.8613,-3.6216 0.4077,0.0092 0.4658,0.0236 0.4658,0.4222 0,0.1388 -0.4148,1.4984 -0.4699,1.9474l-0.0958 0.8616c0.8008,-0.1254 1.204,-0.1555 1.7784,-0.1555zm-2.8359 8.8174c0.0795,0.9317 2.3822,0.8374 3.8343,-1.0791 1.8063,-2.384 2.0767,-6.7955 -1.9456,-6.7835 -0.2666,0.0072 -0.5823,0.0406 -0.9471,0.1001 -0.1612,1.3086 -0.9111,6.9095 -0.9416,7.7625zm10.5777 -1.4124c0.0158,0.5434 0.3291,1.3073 0.9346,1.3135 0.8398,0.0086 1.5788,-1.158 1.9062,-1.158 0.3734,0 0.439,-0.0076 0.439,0.399 0,1.5099 -5.7373,5.2598 -4.9178,-1.3684l0.6593 -5.2239c-0.0318,-0.4827 -1.3917,0.0748 -1.3917,-0.4181 0,-0.3488 0.0328,-0.4653 0.5207,-0.7249 2.1323,-1.1347 1.887,-2.3284 2.7096,-2.3284 0.8783,0 -0.0321,1.4622 0.0025,2.0472 0.0213,0.3598 1.7452,0.1545 2.2443,0.1598 0.4376,0.0047 0.4694,0.1977 0.4694,0.5203 0,1.0866 -2.3262,0.1618 -2.7432,0.6012 -0.2738,0.2811 -0.8273,5.8353 -0.8329,6.1807zm7.9006 -7.3911c0.3724,-0.0146 0.3521,0.3544 0.3111,0.6346 -0.1485,1.014 -1.8737,7.8191 -0.9057,7.8474 0.3167,-0.0708 0.6303,-0.4098 0.9408,-1.02 0.1553,-0.3186 0.2855,-0.2837 0.5364,-0.2837 0.377,0 0.2465,1.1507 -0.7705,2.232 -0.7334,0.7797 -1.1518,0.961 -1.8529,0.961 -0.7554,0 -0.8412,-1.4981 -0.8424,-2.1727 -0.0027,-1.517 0.984,-6.1361 0.9658,-6.7502 -0.0236,-0.7956 -1.9583,-0.1227 -1.931,-0.6783 0.0156,-0.317 0.0167,-0.4879 0.5334,-0.4879 1.1668,0 2.5511,-0.3198 3.015,-0.2822zm0.1671 -5.0772c0.1531,0.0171 0.4537,0.6588 0.4615,0.6689 0.7565,0.9773 0.2834,0.9679 -0.4615,1.9018 -0.2135,0.2677 -0.6163,0.2754 -0.7734,-0.0508 -0.2774,-0.5761 -0.8329,-1.1289 -0.4487,-1.5377 0.6336,-0.6865 0.5542,-0.9203 1.2221,-0.9822zm5.1779 6.4914c0.0339,4.1343 2.2486,8.176 6.6953,8.176 1.9659,-0.0296 3.1731,-0.8418 3.6094,-2.4415 0.1735,-0.6333 0.737,-3.665 0.1566,-4.4059 -0.5262,-0.6718 -1.8624,-0.1334 -1.8288,-0.8069 0.0213,-0.427 0.3506,-0.3958 0.748,-0.3964l2.212 0.0232 2.106 -0.1332c0.3593,-0.0131 0.3345,0.1967 0.3345,0.4243 0,0.3413 -0.8646,0.3592 -1.0668,0.707 -0.2699,0.4643 -0.7399,4.9217 -0.5588,5.7986 0.2009,0.9727 -0.2648,0.6244 -1.7018,1.2033 -3.2351,1.3033 -6.4111,1.4306 -9.257,-0.2836 -2.4529,-1.4759 -3.4982,-3.9262 -3.5095,-7.3924 -0.0168,-5.1767 3.3823,-8.9918 8.5775,-8.9912 2.8974,0.0004 5.5347,1.5772 5.5595,1.5767 0.2287,-0.0046 0.1586,-0.3749 0.6885,-0.3749 0.3872,0 0.3751,0.2547 0.3751,0.598l0.1355 3.0893c0.0506,0.6796 0.0394,0.8307 -0.5025,0.8307 -0.5133,0 -0.1872,-1.8915 -2.6289,-3.5263 -2.7074,-1.8127 -6.8535,-1.7509 -8.7304,1.0922 -0.8325,1.261 -1.3984,3.6697 -1.4134,5.233zm21.5089 -1.415c1.445,-0.0186 0.7998,1.2348 0.5928,2.1213 -0.103,0.4413 -0.3053,0.3995 -0.6125,0.4191 -0.2853,0.0182 -0.4089,-0.9814 -1.0055,-0.9678 -0.9824,0.0224 -1.4782,3.8033 -1.6586,5.2774l-0.3683 3.0395c-0.0427,0.4349 -0.5773,0.4826 -1.0232,0.4826 -0.6928,0 -0.6944,-0.3502 -0.6434,-0.8223 0.1571,-1.4544 0.6568,-4.4687 0.6556,-5.7268 -0.0024,-2.5853 -1.4626,-1.8801 -1.6814,-0.3385 -0.0702,0.4945 -0.2186,0.4741 -0.5363,0.4741 -0.5003,0 -0.3506,-1.9851 0.3429,-2.8797 0.3644,-0.47 1.0021,-1.0033 1.5666,-1.0033 0.6276,0 1.0306,0.6273 1.4613,2.1761 0.9425,-1.6427 1.7843,-2.2517 2.91,-2.2517zm6.6051 0.0125c1.7244,-0.0139 1.6396,0.9424 2.5615,-0.5338 0.1868,-0.2991 0.3197,-0.4792 0.4724,-0.3922 0.7266,-0.3684 -0.0293,2.0886 -0.1562,2.675 -0.1531,0.7074 -1.3225,6.576 -0.3877,6.7993 0.3106,0.0138 1.0055,-1.0136 1.1129,-1.2631 0.1849,-0.4295 0.3028,-0.4107 0.6125,-0.4107 0.2375,0 0.2117,0.2738 0.2117,0.4583 0,1.3935 -2.8669,4.2382 -3.6267,2.4426 -0.1434,-0.3412 -0.2799,-0.9704 -0.4091,-1.8936 -1.4877,1.8508 -2.8233,2.5625 -4.4634,2.5625 -4.2732,0 -1.3423,-10.4307 4.0721,-10.4443zm-4.3093 7.2382c0.0515,2.1974 2.0356,2.209 3.5603,0.6354 1.2799,-1.3209 1.1356,-2.1089 1.4351,-3.5433l0.5961 -2.8533c-0.0205,-0.4697 -1.7811,-1.6963 -3.7216,0.7377 -0.9541,1.1968 -1.8372,3.4915 -1.8699,5.0235zm15.3073 -7.2254c0.4208,-0.0036 0.8526,0.0954 1.385,0.3299 0.1016,-0.8284 0.8071,-6.122 0.7906,-6.5209 -0.026,-0.6296 -1.7808,-0.1026 -1.756,-0.5903 0.0152,-0.2987 0.0049,-0.46 0.4826,-0.4878 2.3832,-0.1386 3.2468,-0.7632 3.0679,0.3524 -0.1613,1.0061 -1.7529,13.9852 -1.7515,14.6493 0.0034,1.6113 1.0513,0.9778 1.6681,-0.0411 0.2675,-0.4419 0.2383,-0.5715 0.7226,-0.5715 0.7358,0 -0.6545,3.1863 -2.534,3.188 -1.3361,0.0012 -1.4009,-0.7503 -1.5505,-2.1042 -0.9815,1.6431 -2.0652,2.2203 -3.5596,2.2277 -4.7388,0.0234 -2.3846,-10.4967 3.0348,-10.4315zm-3.8987 6.6246c0.0481,2.4311 2.0917,3.2274 3.6918,1.2658 0.5164,-0.635 0.8509,-1.5917 1.0075,-2.8659 0.0815,-0.6567 0.423,-2.9231 0.4197,-3.408 -0.009,-1.3201 -3.1352,-1.7667 -4.6416,2.5412 -0.304,0.8713 -0.4643,1.6961 -0.4774,2.4669zm10.9562 -0.5338c0.0741,2.7394 3.2512,3.8764 5.1138,1.9944 0.2205,-0.2228 0.3178,-0.3376 0.4545,-0.2654 0.3041,-0.158 0.8131,0.4602 -0.5489,1.5195 -2.1682,1.6863 -6.68,1.8852 -6.6787,-2.589 0.0005,-1.6942 0.5369,-3.2528 1.6677,-4.7103 1.219,-1.5712 2.3788,-2.1446 3.8426,-2.1506 3.4571,-0.0142 3.165,5.4451 -3.7889,5.4451 -0.0361,0.3037 -0.0569,0.5549 -0.0621,0.7563zm0.1622 -1.41c4.3306,-0.1554 5.0854,-3.9502 3.1112,-3.9441 -0.6439,0.0425 -1.2841,0.4515 -1.9243,1.2239 -0.5555,0.6792 -0.9488,1.5848 -1.1869,2.7202z"/>
 </g>
</svg>
