<?xml version="1.0" encoding="UTF-8"?>
<!DOCTYPE svg PUBLIC "-//W3C//DTD SVG 1.1//EN" "http://www.w3.org/Graphics/SVG/1.1/DTD/svg11.dtd">
<!-- Creator: CorelDRAW -->
<svg xmlns="http://www.w3.org/2000/svg" xml:space="preserve" width="100.0mm" height="25.4mm" style="shape-rendering:geometricPrecision; text-rendering:geometricPrecision; image-rendering:optimizeQuality; fill-rule:evenodd; clip-rule:evenodd"
viewBox="0 0 100.0 25.4"
 xmlns:xlink="http://www.w3.org/1999/xlink">
 <defs>
  <style type="text/css">
   <![CDATA[
    .fil0 {fill:black;fill-rule:nonzero}
   ]]>
  </style>
 </defs>
 <g id="Capa_x0020_1">
  <metadata id="CorelCorpID_0Corel-Layer"/>
  <path class="fil0" d="M17.4495 10.8666c0.0087,2.0649 -0.5214,3.9456 -1.5873,5.6273 -1.6593,2.618 -4.093,3.7098 -7.4071,3.7211 -4.9366,0.0168 -8.0018,-3.0462 -8.001,-7.9486 0.0004,-2.6935 0.8258,-4.9851 2.5781,-6.8861 1.8107,-1.9644 3.9355,-2.7944 6.48,-2.8024 2.3716,-0.0074 4.3393,0.8402 5.8498,2.4855 1.8802,-1.8021 3.8431,-3.3149 5.8887,-4.5385 0.2627,-0.1626 0.7468,0.837 0.6201,0.9256 -1.9472,1.3787 -3.7924,3.0148 -5.5374,4.9134 0.7697,1.2946 1.1226,2.8159 1.1161,4.5027zm-2.609 -2.7845c-0.1893,0.2302 -0.3774,0.4636 -0.5642,0.7004 -2.3294,2.9547 -4.0097,5.8474 -5.0455,8.6828l-0.6158 0.4058c-2.0674,1.3518 -1.1917,1.7057 -2.1141,-0.5872 -0.7977,-1.9829 -1.9831,-5.3639 -3.6517,-5.5228 -0.4712,-0.0449 1.1729,-1.2277 1.9714,-1.2359 1.4261,-0.0147 2.2662,2.0571 3.1611,4.0413 1.685,-2.9843 3.7362,-5.7371 6.1194,-8.2383 -1.9404,-3.1676 -6.6864,-4.2393 -9.5885,-0.4558 -2.3002,2.9988 -2.5885,8.2586 -0.1016,11.2808 3.6561,4.443 10.7334,1.8565 10.7409,-6.5513 -0.0054,-0.9256 -0.1091,-1.7655 -0.3114,-2.5198zm9.393 1.5868c2.4058,-0.0119 4.1885,1.095 4.1887,3.5244 0.0002,3.2433 -2.6205,6.6958 -6.0475,6.6957 -1.5155,-0.0001 -1.021,-0.5929 -1.4494,2.3918 -0.2458,1.713 1.9117,0.7591 1.9307,1.5341 0.0125,0.5073 -0.2808,0.4768 -0.7187,0.4768 -1.1581,0 -1.2006,-0.2795 -3.1128,-0.0381 -0.3949,0.0498 -1.1141,0.1173 -1.104,-0.3647 0.0049,-0.2315 -0.0102,-0.3651 0.3306,-0.4407 0.9098,-0.2019 0.876,-0.4858 1.0033,-1.5113l1.3327 -10.8183c-0.8483,0.2606 -1.9409,0.9685 -1.5655,-0.1714 0.0742,-0.2252 1.2945,-0.5921 1.6721,-0.7324 0.2353,-1.8356 0.2859,-3.6572 1.8613,-3.6216 0.4077,0.0092 0.4658,0.0236 0.4658,0.4222 0,0.1388 -0.4148,1.4984 -0.4699,1.9474l-0.0958 0.8616c0.8008,-0.1254 1.204,-0.1555 1.7784,-0.1555zm-2.8359 8.8174c0.0795,0.9317 2.3822,0.8374 3.8343,-1.0791 1.8063,-2.384 2.0767,-6.7955 -1.9456,-6.7835 -0.2666,0.0072 -0.5823,0.0406 -0.9471,0.1001 -0.1612,1.3086 -0.9111,6.9095 -0.9416,7.7625zm10.5777 -1.4124c0.0158,0.5434 0.3291,1.3073 0.9346,1.3135 0.8398,0.0086 1.5788,-1.158 1.9062,-1.158 0.3734,0 0.439,-0.0076 0.439,0.399 0,1.5099 -5.7373,5.2598 -4.9178,-1.3684l0.6593 -5.2239c-0.0318,-0.4827 -1.3917,0.0748 -1.3917,-0.4181 0,-0.3488 0.0328,-0.4653 0.5207,-0.7249 2.1323,-1.1347 1.887,-2.3284 2.7096,-2.3284 0.8783,0 -0.0321,1.4622 0.0025,2.0472 0.0213,0.3598 1.7452,0.1545 2.2443,0.1598 0.4376,0.0047 0.4694,0.1977 0.4694,0.5203 0,1.0866 -2.3262,0.1618 -2.7432,0.6012 -0.2738,0.2811 -0.8273,5.8353 -0.8329,6.1807zm7.9006 -7.3911c0.3724,-0.0146 0.3521,0.3544 0.3111,0.6346 -0.1485,1.014 -1.8737,7.8191 -0.9057,7.8474 0.3167,-0.0708 0.6303,-0.4098 0.9408,-1.02 0.1553,-0.3186 0.2855,-0.2837 0.5364,-0.2837 0.377,0 0.2465,1.1507 -0.7705,2.232 -0.7334,0.7797 -1.1518,0.961 -1.8529,0.961 -0.7554,0 -0.8412,-1.4981 -0.8424,-2.1727 -0.0027,-1.517 0.984,-6.1361 0.9658,-6.7502 -0.0236,-0.7956 -1.9583,-0.1227 -1.931,-0.6783 0.0156,-0.317 0.0167,-0.4879 0.5334,-0.4879 1.1668,0 2.5511,-0.3198 3.015,-0.2822zm0.1671 -5.0772c0.1531,0.0171 0.4537,0.6588 0.4615,0.6689 0.7565,0.9773 0.2834,0.9679 -0.4615,1.9018 -0.2135,0.2677 -0.6163,0.2754 -0.7734,-0.0508 -0.2774,-0.5761 -0.8329,-1.1289 -0.4487,-1.5377 0.6336,-0.6865 0.5542,-0.9203 1.2221,-0.9822zm7.2771 4.2969l2.8533 2.976c3.6439,3.7975 2.0087,8.3414 -3.5894,8.3491 -1.6071,0.0022 -2.8848,-0.1623 -3.2885,-0.5079 -0.4036,-0.3455 -1.2684,-3.4639 -0.5165,-3.4639 0.2628,0 0.4102,-0.0364 0.5364,0.3217 0.8507,2.4145 4.0398,3.7363 6.0549,1.9516 0.9165,-0.8116 1.1723,-2.096 0.5842,-3.1782 -0.9764,-1.7967 -4.7238,-4.8091 -5.7573,-6.9258 -0.3334,-0.6828 -0.4634,-1.5116 -0.4657,-2.3632 -0.0061,-2.2382 1.7787,-3.483 3.9204,-3.484 1.1841,-0.0006 3.1886,0.7022 3.2214,0.7007 0.1964,-0.009 1.095,-0.8213 1.095,0.4888 0,2.6961 0.7963,3.4004 -0.2993,3.4004 -0.5766,0 -0.3511,-1.5438 -1.9261,-2.8617 -2.9119,-2.4366 -6.3998,0.4798 -2.4228,4.5964zm9.0499 0.7545c1.1629,-0.0471 1.1044,1.6906 0.9577,2.6035 -0.1122,0.6978 -0.8814,4.866 -0.8734,5.6961 0.0086,0.8877 0.8908,0.0828 1.3742,-0.397 1.8253,-1.8114 3.2951,-4.5515 3.9709,-7.0612 0.1886,-0.7004 0.3466,-0.7279 0.9724,-0.7323 0.705,-0.005 0.7288,0.5247 0.6223,1.0212 -0.4195,1.9555 -1.2465,5.3934 -1.2262,6.9255 0.0132,1.0001 1.0372,0.4791 1.7185,-0.8305 0.1753,-0.3371 0.3174,-0.309 0.5872,-0.309 0.2727,0 0.2497,0.2653 0.2497,0.4709 0,1.2224 -1.8636,3.0099 -3.3681,3.0099 -0.8283,0 -0.98,-0.5608 -0.9824,-1.5039 -0.0022,-0.8466 0.2191,-2.1556 0.3672,-3.1778 -1.3183,1.9944 -2.0504,3.1017 -3.6536,4.0975 -4.4325,2.7533 -1.4416,-5.8833 -1.4536,-7.5284 -0.0125,-0.1947 -0.0659,-0.3162 -0.1616,-0.3644 -0.8058,0.2855 -0.885,1.5761 -1.4082,1.5847 -0.4133,0.0068 -0.4212,-0.0921 -0.4212,-0.4917 0,-1.2949 1.3277,-3.0748 2.7282,-3.0131zm15.5075 0.025c1.445,-0.0186 0.7998,1.2348 0.5928,2.1213 -0.103,0.4413 -0.3053,0.3995 -0.6125,0.4191 -0.2853,0.0182 -0.4089,-0.9814 -1.0055,-0.9678 -0.9824,0.0224 -1.4782,3.8033 -1.6586,5.2774l-0.3683 3.0395c-0.0427,0.4349 -0.5773,0.4826 -1.0232,0.4826 -0.6928,0 -0.6944,-0.3502 -0.6434,-0.8223 0.1571,-1.4544 0.6568,-4.4687 0.6556,-5.7268 -0.0024,-2.5853 -1.4626,-1.8801 -1.6814,-0.3385 -0.0702,0.4945 -0.2186,0.4741 -0.5363,0.4741 -0.5003,0 -0.3506,-1.9851 0.3429,-2.8797 0.3644,-0.47 1.0021,-1.0033 1.5666,-1.0033 0.6276,0 1.0306,0.6273 1.4613,2.1761 0.9425,-1.6427 1.7843,-2.2517 2.91,-2.2517zm4.9411 6.6722c0.0558,4.8414 4.3253,0.0938 4.2837,-3.9898 -0.01,-0.9793 -1.2475,-2.6068 0.512,-2.6068 1.4425,0 0.3578,3.9736 0.2286,4.4164 -0.6193,2.1234 -1.5032,3.6453 -3.1284,5.008 -1.1029,0.9248 -2.3488,1.5986 -3.0552,0.0762 -0.8064,-1.7379 -0.0015,-2.7214 -0.7831,-2.8278 -3.0006,-0.4085 -1.4413,-6.758 1.2168,-6.747 1.0239,0.0042 1.2003,0.6824 1.2033,2.0353 0.0033,1.5121 -0.4583,3.1123 -0.4777,4.6355zm-2.7671 -2.1575c0.0347,0.8369 0.8089,1.7888 1.0871,1.1066 0.0918,-0.225 0.4439,-2.5993 0.4422,-3.1018 -0.0126,-0.2606 -0.0779,-0.4273 -0.1975,-0.4986 -0.5971,0.3253 -1.3007,1.7163 -1.3318,2.4938zm10.6206 1.6014c0.0741,2.7394 3.2512,3.8764 5.1138,1.9944 0.2205,-0.2228 0.3178,-0.3376 0.4545,-0.2654 0.3041,-0.158 0.8131,0.4602 -0.5489,1.5195 -2.1682,1.6863 -6.68,1.8852 -6.6787,-2.589 0.0005,-1.6942 0.5369,-3.2528 1.6677,-4.7103 1.219,-1.5712 2.3788,-2.1446 3.8426,-2.1506 3.4571,-0.0142 3.165,5.4451 -3.7889,5.4451 -0.0361,0.3037 -0.0569,0.5549 -0.0621,0.7563zm14.2326 -6.1152c1.7544,-0.0902 0.584,4.45 0.4514,5.0541 -0.7025,3.2006 -2.4492,9.5491 -5.8666,9.5456 -0.9724,-0.001 -1.7309,-0.3887 -1.7309,-1.4144 0,-1.0234 1.0856,-0.8486 1.6666,-0.4318 0.3017,0.2192 0.5547,0.3439 0.7615,0.3766 0.9842,0.0145 2.7832,-2.7823 2.7793,-3.8038 -0.0048,-1.2667 -2.5397,-7.3073 -3.7079,-7.3323 -0.6116,-0.0131 -0.882,0.8698 -1.0013,1.5023 -0.0482,0.2556 -0.2585,0.2116 -0.4474,0.2116 -0.54,0 -0.2705,-3.6278 1.6388,-3.6183 0.7074,0.0035 1.1727,0.3036 1.9201,1.3017 0.9551,1.2756 1.8413,3.3872 2.5853,5.1783 1.417,-4.6408 0.1338,-4.5895 0.1338,-5.6133 0,-0.6502 0.155,-0.9993 0.8173,-0.9563zm-14.0704 4.7052c4.3306,-0.1554 5.0854,-3.9502 3.1112,-3.9441 -0.6439,0.0425 -1.2841,0.4515 -1.9243,1.2239 -0.5555,0.6792 -0.9488,1.5848 -1.1869,2.7202z"/>
 </g>
</svg>
