<?xml version="1.0" encoding="UTF-8"?>
<!DOCTYPE svg PUBLIC "-//W3C//DTD SVG 1.1//EN" "http://www.w3.org/Graphics/SVG/1.1/DTD/svg11.dtd">
<!-- Creator: CorelDRAW -->
<svg xmlns="http://www.w3.org/2000/svg" xml:space="preserve" width="78.0mm" height="25.4mm" style="shape-rendering:geometricPrecision; text-rendering:geometricPrecision; image-rendering:optimizeQuality; fill-rule:evenodd; clip-rule:evenodd"
viewBox="0 0 78.0 25.4"
 xmlns:xlink="http://www.w3.org/1999/xlink">
 <defs>
  <style type="text/css">
   <![CDATA[
    .fil0 {fill:black;fill-rule:nonzero}
   ]]>
  </style>
 </defs>
 <g id="Capa_x0020_1">
  <metadata id="CorelCorpID_0Corel-Layer"/>
  <path class="fil0" d="M17.4495 10.8669c0.0087,2.0649 -0.5214,3.9456 -1.5873,5.6273 -1.6593,2.618 -4.093,3.7098 -7.4071,3.7211 -4.9366,0.0168 -8.0018,-3.0462 -8.001,-7.9486 0.0004,-2.6935 0.8258,-4.9851 2.5781,-6.8861 1.8107,-1.9644 3.9355,-2.7944 6.48,-2.8024 2.3716,-0.0074 4.3393,0.8402 5.8498,2.4855 1.8802,-1.8021 3.8431,-3.3149 5.8887,-4.5385 0.266,-0.1647 0.7434,0.8394 0.6201,0.9256 -1.9472,1.3787 -3.7924,3.0148 -5.5374,4.9134 0.7697,1.2946 1.1226,2.8159 1.1161,4.5027zm-2.609 -2.7845c-0.1893,0.2302 -0.3774,0.4636 -0.5642,0.7004 -2.3294,2.9547 -4.0097,5.8474 -5.0455,8.6828l-0.6158 0.4058c-2.0674,1.3518 -1.1917,1.7057 -2.1141,-0.5872 -0.7977,-1.9829 -1.9831,-5.3639 -3.6517,-5.5228 -0.4712,-0.0449 1.1729,-1.2277 1.9714,-1.2359 1.4549,-0.0149 2.2447,2.0093 3.1611,4.0413 1.685,-2.9843 3.7362,-5.7371 6.1194,-8.2383 -1.9404,-3.1676 -6.6864,-4.2393 -9.5885,-0.4558 -2.3002,2.9988 -2.5885,8.2586 -0.1016,11.2808 3.6561,4.443 10.7334,1.8565 10.7409,-6.5513 -0.0054,-0.9256 -0.1091,-1.7655 -0.3114,-2.5198zm9.393 1.5868c2.4058,-0.0119 4.1885,1.095 4.1887,3.5244 0.0002,3.2433 -2.6205,6.6958 -6.0475,6.6957 -1.5155,-0.0001 -1.021,-0.5929 -1.4494,2.3918 -0.2458,1.713 1.9117,0.7591 1.9307,1.5341 0.0125,0.5073 -0.2808,0.4768 -0.7187,0.4768 -1.1581,0 -1.2006,-0.2795 -3.1128,-0.0381 -0.3949,0.0498 -1.1141,0.1173 -1.104,-0.3647 0.0049,-0.2315 -0.0102,-0.3651 0.3306,-0.4407 0.9098,-0.2019 0.876,-0.4858 1.0033,-1.5113l1.3327 -10.8183c-0.988,0.3036 -1.9297,0.9345 -1.5655,-0.1714 0.0742,-0.2252 1.2945,-0.5921 1.6721,-0.7324 0.2353,-1.8356 0.2859,-3.6572 1.8613,-3.6216 0.4077,0.0092 0.4658,0.0236 0.4658,0.4222 0,0.1388 -0.4148,1.4984 -0.4699,1.9474l-0.0958 0.8616c0.8008,-0.1254 1.204,-0.1555 1.7784,-0.1555zm-2.8359 8.8174c0.0795,0.9317 2.3822,0.8374 3.8343,-1.0791 1.8063,-2.384 2.0767,-6.7955 -1.9456,-6.7835 -0.2666,0.0072 -0.5823,0.0406 -0.9471,0.1001 -0.1612,1.3086 -0.9111,6.9095 -0.9416,7.7625zm10.5777 -1.4124c0.0158,0.5434 0.3291,1.3073 0.9346,1.3135 0.8398,0.0086 1.5788,-1.158 1.9062,-1.158 0.3734,0 0.439,-0.0076 0.439,0.399 0,1.4788 -5.7418,5.296 -4.9178,-1.3684l0.6593 -5.2239c-0.0318,-0.4827 -1.3917,0.0748 -1.3917,-0.4181 0,-0.3488 0.0328,-0.4653 0.5207,-0.7249 2.1323,-1.1347 1.887,-2.3284 2.7096,-2.3284 0.8852,0 -0.0358,1.3994 0.0025,2.0472 0.0213,0.3598 1.7452,0.1545 2.2443,0.1598 0.4376,0.0047 0.4694,0.1977 0.4694,0.5203 0,1.0866 -2.3262,0.1618 -2.7432,0.6012 -0.2758,0.2831 -0.8278,5.8678 -0.8329,6.1807zm7.9006 -7.3911c0.3724,-0.0146 0.3521,0.3544 0.3111,0.6346 -0.1485,1.014 -1.8737,7.8191 -0.9057,7.8474 0.3167,-0.0708 0.6303,-0.4098 0.9408,-1.02 0.1553,-0.3186 0.2855,-0.2837 0.5364,-0.2837 0.377,0 0.2465,1.1507 -0.7705,2.232 -0.7334,0.7797 -1.1518,0.961 -1.8529,0.961 -0.7554,0 -0.8412,-1.4981 -0.8424,-2.1727 -0.0027,-1.517 0.984,-6.1361 0.9658,-6.7502 -0.0236,-0.7956 -1.9583,-0.1227 -1.931,-0.6783 0.0156,-0.317 0.0167,-0.4879 0.5334,-0.4879 1.1668,0 2.5511,-0.3198 3.015,-0.2822zm0.1671 -5.0772c0.1531,0.0171 0.4537,0.6588 0.4615,0.6689 0.7565,0.9773 0.2834,0.9679 -0.4615,1.9018 -0.2135,0.2677 -0.6163,0.2754 -0.7734,-0.0508 -0.2774,-0.5761 -0.8329,-1.1289 -0.4487,-1.5377 0.7349,-0.7963 0.5687,-0.9217 1.2221,-0.9822zm4.7537 -1.853c0.5981,-0.0269 1.6369,0.2332 3.4137,0.0581 0.2675,-0.0264 1.4677,-0.2176 1.4677,0.1905 0,0.3677 -0.0569,0.3928 -0.4445,0.509 -1.0566,0.3166 -1.0195,0.5845 -1.1684,1.8119 -0.1756,1.4473 -1.5792,12.276 -1.5621,12.7301 0.0611,0.4572 0.7812,0.6934 2.1568,0.705 6.3077,0.0107 5.7001,-2.3575 6.7432,-2.3575 0.9467,0 -0.4145,2.8745 -1.5594,3.3877 -1.4556,0.6524 -7.1502,-0.178 -9.6012,0.1863 -0.3195,0.0475 -1.3364,0.2451 -1.3257,-0.218 0.0059,-0.2581 -0.0001,-0.3486 0.4253,-0.4646 1.0379,-0.283 1.0768,-0.9422 1.1811,-1.8119 0.1975,-1.6466 1.5277,-11.9397 1.5226,-12.6676 -0.0108,-1.5478 -1.8202,-1.038 -1.8506,-1.6583 -0.0187,-0.3816 0.2077,-0.4184 0.6015,-0.4007zm17.4384 6.9419c1.7244,-0.0139 1.6396,0.9424 2.5615,-0.5338 0.1868,-0.2991 0.3197,-0.4792 0.4724,-0.3922 0.7263,-0.3683 -0.0287,2.0861 -0.1562,2.675 -0.1526,0.7049 -1.3069,6.5797 -0.3877,6.7993 0.3106,0.0138 1.0055,-1.0136 1.1129,-1.2631 0.1849,-0.4295 0.3028,-0.4107 0.6125,-0.4107 0.2375,0 0.2117,0.2738 0.2117,0.4583 0,1.4627 -2.8819,4.2026 -3.6267,2.4426 -0.1434,-0.3412 -0.2799,-0.9704 -0.4091,-1.8936 -1.4877,1.8508 -2.8233,2.5625 -4.4634,2.5625 -4.2663,0 -1.3542,-10.4307 4.0721,-10.4443zm-4.3093 7.2382c0.0515,2.1974 2.0356,2.209 3.5603,0.6354 1.2799,-1.3209 1.1356,-2.1089 1.4351,-3.5433l0.5961 -2.8533c-0.0205,-0.4697 -1.7811,-1.6963 -3.7216,0.7377 -0.9541,1.1968 -1.8372,3.4915 -1.8699,5.0235zm16.8018 -7.3737c4.9548,-0.0367 2.3376,10.5744 -3.5741,10.5793 -1.5982,0.0013 -2.687,-0.6374 -2.6906,-2.2489 0.0704,-2.2257 1.7174,-13.5077 1.6785,-14.3807 -0.0276,-0.619 -1.7542,-0.0967 -1.7296,-0.5827 0.0151,-0.2987 0.0051,-0.4602 0.4826,-0.4878 2.5727,-0.1487 3.1898,-0.7498 3.0425,0.3524l-1.0833 8.8511c0.9761,-1.2974 2.2843,-2.0966 3.874,-2.0827zm-4.5972 8.2735c0.0535,2.0032 2.4337,1.9381 4.1319,-0.3787 1.9799,-2.7012 1.6946,-6.4268 -0.6584,-6.431 -1.9898,-0.0036 -2.9561,2.306 -3.191,4.2053 -0.1059,0.8564 -0.2657,1.7426 -0.2825,2.6044z"/>
 </g>
</svg>
