<?xml version="1.0" standalone="no"?>
<!DOCTYPE svg PUBLIC "-//W3C//DTD SVG 1.1//EN" "http://www.w3.org/Graphics/SVG/1.1/DTD/svg11.dtd">
<svg xmlns="http://www.w3.org/2000/svg">
	<metadata>
		Copyright (C) 1997‒2014, OptiSoft Ltd. All rights reserved.
		<json>
			{
			"fontFamily": "OptiSoft OMR Ballot Symbols (Mini Set)",
			"majorVersion": 2,
			"minorVersion": 0,
			"fontURL": "https://github.com/wvenialbo/OptiGrade",
			"designer": "Waldemar Villamayor-Venialbo",
			"designerURL": "https://github.com/wvenialbo",
			"license": "Creative Commons 4.0",
			"licenseURL": "http://creativecommons.org/licenses/by-sa/4.0/",
			"version": "Version 2.0",
			"fontId": "OptiSoft-OMR-Ballot-Symbols-Mini",
			"psName": "OptiSoft-OMR-Ballot-Symbols-Mini",
			"subFamily": "Regular",
			"fullName": "OptiSoft OMR Ballot Symbols (Mini Set)",
			"description": "This font file contains glyphs used in answer sheets for Optical Mark Recognition (OMR) applications."
			}
		</json>
	</metadata>
	<defs>
		<font id="OptiSoft-OMR-Ballot-Symbols-Mini" horiz-adv-x="2048" vert-adv-y="2048">
			<font-face
				font-family="OptiSoft OMR Ballot Symbols"
				font-weight="400"
				font-stretch="normal"
				units-per-em="2048"
				panose-1="2 11 6 4 2 2 2 2 2 4"
				ascent="1638"
				descent="-410"
				x-height="1061"
				cap-height="1466"
				bbox="0 -287 2048 1759"
				underline-thickness="55"
				underline-position="-223"
				unicode-range="U+0020-FFFD" />
			<missing-glyph horiz-adv-x="2048" />
			<glyph glyph-name="space" unicode="&#x20;" d="" horiz-adv-x="569" />
			<glyph glyph-name="zero" unicode="&#x30;"
d="M1024 1491q229 0 428.5-115.5t314.5-314.5 115-428q0-228-115.5-427t-315-314-427.5-115-427.5 115-315 314-115.5 427q0 229 115 428.5t314.5 314.5 428.5 115zM1024-94q298 0 513.5 214.5t215.5 512.5q0 194-98 363.5t-267.5 267.5-363.5 98q-300 0-514.5-215t-214.5-514q0-298 215.5-512.5t513.5-214.5zM1030 1120q154 0 231.5-122t77.5-365-77.5-364.5-231.5-121.5q-156 0-233.5 121.5t-77.5 364.5 77.5 365 233.5 122zM1030 244q95 0 143 97t48 292q0 210-49 301.5t-144 91.5q-94 0-141-93t-47-300q0-141 21-224.5t63.5-124 105.5-40.5z" />
			<glyph unicode="&#x31;" d="M1024 1491q229 0 428.5-115.5t314.5-314.5 115-428q0-228-115.5-427t-315-314-427.5-115-427.5 115-315 314-115.5 427q0 229 115 428.5t314.5 314.5 428.5 115zM1024-94q298 0 513.5 214.5t215.5 512.5q0 194-98 363.5t-267.5 267.5-363.5 98q-300 0-514.5-215t-214.5-514q0-298 215.5-512.5t513.5-214.5zM1112 164h-117v745q-88-82-235-141v113q201 98 276 239h76v-956z" />
			<glyph unicode="&#x32;" d="M1024 1491q229 0 428.5-115.5t314.5-314.5 115-428q0-228-115.5-427t-315-314-427.5-115-427.5 115-315 314-115.5 427q0 229 115 428.5t314.5 314.5 428.5 115zM1024-94q298 0 513.5 214.5t215.5 512.5q0 194-98 363.5t-267.5 267.5-363.5 98q-300 0-514.5-215t-214.5-514q0-298 215.5-512.5t513.5-214.5zM1333 164h-631q0 80 55 161.5t212 209.5q103 82 172 161t69 162q0 72-50.5 120t-127.5 48q-78 0-132-48.5t-54-146.5l-121 15q12 129 94 201.5t215 72.5q141 0 219-77t78-187q0-94-57.5-175.5t-175.5-180.5q-153-128-181.5-155.5t-52.5-68.5h469v-112z" />
			<glyph unicode="&#x33;" d="M1024 1491q229 0 428.5-115.5t314.5-314.5 115-428q0-228-115.5-427t-315-314-427.5-115-427.5 115-315 314-115.5 427q0 229 115 428.5t314.5 314.5 428.5 115zM1024-94q298 0 513.5 214.5t215.5 512.5q0 194-98 363.5t-267.5 267.5-363.5 98q-300 0-514.5-215t-214.5-514q0-298 215.5-512.5t513.5-214.5zM1165 680q93-21 135.5-89t42.5-147q0-133-95.5-215t-223.5-82q-126 0-208 74t-95 195l117 16q16-94 62.5-141t123.5-47q81 0 138 57.5t57 140.5q0 80-52 132.5t-135 52.5q-38 0-82-13l15 103q111 0 162 45.5t51 114.5q0 70-48 109.5t-110 39.5q-73 0-115.5-43.5t-54.5-130.5l-119 20q23 125 101 186.5t186 61.5q120 0 199-71.5t79-176.5q0-131-131-190v-2z" />
			<glyph unicode="&#x34;" d="M1024 1491q229 0 428.5-115.5t314.5-314.5 115-428q0-228-115.5-427t-315-314-427.5-115-427.5 115-315 314-115.5 427q0 229 115 428.5t314.5 314.5 428.5 115zM1024-94q298 0 513.5 214.5t215.5 512.5q0 194-98 363.5t-267.5 267.5-363.5 98q-300 0-514.5-215t-214.5-514q0-298 215.5-512.5t513.5-214.5zM1307 391h-129v-227h-117v227h-412v109l434 616h95v-616h129v-109zM1061 500v432l-297-432h297z" />
			<glyph unicode="&#x35;" d="M1024 1491q229 0 428.5-115.5t314.5-314.5 115-428q0-228-115.5-427t-315-314-427.5-115-427.5 115-315 314-115.5 427q0 229 115 428.5t314.5 314.5 428.5 115zM1024-94q298 0 513.5 214.5t215.5 512.5q0 194-98 363.5t-267.5 267.5-363.5 98q-300 0-514.5-215t-214.5-514q0-298 215.5-512.5t513.5-214.5zM856 735q86 62 180 62 119 0 207-84.5t88-225.5-89-240.5-234-99.5q-119 0-207 67.5t-101 199.5l123 10q15-92 65-136t120-44q88 0 143 67t55 166q0 103-57.5 159t-144.5 56q-111 0-173-92l-110 14 94 490h471v-113h-379z" />
			<glyph unicode="&#x36;" d="M1024 1491q229 0 428.5-115.5t314.5-314.5 115-428q0-228-115.5-427t-315-314-427.5-115-427.5 115-315 314-115.5 427q0 229 115 428.5t314.5 314.5 428.5 115zM1024-94q298 0 513.5 214.5t215.5 512.5q0 194-98 363.5t-267.5 267.5-363.5 98q-300 0-514.5-215t-214.5-514q0-298 215.5-512.5t513.5-214.5zM807 655q83 127 229 127 117 0 199-87t82-222q0-136-81.5-231t-217.5-95-233 101.5-97 361.5q0 254 88 382t254 128q107 0 181-59t89-176l-116-13q-16 77-56.5 115.5t-105.5 38.5q-89 0-153-90.5t-64-280.5h2zM1016 244q81 0 131.5 65t50.5 158-51.5 153-134.5 60q-77 0-133-57t-56-150q0-95 55-162t138-67z" />
			<glyph unicode="&#x37;" d="M1024 1491q229 0 428.5-115.5t314.5-314.5 115-428q0-228-115.5-427t-315-314-427.5-115-427.5 115-315 314-115.5 427q0 229 115 428.5t314.5 314.5 428.5 115zM1024-94q298 0 513.5 214.5t215.5 512.5q0 194-98 363.5t-267.5 267.5-363.5 98q-300 0-514.5-215t-214.5-514q0-298 215.5-512.5t513.5-214.5zM1362 1014q-141-156-243-382.5t-120-467.5h-120q3 193 95 425.5t238 401.5h-467v113h617v-90z" />
			<glyph unicode="&#x38;" d="M1024 1491q229 0 428.5-115.5t314.5-314.5 115-428q0-228-115.5-427t-315-314-427.5-115-427.5 115-315 314-115.5 427q0 229 115 428.5t314.5 314.5 428.5 115zM1024-94q298 0 513.5 214.5t215.5 512.5q0 194-98 363.5t-267.5 267.5-363.5 98q-300 0-514.5-215t-214.5-514q0-298 215.5-512.5t513.5-214.5zM1155 680q178-58 178-244 0-124-86.5-206.5t-224.5-82.5q-140 0-227.5 83.5t-87.5 209.5q0 91 49.5 157.5t132.5 82.5v2q-144 44-144 192 0 105 75.5 175.5t197.5 70.5q124 0 201-72t77-176q0-141-141-190v-2zM1022 725q65 0 109.5 42t44.5 105q0 65-45.5 109.5t-110.5 44.5q-66 0-110-44t-44-103q0-71 45.5-112.5t110.5-41.5zM1022 244q82 0 137 53.5t55 138.5-57 139-139 54q-84 0-137.5-56t-53.5-135q0-83 54.5-138.5t140.5-55.5z" />
			<glyph unicode="&#x39;" d="M1024 1491q229 0 428.5-115.5t314.5-314.5 115-428q0-228-115.5-427t-315-314-427.5-115-427.5 115-315 314-115.5 427q0 229 115 428.5t314.5 314.5 428.5 115zM1024-94q298 0 513.5 214.5t215.5 512.5q0 194-98 363.5t-267.5 267.5-363.5 98q-300 0-514.5-215t-214.5-514q0-298 215.5-512.5t513.5-214.5zM1229 612q-83-125-225-125-119 0-201 86t-82 226q0 141 83.5 231t215.5 90q134 0 230-101.5t96-359.5q0-256-85-384t-255-128q-108 0-180.5 59t-88.5 179l113 8q25-149 158-149 106 0 164.5 97t58.5 271h-2zM1030 590q86 0 136.5 60.5t50.5 154.5-51.5 157.5-131.5 63.5q-82 0-138-68t-56-163q0-90 55-147.5t135-57.5z" />
			<glyph unicode="&#x41;" d="M1024 1491q229 0 428.5-115.5t314.5-314.5 115-428q0-228-115.5-427t-315-314-427.5-115-427.5 115-315 314-115.5 427q0 229 115 428.5t314.5 314.5 428.5 115zM1024-94q298 0 513.5 214.5t215.5 512.5q0 194-98 363.5t-267.5 267.5-363.5 98q-300 0-514.5-215t-214.5-514q0-298 215.5-512.5t513.5-214.5zM1481 164h-142l-112 291h-398l-106-291h-133l366 952h136zM1188 553q-156 409-164 465h-4q-20-105-47-177l-109-288h324z" />
			<glyph unicode="&#x42;" d="M1024 1491q229 0 428.5-115.5t314.5-314.5 115-428q0-228-115.5-427t-315-314-427.5-115-427.5 115-315 314-115.5 427q0 229 115 428.5t314.5 314.5 428.5 115zM1024-94q298 0 513.5 214.5t215.5 512.5q0 194-98 363.5t-267.5 267.5-363.5 98q-300 0-514.5-215t-214.5-514q0-298 215.5-512.5t513.5-214.5zM1249 672q90-28 134-90t44-142q0-105-74.5-190.5t-281.5-85.5h-364v952h358q168 0 241.5-74t73.5-170q0-134-131-200zM834 717h206q131 0 174 37.5t43 103.5q0 68-42.5 107t-190.5 39h-190v-287zM834 276h237q124 0 174.5 43.5t50.5 120.5q0 78-52.5 121t-188.5 43h-221v-328z" />
			<glyph unicode="&#x43;" d="M1024 1491q229 0 428.5-115.5t314.5-314.5 115-428q0-228-115.5-427t-315-314-427.5-115-427.5 115-315 314-115.5 427q0 229 115 428.5t314.5 314.5 428.5 115zM1024-94q298 0 513.5 214.5t215.5 512.5q0 194-98 363.5t-267.5 267.5-363.5 98q-300 0-514.5-215t-214.5-514q0-298 215.5-512.5t513.5-214.5zM1440 467q-42-161-146-240.5t-247-79.5q-236 0-342.5 148t-106.5 352q0 228 125.5 357t323.5 129q139 0 238-71t138-208l-123-29q-32 100-95.5 150.5t-157.5 50.5q-157 0-237.5-102t-80.5-275q0-203 85-298t220-95q111 0 181.5 60.5t99.5 181.5z" />
			<glyph unicode="&#x44;" d="M1024 1491q229 0 428.5-115.5t314.5-314.5 115-428q0-228-115.5-427t-315-314-427.5-115-427.5 115-315 314-115.5 427q0 229 115 428.5t314.5 314.5 428.5 115zM1024-94q298 0 513.5 214.5t215.5 512.5q0 194-98 363.5t-267.5 267.5-363.5 98q-300 0-514.5-215t-214.5-514q0-298 215.5-512.5t513.5-214.5zM674 1116h330q134 0 222-29.5t162-142 74-299.5q0-155-55-269.5t-149.5-163-239.5-48.5h-344v952zM801 276h203q86 0 152.5 19.5t120.5 102 54 251.5q0 96-24 174t-77 120.5-102 51.5-129 9h-198v-728z" />
			<glyph unicode="&#x45;" d="M1024 1491q229 0 428.5-115.5t314.5-314.5 115-428q0-228-115.5-427t-315-314-427.5-115-427.5 115-315 314-115.5 427q0 229 115 428.5t314.5 314.5 428.5 115zM1024-94q298 0 513.5 214.5t215.5 512.5q0 194-98 363.5t-267.5 267.5-363.5 98q-300 0-514.5-215t-214.5-514q0-298 215.5-512.5t513.5-214.5zM1384 164h-712v952h690v-112h-563v-291h526v-113h-526v-324h585v-112z" />
			<glyph unicode="&#x46;" d="M1024 1491q229 0 428.5-115.5t314.5-314.5 115-428q0-228-115.5-427t-315-314-427.5-115-427.5 115-315 314-115.5 427q0 229 115 428.5t314.5 314.5 428.5 115zM1024-94q298 0 513.5 214.5t215.5 512.5q0 194-98 363.5t-267.5 267.5-363.5 98q-300 0-514.5-215t-214.5-514q0-298 215.5-512.5t513.5-214.5zM1337 1004h-516v-295h447v-113h-447v-432h-127v952h643v-112z" />
			<glyph unicode="&#x47;" d="M1024 1491q229 0 428.5-115.5t314.5-314.5 115-428q0-228-115.5-427t-315-314-427.5-115-427.5 115-315 314-115.5 427q0 229 115 428.5t314.5 314.5 428.5 115zM1024-94q298 0 513.5 214.5t215.5 512.5q0 194-98 363.5t-267.5 267.5-363.5 98q-300 0-514.5-215t-214.5-514q0-298 215.5-512.5t513.5-214.5zM1436 297q-183-150-394-150-219 0-353 134t-134 356q0 211 122 353.5t355 142.5q160 0 257.5-71t131.5-212l-112-31q-29 103-98 155t-179 52q-173 0-260.5-106.5t-87.5-274.5q0-197 100.5-291t249.5-94q155 0 279 100v177h-281v112h404v-352z" />
			<glyph unicode="&#x48;" d="M1024 1491q229 0 428.5-115.5t314.5-314.5 115-428q0-228-115.5-427t-315-314-427.5-115-427.5 115-315 314-115.5 427q0 229 115 428.5t314.5 314.5 428.5 115zM1024-94q298 0 513.5 214.5t215.5 512.5q0 194-98 363.5t-267.5 267.5-363.5 98q-300 0-514.5-215t-214.5-514q0-298 215.5-512.5t513.5-214.5zM1401 164h-125v448h-496v-448h-127v952h127v-391h496v391h125v-952z" />
			<glyph unicode="&#x49;" d="M1024 1491q229 0 428.5-115.5t314.5-314.5 115-428q0-228-115.5-427t-315-314-427.5-115-427.5 115-315 314-115.5 427q0 229 115 428.5t314.5 314.5 428.5 115zM1024-94q298 0 513.5 214.5t215.5 512.5q0 194-98 363.5t-267.5 267.5-363.5 98q-300 0-514.5-215t-214.5-514q0-298 215.5-512.5t513.5-214.5zM1087 164h-126v952h126v-952z" />
			<glyph unicode="&#x4a;" d="M1024 1491q229 0 428.5-115.5t314.5-314.5 115-428q0-228-115.5-427t-315-314-427.5-115-427.5 115-315 314-115.5 427q0 229 115 428.5t314.5 314.5 428.5 115zM1024-94q298 0 513.5 214.5t215.5 512.5q0 194-98 363.5t-267.5 267.5-363.5 98q-300 0-514.5-215t-214.5-514q0-298 215.5-512.5t513.5-214.5zM1235 469q0-175-71-248.5t-197-73.5q-57 0-109.5 16.5t-92.5 68-52 138.5v66l112 15q1-96 36.5-143.5t105.5-47.5q63 0 102 38t39 165v653h127v-647z" />
			<glyph unicode="&#x4b;" d="M1024 1491q229 0 428.5-115.5t314.5-314.5 115-428q0-228-115.5-427t-315-314-427.5-115-427.5 115-315 314-115.5 427q0 229 115 428.5t314.5 314.5 428.5 115zM1024-94q298 0 513.5 214.5t215.5 512.5q0 194-98 363.5t-267.5 267.5-363.5 98q-300 0-514.5-215t-214.5-514q0-298 215.5-512.5t513.5-214.5zM1432 164h-166l-338 481-158-151v-330h-127v952h127v-471l475 471h170l-399-385z" />
			<glyph unicode="&#x4c;" d="M1024 1491q229 0 428.5-115.5t314.5-314.5 115-428q0-228-115.5-427t-315-314-427.5-115-427.5 115-315 314-115.5 427q0 229 115 428.5t314.5 314.5 428.5 115zM1024-94q298 0 513.5 214.5t215.5 512.5q0 194-98 363.5t-267.5 267.5-363.5 98q-300 0-514.5-215t-214.5-514q0-298 215.5-512.5t513.5-214.5zM1366 164h-596v952h125v-840h471v-112z" />
			<glyph unicode="&#x4d;" d="M1024 1491q229 0 428.5-115.5t314.5-314.5 115-428q0-228-115.5-427t-315-314-427.5-115-427.5 115-315 314-115.5 427q0 229 115 428.5t314.5 314.5 428.5 115zM1024-94q298 0 513.5 214.5t215.5 512.5q0 194-98 363.5t-267.5 267.5-363.5 98q-300 0-514.5-215t-214.5-514q0-298 215.5-512.5t513.5-214.5zM1475 164h-119v797h-4l-275-797h-112l-273 811h-4v-811h-121v952h191q260-780 268-815h2l279 815h168v-952z" />
			<glyph unicode="&#x4e;" d="M1024 1491q229 0 428.5-115.5t314.5-314.5 115-428q0-228-115.5-427t-315-314-427.5-115-427.5 115-315 314-115.5 427q0 229 115 428.5t314.5 314.5 428.5 115zM1024-94q298 0 513.5 214.5t215.5 512.5q0 194-98 363.5t-267.5 267.5-363.5 98q-300 0-514.5-215t-214.5-514q0-298 215.5-512.5t513.5-214.5zM1401 164h-129l-498 747h-2v-747h-121v952h129l498-747h4v747h119v-952z" />
			<glyph unicode="&#x4f;" d="M1024 1491q229 0 428.5-115.5t314.5-314.5 115-428q0-228-115.5-427t-315-314-427.5-115-427.5 115-315 314-115.5 427q0 229 115 428.5t314.5 314.5 428.5 115zM1024-94q298 0 513.5 214.5t215.5 512.5q0 194-98 363.5t-267.5 267.5-363.5 98q-300 0-514.5-215t-214.5-514q0-298 215.5-512.5t513.5-214.5zM1024 1133q201 0 329-135.5t128-358.5q0-226-129.5-359t-327.5-133q-205 0-330 140t-125 342q0 234 127 369t328 135zM1024 256q145 0 235.5 101.5t90.5 281.5q0 182-91.5 284.5t-232.5 102.5q-140 0-234-97t-94-302q0-165 91-268t235-103z" />
			<glyph unicode="&#x50;" d="M1024 1491q229 0 428.5-115.5t314.5-314.5 115-428q0-228-115.5-427t-315-314-427.5-115-427.5 115-315 314-115.5 427q0 229 115 428.5t314.5 314.5 428.5 115zM1024-94q298 0 513.5 214.5t215.5 512.5q0 194-98 363.5t-267.5 267.5-363.5 98q-300 0-514.5-215t-214.5-514q0-298 215.5-512.5t513.5-214.5zM711 1116h360q117 0 195-20.5t125-92.5 47-161q0-139-90-216t-267-77h-243v-385h-127v952zM838 664h243q113 0 169.5 43.5t56.5 130.5q0 55-28.5 99.5t-72 55.5-127.5 11h-241v-340z" />
			<glyph unicode="&#x51;" d="M1024 1491q229 0 428.5-115.5t314.5-314.5 115-428q0-228-115.5-427t-315-314-427.5-115-427.5 115-315 314-115.5 427q0 229 115 428.5t314.5 314.5 428.5 115zM1024-94q298 0 513.5 214.5t215.5 512.5q0 194-98 363.5t-267.5 267.5-363.5 98q-300 0-514.5-215t-214.5-514q0-298 215.5-512.5t513.5-214.5zM1497 176l-37-86q-138 53-203 117-107-60-235-60-199 0-326 138t-127 356q0 217 125 354.5t330 137.5q202 0 329.5-135.5t127.5-356.5q0-235-144-375 68-50 160-90zM1237 336q113 101 113 305 0 181-92 283t-234 102q-141 0-233.5-98.5t-92.5-286.5q0-197 96-291t230-94q72 0 129 25-64 41-125 55l31 92q116-34 178-92z" />
			<glyph unicode="&#x52;" d="M1024 1491q229 0 428.5-115.5t314.5-314.5 115-428q0-228-115.5-427t-315-314-427.5-115-427.5 115-315 314-115.5 427q0 229 115 428.5t314.5 314.5 428.5 115zM1024-94q298 0 513.5 214.5t215.5 512.5q0 194-98 363.5t-267.5 267.5-363.5 98q-300 0-514.5-215t-214.5-514q0-298 215.5-512.5t513.5-214.5zM1493 164h-158q-180 288-226.5 339.5t-77.5 66-105 14.5h-146v-420h-127v952h422q111 0 180-20t114.5-87.5 45.5-152.5q0-110-67-174t-201-82v-4q96-40 180-172zM780 698h271q151 0 192 52t41 106q0 68-48.5 112t-154.5 44h-301v-314z" />
			<glyph unicode="&#x53;" d="M1024 1491q229 0 428.5-115.5t314.5-314.5 115-428q0-228-115.5-427t-315-314-427.5-115-427.5 115-315 314-115.5 427q0 229 115 428.5t314.5 314.5 428.5 115zM1024-94q298 0 513.5 214.5t215.5 512.5q0 194-98 363.5t-267.5 267.5-363.5 98q-300 0-514.5-215t-214.5-514q0-298 215.5-512.5t513.5-214.5zM1231 838q-8 91-66 136.5t-166 45.5q-96 0-157.5-36.5t-61.5-106.5q0-62 47.5-92t180.5-60q118-27 193-54t128-84.5 53-154.5q0-122-98.5-203.5t-255.5-81.5q-190 0-291 80.5t-114 241.5l120 12q0-93 74-157t207-64q105 0 171.5 44.5t66.5 119.5q0 54-31.5 85.5t-82 48.5-182.5 50q-187 46-247 110t-60 150q0 117 91.5 191t244.5 74q159 0 255-75t102-212z" />
			<glyph unicode="&#x54;" d="M1024 1491q229 0 428.5-115.5t314.5-314.5 115-428q0-228-115.5-427t-315-314-427.5-115-427.5 115-315 314-115.5 427q0 229 115 428.5t314.5 314.5 428.5 115zM1024-94q298 0 513.5 214.5t215.5 512.5q0 194-98 363.5t-267.5 267.5-363.5 98q-300 0-514.5-215t-214.5-514q0-298 215.5-512.5t513.5-214.5zM1399 1004h-316v-840h-127v840h-313v112h756v-112z" />
			<glyph unicode="&#x55;" d="M1024 1491q229 0 428.5-115.5t314.5-314.5 115-428q0-228-115.5-427t-315-314-427.5-115-427.5 115-315 314-115.5 427q0 229 115 428.5t314.5 314.5 428.5 115zM1024-94q298 0 513.5 214.5t215.5 512.5q0 194-98 363.5t-267.5 267.5-363.5 98q-300 0-514.5-215t-214.5-514q0-298 215.5-512.5t513.5-214.5zM1401 565q0-102-19.5-188t-101.5-158-252-72q-178 0-277.5 88t-99.5 330v551h127v-549q0-86 12.5-148t65-110.5 162.5-48.5q125 0 191.5 58t66.5 249v549h125v-551z" />
			<glyph unicode="&#x56;" d="M1024 1491q229 0 428.5-115.5t314.5-314.5 115-428q0-228-115.5-427t-315-314-427.5-115-427.5 115-315 314-115.5 427q0 229 115 428.5t314.5 314.5 428.5 115zM1024-94q298 0 513.5 214.5t215.5 512.5q0 194-98 363.5t-267.5 267.5-363.5 98q-300 0-514.5-215t-214.5-514q0-298 215.5-512.5t513.5-214.5zM1464 1116l-372-952h-129l-369 952h135l248-692q26-61 49-156h2q24 88 49 156l260 692h127z" />
			<glyph unicode="&#x57;" d="M1024 1491q229 0 428.5-115.5t314.5-314.5 115-428q0-228-115.5-427t-315-314-427.5-115-427.5 115-315 314-115.5 427q0 229 115 428.5t314.5 314.5 428.5 115zM1024-94q298 0 513.5 214.5t215.5 512.5q0 194-98 363.5t-267.5 267.5-363.5 98q-300 0-514.5-215t-214.5-514q0-298 215.5-512.5t513.5-214.5zM1554 1116l-221-952h-121l-188 837-190-837h-127l-213 952h129l145-819 182 819h154l176-819 150 819h124z" />
			<glyph unicode="&#x58;" d="M1024 1491q229 0 428.5-115.5t314.5-314.5 115-428q0-228-115.5-427t-315-314-427.5-115-427.5 115-315 314-115.5 427q0 229 115 428.5t314.5 314.5 428.5 115zM1024-94q298 0 513.5 214.5t215.5 512.5q0 194-98 363.5t-267.5 267.5-363.5 98q-300 0-514.5-215t-214.5-514q0-298 215.5-512.5t513.5-214.5zM1458 164h-155q-267 378-281 403h-2q0-1-3-6t-3-6q-27-42-41-62l-238-329h-151l368 495-325 457h149q232-325 250-360 56 86 268 360h138l-336-448z" />
			<glyph unicode="&#x59;" d="M1024 1491q229 0 428.5-115.5t314.5-314.5 115-428q0-228-115.5-427t-315-314-427.5-115-427.5 115-315 314-115.5 427q0 229 115 428.5t314.5 314.5 428.5 115zM1024-94q298 0 513.5 214.5t215.5 512.5q0 194-98 363.5t-267.5 267.5-363.5 98q-300 0-514.5-215t-214.5-514q0-298 215.5-512.5t513.5-214.5zM1460 1116l-381-549v-403h-125v403l-368 549h153q253-382 285-448 46 79 105 168l184 280h147z" />
			<glyph unicode="&#x5a;" d="M1024 1491q229 0 428.5-115.5t314.5-314.5 115-428q0-228-115.5-427t-315-314-427.5-115-427.5 115-315 314-115.5 427q0 229 115 428.5t314.5 314.5 428.5 115zM1024-94q298 0 513.5 214.5t215.5 512.5q0 194-98 363.5t-267.5 267.5-363.5 98q-300 0-514.5-215t-214.5-514q0-298 215.5-512.5t513.5-214.5zM1407 164h-754v119l488 608q0 10 98 113h-532v112h684v-112l-592-728h608v-112z" />
			<glyph unicode="&#x61;" d="M1024 1491q229 0 428.5-115.5t314.5-314.5 115-428q0-228-115.5-427t-315-314-427.5-115-427.5 115-315 314-115.5 427q0 229 115 428.5t314.5 314.5 428.5 115zM1024-94q298 0 513.5 214.5t215.5 512.5q0 194-98 363.5t-267.5 267.5-363.5 98q-300 0-514.5-215t-214.5-514q0-298 215.5-512.5t513.5-214.5zM1339 287h-120q-21 36-25 86-119-103-254-103-109 0-172 54.5t-63 144.5q0 89 52 135.5t103 59 145 25.5q131 18 181 36 0 63-9 94t-46 54.5-113 23.5-120-28.5-60-104.5l-115 14q21 106 99 159.5t214 53.5q124 0 182-36.5t71.5-88 13.5-133.5v-158q0-143 5-192.5t31-95.5zM1186 590v43q-57-21-193-43-101-15-132.5-44.5t-31.5-74.5q0-47 35.5-78t102.5-31q91 0 155 53.5t64 174.5z" />
			<glyph unicode="&#x62;" d="M1024 1491q229 0 428.5-115.5t314.5-314.5 115-428q0-228-115.5-427t-315-314-427.5-115-427.5 115-315 314-115.5 427q0 229 115 428.5t314.5 314.5 428.5 115zM1024-94q298 0 513.5 214.5t215.5 512.5q0 194-98 363.5t-267.5 267.5-363.5 98q-300 0-514.5-215t-214.5-514q0-298 215.5-512.5t513.5-214.5zM862 776q65 92 187 92 133 0 212.5-96.5t79.5-251.5q0-180-89-276.5t-210-96.5-188 103h-2v-86h-109v952h117v-340h2zM1034 244q81 0 135 70t54 196q0 118-48.5 191t-136.5 73q-84 0-136-74t-52-186q0-109 21-155t64.5-80.5 98.5-34.5z" />
			<glyph unicode="&#x63;" d="M1024 1491q229 0 428.5-115.5t314.5-314.5 115-428q0-228-115.5-427t-315-314-427.5-115-427.5 115-315 314-115.5 427q0 229 115 428.5t314.5 314.5 428.5 115zM1024-94q298 0 513.5 214.5t215.5 512.5q0 194-98 363.5t-267.5 267.5-363.5 98q-300 0-514.5-215t-214.5-514q0-298 215.5-512.5t513.5-214.5zM1315 524q-23-131-105-192.5t-182-61.5q-150 0-232.5 99t-82.5 262q0 176 87 268t228 92q110 0 184.5-57t90.5-160l-113-18q-18 70-57.5 105.5t-100.5 35.5q-98 0-148-69t-50-195q0-128 49.5-197t142.5-69q75 0 118.5 43t55.5 129z" />
			<glyph unicode="&#x64;" d="M1024 1491q229 0 428.5-115.5t314.5-314.5 115-428q0-228-115.5-427t-315-314-427.5-115-427.5 115-315 314-115.5 427q0 229 115 428.5t314.5 314.5 428.5 115zM1024-94q298 0 513.5 214.5t215.5 512.5q0 194-98 363.5t-267.5 267.5-363.5 98q-300 0-514.5-215t-214.5-514q0-298 215.5-512.5t513.5-214.5zM1305 164h-109v88h-4q-62-105-191-105-126 0-211 100.5t-85 260.5q0 166 80 263t212 97q125 0 187-94h4v342h117v-952zM1014 244q77 0 130.5 63t53.5 191q0 126-49 201t-139 75q-91 0-138-73.5t-47-192.5q0-130 55-197t134-67z" />
			<glyph unicode="&#x65;" d="M1024 1491q229 0 428.5-115.5t314.5-314.5 115-428q0-228-115.5-427t-315-314-427.5-115-427.5 115-315 314-115.5 427q0 229 115 428.5t314.5 314.5 428.5 115zM1024-94q298 0 513.5 214.5t215.5 512.5q0 194-98 363.5t-267.5 267.5-363.5 98q-300 0-514.5-215t-214.5-514q0-298 215.5-512.5t513.5-214.5zM1333 602h-516q7-114 65-174.5t146-60.5q65 0 110.5 35.5t71.5 107.5l119-16q-32-112-107-168t-194-56q-156 0-244 96t-88 261q0 164 87.5 264t236.5 100q131 0 222-87.5t91-301.5zM1214 698q-13 115-71.5 157t-122.5 42q-82 0-135.5-56t-61.5-143h391z" />
			<glyph unicode="&#x66;" d="M1024 1491q229 0 428.5-115.5t314.5-314.5 115-428q0-228-115.5-427t-315-314-427.5-115-427.5 115-315 314-115.5 427q0 229 115 428.5t314.5 314.5 428.5 115zM1024-94q298 0 513.5 214.5t215.5 512.5q0 194-98 363.5t-267.5 267.5-363.5 98q-300 0-514.5-215t-214.5-514q0-298 215.5-512.5t513.5-214.5zM1223 1120l-17-102q-43 8-69 8-43 0-70-18t-27-88v-66h134v-92h-134v-598h-116v598h-105v92h105v74q0 53 9.5 95t51.5 76 129 34q57 0 109-13z" />
			<glyph unicode="&#x67;" d="M1024 1491q229 0 428.5-115.5t314.5-314.5 115-428q0-228-115.5-427t-315-314-427.5-115-427.5 115-315 314-115.5 427q0 229 115 428.5t314.5 314.5 428.5 115zM1024-94q298 0 513.5 214.5t215.5 512.5q0 194-98 363.5t-267.5 267.5-363.5 98q-300 0-514.5-215t-214.5-514q0-298 215.5-512.5t513.5-214.5zM1315 481q0-159-34-229t-106-105.5-171-35.5q-117 0-195 51t-78 170l113-17q14-110 157-110 91 0 133.5 36.5t52 90 9.5 147.5q-76-90-190-90-136 0-217.5 99.5t-81.5 250.5q0 153 79 254t220 101q123 0 198-99h2v84h109v-598zM1016 485q74 0 132 59.5t58 198.5q0 124-55.5 190t-136.5 66q-82 0-134.5-68t-52.5-186q0-142 56.5-201t132.5-59z" />
			<glyph unicode="&#x68;" d="M1024 1491q229 0 428.5-115.5t314.5-314.5 115-428q0-228-115.5-427t-315-314-427.5-115-427.5 115-315 314-115.5 427q0 229 115 428.5t314.5 314.5 428.5 115zM1024-94q298 0 513.5 214.5t215.5 512.5q0 194-98 363.5t-267.5 267.5-363.5 98q-300 0-514.5-215t-214.5-514q0-298 215.5-512.5t513.5-214.5zM1296 164h-116v436q0 84-36.5 126t-109.5 42q-71 0-126.5-49t-55.5-178v-377h-117v952h117v-342q81 94 207 94 66 0 128-27.5t85.5-82 23.5-158.5v-436z" />
			<glyph unicode="&#x69;" d="M1024 1491q229 0 428.5-115.5t314.5-314.5 115-428q0-228-115.5-427t-315-314-427.5-115-427.5 115-315 314-115.5 427q0 229 115 428.5t314.5 314.5 428.5 115zM1024-94q298 0 513.5 214.5t215.5 512.5q0 194-98 363.5t-267.5 267.5-363.5 98q-300 0-514.5-215t-214.5-514q0-298 215.5-512.5t513.5-214.5zM1081 983h-116v133h116v-133zM1081 164h-116v690h116v-690z" />
			<glyph unicode="&#x6a;" d="M1024 1491q229 0 428.5-115.5t314.5-314.5 115-428q0-228-115.5-427t-315-314-427.5-115-427.5 115-315 314-115.5 427q0 229 115 428.5t314.5 314.5 428.5 115zM1024-94q298 0 513.5 214.5t215.5 512.5q0 194-98 363.5t-267.5 267.5-363.5 98q-300 0-514.5-215t-214.5-514q0-298 215.5-512.5t513.5-214.5zM1090 1106h-117v133h117v-133zM1090 250q0-144-46.5-193t-128.5-49q-46 0-92 12l23 99q36-8 53-8 39 0 56.5 25t17.5 116v725h117v-727z" />
			<glyph unicode="&#x6b;" d="M1024 1491q229 0 428.5-115.5t314.5-314.5 115-428q0-228-115.5-427t-315-314-427.5-115-427.5 115-315 314-115.5 427q0 229 115 428.5t314.5 314.5 428.5 115zM1024-94q298 0 513.5 214.5t215.5 512.5q0 194-98 363.5t-267.5 267.5-363.5 98q-300 0-514.5-215t-214.5-514q0-298 215.5-512.5t513.5-214.5zM1337 164h-143l-229 352-82-78v-274h-117v952h117v-543l276 281h152l-262-256z" />
			<glyph unicode="&#x6c;" d="M1024 1491q229 0 428.5-115.5t314.5-314.5 115-428q0-228-115.5-427t-315-314-427.5-115-427.5 115-315 314-115.5 427q0 229 115 428.5t314.5 314.5 428.5 115zM1024-94q298 0 513.5 214.5t215.5 512.5q0 194-98 363.5t-267.5 267.5-363.5 98q-300 0-514.5-215t-214.5-514q0-298 215.5-512.5t513.5-214.5zM1081 164h-116v952h116v-952z" />
			<glyph unicode="&#x6d;" d="M1024 1491q229 0 428.5-115.5t314.5-314.5 115-428q0-228-115.5-427t-315-314-427.5-115-427.5 115-315 314-115.5 427q0 229 115 428.5t314.5 314.5 428.5 115zM1024-94q298 0 513.5 214.5t215.5 512.5q0 194-98 363.5t-267.5 267.5-363.5 98q-300 0-514.5-215t-214.5-514q0-298 215.5-512.5t513.5-214.5zM1493 287h-117v436q0 48-6 82t-33.5 60-85.5 26q-73 0-120.5-50t-47.5-153v-401h-118v448q0 90-31.5 123t-89.5 33q-172 0-172-246v-358h-117v690h107v-96h2q68 110 206 110 76 0 125-30.5t70-90.5q75 121 213 121 107 0 161-58t54-173v-473z" />
			<glyph unicode="&#x6e;" d="M1024 1491q229 0 428.5-115.5t314.5-314.5 115-428q0-228-115.5-427t-315-314-427.5-115-427.5 115-315 314-115.5 427q0 229 115 428.5t314.5 314.5 428.5 115zM1024-94q298 0 513.5 214.5t215.5 512.5q0 194-98 363.5t-267.5 267.5-363.5 98q-300 0-514.5-215t-214.5-514q0-298 215.5-512.5t513.5-214.5zM1305 287h-117v420q0 105-38 144.5t-106 39.5q-66 0-125-43.5t-59-183.5v-377h-117v690h107v-98h2q73 112 217 112 75 0 137.5-32.5t80.5-89 18-158.5v-424z" />
			<glyph unicode="&#x6f;" d="M1024 1491q229 0 428.5-115.5t314.5-314.5 115-428q0-228-115.5-427t-315-314-427.5-115-427.5 115-315 314-115.5 427q0 229 115 428.5t314.5 314.5 428.5 115zM1024-94q298 0 513.5 214.5t215.5 512.5q0 194-98 363.5t-267.5 267.5-363.5 98q-300 0-514.5-215t-214.5-514q0-298 215.5-512.5t513.5-214.5zM1012 991q139 0 231-90.5t92-257.5q0-126-36.5-203t-115.5-123.5-171-46.5q-130 0-227 85.5t-97 275.5q0 181 91 270.5t233 89.5zM1012 367q99 0 150.5 73.5t51.5 194.5q0 124-56.5 193t-145.5 69q-90 0-147.5-67t-57.5-199q0-104 34-162.5t80-80 91-21.5z" />
			<glyph unicode="&#x70;" d="M1024 1491q229 0 428.5-115.5t314.5-314.5 115-428q0-228-115.5-427t-315-314-427.5-115-427.5 115-315 314-115.5 427q0 229 115 428.5t314.5 314.5 428.5 115zM1024-94q298 0 513.5 214.5t215.5 512.5q0 194-98 363.5t-267.5 267.5-363.5 98q-300 0-514.5-215t-214.5-514q0-298 215.5-512.5t513.5-214.5zM870 969q66 104 199 104 135 0 214-98.5t79-255.5q0-168-87-267.5t-214-99.5q-112 0-178 88h-4v-336h-117v955h106v-90h2zM1053 449q83 0 135.5 68t52.5 202q0 127-52 195.5t-132 68.5q-82 0-135.5-76.5t-53.5-197.5q0-128 51-194t134-66z" />
			<glyph unicode="&#x71;" d="M1024 1491q229 0 428.5-115.5t314.5-314.5 115-428q0-228-115.5-427t-315-314-427.5-115-427.5 115-315 314-115.5 427q0 229 115 428.5t314.5 314.5 428.5 115zM1024-94q298 0 513.5 214.5t215.5 512.5q0 194-98 363.5t-267.5 267.5-363.5 98q-300 0-514.5-215t-214.5-514q0-298 215.5-512.5t513.5-214.5zM1282 104h-117v336h-2q-67-88-178-88-128 0-214.5 99t-86.5 268q0 158 78.5 256t214.5 98q132 0 197-104h2v90h106v-955zM991 449q83 0 135 66t52 194q0 121-54 197.5t-137 76.5q-80 0-132-68.5t-52-195.5q0-89 24-149.5t68-90.5 96-30z" />
			<glyph unicode="&#x72;" d="M1024 1491q229 0 428.5-115.5t314.5-314.5 115-428q0-228-115.5-427t-315-314-427.5-115-427.5 115-315 314-115.5 427q0 229 115 428.5t314.5 314.5 428.5 115zM1024-94q298 0 513.5 214.5t215.5 512.5q0 194-98 363.5t-267.5 267.5-363.5 98q-300 0-514.5-215t-214.5-514q0-298 215.5-512.5t513.5-214.5zM1241 954l-41-106q-42 24-84 24-133 0-133-223v-362h-117v690h107v-105h2q55 119 145 119 62 0 121-37z" />
			<glyph unicode="&#x73;" d="M1024 1491q229 0 428.5-115.5t314.5-314.5 115-428q0-228-115.5-427t-315-314-427.5-115-427.5 115-315 314-115.5 427q0 229 115 428.5t314.5 314.5 428.5 115zM1024-94q298 0 513.5 214.5t215.5 512.5q0 194-98 363.5t-267.5 267.5-363.5 98q-300 0-514.5-215t-214.5-514q0-298 215.5-512.5t513.5-214.5zM1159 782q-8 57-45.5 86t-105.5 29q-64 0-107-23t-43-67q0-40 34-58t130-42q158-42 218-81t60-137q0-92-76-155.5t-202-63.5q-131 0-204.5 56t-90.5 168l117 16q9-72 53.5-107.5t124.5-35.5q76 0 117 31.5t41 78.5q0 45-37 64t-160 50q-149 38-193.5 87.5t-44.5 116.5q0 85 69 140.5t185 55.5q125 0 193.5-48t81.5-144z" />
			<glyph unicode="&#x74;" d="M1024 1491q229 0 428.5-115.5t314.5-314.5 115-428q0-228-115.5-427t-315-314-427.5-115-427.5 115-315 314-115.5 427q0 229 115 428.5t314.5 314.5 428.5 115zM1024-94q298 0 513.5 214.5t215.5 512.5q0 194-98 363.5t-267.5 267.5-363.5 98q-300 0-514.5-215t-214.5-514q0-298 215.5-512.5t513.5-214.5zM1192 166q-56-12-88-12-76 0-111 27.5t-43 69-8 116.5v395h-86v92h86v172l117 70v-242h117v-92h-117v-402q0-52 10.5-74t54.5-22q26 0 52 4z" />
			<glyph unicode="&#x75;" d="M1024 1491q229 0 428.5-115.5t314.5-314.5 115-428q0-228-115.5-427t-315-314-427.5-115-427.5 115-315 314-115.5 427q0 229 115 428.5t314.5 314.5 428.5 115zM1024-94q298 0 513.5 214.5t215.5 512.5q0 194-98 363.5t-267.5 267.5-363.5 98q-300 0-514.5-215t-214.5-514q0-298 215.5-512.5t513.5-214.5zM1303 287h-107v100h-2q-79-117-217-117-72 0-134.5 34t-82 91.5-19.5 153.5v428h117v-383q0-91 8.5-130.5t46-65 88.5-25.5q57 0 105 30t63 78.5 15 126.5v369h119v-690z" />
			<glyph unicode="&#x76;" d="M1024 1491q229 0 428.5-115.5t314.5-314.5 115-428q0-228-115.5-427t-315-314-427.5-115-427.5 115-315 314-115.5 427q0 229 115 428.5t314.5 314.5 428.5 115zM1024-94q298 0 513.5 214.5t215.5 512.5q0 194-98 363.5t-267.5 267.5-363.5 98q-300 0-514.5-215t-214.5-514q0-298 215.5-512.5t513.5-214.5zM1335 977l-260-690h-110l-263 690h125q175-491 191-553h2q12 48 54 160l143 393h118z" />
			<glyph unicode="&#x77;" d="M1024 1491q229 0 428.5-115.5t314.5-314.5 115-428q0-228-115.5-427t-315-314-427.5-115-427.5 115-315 314-115.5 427q0 229 115 428.5t314.5 314.5 428.5 115zM1024-94q298 0 513.5 214.5t215.5 512.5q0 194-98 363.5t-267.5 267.5-363.5 98q-300 0-514.5-215t-214.5-514q0-298 215.5-512.5t513.5-214.5zM1501 977l-217-690h-121l-108 413q-2 0-25 103-2 4-2 14h-4l-137-530h-121l-213 690h121l151-547q0 16 146 547h121l108-423q18-62 27-110h2l157 533h115z" />
			<glyph unicode="&#x78;" d="M1024 1491q229 0 428.5-115.5t314.5-314.5 115-428q0-228-115.5-427t-315-314-427.5-115-427.5 115-315 314-115.5 427q0 229 115 428.5t314.5 314.5 428.5 115zM1024-94q298 0 513.5 214.5t215.5 512.5q0 194-98 363.5t-267.5 267.5-363.5 98q-300 0-514.5-215t-214.5-514q0-298 215.5-512.5t513.5-214.5zM1341 287h-143l-180 272-180-272h-142l252 358-233 332h145q149-226 156-240l168 240h139l-238-324z" />
			<glyph unicode="&#x79;" d="M1024 1491q229 0 428.5-115.5t314.5-314.5 115-428q0-228-115.5-427t-315-314-427.5-115-427.5 115-315 314-115.5 427q0 229 115 428.5t314.5 314.5 428.5 115zM1024-94q298 0 513.5 214.5t215.5 512.5q0 194-98 363.5t-267.5 267.5-363.5 98q-300 0-514.5-215t-214.5-514q0-298 215.5-512.5t513.5-214.5zM1358 1059l-264-703q-1-1-3-5-16-62-69.5-161.5t-161.5-99.5q-39 0-76 12l-12 111q30-10 68-10 40 0 67.5 15.5t52.5 80.5 25 68l-262 692h127q187-518 192-559h5q19 89 50 173l142 386h119z" />
			<glyph unicode="&#x7a;" d="M1024 1491q229 0 428.5-115.5t314.5-314.5 115-428q0-228-115.5-427t-315-314-427.5-115-427.5 115-315 314-115.5 427q0 229 115 428.5t314.5 314.5 428.5 115zM1024-94q298 0 513.5 214.5t215.5 512.5q0 194-98 363.5t-267.5 267.5-363.5 98q-300 0-514.5-215t-214.5-514q0-298 215.5-512.5t513.5-214.5zM1356 287h-611v94l439 504q-96-4-131-4h-283v96h565v-76l-374-438q-31-31-72-80 67 4 147 4h320v-100z" />
			<glyph unicode="&#xd1;" d="M1255.92 1246.39q0-72.45-37.26-110.25-37.3-37.26-90.71-37.26-30.13 0-49.91 6.85-19.38 6.47-48.060 24.88-46.334 29.34-73.448 29.34-53.846 0-55.89-61.070h-79.774q0 72.44 38.768 109.85 39.528 37.66 92.956 37.66 42.168 0 91.298-30.61 48.61-30.32 80.31-30.32 45.020 0 51.85 60.93h79.87zM1398.54 70.148h-129.34l-497.8 747.9h-2.43v-747.9h-119.514v952.692h128.61l497.656-748.044h2.63v748.044h120.19v-952.692zM1024 1491.020q228.88 0 428.29-115.39 199.62-115.69 314.67-314.8 115.040-199.188 115.040-427.706 0-228.43-115.72-427.028-115.18-199.328-315.010-314.116-198.81-115.004-427.27-115.004-228.514 0-427.322 115.004-199.83 114.79-315.006 314.116-115.672 198.512-115.672 427.028 0 228.24 114.99 428.438 115.22 199.84 314.666 314.41 198.822 115.050 428.344 115.050zM1024-94.026q298.030 0 513.27 214.412 215.68 214.704 215.68 512.736 0 193.538-97.92 363.234-98.81 170.242-267.58 267.662-168.99 97.95-363.45 97.95-299.882 0-514.346-215.090-214.658-215.214-214.658-513.756 0-298.032 215.68-512.736 215.24-214.414 513.324-214.412z" />
			<glyph unicode="&#xf1;" d="M1239.67 1129.11q0-72.54-37.16-110.1-37.33-37.216-90.57-37.216-30.37 0-49.81 6.898-19.22 6.218-48.15 24.73-45.966 29.3-73.204 29.3-53.794 0-55.838-60.926h-79.722q0 72.128 38.814 109.668 39.234 37.65 92.758 37.65 42.058 0 91.202-30.56 48.61-30.37 80.16-30.37 44.94 0 51.85 60.93h79.67zM1304.61 177.66h-117.37v418.682q0 105.802-37.89 145.328-38.19 39.6-105.41 39.6-52.412 0-98.348-25.412-46.48-25.218-65.908-71.376-19.312-46.15-19.312-130.46v-376.364h-116.932v688.494h105.208v-97.274h2.628q36.812 56.39 90.956 84.64 54.398 28.376 125.594 28.376 53.89 0 107.68-19.534 53-19.356 83.47-58.45 30.14-38.666 37.84-83.086 7.79-42.756 7.79-119.38v-423.786zM1024.050 1491.040q228.87 0 428.28-115.39 199.6-115.69 314.65-314.8 114.98-199.114 114.98-427.726 0-228.52-115.66-427.040-115.17-199.332-315-314.124-198.8-115.008-427.25-115.008-228.502 0-427.306 115.008-199.822 114.79-314.994 314.122-115.716 198.602-115.716 427.040 0 228.164 115.032 428.446 115.216 199.85 314.654 314.42 198.812 115.050 428.326 115.050zM1024.050-94.044q298.020 0 513.25 214.42 215.67 214.71 215.67 512.75 0 193.54-97.91 363.246-98.81 170.24-267.57 267.67-168.99 97.96-363.44 97.96-299.866 0-514.322-215.1-214.65-215.228-214.65-513.776 0-298.040 215.67-512.75 215.232-214.418 513.302-214.418z" />
			<glyph unicode="&#x2610;" d="M1374 0h-1245v1243h1245v-1243zM1292 82v1081h-1081v-1081h1081z" horiz-adv-x="1504" />
			<glyph unicode="&#x2611;" d="M1374 0h-1245v1243h1245v-1243zM1292 82v1081h-1081v-1081h1081zM573 330q100 223 200 384.5t176.5 250 93.5 98 72 19.5 93 10q15 0 15-9 0-12-38-47-150-140-285-364t-224-445q-23-58-40.5-73t-74.5-15q-54 0-66.5 6.5t-39.5 48.5q-49 77-119 156-49 55-49 74 0 23 35 50.5t73 27.5q34 0 81.5-43.5t96.5-128.5z" horiz-adv-x="1504" />
			<glyph unicode="&#x2612;" d="M1374 0h-1245v1243h1245v-1243zM1292 82v1081h-1081v-1081h1081zM1141 977q-2-1-11-3-36-8-36-24-1-11-24-36-27-29-40-52-36-63-93-146-58-85-58-116 0-49 31-133t81-152q15-21 15-26 0-2-3-7-6-12-6-18l2-12-26-13q-17-9-17-26l2-8q0-2-6-2-5 0-24.5 11.5t-26.5 23.5q-11 21-31 24-9 3-25 21-14 15-28 22-7 2-86 137-59-51-165-168-75-84-109-116 0 26-17 43-10 10-10 24 0 6-9 6-8 0-11 13 0 8-21 18-2 2-2 8l2 9-4 12q0 14 110 139t181 213l-88 354q-4 9-4 27 0 22 14 40.5t31 18.5q83 0 188-268 50 36 138 137 89 101 120 101 24 0 45-25t21-47v-4z" horiz-adv-x="1504" />
			<glyph unicode="&#x2713;" d="M1024.050-94.006c198.69 0 369.78 71.468 513.27 214.408 143.78 143.132 215.68 314.038 215.68 512.722 0 129.020-32.64 250.096-97.92 363.226-25.5 43.982-54.49 84.282-86.97 120.882-44.46-58.98-89.5-122.876-135.13-191.672-147.43-222.090-271.68-457.47-372.74-706.14-38.2-93.182-64.86-150.206-79.97-171.070-15.056-21.248-62.060-31.87-141.014-31.87-51.554 0-83.934 5.020-97.14 15.060-13.496 10.662-37.184 42.55-71.068 95.664-58.634 88.72-121.884 169.048-189.752 240.984-35.704 37.362-53.556 66.158-53.556 86.384 0 27.936 19.798 55.468 59.394 82.596 39.168 27.208 71.644 40.812 97.43 40.812 35.436-0.002 78.224-19.888 128.366-59.664 49.828-39.798 102.914-108.578 159.254-206.342 61.748 140.442 127.982 274.814 198.702 403.114 70.76 128.354 143.63 246.724 218.6 355.114 48.42 69.53 90.96 128.12 127.64 175.78-9.66 6.17-19.54 12.18-29.63 18.020-112.66 65.31-233.81 97.96-363.45 97.95-199.92 0-371.37-71.69-514.346-215.080-143.104-143.48-214.658-314.728-214.658-513.75 0-198.682 71.894-369.59 215.682-512.722 143.494-142.938 314.6-214.406 513.322-214.404v0zM1499.77 1346.16c31.97 35.58 62.43 65.060 91.4 88.42 16.71 13.27 43.25 23.32 79.62 30.18 86.81 16.010 148.13 24.010 183.97 23.99 15.33 0 22.98-5.37 22.96-16.13 0-10.030-7.66-22.020-22.96-35.95-67.090-59.66-135.61-131.84-205.56-216.54 44.79-47.76 84.060-100.86 117.81-159.32 76.66-132.73 114.99-275.294 114.99-427.692 0-152.336-38.56-294.676-115.67-427.018-76.79-132.878-181.79-237.58-315.010-314.106-132.54-76.668-274.96-115.002-427.27-115.002-152.342 0-294.784 38.334-427.322 115.002-133.218 76.522-238.222 181.224-315.008 314.106-77.146 132.396-115.722 274.736-115.722 427.018 0.002 152.098 38.348 294.908 115.038 428.432 76.816 133.22 181.704 238.020 314.666 314.39 132.55 76.7 275.332 115.060 428.346 115.060 152.58 0 295.35-38.47 428.3-115.4 16.24-9.42 32.050-19.24 47.42-29.44z" />
			<glyph unicode="&#x2714;" d="M1024.060-94.034c198.7 0 369.79 71.472 513.29 214.414 143.8 143.136 215.69 314.048 215.69 512.736 0 129.024-32.65 250.104-97.93 363.236-15.14 26.108-31.5 50.908-49.070 74.388-50.71-67.81-102.18-142.746-154.45-224.812-138.63-217.678-248.68-428.766-330.17-633.264-38.75-94.076-63.54-149.152-74.38-165.23-11.19-16.256-28.090-31.358-50.69-45.304-23.010-13.99-69.924-20.986-140.742-20.986-55.742 0-91.538 3.442-107.39 10.326-15.454 6.894-27.57 14.222-36.354 21.986-7.856 7.222-31.982 41.090-72.37 101.604-41.832 64.202-101.418 138.71-178.764 223.524-44.914 49.18-67.368 90.486-67.368 123.92 0 47.892 25.57 89.866 76.706 125.92 51.186 35.756 96.324 53.634 135.406 53.632 42.486 0 88.4-17.432 137.738-52.298 49.054-35.238 92.966-81.656 131.738-139.246 47.288 98.758 103.986 208.134 170.088 328.126 65.46 118.482 139.95 237.18 223.46 356.11 38.57 55.070 72.28 101.51 101.15 139.31-107.57 58.61-222.77 87.91-345.59 87.91-199.924 0-371.376-71.7-514.356-215.1-143.11-143.48-214.664-314.726-214.664-513.754 0-198.688 71.896-369.6 215.688-512.736 143.5-142.942 314.61-214.414 513.334-214.412zM1454.17 1374.56c36.79 37.27 67.72 66.7 92.8 88.31 26.51 22.79 73.2 39.33 140.090 49.64 67.76 10.43 118.56 15.65 152.41 15.65 23.010 0 41.68-7 56.030-20.99 14.69-13.98 22.020-32.42 22.010-55.29 0-17.87-4.22-32.97-12.67-45.3-8.17-12.39-25.73-31.37-52.7-56.97-53.68-49.3-108.28-107.38-163.81-174.25 28.93-35.58 55.17-73.76 78.71-114.54 76.66-132.736 115-275.306 115-427.706 0-152.34-38.56-294.684-115.68-427.028-76.78-132.884-181.79-237.586-315.020-314.114-132.54-76.67-274.97-115.006-427.28-115.006-152.342 0-294.788 38.336-427.33 115.006-133.222 76.524-238.228 181.226-315.016 314.114-77.15 132.398-115.724 274.742-115.724 427.028 0 152.1 38.348 294.914 115.044 428.438 76.816 133.23 181.706 238.030 314.676 314.41 132.552 76.7 275.338 115.060 428.35 115.060 152.6 0 295.37-38.47 428.32-115.4z" />
			<glyph unicode="&#x2717;" d="M1024.050-94.004c160.28 0 302.67 46.562 427.17 139.684-4.73 1.224-12.92 4.754-24.56 10.59-14.93 7.124-31.86 21.862-50.78 44.214-17.58 23.372-34.96 36.394-52.14 39.062-10.26 5.46-16.32 9.46-18.19 12-21.97 26.688-42.45 43.824-61.45 51.404-8.97 4.318-16.63 12.66-23 25.022l-109.44 186.858c-60.62-51.964-132.012-123.27-214.174-213.92-79.952-90.7-148.326-162.622-205.126-215.768 100.306-52.764 210.87-79.146 331.69-79.146zM1462.17 54.034c25.86 20.128 50.91 42.25 75.15 66.368 143.79 143.134 215.68 314.040 215.68 512.722 0 129.020-32.64 250.096-97.91 363.226-19.63 33.78-41.21 65.3-64.75 94.55l-5.44-8.32-85.47-134.722c-43.44-71.868-77.86-125.342-103.27-160.428-19.2-25.28-33.86-47.452-43.97-66.514-8.94-17.522-13.4-37.28-13.38-59.274 0-49.516 14.41-113.746 43.24-192.69 28.72-78.808 65.56-152.156 110.52-220.044 28.84-41.47 43.25-64.904 43.24-70.304l-6.17-12c-5.26-9.406-7.89-17.748-7.89-25.020 0.050-2.212 1.43-8.27 4.14-18.172-35.84-19.486-56.2-31.13-61.1-34.932-3.020-2.98-4.52-11.434-4.47-25.362zM1465.48 1212.31c-24.75 18.77-50.74 36-77.97 51.7-108.52 62.91-224.97 95.51-349.35 97.8 11.26-10.72 22.94-23.12 35.030-37.22 48.44-56.26 106.1-166.070 172.96-329.404 26.66 20.774 53.2 44.874 79.63 72.294l111.54 114.51zM888.048 1350.15c-142.754-25.69-268.866-93.45-378.338-203.28-143.104-143.47-214.656-314.722-214.656-513.746 0-198.682 71.894-369.59 215.678-512.722 53.596-53.388 111.124-96.84 172.582-130.354v15.79c-4.902 9.786-12.328 22.242-22.278 37.362-5.090 6.696-9.094 15.392-12.014 26.090-3.442 12.624-10.544 20.268-21.306 22.932-4.504 0-9.19 4.696-14.058 14.090-3.788 12.666-10.080 21.12-18.872 25.362-10.768 3.664-16.15 8.346-16.148 14.040 0 1.114 1.378 7.398 4.134 18.852-4.118 8.18-6.178 14.238-6.178 18.17 0 17.264 85.804 122.728 257.416 316.39 74.486 85.622 137.512 161.95 189.072 228.98l-104.68 420.602c-24.712 99.070-37.068 151.98-37.066 158.73-0.002 15.45 2.236 29.69 6.712 42.71zM1554.34 1306.76c12.69 13.23 21.73 22.48 27.15 27.75 18.43 18.070 39.7 27.11 63.81 27.11 27.1 0 50.2-13.49 69.32-40.47 19.46-26.93 29.18-50.58 29.18-70.94v-7.87c-7.88-2.75-15.21-4.13-21.98-4.13-27.62-3.85-45.2-17.21-52.73-40.090 36.66-41.97 69.3-87.73 97.91-137.29 76.67-132.736 115-275.302 115-427.7 0-152.338-38.56-294.678-115.67-427.020-76.79-132.878-181.79-237.58-315.010-314.106-132.54-76.668-274.97-115.002-427.27-115.002-152.346 0-294.786 38.334-427.326 115.002-133.218 76.524-238.222 181.224-315.008 314.106-77.146 132.394-115.72 274.736-115.72 427.020 0 152.096 38.348 294.906 115.040 428.428 76.814 133.22 181.702 238.020 314.666 314.39 132.548 76.7 275.33 115.050 428.346 115.050 152.58 0 295.35-38.46 428.29-115.38 35.94-20.81 69.94-43.76 102-68.86z" />
			<glyph unicode="&#x2718;" d="M1010.26 722.654l-113.122 459.274c-4.866 14.88-7.3 28.25-7.3 40.090 0.006 35.39 10.142 65.67 30.41 90.82 20.072 24.92 42.678 37.38 67.816 37.37 45.004 0 92.144-31.29 141.404-93.86 49.17-62.070 94.38-145.6 135.63-250.6 11.25 8.81 60.52 61.060 147.8 156.74 17.94 19.52 34.27 37.040 48.94 52.55-23.57 17.65-48.36 33.98-74.35 48.99-112.65 65.29-233.8 97.94-363.44 97.94-199.914 0-371.358-71.69-514.33-215.080-143.102-143.47-214.654-314.712-214.654-513.726 0-198.678 71.892-369.58 215.674-512.706 143.49-142.934 314.592-214.402 513.31-214.402 198.68 0.002 369.76 71.468 513.25 214.402 143.79 143.126 215.68 314.028 215.68 512.706 0 129.014-32.65 250.086-97.92 363.212-10.57 18.224-21.77 35.834-33.59 52.854-28.8-38.53-64.78-91.904-107.92-160.12-71.48-110.446-112.13-171.194-121.94-182.25-14.8-18.404-22.21-37.438-22.19-57.106 0-41.072 13.17-96.86 39.53-167.368 26.76-71.272 62.84-138.606 108.26-201.994 19.67-29.774 29.5-49.314 29.5-58.624 0-5.916-5.080-16.85-15.21-32.806 4.060-5.606 6.080-10.972 6.080-16.098 0-11.586-3.54-19.888-10.64-24.908-6.4-5.004-23.020-14.52-49.87-28.552 0-35.032-14.6-52.548-43.8-52.548-12.060 0-29.49 7.39-52.3 22.172-22.28 14.54-37.79 28.512-46.53 41.918-9.11 10.974-18.030 18.062-26.75 21.262-9.47 2.436-16.57 5.576-21.3 9.416-5.61 4.552-16.86 15.992-33.75 34.322-1.030 2.054-8.23 7.116-21.6 15.188-16.42 6.986-32.43 25.616-48.040 55.89-7.17 18.042-27.65 53.38-61.43 106.010-180.77-194.684-283.252-305.148-307.452-331.392-11.134-12.072-23.904-24.426-38.318-37.058-14.486-12.958-26.348-19.438-35.582-19.438-10.34 0-18.448 2.936-24.328 8.808-6.284 5.674-9.732 25.216-10.34 58.626l-11.556 12.454c-3.82 3.806-7.368 13.020-10.642 27.64l-17.944 8.81c-9.44 17.946-25.456 36.676-48.048 56.194l-1.824 27.64-5.474 23.998c0 6.54 3.75 18.082 11.25 34.628 7.282 16.056 44.28 64.25 111 144.584 67.684 81.808 108.638 129.394 122.86 142.764 58.238 54.822 89.154 90.766 92.75 107.832 12.508 46.922 33.288 74.766 62.336 83.532zM1555.59 1305.8c21.89 15.84 44.98 23.75 69.28 23.75 31 0 59.69-14.99 86.060-44.95 26.34-29.66 39.52-60.64 39.52-92.96 0-26.53-13.18-41.67-39.52-45.42 20.11-27.050 38.79-55.51 56.060-85.37 76.66-132.732 114.98-275.292 114.98-427.686 0-152.33-38.55-294.666-115.67-427.004-76.78-132.876-181.78-237.572-314.99-314.094-132.59-76.698-275.010-115.046-427.26-115.046-152.278 0-294.714 38.348-427.308 115.046-133.212 76.52-238.212 181.216-314.998 314.094-77.144 132.394-115.716 274.728-115.716 427.004 0 152.092 38.344 294.898 115.036 428.416 76.812 133.22 181.698 238.010 314.658 314.38 132.488 76.67 275.264 115.010 428.33 115.010 152.64 0 295.39-38.45 428.28-115.35 36.54-21.17 70.96-44.44 103.26-69.82z" />
			<glyph unicode="&#xe000;" d="M1024.050-94.004c198.69 0 369.78 71.468 513.27 214.406 143.79 143.132 215.68 314.040 215.68 512.722 0 129.020-32.64 250.094-97.92 363.226-65.87 113.48-155.070 202.7-267.58 267.65-112.66 65.3-233.81 97.95-363.45 97.95-199.92 0-371.368-71.69-514.346-215.080-143.104-143.48-214.658-314.726-214.658-513.748 0-198.682 71.894-369.59 215.68-512.722 143.494-142.938 314.602-214.404 513.322-214.404zM1024.050 1491c152.59 0 295.35-38.47 428.3-115.39 133.070-77.12 237.96-182.050 314.66-314.78 76.66-132.738 114.99-275.306 114.99-427.702 0-152.338-38.56-294.678-115.67-427.018-76.79-132.88-181.79-237.582-315.010-314.106-132.54-76.666-274.96-115-427.27-115-152.342 0-294.782 38.334-427.322 115-133.218 76.522-238.222 181.226-315.008 314.106-77.146 132.394-115.718 274.732-115.718 427.018 0 152.096 38.348 294.904 115.038 428.422 76.812 133.23 181.702 238.020 314.666 314.4 132.548 76.7 275.328 115.050 428.344 115.050z" />
			<glyph unicode="&#xe001;" d="M1024.060 1490.96c152.64 0 295.4-38.45 428.29-115.34 38.47-22.31 74.59-46.92 108.36-73.87 17.7 17.47 34.36 30.92 49.99 40.35 40.66 22.97 91.86 42.81 153.6 59.52 67.91 16.77 138.35 27.81 211.34 33.13 9.41-0.71 14.8-5.33 16.18-13.83 1.31-8.52-1.19-18.96-7.5-31.36-87.37-96.49-169.55-190.34-246.52-281.57 10.17-15.34 19.9-31.060 29.2-47.14 76.65-132.732 114.99-275.294 114.99-427.688 0-152.334-38.56-294.668-115.67-427.006-76.78-132.874-181.78-237.57-315-314.094-132.6-76.698-275.020-115.048-427.26-115.048-74.48 0-146.654 9.194-216.524 27.582l-4.844-6.36c-42.268-33.142-95.732-49.714-160.394-49.714-49.22 0-80.922 4.018-95.102 12.050-17.9 9.884-34.504 30.85-49.814 62.902-23.436 43.806-44.442 92.394-63.026 145.76l-17.82 60.332c-51.87 52.002-96.796 110.866-134.778 176.592-77.144 132.394-115.716 274.728-115.716 427.006 0 152.092 38.344 294.898 115.034 428.418 76.812 133.21 181.696 238.010 314.656 314.39 132.49 76.66 275.264 114.99 428.328 114.99zM358.822 333.718c1.738 6.42 4.018 12.228 6.846 17.428 6.040 10.922 21.136 25.234 45.288 42.938 29.814 19.206 61.894 35.404 96.236 48.588 33.548 12.556 64.244 18.832 92.086 18.832 19.826 0 44.86-39.798 75.102-119.398 1.672-7.884 3.81-13.786 6.414-17.698 0-2.010 1.888-6.782 5.658-14.316 25.622-76.332 48.52-114.498 68.688-114.498 15.55 0 77.064 86.376 184.546 259.134 107.362 172.266 217.192 335.228 329.472 488.884 71.29 97.34 138.73 183.72 202.28 259.13l2.61 2.95c-27.16 21.26-56.010 40.7-86.55 58.33-112.66 65.3-233.81 97.95-363.44 97.95-199.914 0-371.356-71.7-514.328-215.080-143.1-143.47-214.652-314.714-214.652-513.73 0-108.058 21.248-207.874 63.74-299.442zM1650.72 1003.77l-12.48-14.962c-88.27-108.454-174.44-218.81-258.51-331.072-180.27-239.884-338.77-477.044-475.52-711.484-2.19-3.498-7.534-12.932-16.034-28.304 43.764-7.934 89.058-11.9 135.884-11.9v0c198.68 0 369.76 71.468 513.26 214.402 143.79 143.128 215.67 314.030 215.67 512.706 0 129.018-32.64 250.090-97.91 363.214-1.3 2.242-2.76 4.708-4.36 7.398z" />
			<glyph unicode="&#xe002;" d="M1024.050-93.942c198.68 0 369.76 71.466 513.25 214.4 143.79 143.126 215.68 314.028 215.68 512.706 0 129.014-32.65 250.086-97.92 363.212-34.74 59.864-76.010 112.992-123.79 159.394-138.12-172.24-242.36-310.358-312.73-414.35l232.47-509.998-29.060-24.124v-21.108l-46.42-36.566 12.45-35.432c-11.84-18.122-23.67-30.938-35.47-38.446-15.68-10.302-28.62-15.452-38.86-15.452-16.23 0-44.92 30.154-86.050 90.464-39.31 55.258-107.49 165.326-204.54 330.198-79.754-109.674-150.952-213.836-213.596-312.48-32.892-52.042-70.734-113.746-113.526-185.11 99.394-51.536 208.766-77.304 328.112-77.304zM1361.86 1278.23c-105.35 55.83-217.94 83.74-337.82 83.74-199.908 0-371.348-71.69-514.322-215.080-143.102-143.47-214.654-314.712-214.654-513.73 0-181.482 59.98-339.778 179.942-474.884 21.914 36.054 50.878 79.91 86.894 131.568 69.438 101.018 180.010 244.254 331.716 429.712l-184.54 522.434c8.576 22.35 18.89 40.31 30.946 53.9 9.954 10.31 20.646 15.46 32.078 15.46 5.032-0.040 10.188-1.56 15.472-4.52 3.168-2.060 9.836-7.47 20.002-16.21l23.022 17.33 16.602-8.66 35.476 39.57 35.472-13.19 177.744-357.714zM631.606-127.092l-2.154-3.728c-5.998-8.98-12.41-19.66-19.244-32.040-4.292-7.312-10.456-18.744-18.496-34.302l-37.36-15.454-97.366-10.932-48.68 66.34-15.476 48.624 15.476 69.358-23.398 35.432c5.628 12.998 12.672 26.946 21.134 41.842l0.792 1.392c-47.802 49.552-89.498 105.126-125.092 166.718-77.144 132.394-115.716 274.728-115.716 427.004 0 152.096 38.344 294.9 115.036 428.416 76.812 133.22 181.698 238.010 314.658 314.38 132.49 76.67 275.268 115.010 428.33 115.010 150.66 0 291.69-37.47 423.13-112.4l7.98 10.060 37.74-2.27 52.070-35.050 53.97 47.49 13.21-33.16 42.27-57.68-41.87-51.15c60.2-56.66 111.68-121.99 154.43-195.96 76.66-132.732 114.99-275.294 114.99-427.688 0-152.33-38.55-294.662-115.67-427.004-76.78-132.874-181.78-237.57-315-314.094-132.59-76.696-275.010-115.048-427.25-115.048-138.988 0-269.802 31.962-392.444 95.89z" />
			<glyph unicode="&#xe003;" d="M1024.060-93.942c117.44 0 225.22 24.96 323.34 74.876h-646.74c98.13-49.916 205.926-74.876 323.4-74.876zM1569.97 154.818c41.21 45.894 75.47 94.458 102.75 145.692h-1297.37c27.278-51.232 61.526-99.796 102.746-145.692h1091.88zM1736.67 475.488c10.91 50.478 16.34 103.038 16.32 157.678 0 5.122-0.060 10.4-0.17 15.838h-1457.59c-0.11-5.632-0.164-10.91-0.164-15.838 0-54.644 5.442-107.204 16.322-157.678h1425.28zM1727.59 823.98c-14.79 53.832-36.020 106.056-63.7 156.672h-1281.15c-27.762-49.658-48.932-101.884-63.51-156.672h1408.36zM1532.91 1154.17c-43.16 42.19-91.64 78.81-145.42 109.86-112.65 65.29-233.8 97.94-363.45 97.94-196.498 0-365.492-69.26-506.978-207.8h1015.85zM1024.050 1490.97c152.64 0 295.4-38.45 428.28-115.35 133.080-77.12 237.96-182.040 314.65-314.77 76.66-132.728 114.99-275.288 114.99-427.682 0-152.334-38.55-294.67-115.67-427.006-76.78-132.876-181.78-237.572-315-314.094-132.58-76.698-275-115.046-427.25-115.046-152.28 0-294.716 38.348-427.31 115.046-133.216 76.522-238.216 181.22-314.996 314.094-77.142 132.394-115.716 274.728-115.716 427.006 0 152.092 38.344 294.896 115.034 428.414 76.81 133.22 181.696 238.020 314.656 314.39 132.488 76.67 275.262 115 428.328 115z" />
			<glyph unicode="&#xe004;" d="M1024.050 1491c152.59 0 295.36-38.47 428.3-115.39 133.070-77.12 237.96-182.050 314.67-314.78 76.66-132.738 114.98-275.306 114.98-427.702 0-152.34-38.56-294.68-115.67-427.020-76.79-132.88-181.79-237.582-315.010-314.106-132.54-76.666-274.96-115-427.27-115-152.342 0-294.78 38.334-427.318 115-133.218 76.524-238.222 181.226-315.008 314.106-77.146 132.394-115.72 274.734-115.72 427.020 0 152.096 38.348 294.904 115.040 428.422 76.814 133.23 181.702 238.020 314.668 314.4 132.548 76.7 275.326 115.050 428.34 115.050z" />
			<glyph unicode="&#xe005;" d="M1024.050-93.942c198.68 0 369.76 71.468 513.25 214.402 143.79 143.126 215.68 314.028 215.68 512.706 0 129.014-32.65 250.086-97.92 363.212-65.88 113.482-155.070 202.702-267.57 267.654-112.65 65.29-233.8 97.94-363.45 97.94-199.908 0-371.348-71.69-514.322-215.080-143.102-143.47-214.654-314.708-214.654-513.724 0-198.676 71.892-369.58 215.674-512.706 143.49-142.934 314.592-214.4 513.312-214.4zM950.978 873.942c29.402 0 57.452-5.9 84.152-17.706 27.11-11.98 54.78-19.638 83.030-22.976l91.7-14.314c18.37-2.998 27.55-19.068 27.55-48.218 0-28.814 4.41-49.908 13.21-63.286 33.96-56.878 50.95-116.898 50.95-180.056-0.010-58.26-13.98-113.384-41.9-165.37-8.9-14.42-14.67-30.618-17.35-48.592-2.27-17.704-9.070-32.020-20.38-42.942-10.79-11.14-25.51-18.8-44.15-22.978-18.5-3.768-33.59-9.42-45.29-16.952-55.48-33.15-115.99-49.722-181.52-49.722-97.114 0-180.010 33.902-248.694 101.708-68.432 67.55-102.646 149.166-102.646 244.85 0 58.136 14.34 113.384 43.020 165.742 3.222 6.834 6.492 16.878 9.81 30.136 3.848 13.818 8.754 26.124 14.718 36.916 3.162 7.012 13.098 17.308 29.814 30.886 60.244 55.25 144.902 82.872 253.976 82.872zM1024.050 1490.97c152.64 0 295.4-38.45 428.28-115.35 133.080-77.12 237.96-182.040 314.65-314.77 76.66-132.734 114.99-275.294 114.99-427.688 0-152.33-38.55-294.666-115.67-427.004-76.78-132.876-181.78-237.574-315-314.094-132.59-76.698-275.010-115.046-427.25-115.046-152.282 0-294.718 38.348-427.31 115.046-133.216 76.52-238.212 181.218-314.996 314.094-77.144 132.392-115.716 274.728-115.716 427.004 0 152.092 38.344 294.9 115.034 428.418 76.812 133.22 181.698 238.010 314.658 314.38 132.49 76.67 275.264 115.010 428.33 115.010z" />
			<glyph unicode="&#xe006;" d="M1024.040-93.958c198.69 0 369.77 71.466 513.26 214.402 143.79 143.128 215.68 314.028 215.68 512.706 0 129.014-32.65 250.086-97.92 363.214-65.88 113.49-155.070 202.7-267.58 267.65-112.64 65.3-233.8 97.95-363.44 97.95-199.908 0-371.35-71.69-514.322-215.080-143.102-143.47-214.654-314.714-214.654-513.732 0-198.674 71.892-369.578 215.672-512.706 143.494-142.932 314.594-214.4 513.304-214.4zM1024.040 1490.95c152.65 0 295.4-38.45 428.29-115.34 133.070-77.13 237.96-182.050 314.65-314.78 76.66-132.73 114.99-275.29 114.99-427.682 0-152.33-38.55-294.666-115.67-427.002-76.78-132.878-181.78-237.576-315-314.096-132.6-76.698-275.010-115.048-427.26-115.048-152.272 0-294.708 38.348-427.302 115.048-133.212 76.52-238.212 181.216-314.996 314.096-77.144 132.39-115.716 274.726-115.716 427.002 0 152.092 38.346 294.9 115.036 428.414 76.81 133.22 181.694 238.010 314.656 314.39 132.488 76.66 275.264 115 428.322 115zM641.942-135.26l-266.38 207.466c-40.57-19.876-61.070-29.918-61.5-30.124-20-10.166-39.996-19.956-59.992-29.368l-32.072 13.178-15.472 65.138 27.546 25.228-7.548 19.954-53.2 1.132-15.468 35.394-9.812 109.192 55.088 40.664 5.66 41.042 79.612 86.976c146.952 61.352 305.674 123.48 476.166 186.378l394.67 142.326c93.87 32.010 184.56 62.384 272.040 91.12 93.53 30.724 184.85 58.838 273.93 84.342l100.74 28.614c5.21 1.324 11.72 2.938 19.52 4.842 7.83 1.912 17.83 4.33 30 7.262 12.17 2.938 22.96 5.554 32.35 7.854 24.18-22.238 38.52-58.636 43.020-109.194l-27.55-19.956 23.020-54.22 27.92-6.4 13.21-85.096-16.6-7.53c4.26-12.23 7.14-28.424 8.67-48.576l-23.020-16.564 18.87-45.182 24.15-6.778 10.95-71.538-47.55-22.214-4.15-15.44c-40.71-12.848-64.73-20.128-72.070-21.836l-112.81-36.524c-75.4-24.544-145.32-48.768-209.78-72.668-71.39-26.712-139.18-55.076-203.37-85.096l-261.11-110.32c2.69 0 4.7 0.502 6.040 1.508 2.22 1.318 4.36 2.322 6.42 3.012l290.53 104.672c79.86 26.734 139.6 46.818 179.22 60.246 65.68 21.984 125.68 40.936 179.98 56.856l115.080 33.132c30.35 7.772 51.35 12.92 63 15.44 18.34-16.054 29.030-42.914 32.070-80.576l-19.99-14.308 16.6-39.912 21.14-5.646 8.67-62.88-40.75-18.45-4.52-13.178c-12.28-3.91-30.11-9.542-53.47-16.894-23.37-7.352-40.52-12.766-51.43-16.24l-306.38-108.060c-41.73-17.178-78.21-32.74-109.42-46.69l-304.87-129.902c-9.32-3.094-15.61-5.73-18.86-7.904l-214.688-92.626c-48.014-21.904-101.092-47.256-159.226-76.056l-23.018 9.788-10.942 47.442 19.62 18.826-5.28 15.438-38.866 1.132-12.074 25.226zM636.24 16.020c1.56-0.97 4.51-2.956 8.852-5.952 4.344-2.996 7.496-5.028 9.46-6.098 5.48-2.988 11.642-6 18.488-9.038l5.816 41.84c-20.948-10.034-35.154-16.95-42.614-20.754zM1183.36 575.41l399.14 159.458-829.462-290.988c23.596 5.372 70.562 19.122 140.902 41.256 70.338 22.134 127.312 35.456 170.932 39.97 0.87 0.086 5.47 0.25 13.81 0.484 8.35 0.242 15.45 0.95 21.3 2.122 5.86 1.178 13.58 3.27 23.18 6.272 9.61 3.002 19.49 8.024 29.67 15.064 10.18 7.038 20.36 15.826 30.53 26.364z" />
			<glyph unicode="&#xe007;" d="M1024.040-93.942c124.15 0 237.49 27.882 340.040 83.65l-11.050-1.608-356.394-66.020-51.712-12.092c25.93-2.62 52.304-3.93 79.116-3.93zM1748.12 545.702c3.24 28.6 4.85 57.754 4.85 87.462 0 8.908-0.15 17.886-0.48 26.938l-463.3-59.814c89.010-9.832 160.86-17.71 215.56-23.632 89.9-10.28 143.1-16.408 159.62-18.382 11.78-2 29.42-4.75 52.95-8.25 8.76-1.33 19.030-2.77 30.8-4.322zM1436.58 1233.13c-15.88 10.87-32.25 21.17-49.1 30.9-112.65 65.29-233.8 97.94-363.44 97.94-113.12 0-217.106-22.94-311.958-68.83 25.254-1.68 46.75-3.2 64.48-4.52 24.156-1.8 59.71-4.18 106.658-7.13l389.44-30.75c43.25-5.040 80.060-9.040 110.42-12.010 18.010-1.97 35.84-3.84 53.5-5.6zM368.29 953.394c-7.996-15.946-15.334-32.124-22.010-48.54 9.342 1.444 25.496 3.904 48.462 7.384 22.964 3.508 41.326 6.308 55.084 8.4 56.46 8.298 116.924 16.424 181.394 24.38l62.716 6.754c-52.914 2.292-110.124 3.416-171.63 3.374-16.082 0-44-0.25-83.748-0.75-31.916-0.398-55.338-0.732-70.27-1.002zM370.906 308.96c8.068-15.674 16.768-31.084 26.1-46.23 33.806 9.592 72.318 18.706 115.538 27.338 25.514 4.636 59.188 10.512 101.022 17.63-55.564 1.5-99.254 2.248-131.064 2.248-28.796 0-50.952-0.122-66.476-0.372-18.762-0.308-33.802-0.512-45.122-0.616zM1904.35 274.69l16.52-33.010-67.22-29.634 2.25-30.762 46.19-26.256 7.51-68.272-42.81-24.008-236.39-34.306c-52.63-52.568-112.33-98.026-179.1-136.376-132.6-76.696-275.010-115.046-427.26-115.046-119.822 0-233.598 23.77-341.322 71.308l-217.49-52.662-40.934 33.010-47.322 88.904 14.272 17.628-21.782 40.51-24.412 3.38-27.416 79.148 9.766 23.258 29.154 15.076c-27.384 34.136-52.322 70.664-74.812 109.58-19.14 32.846-35.908 66.316-50.306 100.41-12.538-0.004-22.486-0.13-29.848-0.376-15.088-0.498-26.23-0.748-33.422-0.748l-22.158 22.134 12.016 61.518 33.048 10.882 1.128 19.88-43.94 22.132v34.882l17.652 48.39-2.252 2.254 4.504 5.628 2.76 7.304c-0.824 7.702-1.55 15.472-2.172 23.312l-14.11 21.9-27.414 4.498-30.798 78.024 10.894 24.384 62.72 28.51-42.814 107.656 19.902 34.136c22.994 6.616 41.034 11.37 54.122 14.264 7.416 24.774 16.002 49.268 25.76 73.48-7.794-0.098-13.89-0.466-18.286-1.092l-22.16 23.254 12.394 61.524 33.048 10.88 0.756 19.88-43.944 21.75v35.26l34.176 96.78 62.718 13.14 48.446 76.9c18.374-0.53 45.164-1.28 80.368-2.26 24.928-0.69 50.060-1.38 75.392-2.060 33.020 26.050 68.284 49.84 105.796 71.39 132.49 76.67 275.266 115.010 428.326 115.010 152.64 0 295.4-38.45 428.28-115.35 79.23-45.9 148.43-101.63 207.62-167.18 12.22-1.54 26.84-3.57 43.86-6.090 97.31-12.34 188.31-26.6 273.030-42.77 5.85-12.58 8.72-28.33 8.64-47.26-1.14-18.1-5.9-38.98-14.27-62.64l-30.8-5.63-2.26-54.768 22.16-16.504-22.91-76.898h-39.8l25.15-44.262-62.81-24.024c3.57-15.058 6.68-30.294 9.31-45.714l32.85-16.914 7.51-67.148-29.010-15c0.92-16.432 1.38-32.98 1.38-49.65 0-36.326-2.2-72.118-6.6-107.38 6.6-1.326 16.26-3.124 28.98-5.398 16.83-3.112 27.47-5.11 31.92-6.002 6.49-15.654 9.37-31.408 8.63-47.262-1.43-17.57-6.19-38.452-14.27-62.644l-30.79-5.624-1.13-54.77 21.040-16.504z" />
			<glyph unicode="&#xe008;" d="M479 274q92 210 197.5 401.5t217.5 353.5q132 190 208 274 49 54 92 89 25 20 79 30 131 24 183 24 23 0 23-16 0-15-23-36-200-178-419.5-509t-370.5-703q-57-139-79.5-170.5t-140.5-31.5q-77 0-96.5 15t-70.5 95q-88 133-189 240-53 56-53 86 0 42 59 82.5t97 40.5q53 0 127.5-59.5t158.5-205.5z" horiz-adv-x="1546" />
			<glyph unicode="&#xe009;" d="M563 463q73 153 174 336t228.5 365 186 241.5 99 94.5 143.5 51 156 16q35 0 57.5-21.5t22.5-56.5q0-27-13-46.5t-54-58.5q-197-181-410-516t-338-649q-59-144-76-169t-52-46.5-144-21.5q-86 0-110 10.5t-37 22.5-74 104q-63 97-183 229-69 76-69 127 0 74 78.5 129t138.5 55q66 0 141-53.5t135-142.5z" horiz-adv-x="1734" />
			<glyph unicode="&#xe00a;" d="M444 629l-104 419q-37 148-37 158 0 43 23 72t47 29q49 0 121-84t172-328q40 31 79 72l111 114q116 125 143.5 152t63.5 27q40 0 69-40.5t29-70.5v-8q-12-4-22-4-44-6-54-45-6-17-14-25-27-21-68-85l-85-134q-64-106-103-160-30-40-43.5-66t-13.5-59q0-74 43-192t110-219q43-62 43-70l-6-12q-8-14-8-25 0-3 4-18-56-31-60.5-35t-4.5-25l2-10q0-8-9-8-4 0-26.5 11t-50.5 44q-26 35-52 39-15 8-18 12-33 40-61 51-14 7-23 25l-109 186q-90-77-213-213-128-145-213-223v29q-8 16-22 37-8 11-12 26-5 19-21 23-7 0-14 14-6 19-19 25-16 6-16 14 0 2 4 19-6 12-6 18 0 26 256 315 112 129 188 228z" horiz-adv-x="1170" />
			<glyph unicode="&#xe00b;" d="M500 692l-127 516q-8 25-8 45 0 60 34 102t76 42q76 0 159-105.5t152-281.5q19 15 166 176 121 132 158.5 160t79.5 28q52 0 96.5-50.5t44.5-104.5q0-49-53-52-18 0-23-4l-5-19q-3-9-21-32-56-62-164-233-121-187-137-205-25-31-25-64 0-69 44.5-188t121.5-227q33-50 33-66 0-10-17-37 7-9 7-18 0-19-12-28t-56-32q0-59-49-59-21 0-59 25t-52 47q-15 18-30 24-16 4-24 10.5t-38 38.5q-2 4-24 17-28 12-54 63-13 32-69 119-327-353-345-372.5t-43-41.5-40-22q-17 0-27.5 10t-11.5 66l-13 14q-6 6-12 31l-20 10q-16 30-54 63l-2 31-6 27q0 12 12.5 39t124.5 162.5 138 160.5q98 92 104 121 21 79 70 94z" horiz-adv-x="1386" />
			<glyph unicode="&#xfffc;" d="M2048 1150h-100v223h-223v100h323v-323zM1473 1373h-323v100h323v-100zM2048 575h-100v323h100v-323zM1782 611q0-241-211-241-86 0-138 45l73 79q25-26 65-26 95 0 95 138v484h116v-479zM898 1373h-323v100h323v-100zM2048 0h-323v100h223v223h100v-323zM1423 591q0-209-274-209h-240v708h235q249 0 249-186 0-91-89-145 119-46 119-168zM323 1373h-223v-223h-100v323h323v-100zM1473 0h-323v100h323v-100zM854 735q0-173-82-269t-235-96-233.5 96-80.5 269q0 175 80.5 271t233.5 96 235-96 82-271zM100 575h-100v323h100v-323zM898 0h-323v100h323v-100zM323 0h-323v323h100v-223h223v-100zM1277 893q0 99-163 99h-89v-194h101q151 0 151 95zM1307 591q0 109-171 109h-111v-220h124q158 0 158 111zM738 735q0 269-201 269-198 0-198-269 0-267 198-267 201 0 201 267z" />
			<glyph unicode="&#xfffd;" d="M1874 808l-850-850-850 850 850 850zM1327 1023q0 115-85 191.5t-207 76.5q-147 0-256-45l-18-179q83 53 183 53 75 0 124-41t49-108q0-73-84.5-184.5t-84.5-227.5h152q0 54 59 127 100 124 109 139 59 94 59 198zM1140 240v210h-232v-210h232z" />
		</font>
</defs>
</svg>
