<?xml version="1.0" encoding="UTF-8"?>
<!DOCTYPE svg PUBLIC "-//W3C//DTD SVG 1.1//EN" "http://www.w3.org/Graphics/SVG/1.1/DTD/svg11.dtd">
<!-- Creator: CorelDRAW -->
<svg xmlns="http://www.w3.org/2000/svg" xml:space="preserve" width="4.2332mm" height="4.2332mm" style="shape-rendering:geometricPrecision; text-rendering:geometricPrecision; image-rendering:optimizeQuality; fill-rule:evenodd; clip-rule:evenodd"
viewBox="0 0 4.2332 4.2332"
 xmlns:xlink="http://www.w3.org/1999/xlink">
 <defs>
  <style type="text/css">
   <![CDATA[
    .fil0 {fill:black;fill-rule:nonzero}
   ]]>
  </style>
 </defs>
 <g id="Capa_x0020_1">
  <metadata id="CorelCorpID_0Corel-Layer"/>
  <path class="fil0" d="M2.1167 0.3527c0.3135,0 0.6076,0.0794 0.8805,0.2375 0.2737,0.1588 0.4891,0.3745 0.6469,0.6479 0.1572,0.2725 0.2364,0.5662 0.2364,0.8803 0,0.3134 -0.0792,0.6064 -0.2378,0.8789 -0.1578,0.2734 -0.3739,0.4891 -0.6476,0.6465 -0.273,0.1581 -0.5662,0.2367 -0.8784,0.2367 -0.3123,0 -0.6055,-0.0786 -0.8785,-0.2367 -0.2737,-0.1574 -0.4898,-0.3731 -0.6476,-0.6465 -0.1586,-0.2725 -0.2379,-0.5655 -0.2379,-0.8789 0,-0.3141 0.0793,-0.6078 0.2365,-0.8818 0.1578,-0.274 0.3732,-0.4897 0.6469,-0.6471 0.2729,-0.1581 0.567,-0.2368 0.8806,-0.2368zm0 3.2623c0.4083,0 0.7599,-0.1468 1.0552,-0.4413 0.2954,-0.2944 0.4434,-0.6457 0.4434,-1.0553 0,-0.2656 -0.0673,-0.5151 -0.2013,-0.7476 -0.1348,-0.2325 -0.3179,-0.4167 -0.5501,-0.5509 -0.2323,-0.1348 -0.4813,-0.2016 -0.7472,-0.2016 -0.4112,0 -0.7634,0.1475 -1.0574,0.4427 -0.294,0.2951 -0.4413,0.6478 -0.4413,1.0574 0,0.4096 0.148,0.7609 0.4434,1.0553 0.2953,0.2945 0.6469,0.4413 1.0553,0.4413zm0.0245 -1.5416c0.1136,-0.1742 0.2715,-0.2613 0.4729,-0.2613 0.1607,0 0.2961,0.0597 0.4083,0.1791 0.1116,0.1194 0.167,0.2719 0.167,0.4567 0,0.1869 -0.0554,0.345 -0.167,0.4757 -0.1122,0.1307 -0.2609,0.1953 -0.4476,0.1953 -0.1845,0 -0.3437,-0.0695 -0.4764,-0.2086 -0.1333,-0.1391 -0.2,-0.3872 -0.2,-0.7441 0,-0.3486 0.0604,-0.6106 0.1804,-0.7862 0.1199,-0.1757 0.294,-0.2635 0.5227,-0.2635 0.1452,0 0.2694,0.04 0.3711,0.1216 0.1024,0.0807 0.1635,0.2015 0.1839,0.3618l-0.24 0.0266c-0.0224,-0.1053 -0.061,-0.1847 -0.1164,-0.2375 -0.0555,-0.0526 -0.1278,-0.0793 -0.2169,-0.0793 -0.122,0 -0.2266,0.0625 -0.3143,0.1862 -0.0877,0.1244 -0.1319,0.3169 -0.1319,0.5775l0.0042 0zm0.4294 0.846c0.1115,0 0.2013,-0.0443 0.2709,-0.1335 0.0687,-0.0892 0.1038,-0.1982 0.1038,-0.3253 0,-0.1279 -0.0351,-0.2326 -0.1052,-0.3148 -0.0696,-0.0829 -0.1621,-0.1237 -0.2772,-0.1237 -0.1045,0 -0.1951,0.0386 -0.2716,0.1174 -0.0764,0.078 -0.115,0.1812 -0.115,0.3084 0,0.1307 0.0372,0.2417 0.1122,0.3337 0.0744,0.0921 0.1684,0.1378 0.2821,0.1378zm-0.9121 0.1651l-0.2407 0 0 -1.5338c-0.122,0.1124 -0.2827,0.2094 -0.4834,0.2901l0 -0.2325c0.2744,-0.1342 0.4638,-0.2986 0.5676,-0.4918l0.1565 0 0 1.968z"/>
 </g>
</svg>
