<?xml version="1.0" encoding="UTF-8"?>
<!DOCTYPE svg PUBLIC "-//W3C//DTD SVG 1.1//EN" "http://www.w3.org/Graphics/SVG/1.1/DTD/svg11.dtd">
<!-- Creator: CorelDRAW -->
<svg xmlns="http://www.w3.org/2000/svg" xml:space="preserve" width="4.2332mm" height="4.2332mm" style="shape-rendering:geometricPrecision; text-rendering:geometricPrecision; image-rendering:optimizeQuality; fill-rule:evenodd; clip-rule:evenodd"
viewBox="0 0 4.2332 4.2332"
 xmlns:xlink="http://www.w3.org/1999/xlink">
 <defs>
  <style type="text/css">
   <![CDATA[
    .fil0 {fill:black;fill-rule:nonzero}
   ]]>
  </style>
 </defs>
 <g id="Capa_x0020_1">
  <metadata id="CorelCorpID_0Corel-Layer"/>
  <path class="fil0" d="M2.1167 0.3527c0.3135,0 0.6076,0.0794 0.8805,0.2375 0.2737,0.1588 0.4891,0.3745 0.6469,0.6479 0.1572,0.2725 0.2364,0.5662 0.2364,0.8803 0,0.3134 -0.0792,0.6064 -0.2378,0.8789 -0.1578,0.2734 -0.3739,0.4891 -0.6476,0.6465 -0.273,0.1581 -0.5662,0.2367 -0.8784,0.2367 -0.3123,0 -0.6055,-0.0786 -0.8785,-0.2367 -0.2737,-0.1574 -0.4898,-0.3731 -0.6476,-0.6465 -0.1586,-0.2725 -0.2379,-0.5655 -0.2379,-0.8789 0,-0.3141 0.0793,-0.6078 0.2365,-0.8818 0.1578,-0.274 0.3732,-0.4897 0.6469,-0.6471 0.2729,-0.1581 0.567,-0.2368 0.8806,-0.2368zm0 3.2623c0.4083,0 0.7599,-0.1468 1.0552,-0.4413 0.2954,-0.2944 0.4434,-0.6457 0.4434,-1.0553 0,-0.2656 -0.0673,-0.5151 -0.2013,-0.7476 -0.1348,-0.2325 -0.3179,-0.4167 -0.5501,-0.5509 -0.2323,-0.1348 -0.4813,-0.2016 -0.7472,-0.2016 -0.4112,0 -0.7634,0.1475 -1.0574,0.4427 -0.294,0.2951 -0.4413,0.6478 -0.4413,1.0574 0,0.4096 0.148,0.7609 0.4434,1.0553 0.2953,0.2945 0.6469,0.4413 1.0553,0.4413zm0.8756 -1.4531c-0.1137,0.1715 -0.268,0.2572 -0.4624,0.2572 -0.1635,0 -0.301,-0.059 -0.4132,-0.177 -0.1123,-0.1181 -0.1685,-0.2727 -0.1685,-0.4652 0,-0.1932 0.0569,-0.352 0.1713,-0.4756 0.1143,-0.123 0.2623,-0.1848 0.4434,-0.1848 0.1845,0 0.3431,0.0695 0.4736,0.2086 0.1312,0.1391 0.1965,0.3858 0.1965,0.7399 0,0.3514 -0.0583,0.6148 -0.1748,0.7904 -0.1164,0.1757 -0.2911,0.2635 -0.524,0.2635 -0.1481,0 -0.2716,-0.04 -0.3713,-0.1216 -0.0996,-0.0807 -0.1599,-0.2037 -0.1816,-0.3681l0.2322 -0.0162c0.0161,0.1026 0.0512,0.1792 0.106,0.2305 0.054,0.0506 0.127,0.0759 0.2188,0.0759 0.1466,0 0.2596,-0.0668 0.339,-0.1995 0.0792,-0.1329 0.1192,-0.3191 0.1192,-0.558l-0.0042 0zm-0.4091 0.045c0.1179,0 0.2112,-0.0414 0.2807,-0.1244 0.0694,-0.0828 0.1038,-0.189 0.1038,-0.3175 0,-0.1279 -0.0351,-0.2354 -0.1053,-0.3232 -0.0694,-0.0878 -0.1599,-0.1321 -0.2708,-0.1321 -0.1122,0 -0.2069,0.0471 -0.2841,0.1398 -0.0764,0.0935 -0.1151,0.2051 -0.1151,0.3359 0,0.1237 0.0379,0.2247 0.1136,0.3035 0.0751,0.0787 0.1678,0.118 0.2772,0.118zm-0.9247 0.8776l-0.2407 0 0 -1.5338c-0.122,0.1124 -0.2827,0.2094 -0.4834,0.2901l0 -0.2325c0.2744,-0.1342 0.4638,-0.2986 0.5676,-0.4918l0.1565 0 0 1.968z"/>
 </g>
</svg>
