<?xml version="1.0" encoding="UTF-8"?>
<!DOCTYPE svg PUBLIC "-//W3C//DTD SVG 1.1//EN" "http://www.w3.org/Graphics/SVG/1.1/DTD/svg11.dtd">
<!-- Creator: CorelDRAW -->
<svg xmlns="http://www.w3.org/2000/svg" xml:space="preserve" width="4.2332mm" height="4.2332mm" style="shape-rendering:geometricPrecision; text-rendering:geometricPrecision; image-rendering:optimizeQuality; fill-rule:evenodd; clip-rule:evenodd"
viewBox="0 0 4.2332 4.2332"
 xmlns:xlink="http://www.w3.org/1999/xlink">
 <defs>
  <style type="text/css">
   <![CDATA[
    .fil0 {fill:black;fill-rule:nonzero}
   ]]>
  </style>
 </defs>
 <g id="Capa_x0020_1">
  <metadata id="CorelCorpID_0Corel-Layer"/>
  <path class="fil0" d="M2.0921 2.6663c0.1354,0 0.2385,-0.0506 0.3094,-0.1518 0.0702,-0.1004 0.1059,-0.2339 0.1059,-0.3997 0,-0.1708 -0.0393,-0.3028 -0.1164,-0.3977 -0.0772,-0.0948 -0.1768,-0.1419 -0.2989,-0.1419 -0.1235,0 -0.2245,0.0457 -0.3031,0.1377 -0.0793,0.092 -0.1186,0.229 -0.1186,0.4096 0,0.1427 0.0232,0.2543 0.0702,0.3345 0.0462,0.0807 0.101,0.1356 0.1642,0.1651 0.0631,0.0295 0.1256,0.0442 0.1873,0.0442zm0 -1.2843c0.1902,0 0.3487,0.0618 0.475,0.1862 0.1256,0.1243 0.1887,0.3006 0.1887,0.5297 0,0.1729 -0.0252,0.3127 -0.0751,0.418 -0.0498,0.1055 -0.129,0.1905 -0.2371,0.2545 -0.108,0.0639 -0.2252,0.0955 -0.3515,0.0955 -0.1783,0 -0.334,-0.0591 -0.4666,-0.1764 -0.1333,-0.1173 -0.1992,-0.3063 -0.1992,-0.567 0,-0.248 0.0617,-0.4335 0.1866,-0.5565 0.1249,-0.1229 0.2848,-0.184 0.4792,-0.184zm0.0246 2.2329c0.4083,0 0.7599,-0.1468 1.0552,-0.4413 0.2954,-0.2944 0.4434,-0.6457 0.4434,-1.0553 0,-0.2656 -0.0673,-0.5151 -0.2013,-0.7476 -0.1348,-0.2325 -0.3179,-0.4167 -0.5501,-0.5509 -0.2323,-0.1348 -0.4813,-0.2016 -0.7472,-0.2016 -0.4112,0 -0.7634,0.1475 -1.0574,0.4427 -0.294,0.2951 -0.4413,0.6478 -0.4413,1.0574 0,0.4096 0.148,0.7609 0.4434,1.0553 0.2953,0.2945 0.6469,0.4413 1.0553,0.4413zm0 -3.2622c0.3135,0 0.6076,0.0793 0.8805,0.2374 0.2737,0.1588 0.4891,0.3745 0.6469,0.6479 0.1572,0.2725 0.2364,0.5662 0.2364,0.8803 0,0.3134 -0.0792,0.6064 -0.2378,0.8789 -0.1578,0.2734 -0.3739,0.4891 -0.6476,0.6465 -0.273,0.1581 -0.5662,0.2368 -0.8784,0.2368 -0.3123,0 -0.6055,-0.0787 -0.8785,-0.2368 -0.2737,-0.1574 -0.4898,-0.3731 -0.6476,-0.6465 -0.1586,-0.2725 -0.2379,-0.5655 -0.2379,-0.8789 0,-0.3141 0.0793,-0.6078 0.2365,-0.8818 0.1578,-0.274 0.3732,-0.4897 0.6469,-0.6471 0.2729,-0.1581 0.567,-0.2367 0.8806,-0.2367z"/>
 </g>
</svg>
