<?xml version="1.0" encoding="UTF-8"?>
<!DOCTYPE svg PUBLIC "-//W3C//DTD SVG 1.1//EN" "http://www.w3.org/Graphics/SVG/1.1/DTD/svg11.dtd">
<!-- Creator: CorelDRAW -->
<svg xmlns="http://www.w3.org/2000/svg" xml:space="preserve" width="4.2332mm" height="4.2332mm" style="shape-rendering:geometricPrecision; text-rendering:geometricPrecision; image-rendering:optimizeQuality; fill-rule:evenodd; clip-rule:evenodd"
viewBox="0 0 4.2332 4.2332"
 xmlns:xlink="http://www.w3.org/1999/xlink">
 <defs>
  <style type="text/css">
   <![CDATA[
    .fil0 {fill:black;fill-rule:nonzero}
   ]]>
  </style>
 </defs>
 <g id="Capa_x0020_1">
  <metadata id="CorelCorpID_0Corel-Layer"/>
  <path class="fil0" d="M2.7152 2.3433c-0.0317,0.1798 -0.1039,0.3119 -0.2161,0.3962 -0.1123,0.0844 -0.2372,0.1265 -0.374,0.1265 -0.2056,0 -0.3649,-0.0681 -0.4779,-0.2038 -0.1136,-0.1356 -0.1697,-0.3155 -0.1697,-0.5396 0,-0.241 0.0596,-0.4251 0.1789,-0.5515 0.1193,-0.1258 0.275,-0.189 0.4687,-0.189 0.1508,0 0.2771,0.0386 0.3788,0.1173 0.1025,0.0779 0.1642,0.1876 0.186,0.3288l-0.2323 0.0372c-0.0245,-0.0963 -0.0638,-0.1686 -0.1178,-0.217 -0.054,-0.0485 -0.1229,-0.0731 -0.207,-0.0731 -0.134,0 -0.2351,0.0471 -0.3038,0.1419 -0.0688,0.0949 -0.1031,0.2283 -0.1031,0.4012 0,0.1757 0.0343,0.3113 0.1017,0.4061 0.068,0.0942 0.1656,0.1419 0.2933,0.1419 0.1024,0 0.1837,-0.0295 0.2434,-0.0885 0.0597,-0.059 0.0976,-0.1475 0.1144,-0.2656l0.2365 0.031zm-0.5985 1.2717c0.4083,0 0.7599,-0.1468 1.0552,-0.4413 0.2954,-0.2944 0.4434,-0.6457 0.4434,-1.0553 0,-0.2656 -0.0673,-0.5151 -0.2013,-0.7476 -0.1348,-0.2325 -0.3179,-0.4167 -0.5501,-0.5509 -0.2323,-0.1348 -0.4813,-0.2016 -0.7472,-0.2016 -0.4112,0 -0.7634,0.1475 -1.0574,0.4427 -0.294,0.2951 -0.4413,0.6478 -0.4413,1.0574 0,0.4096 0.148,0.7609 0.4434,1.0553 0.2953,0.2945 0.6469,0.4413 1.0553,0.4413zm0 -3.2623c0.3135,0 0.6076,0.0794 0.8805,0.2375 0.2737,0.1588 0.4891,0.3745 0.6469,0.6479 0.1572,0.2725 0.2364,0.5662 0.2364,0.8803 0,0.3134 -0.0792,0.6064 -0.2378,0.8789 -0.1578,0.2734 -0.3739,0.4891 -0.6476,0.6465 -0.273,0.1581 -0.5662,0.2367 -0.8784,0.2367 -0.3123,0 -0.6055,-0.0786 -0.8785,-0.2367 -0.2737,-0.1574 -0.4898,-0.3731 -0.6476,-0.6465 -0.1586,-0.2725 -0.2379,-0.5655 -0.2379,-0.8789 0,-0.3141 0.0793,-0.6078 0.2365,-0.8818 0.1578,-0.274 0.3732,-0.4897 0.6469,-0.6471 0.2729,-0.1581 0.567,-0.2368 0.8806,-0.2368z"/>
 </g>
</svg>
