<?xml version="1.0" encoding="UTF-8"?>
<!DOCTYPE svg PUBLIC "-//W3C//DTD SVG 1.1//EN" "http://www.w3.org/Graphics/SVG/1.1/DTD/svg11.dtd">
<!-- Creator: CorelDRAW -->
<svg xmlns="http://www.w3.org/2000/svg" xml:space="preserve" width="4.2332mm" height="4.2332mm" style="shape-rendering:geometricPrecision; text-rendering:geometricPrecision; image-rendering:optimizeQuality; fill-rule:evenodd; clip-rule:evenodd"
viewBox="0 0 4.2332 4.2332"
 xmlns:xlink="http://www.w3.org/1999/xlink">
 <defs>
  <style type="text/css">
   <![CDATA[
    .fil0 {fill:black;fill-rule:nonzero}
   ]]>
  </style>
 </defs>
 <g id="Capa_x0020_1">
  <metadata id="CorelCorpID_0Corel-Layer"/>
  <path class="fil0" d="M2.5074 1.9848c-0.0182,-0.1581 -0.0673,-0.2655 -0.1473,-0.3232 -0.08,-0.0577 -0.1641,-0.0864 -0.2519,-0.0864 -0.1122,0 -0.2048,0.0386 -0.2785,0.1152 -0.073,0.0766 -0.1151,0.1749 -0.1263,0.2944l0.804 0zm0.2443 0.1974l-1.0602 0c0.0091,0.1567 0.054,0.2762 0.1332,0.3598 0.0794,0.0829 0.1797,0.1243 0.3004,0.1243 0.0891,0 0.1648,-0.0246 0.2266,-0.073 0.0624,-0.0492 0.1116,-0.123 0.1474,-0.2214l0.2448 0.0331c-0.0442,0.1532 -0.1171,0.2691 -0.2203,0.3457 -0.1024,0.0765 -0.2358,0.1152 -0.3985,0.1152 -0.2141,0 -0.381,-0.066 -0.5017,-0.1974 -0.1207,-0.1321 -0.181,-0.3113 -0.181,-0.5376 0,-0.2248 0.0603,-0.4061 0.1796,-0.5431 0.12,-0.1377 0.2821,-0.2058 0.4862,-0.2058 0.1796,0 0.3319,0.0597 0.4568,0.1798 0.1242,0.1202 0.1867,0.3268 0.1867,0.6204zm-0.635 1.4327c0.4083,0 0.7599,-0.1468 1.0552,-0.4413 0.2954,-0.2944 0.4434,-0.6457 0.4434,-1.0553 0,-0.2656 -0.0673,-0.5151 -0.2013,-0.7476 -0.1348,-0.2325 -0.3179,-0.4167 -0.5501,-0.5509 -0.2323,-0.1348 -0.4813,-0.2016 -0.7472,-0.2016 -0.4112,0 -0.7634,0.1475 -1.0574,0.4427 -0.294,0.2951 -0.4413,0.6478 -0.4413,1.0574 0,0.4096 0.148,0.7609 0.4434,1.0553 0.2953,0.2945 0.6469,0.4413 1.0553,0.4413zm0 -3.2622c0.3135,0 0.6076,0.0793 0.8805,0.2374 0.2737,0.1588 0.4891,0.3745 0.6469,0.6479 0.1572,0.2725 0.2364,0.5662 0.2364,0.8803 0,0.3134 -0.0792,0.6064 -0.2378,0.8789 -0.1578,0.2734 -0.3739,0.4891 -0.6476,0.6465 -0.273,0.1581 -0.5662,0.2368 -0.8784,0.2368 -0.3123,0 -0.6055,-0.0787 -0.8785,-0.2368 -0.2737,-0.1574 -0.4898,-0.3731 -0.6476,-0.6465 -0.1586,-0.2725 -0.2379,-0.5655 -0.2379,-0.8789 0,-0.3141 0.0793,-0.6078 0.2365,-0.8818 0.1578,-0.274 0.3732,-0.4897 0.6469,-0.6471 0.2729,-0.1581 0.567,-0.2367 0.8806,-0.2367z"/>
 </g>
</svg>
