<?xml version="1.0" encoding="UTF-8"?>
<!DOCTYPE svg PUBLIC "-//W3C//DTD SVG 1.1//EN" "http://www.w3.org/Graphics/SVG/1.1/DTD/svg11.dtd">
<!-- Creator: CorelDRAW -->
<svg xmlns="http://www.w3.org/2000/svg" xml:space="preserve" width="4.2332mm" height="4.2332mm" style="shape-rendering:geometricPrecision; text-rendering:geometricPrecision; image-rendering:optimizeQuality; fill-rule:evenodd; clip-rule:evenodd"
viewBox="0 0 4.2332 4.2332"
 xmlns:xlink="http://www.w3.org/1999/xlink">
 <defs>
  <style type="text/css">
   <![CDATA[
    .fil0 {fill:black;fill-rule:nonzero}
   ]]>
  </style>
 </defs>
 <g id="Capa_x0020_1">
  <metadata id="CorelCorpID_0Corel-Layer"/>
  <path class="fil0" d="M2.56 1.0976c0,0.0999 -0.0254,0.175 -0.0764,0.2266 -0.0511,0.051 -0.1134,0.0766 -0.1862,0.0766 -0.041,0 -0.0751,-0.0045 -0.1024,-0.0142 -0.0278,-0.009 -0.0606,-0.0263 -0.099,-0.0509 -0.063,-0.0402 -0.1132,-0.0603 -0.1505,-0.0603 -0.0738,0 -0.112,0.0419 -0.1148,0.1254l-0.1639 0c0,-0.099 0.0265,-0.1741 0.0798,-0.2257 0.0536,-0.0515 0.1168,-0.0775 0.1907,-0.0775 0.0578,0 0.1202,0.021 0.1875,0.0629 0.067,0.0419 0.1221,0.0625 0.1648,0.0625 0.0614,0 0.0971,-0.0415 0.1066,-0.1254l0.1638 0zm0.1335 1.9582l-0.2413 0 0 -0.8617c0,-0.145 -0.026,-0.2449 -0.0779,-0.2991 -0.0523,-0.0543 -0.1243,-0.0815 -0.2167,-0.0815 -0.0715,0 -0.139,0.0173 -0.2022,0.0523 -0.0637,0.0346 -0.1088,0.0834 -0.1355,0.1469 -0.0265,0.0634 -0.0397,0.1528 -0.0397,0.2685l0 0.7746 -0.2404 0 0 -1.417 0.2163 0 0 0.2002 0.0054 0c0.0506,-0.0776 0.1129,-0.1355 0.187,-0.1742 0.0743,-0.0388 0.1603,-0.0584 0.2582,-0.0584 0.0747,0 0.1485,0.0137 0.2214,0.0402 0.0733,0.0268 0.1301,0.067 0.1716,0.1203 0.0415,0.0533 0.0673,0.1104 0.0778,0.171 0.011,0.0605 0.016,0.1422 0.016,0.2457l0 0.8722zm-0.5768 -2.7031c0.3135,0 0.6076,0.0794 0.8805,0.2375 0.2737,0.1588 0.4891,0.3745 0.6469,0.6479 0.1572,0.2725 0.2364,0.5662 0.2364,0.8803 0,0.3134 -0.0792,0.6064 -0.2378,0.8789 -0.1578,0.2734 -0.3739,0.4891 -0.6476,0.6465 -0.273,0.1581 -0.5662,0.2367 -0.8784,0.2367 -0.3123,0 -0.6055,-0.0786 -0.8785,-0.2367 -0.2737,-0.1574 -0.4898,-0.3731 -0.6476,-0.6465 -0.1586,-0.2725 -0.2379,-0.5655 -0.2379,-0.8789 0,-0.3141 0.0793,-0.6078 0.2365,-0.8818 0.1578,-0.274 0.3732,-0.4897 0.6469,-0.6471 0.2729,-0.1581 0.567,-0.2368 0.8806,-0.2368zm0 3.2623c0.4083,0 0.7599,-0.1468 1.0552,-0.4413 0.2954,-0.2944 0.4434,-0.6457 0.4434,-1.0553 0,-0.2656 -0.0673,-0.5151 -0.2013,-0.7476 -0.1348,-0.2325 -0.3179,-0.4167 -0.5501,-0.5509 -0.2323,-0.1348 -0.4813,-0.2016 -0.7472,-0.2016 -0.4112,0 -0.7634,0.1475 -1.0574,0.4427 -0.294,0.2951 -0.4413,0.6478 -0.4413,1.0574 0,0.4096 0.148,0.7609 0.4434,1.0553 0.2953,0.2945 0.6469,0.4413 1.0553,0.4413z"/>
 </g>
</svg>
