<?xml version="1.0" encoding="UTF-8"?>
<!DOCTYPE svg PUBLIC "-//W3C//DTD SVG 1.1//EN" "http://www.w3.org/Graphics/SVG/1.1/DTD/svg11.dtd">
<!-- Creator: CorelDRAW -->
<svg xmlns="http://www.w3.org/2000/svg" xml:space="preserve" width="4.2332mm" height="4.2332mm" style="shape-rendering:geometricPrecision; text-rendering:geometricPrecision; image-rendering:optimizeQuality; fill-rule:evenodd; clip-rule:evenodd"
viewBox="0 0 4.2332 4.2332"
 xmlns:xlink="http://www.w3.org/1999/xlink">
 <defs>
  <style type="text/css">
   <![CDATA[
    .fil0 {fill:black;fill-rule:nonzero}
   ]]>
  </style>
 </defs>
 <g id="Capa_x0020_1">
  <metadata id="CorelCorpID_0Corel-Layer"/>
  <path class="fil0" d="M2.1763 2.4977c0.1136,0 0.2063,-0.0471 0.2785,-0.1405 0.0716,-0.0927 0.1081,-0.2318 0.1081,-0.4153 0,-0.1742 -0.0358,-0.3084 -0.1074,-0.4026 -0.0708,-0.0941 -0.1613,-0.1412 -0.2708,-0.1412 -0.1123,0 -0.2055,0.0527 -0.2785,0.1574 -0.0737,0.1054 -0.1102,0.241 -0.1102,0.4068 0,0.1757 0.0351,0.3085 0.1045,0.3991 0.0702,0.0906 0.1621,0.1363 0.2758,0.1363zm-0.3761 -1.0708c0.0906,-0.1426 0.2266,-0.2142 0.4091,-0.2142 0.1851,0 0.3311,0.0681 0.4399,0.203 0.108,0.1349 0.162,0.3105 0.162,0.5262 0,0.2305 -0.0595,0.4139 -0.1789,0.5502 -0.1192,0.137 -0.2659,0.2052 -0.4399,0.2052 -0.153,0 -0.275,-0.0605 -0.3655,-0.1814l-0.0084 0 0 0.6915 -0.2407 0 0 -1.966 0.2182 0 0 0.1855 0.0042 0zm0.3165 2.188c0.4083,0 0.7599,-0.1468 1.0552,-0.4413 0.2954,-0.2944 0.4434,-0.6457 0.4434,-1.0553 0,-0.2656 -0.0673,-0.5151 -0.2013,-0.7476 -0.1348,-0.2325 -0.3179,-0.4167 -0.5501,-0.5509 -0.2323,-0.1348 -0.4813,-0.2016 -0.7472,-0.2016 -0.4112,0 -0.7634,0.1475 -1.0574,0.4427 -0.294,0.2951 -0.4413,0.6478 -0.4413,1.0574 0,0.4096 0.148,0.7609 0.4434,1.0553 0.2953,0.2945 0.6469,0.4413 1.0553,0.4413zm0 -3.2622c0.3135,0 0.6076,0.0793 0.8805,0.2374 0.2737,0.1588 0.4891,0.3745 0.6469,0.6479 0.1572,0.2725 0.2364,0.5662 0.2364,0.8803 0,0.3134 -0.0792,0.6064 -0.2378,0.8789 -0.1578,0.2734 -0.3739,0.4891 -0.6476,0.6465 -0.273,0.1581 -0.5662,0.2368 -0.8784,0.2368 -0.3123,0 -0.6055,-0.0787 -0.8785,-0.2368 -0.2737,-0.1574 -0.4898,-0.3731 -0.6476,-0.6465 -0.1586,-0.2725 -0.2379,-0.5655 -0.2379,-0.8789 0,-0.3141 0.0793,-0.6078 0.2365,-0.8818 0.1578,-0.274 0.3732,-0.4897 0.6469,-0.6471 0.2729,-0.1581 0.567,-0.2367 0.8806,-0.2367z"/>
 </g>
</svg>
