<?xml version="1.0" encoding="UTF-8"?>
<!DOCTYPE svg PUBLIC "-//W3C//DTD SVG 1.1//EN" "http://www.w3.org/Graphics/SVG/1.1/DTD/svg11.dtd">
<!-- Creator: CorelDRAW -->
<svg xmlns="http://www.w3.org/2000/svg" xml:space="preserve" width="4.2332mm" height="4.2332mm" style="shape-rendering:geometricPrecision; text-rendering:geometricPrecision; image-rendering:optimizeQuality; fill-rule:evenodd; clip-rule:evenodd"
viewBox="0 0 4.2332 4.2332"
 xmlns:xlink="http://www.w3.org/1999/xlink">
 <defs>
  <style type="text/css">
   <![CDATA[
    .fil0 {fill:black;fill-rule:nonzero}
   ]]>
  </style>
 </defs>
 <g id="Capa_x0020_1">
  <metadata id="CorelCorpID_0Corel-Layer"/>
  <path class="fil0" d="M2.0486 2.4977c0.1136,0 0.2062,-0.0457 0.2778,-0.1363 0.0709,-0.0906 0.1067,-0.2234 0.1067,-0.3991 0,-0.1658 -0.0372,-0.3014 -0.1108,-0.4068 -0.0737,-0.1047 -0.1678,-0.1574 -0.2814,-0.1574 -0.1102,0 -0.2007,0.0471 -0.2716,0.1412 -0.0716,0.0942 -0.1066,0.2284 -0.1066,0.4026 0,0.1216 0.0161,0.2242 0.0491,0.3077 0.033,0.083 0.0793,0.1448 0.1397,0.1863 0.0602,0.0407 0.1263,0.0618 0.1971,0.0618zm0.5984 0.7097l-0.2406 0 0 -0.6915 -0.0042 0c-0.0919,0.1209 -0.2133,0.1814 -0.3656,0.1814 -0.1754,0 -0.3227,-0.0682 -0.4413,-0.2038 -0.1185,-0.1363 -0.1775,-0.3197 -0.1775,-0.5516 0,-0.2171 0.054,-0.3927 0.1614,-0.527 0.1073,-0.1348 0.2547,-0.2022 0.4406,-0.2022 0.181,0 0.3165,0.0716 0.4049,0.2142l0.0042 0 0 -0.1855 0.2181 0 0 1.966zm-0.5303 0.4075c0.4083,0 0.7599,-0.1468 1.0552,-0.4413 0.2954,-0.2944 0.4434,-0.6457 0.4434,-1.0553 0,-0.2656 -0.0673,-0.5151 -0.2013,-0.7476 -0.1348,-0.2325 -0.3179,-0.4167 -0.5501,-0.5509 -0.2323,-0.1348 -0.4813,-0.2016 -0.7472,-0.2016 -0.4112,0 -0.7634,0.1475 -1.0574,0.4427 -0.294,0.2951 -0.4413,0.6478 -0.4413,1.0574 0,0.4096 0.148,0.7609 0.4434,1.0553 0.2953,0.2945 0.6469,0.4413 1.0553,0.4413zm0 -3.2622c0.3135,0 0.6076,0.0793 0.8805,0.2374 0.2737,0.1588 0.4891,0.3745 0.6469,0.6479 0.1572,0.2725 0.2364,0.5662 0.2364,0.8803 0,0.3134 -0.0792,0.6064 -0.2378,0.8789 -0.1578,0.2734 -0.3739,0.4891 -0.6476,0.6465 -0.273,0.1581 -0.5662,0.2368 -0.8784,0.2368 -0.3123,0 -0.6055,-0.0787 -0.8785,-0.2368 -0.2737,-0.1574 -0.4898,-0.3731 -0.6476,-0.6465 -0.1586,-0.2725 -0.2379,-0.5655 -0.2379,-0.8789 0,-0.3141 0.0793,-0.6078 0.2365,-0.8818 0.1578,-0.274 0.3732,-0.4897 0.6469,-0.6471 0.2729,-0.1581 0.567,-0.2367 0.8806,-0.2367z"/>
 </g>
</svg>
