<?xml version="1.0" encoding="UTF-8"?>
<!DOCTYPE svg PUBLIC "-//W3C//DTD SVG 1.1//EN" "http://www.w3.org/Graphics/SVG/1.1/DTD/svg11.dtd">
<!-- Creator: CorelDRAW -->
<svg xmlns="http://www.w3.org/2000/svg" xml:space="preserve" width="4096mm" height="4096mm" style="shape-rendering:geometricPrecision; text-rendering:geometricPrecision; image-rendering:optimizeQuality; fill-rule:evenodd; clip-rule:evenodd"
viewBox="0 0 4096 4096"
 xmlns:xlink="http://www.w3.org/1999/xlink">
 <defs>
  <style type="text/css">
   <![CDATA[
    .fil0 {fill:black;fill-rule:nonzero}
   ]]>
  </style>
 </defs>
 <g id="Capa_x0020_1">
  <metadata id="CorelCorpID_0Corel-Layer"/>
  <path class="fil0" d="M1604.01 1976.59l580.067 0c180.081,0 314.416,-35.0641 404.863,-104.496 89.6341,-69.3155 134.567,-172.882 134.567,-311.63 0,-88.0086 -22.873,-167.309 -67.69,-238.134 -45.6298,-70.1283 -102.638,-115.062 -171.954,-132.129 -69.3155,-18.1126 -171.025,-26.1239 -304.663,-26.1239l-575.191 0 0 812.512zm-302.921 -1080.95l859.419 0c185.77,0 341.237,16.371 465.122,49.8096 123.769,32.5098 223.157,106.005 298.161,221.067 74.8886,114.249 112.391,242.198 112.391,384.196 0,221.879 -71.6376,394.065 -215.029,516.325 -143.391,122.492 -355.169,184.493 -637.076,184.493l-580.067 0 0 920.143 -302.921 0 0 -2276.03zm747.028 2891.98c474.062,0 882.292,-170.444 1225.15,-512.377 342.978,-341.817 514.816,-749.699 514.816,-1225.27 0,-308.379 -78.1396,-598.064 -233.722,-868.011 -156.511,-269.947 -369.102,-483.815 -638.701,-639.63 -269.715,-156.511 -558.82,-234.07 -867.547,-234.07 -477.429,0 -886.356,171.257 -1227.71,514.003 -341.353,342.63 -512.377,752.137 -512.377,1227.71 0,475.572 171.837,883.453 514.816,1225.27 342.862,341.933 751.092,512.377 1225.27,512.377zm0 -3787.62c363.993,0 705.462,92.0724 1022.32,275.637 317.783,184.377 567.876,434.818 751.092,752.253 182.519,316.39 274.476,657.394 274.476,1022.08 0,363.877 -91.9563,704.069 -276.101,1020.46 -183.216,317.435 -434.122,567.876 -751.905,750.628 -316.97,183.564 -657.394,274.94 -1019.88,274.94 -362.6,0 -703.024,-91.3757 -1019.99,-274.94 -317.783,-182.751 -568.689,-433.193 -751.905,-750.628 -184.145,-316.39 -276.217,-656.582 -276.217,-1020.46 0,-364.69 92.0724,-705.694 274.592,-1023.83 183.216,-318.131 433.309,-568.573 751.092,-751.324 316.854,-183.564 658.323,-274.824 1022.43,-274.824z"/>
 </g>
</svg>
