<?xml version="1.0" encoding="UTF-8"?>
<!DOCTYPE svg PUBLIC "-//W3C//DTD SVG 1.1//EN" "http://www.w3.org/Graphics/SVG/1.1/DTD/svg11.dtd">
<!-- Creator: CorelDRAW -->
<svg xmlns="http://www.w3.org/2000/svg" xml:space="preserve" width="4096mm" height="4096mm" style="shape-rendering:geometricPrecision; text-rendering:geometricPrecision; image-rendering:optimizeQuality; fill-rule:evenodd; clip-rule:evenodd"
viewBox="0 0 4096 4096"
 xmlns:xlink="http://www.w3.org/1999/xlink">
 <defs>
  <style type="text/css">
   <![CDATA[
    .fil0 {fill:black;fill-rule:nonzero}
   ]]>
  </style>
 </defs>
 <g id="Capa_x0020_1">
  <metadata id="CorelCorpID_0Corel-Layer"/>
  <path class="fil0" d="M2556.43 2760.43c179.965,-161.504 269.715,-404.515 269.715,-729.148 0,-288.06 -73.3792,-514.003 -219.209,-676.32 -146.642,-162.317 -333.225,-243.939 -558.82,-243.939 -224.085,0 -409.739,78.2557 -557.194,235.696 -147.571,156.744 -220.95,385.009 -220.95,684.563 0,313.952 76.7463,545.7 228.962,695.825 153.26,149.197 335.664,224.318 549.183,224.318 114.713,0 217.467,-19.622 307.798,-59.5626 -101.709,-65.2518 -201.096,-109.256 -298.045,-131.432l74.0759 -220.254c184.145,53.8733 325.794,127.369 424.485,220.254zm620.705 381.874l-88.8213 205.508c-219.093,-83.9449 -380.481,-176.946 -483.931,-279.004 -170.212,95.5556 -357.608,142.811 -561.258,142.811 -316.854,0 -575.888,-109.256 -777.913,-329.51 -202.141,-220.254 -303.038,-503.437 -303.038,-850.827 0,-345.997 99.271,-628.252 298.161,-847.693 198.658,-218.628 461.871,-327.884 787.782,-327.884 321.731,0 583.202,107.631 786.04,323.821 202.838,215.261 304.779,499.257 304.779,851.756 0,374.327 -114.945,672.952 -343.907,896.457 108.443,79.1845 235.464,150.938 382.106,214.564zm-1129.02 645.319c474.062,0 882.292,-170.444 1225.15,-512.377 342.978,-341.817 514.816,-749.699 514.816,-1225.27 0,-308.379 -78.1396,-598.064 -233.722,-868.011 -156.511,-269.947 -369.102,-483.815 -638.701,-639.63 -269.715,-156.511 -558.82,-234.07 -867.547,-234.07 -477.429,0 -886.356,171.257 -1227.71,514.003 -341.353,342.63 -512.377,752.137 -512.377,1227.71 0,475.572 171.837,883.453 514.816,1225.27 342.862,341.933 751.092,512.377 1225.27,512.377zm0 -3787.62c363.993,0 705.462,92.0724 1022.32,275.637 317.783,184.377 567.876,434.818 751.092,752.253 182.519,316.39 274.476,657.394 274.476,1022.08 0,363.877 -91.9563,704.069 -276.101,1020.46 -183.216,317.435 -434.122,567.876 -751.905,750.628 -316.97,183.564 -657.394,274.94 -1019.88,274.94 -362.6,0 -703.024,-91.3757 -1019.99,-274.94 -317.783,-182.751 -568.689,-433.193 -751.905,-750.628 -184.145,-316.39 -276.217,-656.582 -276.217,-1020.46 0,-364.69 92.0724,-705.694 274.592,-1023.83 183.216,-318.131 433.309,-568.573 751.092,-751.324 316.854,-183.564 658.323,-274.824 1022.43,-274.824z"/>
 </g>
</svg>
