<?xml version="1.0" encoding="UTF-8"?>
<!DOCTYPE svg PUBLIC "-//W3C//DTD SVG 1.1//EN" "http://www.w3.org/Graphics/SVG/1.1/DTD/svg11.dtd">
<!-- Creator: CorelDRAW -->
<svg xmlns="http://www.w3.org/2000/svg" xml:space="preserve" width="4096mm" height="4096mm" style="shape-rendering:geometricPrecision; text-rendering:geometricPrecision; image-rendering:optimizeQuality; fill-rule:evenodd; clip-rule:evenodd"
viewBox="0 0 4096 4096"
 xmlns:xlink="http://www.w3.org/1999/xlink">
 <defs>
  <style type="text/css">
   <![CDATA[
    .fil0 {fill:black;fill-rule:nonzero}
   ]]>
  </style>
 </defs>
 <g id="Capa_x0020_1">
  <metadata id="CorelCorpID_0Corel-Layer"/>
  <path class="fil0" d="M2048.12 0c363.993,0 705.462,92.1885 1022.32,275.753 317.783,184.377 567.876,434.818 751.092,752.253 182.519,316.39 274.476,657.394 274.476,1022.08 0,363.877 -91.9563,704.069 -276.101,1020.46 -183.216,317.435 -434.122,567.876 -751.905,750.628 -316.97,183.564 -657.394,274.824 -1019.88,274.824 -362.6,0 -703.024,-91.2596 -1019.99,-274.824 -317.783,-182.751 -568.689,-433.193 -751.905,-750.628 -184.145,-316.39 -276.217,-656.582 -276.217,-1020.46 0,-364.69 92.0724,-705.694 274.592,-1023.83 183.216,-318.131 433.309,-568.573 751.092,-751.324 316.854,-183.564 658.323,-274.94 1022.43,-274.94zm0 3787.74c474.062,0 882.292,-170.444 1225.15,-512.377 342.978,-341.817 514.816,-749.699 514.816,-1225.27 0,-308.379 -78.1396,-598.064 -233.722,-868.011 -156.511,-269.947 -369.102,-483.815 -638.701,-639.63 -269.715,-156.511 -558.82,-234.07 -867.547,-234.07 -477.429,0 -886.356,171.257 -1227.71,514.003 -341.353,342.63 -512.377,752.137 -512.377,1227.71 0,475.572 171.837,883.453 514.816,1225.27 342.862,341.933 751.092,512.377 1225.27,512.377zm536.76 -1830.65c143.391,44.9332 250.093,116.687 320.221,215.377 70.0122,98.6904 105.076,212.126 105.076,339.263 0,167.309 -59.4465,319.06 -178.456,455.253 -118.08,136.309 -342.049,204.812 -671.211,204.812l-869.288 0 0 -2276.03 854.543 0c267.161,0 459.433,59.5625 576.816,177.062 116.455,118.312 175.088,253.692 175.088,406.14 0,213.868 -104.264,372.934 -312.791,478.126zm-990.503 -107.747l491.943 0c208.527,0 347.042,-29.3749 415.429,-88.9375 68.5027,-60.3753 102.638,-142.695 102.638,-248.003 0,-107.631 -34.1353,-193.317 -101.825,-255.318 -67.5739,-61.8847 -218.977,-92.8851 -454.44,-92.8851l-453.744 0 0 685.144zm0 1054.01l566.135 0c197.149,0 335.547,-34.1353 416.357,-103.567 80.5778,-69.3155 120.518,-165.568 120.518,-288.06 0,-123.885 -41.5661,-221.066 -125.511,-289.453 -83.0161,-68.6188 -233.838,-102.87 -449.68,-102.87l-527.82 0 0 783.95z"/>
 </g>
</svg>
