<?xml version="1.0" encoding="UTF-8"?>
<!DOCTYPE svg PUBLIC "-//W3C//DTD SVG 1.1//EN" "http://www.w3.org/Graphics/SVG/1.1/DTD/svg11.dtd">
<!-- Creator: CorelDRAW -->
<svg xmlns="http://www.w3.org/2000/svg" xml:space="preserve" width="4096mm" height="4096mm" style="shape-rendering:geometricPrecision; text-rendering:geometricPrecision; image-rendering:optimizeQuality; fill-rule:evenodd; clip-rule:evenodd"
viewBox="0 0 4096 4096"
 xmlns:xlink="http://www.w3.org/1999/xlink">
 <defs>
  <style type="text/css">
   <![CDATA[
    .fil0 {fill:black;fill-rule:nonzero}
   ]]>
  </style>
 </defs>
 <g id="Capa_x0020_1">
  <metadata id="CorelCorpID_0Corel-Layer"/>
  <path class="fil0" d="M2601.6 584.596c0,115.874 -29.7232,203.302 -88.9374,263.445 -59.2143,59.2142 -131.781,89.0535 -216.538,89.0535 -47.6036,0 -87.312,-5.3408 -119.125,-16.3709 -32.2776,-10.7979 -70.2444,-30.8843 -114.713,-59.4465 -73.6114,-46.6748 -131.897,-70.1282 -175.321,-70.1282 -85.8026,0 -130.155,48.6485 -133.406,145.946l-190.415 0c0,-115.294 30.536,-202.606 92.5368,-262.516 62.6974,-59.7948 136.077,-89.9825 221.879,-89.9825 67.2255,0 139.56,24.2663 217.932,73.147 77.9074,48.6486 141.998,72.4504 191.692,72.4504 71.6376,0 112.855,-48.1841 123.769,-145.597l190.647 0zm340.424 2810.82l-308.727 0 -1188.23 -1787.23 -5.8053 0 0 1787.23 -285.273 0 0 -2276.61 306.985 0 1187.88 1787.57 6.2698 0 0 -1787.57 286.899 0 0 2276.61zm-894.019 -3395.41c363.993,0 705.462,92.1885 1022.32,275.753 317.783,184.377 567.876,434.818 751.092,752.253 182.519,316.39 274.592,657.394 274.592,1022.08 0,363.877 -92.0724,704.069 -276.217,1020.46 -183.216,317.435 -434.122,567.876 -751.905,750.628 -316.97,183.564 -657.394,274.824 -1019.88,274.824 -362.6,0 -703.024,-91.2596 -1019.99,-274.824 -317.783,-182.751 -568.689,-433.193 -751.905,-750.628 -184.145,-316.39 -276.101,-656.582 -276.101,-1020.46 0,-364.69 91.9563,-705.694 274.476,-1023.83 183.216,-318.131 433.309,-568.573 751.092,-751.324 316.854,-183.564 658.323,-274.94 1022.43,-274.94zm0 3787.74c474.062,0 882.292,-170.444 1225.15,-512.377 342.978,-341.817 514.816,-749.699 514.816,-1225.27 0,-308.379 -78.1396,-598.064 -233.722,-868.011 -156.511,-269.947 -369.102,-483.815 -638.701,-639.63 -269.715,-156.511 -558.82,-234.07 -867.547,-234.07 -477.429,0 -886.356,171.257 -1227.71,514.003 -341.353,342.63 -512.377,752.137 -512.377,1227.71 0,475.572 171.837,883.453 514.816,1225.27 342.862,341.933 751.092,512.377 1225.27,512.377z"/>
 </g>
</svg>
