<?xml version="1.0" encoding="UTF-8"?>
<!DOCTYPE svg PUBLIC "-//W3C//DTD SVG 1.1//EN" "http://www.w3.org/Graphics/SVG/1.1/DTD/svg11.dtd">
<!-- Creator: CorelDRAW -->
<svg xmlns="http://www.w3.org/2000/svg" xml:space="preserve" width="4096mm" height="4096mm" style="shape-rendering:geometricPrecision; text-rendering:geometricPrecision; image-rendering:optimizeQuality; fill-rule:evenodd; clip-rule:evenodd"
viewBox="0 0 4096 4096"
 xmlns:xlink="http://www.w3.org/1999/xlink">
 <defs>
  <style type="text/css">
   <![CDATA[
    .fil0 {fill:black;fill-rule:nonzero}
   ]]>
  </style>
 </defs>
 <g id="Capa_x0020_1">
  <metadata id="CorelCorpID_0Corel-Layer"/>
  <path class="fil0" d="M2541.68 1560.47c-12.1911,-145.133 -65.1356,-253.692 -157.208,-326.259 -92.0723,-72.5665 -223.969,-108.559 -395.923,-108.559 -153.144,0 -278.655,28.5621 -376.301,87.312 -97.7615,57.937 -146.642,142.811 -146.642,254.505 0,98.6904 38.199,172.186 113.32,219.441 75.7014,48.1842 218.977,95.5556 430.871,143.624 188.208,43.1916 341.237,85.6865 461.058,128.878 118.893,43.3077 220.718,110.069 305.476,202.373 83.9449,91.3757 126.324,214.448 126.324,368.754 0,194.943 -78.2557,356.447 -235.464,486.95 -156.395,129.807 -360.046,194.13 -609.326,194.13 -302.225,0 -534.438,-63.5101 -694.897,-192.504 -160.459,-128.065 -250.906,-320.57 -272.153,-576.7l286.783 -28.5622c0,147.687 58.6337,273.198 176.83,375.14 117.267,102.057 281.79,152.68 493.684,152.68 166.961,0 303.734,-35.1803 408.81,-106.121 106.005,-70.9409 158.95,-166.38 158.95,-285.505 0,-86.4992 -24.3823,-154.073 -75.0047,-204.812 -50.3902,-49.6935 -115.642,-88.8214 -195.407,-115.874 -80.6939,-26.9366 -225.711,-66.7611 -435.863,-119.009 -297.348,-73.4953 -493.8,-161.504 -589.82,-263.561 -95.3233,-101.941 -142.579,-221.067 -142.579,-358.072 0,-186.002 72.4504,-338.566 218.28,-456.879 145.017,-117.383 339.727,-176.133 583.318,-176.133 253.344,0 456.182,59.5626 608.513,178.572 153.26,119.938 233.838,288.873 243.591,506.572l-289.221 19.622zm-493.568 2227.15c474.062,0 882.292,-170.444 1225.15,-512.377 342.978,-341.817 514.816,-749.699 514.816,-1225.27 0,-308.379 -78.1396,-598.064 -233.722,-868.011 -156.511,-269.947 -369.102,-483.815 -638.701,-639.63 -269.715,-156.511 -558.82,-234.07 -867.547,-234.07 -477.429,0 -886.356,171.257 -1227.71,514.003 -341.353,342.63 -512.377,752.137 -512.377,1227.71 0,475.572 171.837,883.453 514.816,1225.27 342.862,341.933 751.092,512.377 1225.27,512.377zm0 -3787.62c363.993,0 705.462,92.0724 1022.32,275.637 317.783,184.377 567.876,434.818 751.092,752.253 182.519,316.39 274.476,657.394 274.476,1022.08 0,363.877 -91.9563,704.069 -276.101,1020.46 -183.216,317.435 -434.122,567.876 -751.905,750.628 -316.97,183.564 -657.394,274.94 -1019.88,274.94 -362.6,0 -703.024,-91.3757 -1019.99,-274.94 -317.783,-182.751 -568.689,-433.193 -751.905,-750.628 -184.145,-316.39 -276.217,-656.582 -276.217,-1020.46 0,-364.69 92.0724,-705.694 274.592,-1023.83 183.216,-318.131 433.309,-568.573 751.092,-751.324 316.854,-183.564 658.323,-274.824 1022.43,-274.824z"/>
 </g>
</svg>
