<?xml version="1.0" encoding="UTF-8"?>
<!DOCTYPE svg PUBLIC "-//W3C//DTD SVG 1.1//EN" "http://www.w3.org/Graphics/SVG/1.1/DTD/svg11.dtd">
<!-- Creator: CorelDRAW -->
<svg xmlns="http://www.w3.org/2000/svg" xml:space="preserve" width="4096mm" height="4096mm" style="shape-rendering:geometricPrecision; text-rendering:geometricPrecision; image-rendering:optimizeQuality; fill-rule:evenodd; clip-rule:evenodd"
viewBox="0 0 4096 4096"
 xmlns:xlink="http://www.w3.org/1999/xlink">
 <defs>
  <style type="text/css">
   <![CDATA[
    .fil0 {fill:black;fill-rule:nonzero}
   ]]>
  </style>
 </defs>
 <g id="Capa_x0020_1">
  <metadata id="CorelCorpID_0Corel-Layer"/>
  <path class="fil0" d="M3031.3 2853.66c-290.73,239.063 -604.45,358.072 -940.113,358.072 -348.551,0 -629.645,-106.818 -842.352,-319.757 -213.287,-213.752 -320.105,-497.632 -320.105,-850.944 0,-336.012 96.9488,-618.382 290.846,-845.022 194.594,-226.756 476.617,-340.192 847.228,-340.192 254.97,0 459.433,56.3116 615.131,169.631 154.654,112.623 259.73,281.442 313.487,506.688l-267.161 74.192c-46.3265,-164.755 -123.886,-288.06 -233.722,-371.192 -110.069,-82.4355 -252.531,-124.002 -427.736,-124.002 -274.592,0 -482.306,84.8737 -621.633,254.389 -139.211,169.747 -208.527,388.492 -208.527,656.001 0,314.068 79.8811,545.7 239.527,695.825 160.459,149.429 358.42,224.434 595.51,224.434 246.842,0 469.186,-79.1846 666.45,-239.063l0 -422.511 -671.327 0 0 -267.741 964.496 0 0 841.191zm-983.189 934.076c474.062,0 882.292,-170.444 1225.15,-512.377 342.978,-341.817 514.816,-749.699 514.816,-1225.27 0,-308.379 -78.1396,-598.064 -233.722,-868.011 -156.511,-269.947 -369.102,-483.815 -638.701,-639.63 -269.715,-156.511 -558.82,-234.07 -867.547,-234.07 -477.429,0 -886.356,171.257 -1227.71,514.003 -341.353,342.63 -512.377,752.137 -512.377,1227.71 0,475.572 171.837,883.453 514.816,1225.27 342.862,341.933 751.092,512.377 1225.27,512.377zm0 -3787.74c363.993,0 705.462,92.1885 1022.32,275.753 317.783,184.377 567.876,434.818 751.092,752.253 182.519,316.39 274.476,657.394 274.476,1022.08 0,363.877 -91.9563,704.069 -276.101,1020.46 -183.216,317.435 -434.122,567.876 -751.905,750.628 -316.97,183.564 -657.394,274.824 -1019.88,274.824 -362.6,0 -703.024,-91.2596 -1019.99,-274.824 -317.783,-182.751 -568.689,-433.193 -751.905,-750.628 -184.145,-316.39 -276.217,-656.582 -276.217,-1020.46 0,-364.69 92.0724,-705.694 274.592,-1023.83 183.216,-318.131 433.309,-568.573 751.092,-751.324 316.854,-183.564 658.323,-274.94 1022.43,-274.94z"/>
 </g>
</svg>
