<?xml version="1.0" encoding="UTF-8"?>
<!DOCTYPE svg PUBLIC "-//W3C//DTD SVG 1.1//EN" "http://www.w3.org/Graphics/SVG/1.1/DTD/svg11.dtd">
<!-- Creator: CorelDRAW -->
<svg xmlns="http://www.w3.org/2000/svg" xml:space="preserve" width="4096mm" height="4096mm" style="shape-rendering:geometricPrecision; text-rendering:geometricPrecision; image-rendering:optimizeQuality; fill-rule:evenodd; clip-rule:evenodd"
viewBox="0 0 4096 4096"
 xmlns:xlink="http://www.w3.org/1999/xlink">
 <defs>
  <style type="text/css">
   <![CDATA[
    .fil0 {fill:black;fill-rule:nonzero}
   ]]>
  </style>
 </defs>
 <g id="Capa_x0020_1">
  <metadata id="CorelCorpID_0Corel-Layer"/>
  <path class="fil0" d="M2048.12 0c363.993,0 705.462,92.1885 1022.32,275.753 317.783,184.377 567.876,434.818 751.092,752.253 182.519,316.39 274.476,657.394 274.476,1022.08 0,363.877 -91.9563,704.069 -276.101,1020.46 -183.216,317.435 -434.122,567.876 -751.905,750.628 -316.97,183.564 -657.394,274.824 -1019.88,274.824 -362.6,0 -703.024,-91.2596 -1019.99,-274.824 -317.783,-182.751 -568.689,-433.193 -751.905,-750.628 -184.145,-316.39 -276.217,-656.582 -276.217,-1020.46 0,-364.69 92.0724,-705.694 274.592,-1023.83 183.216,-318.131 433.309,-568.573 751.092,-751.324 316.854,-183.564 658.323,-274.94 1022.43,-274.94zm0 3787.74c474.062,0 882.292,-170.444 1225.15,-512.377 342.978,-341.817 514.816,-749.699 514.816,-1225.27 0,-308.379 -78.1396,-598.064 -233.722,-868.011 -156.511,-269.947 -369.102,-483.815 -638.701,-639.63 -269.715,-156.511 -558.82,-234.07 -867.547,-234.07 -477.429,0 -886.356,171.257 -1227.71,514.003 -341.353,342.63 -512.377,752.137 -512.377,1227.71 0,475.572 171.837,883.453 514.816,1225.27 342.862,341.933 751.092,512.377 1225.27,512.377zm992.942 -1340.33c-66.7612,256.131 -183.216,447.938 -348.667,574.262 -165.336,127.253 -361.671,190.066 -589.82,190.066 -375.488,0 -647.525,-117.5 -816.924,-353.196 -169.515,-235.812 -254.273,-516.441 -254.273,-841.887 0,-363.065 100.2,-646.945 299.787,-852.453 199.587,-205.624 456.995,-308.379 771.411,-308.379 221.647,0 410.668,56.3116 568.689,169.631 157.208,112.623 267.161,278.191 329.046,496.819l-293.285 69.3155c-51.2029,-159.066 -127.02,-279.004 -228.033,-359.814 -101.013,-80.6939 -226.524,-120.635 -376.417,-120.635 -249.28,0 -438.302,81.6228 -566.019,243.939 -128.762,162.317 -192.272,381.758 -192.272,657.394 0,323.124 67.5739,560.561 202.722,712.313 135.38,150.822 310.468,226.756 524.685,226.756 176.714,0 320.918,-48.1841 433.425,-144.32 112.391,-96.3683 191.459,-241.617 237.902,-434.122l298.045 74.3081z"/>
 </g>
</svg>
