<?xml version="1.0" encoding="UTF-8"?>
<!DOCTYPE svg PUBLIC "-//W3C//DTD SVG 1.1//EN" "http://www.w3.org/Graphics/SVG/1.1/DTD/svg11.dtd">
<!-- Creator: CorelDRAW -->
<svg xmlns="http://www.w3.org/2000/svg" xml:space="preserve" width="4.2332mm" height="4.2332mm" style="shape-rendering:geometricPrecision; text-rendering:geometricPrecision; image-rendering:optimizeQuality; fill-rule:evenodd; clip-rule:evenodd"
viewBox="0 0 4.2332 4.2332"
 xmlns:xlink="http://www.w3.org/1999/xlink">
 <defs>
  <style type="text/css">
   <![CDATA[
    .fil0 {fill:black;fill-rule:nonzero}
   ]]>
  </style>
 </defs>
 <g id="Capa_x0020_1">
  <metadata id="CorelCorpID_0Corel-Layer"/>
  <path class="fil0" d="M2.1167 0.3527c0.3135,0 0.6076,0.0793 0.8805,0.2374 0.2737,0.1588 0.4891,0.3745 0.6469,0.6479 0.1572,0.2725 0.2364,0.5662 0.2364,0.8803 0,0.3134 -0.0792,0.6064 -0.2378,0.8789 -0.1578,0.2734 -0.3739,0.4891 -0.6476,0.6465 -0.273,0.1581 -0.5662,0.2368 -0.8784,0.2368 -0.3123,0 -0.6055,-0.0787 -0.8785,-0.2368 -0.2737,-0.1574 -0.4898,-0.3731 -0.6476,-0.6465 -0.1586,-0.2725 -0.2379,-0.5655 -0.2379,-0.8789 0,-0.3141 0.0793,-0.6078 0.2365,-0.8818 0.1578,-0.274 0.3732,-0.4897 0.6469,-0.6471 0.2729,-0.1581 0.567,-0.2367 0.8806,-0.2367zm0 3.2622c0.4083,0 0.7599,-0.1468 1.0552,-0.4413 0.2954,-0.2944 0.4434,-0.6457 0.4434,-1.0553 0,-0.2656 -0.0673,-0.5151 -0.2013,-0.7476 -0.1348,-0.2325 -0.3179,-0.4167 -0.5501,-0.5509 -0.2323,-0.1348 -0.4813,-0.2016 -0.7472,-0.2016 -0.4112,0 -0.7634,0.1475 -1.0574,0.4427 -0.294,0.2951 -0.4413,0.6478 -0.4413,1.0574 0,0.4096 0.148,0.7609 0.4434,1.0553 0.2953,0.2945 0.6469,0.4413 1.0553,0.4413zm-0.3453 -1.7059c0.118,-0.0851 0.2414,-0.128 0.3698,-0.128 0.1634,0 0.3053,0.0584 0.4259,0.1743 0.12,0.1159 0.1803,0.2705 0.1803,0.4637 0,0.1939 -0.0603,0.3583 -0.1824,0.4954 -0.1221,0.1363 -0.2827,0.2044 -0.4813,0.2044 -0.1628,0 -0.3045,-0.0464 -0.4252,-0.1384 -0.1207,-0.0927 -0.1902,-0.2297 -0.2077,-0.411l0.2526 -0.0204c0.0203,0.1258 0.0652,0.2192 0.134,0.2796 0.0681,0.0605 0.1501,0.0907 0.2463,0.0907 0.1206,0 0.2189,-0.0457 0.2939,-0.1378 0.0751,-0.092 0.113,-0.2058 0.113,-0.3414 0,-0.142 -0.0393,-0.2508 -0.1178,-0.3274 -0.0794,-0.0774 -0.1782,-0.1152 -0.2976,-0.1152 -0.1515,0 -0.2701,0.0624 -0.355,0.1889l-0.2266 -0.0288 0.1937 -1.0082 0.9682 0 0 0.2326 -0.7796 0 -0.1045 0.527z"/>
 </g>
</svg>
