<?xml version="1.0" encoding="UTF-8"?>
<!DOCTYPE svg PUBLIC "-//W3C//DTD SVG 1.1//EN" "http://www.w3.org/Graphics/SVG/1.1/DTD/svg11.dtd">
<!-- Creator: CorelDRAW -->
<svg xmlns="http://www.w3.org/2000/svg" xml:space="preserve" width="4.2332mm" height="4.2332mm" style="shape-rendering:geometricPrecision; text-rendering:geometricPrecision; image-rendering:optimizeQuality; fill-rule:evenodd; clip-rule:evenodd"
viewBox="0 0 4.2332 4.2332"
 xmlns:xlink="http://www.w3.org/1999/xlink">
 <defs>
  <style type="text/css">
   <![CDATA[
    .fil0 {fill:black;fill-rule:nonzero}
   ]]>
  </style>
 </defs>
 <g id="Capa_x0020_1">
  <metadata id="CorelCorpID_0Corel-Layer"/>
  <path class="fil0" d="M2.1167 0.3527c0.3135,0 0.6076,0.0793 0.8805,0.2374 0.2737,0.1588 0.4891,0.3745 0.6469,0.6479 0.1572,0.2725 0.2364,0.5662 0.2364,0.8803 0,0.3134 -0.0792,0.6064 -0.2378,0.8789 -0.1578,0.2734 -0.3739,0.4891 -0.6476,0.6465 -0.273,0.1581 -0.5662,0.2368 -0.8784,0.2368 -0.3123,0 -0.6055,-0.0787 -0.8785,-0.2368 -0.2737,-0.1574 -0.4898,-0.3731 -0.6476,-0.6465 -0.1586,-0.2725 -0.2379,-0.5655 -0.2379,-0.8789 0,-0.3141 0.0793,-0.6078 0.2365,-0.8818 0.1578,-0.274 0.3732,-0.4897 0.6469,-0.6471 0.2729,-0.1581 0.567,-0.2367 0.8806,-0.2367zm0 3.2622c0.4083,0 0.7599,-0.1468 1.0552,-0.4413 0.2954,-0.2944 0.4434,-0.6457 0.4434,-1.0553 0,-0.2656 -0.0673,-0.5151 -0.2013,-0.7476 -0.1348,-0.2325 -0.3179,-0.4167 -0.5501,-0.5509 -0.2323,-0.1348 -0.4813,-0.2016 -0.7472,-0.2016 -0.4112,0 -0.7634,0.1475 -1.0574,0.4427 -0.294,0.2951 -0.4413,0.6478 -0.4413,1.0574 0,0.4096 0.148,0.7609 0.4434,1.0553 0.2953,0.2945 0.6469,0.4413 1.0553,0.4413zm0.0125 -2.4985c0.2106,0 0.3692,0.0836 0.4758,0.2508 0.106,0.1672 0.1593,0.4181 0.1593,0.7511 0,0.3337 -0.0533,0.5839 -0.1593,0.7504 -0.1066,0.1673 -0.2652,0.2501 -0.4758,0.2501 -0.2139,0 -0.3739,-0.0828 -0.4798,-0.2501 -0.1067,-0.1665 -0.16,-0.4167 -0.16,-0.7504 0,-0.333 0.0533,-0.5839 0.16,-0.7511 0.1059,-0.1672 0.2659,-0.2508 0.4798,-0.2508zm0 1.8029c0.1299,0 0.2282,-0.0668 0.2941,-0.1995 0.0652,-0.1329 0.0982,-0.3338 0.0982,-0.6015 0,-0.2881 -0.0337,-0.4946 -0.1003,-0.6204 -0.0674,-0.1258 -0.1664,-0.1883 -0.2961,-0.1883 -0.1291,0 -0.226,0.0639 -0.2898,0.1918 -0.0646,0.1271 -0.0968,0.3331 -0.0968,0.6169 0,0.1939 0.014,0.3478 0.0428,0.4624 0.0287,0.1145 0.0723,0.1994 0.1311,0.255 0.0583,0.0562 0.1306,0.0836 0.2168,0.0836z"/>
 </g>
</svg>
