<?xml version="1.0" encoding="UTF-8"?>
<!DOCTYPE svg PUBLIC "-//W3C//DTD SVG 1.1//EN" "http://www.w3.org/Graphics/SVG/1.1/DTD/svg11.dtd">
<!-- Creator: CorelDRAW -->
<svg xmlns="http://www.w3.org/2000/svg" xml:space="preserve" width="4.2332mm" height="4.2332mm" style="shape-rendering:geometricPrecision; text-rendering:geometricPrecision; image-rendering:optimizeQuality; fill-rule:evenodd; clip-rule:evenodd"
viewBox="0 0 4.2332 4.2332"
 xmlns:xlink="http://www.w3.org/1999/xlink">
 <defs>
  <style type="text/css">
   <![CDATA[
    .fil0 {fill:black;fill-rule:nonzero}
   ]]>
  </style>
 </defs>
 <g id="Capa_x0020_1">
  <metadata id="CorelCorpID_0Corel-Layer"/>
  <path class="fil0" d="M2.1167 0.3527c0.3135,0 0.6076,0.0793 0.8805,0.2374 0.2737,0.1588 0.4891,0.3745 0.6469,0.6479 0.1572,0.2725 0.2364,0.5662 0.2364,0.8803 0,0.3134 -0.0792,0.6064 -0.2378,0.8789 -0.1578,0.2734 -0.3739,0.4891 -0.6476,0.6465 -0.273,0.1581 -0.5662,0.2368 -0.8784,0.2368 -0.3123,0 -0.6055,-0.0787 -0.8785,-0.2368 -0.2737,-0.1574 -0.4898,-0.3731 -0.6476,-0.6465 -0.1586,-0.2725 -0.2379,-0.5655 -0.2379,-0.8789 0,-0.3141 0.0793,-0.6078 0.2365,-0.8818 0.1578,-0.274 0.3732,-0.4897 0.6469,-0.6471 0.2729,-0.1581 0.567,-0.2367 0.8806,-0.2367zm0 3.2622c0.4083,0 0.7599,-0.1468 1.0552,-0.4413 0.2954,-0.2944 0.4434,-0.6457 0.4434,-1.0553 0,-0.2656 -0.0673,-0.5151 -0.2013,-0.7476 -0.1348,-0.2325 -0.3179,-0.4167 -0.5501,-0.5509 -0.2323,-0.1348 -0.4813,-0.2016 -0.7472,-0.2016 -0.4112,0 -0.7634,0.1475 -1.0574,0.4427 -0.294,0.2951 -0.4413,0.6478 -0.4413,1.0574 0,0.4096 0.148,0.7609 0.4434,1.0553 0.2953,0.2945 0.6469,0.4413 1.0553,0.4413zm0.2897 -1.5929c0.1278,0.0289 0.2204,0.09 0.2785,0.1834 0.0583,0.0927 0.0877,0.1939 0.0877,0.3022 0,0.1826 -0.0659,0.3302 -0.1964,0.4426 -0.1312,0.1125 -0.2842,0.1686 -0.4595,0.1686 -0.1726,0 -0.315,-0.0506 -0.4273,-0.1517 -0.113,-0.1019 -0.1775,-0.2355 -0.1958,-0.402l0.2406 -0.0329c0.0218,0.1292 0.0646,0.2262 0.1284,0.2902 0.0639,0.0646 0.1488,0.0969 0.2541,0.0969 0.1108,0 0.2056,-0.0394 0.2834,-0.1181 0.0786,-0.0793 0.1172,-0.1756 0.1172,-0.2894 0,-0.1097 -0.0351,-0.201 -0.1066,-0.2726 -0.0716,-0.0724 -0.1635,-0.1083 -0.2779,-0.1083 -0.0519,0 -0.1081,0.0092 -0.1684,0.0267l0.0309 -0.2122c0.1522,0 0.2631,-0.0309 0.3332,-0.0934 0.0695,-0.0625 0.1046,-0.1412 0.1046,-0.2354 0,-0.0962 -0.033,-0.1714 -0.0982,-0.2255 -0.066,-0.0542 -0.1417,-0.0815 -0.2267,-0.0815 -0.0996,0 -0.1789,0.0302 -0.2371,0.0899 -0.0583,0.0597 -0.0954,0.149 -0.1123,0.2684l-0.2441 -0.0415c0.0315,-0.1713 0.1003,-0.2992 0.2076,-0.3836 0.1067,-0.0843 0.2337,-0.1264 0.3818,-0.1264 0.1648,0 0.3009,0.0492 0.409,0.1469 0.1087,0.0982 0.1628,0.2191 0.1628,0.3631 0,0.1799 -0.0898,0.3106 -0.2695,0.3914l0 0.0042z"/>
 </g>
</svg>
