<?xml version="1.0" encoding="UTF-8"?>
<!DOCTYPE svg PUBLIC "-//W3C//DTD SVG 1.1//EN" "http://www.w3.org/Graphics/SVG/1.1/DTD/svg11.dtd">
<!-- Creator: CorelDRAW -->
<svg xmlns="http://www.w3.org/2000/svg" xml:space="preserve" width="4.2332mm" height="4.2332mm" style="shape-rendering:geometricPrecision; text-rendering:geometricPrecision; image-rendering:optimizeQuality; fill-rule:evenodd; clip-rule:evenodd"
viewBox="0 0 4.2332 4.2332"
 xmlns:xlink="http://www.w3.org/1999/xlink">
 <defs>
  <style type="text/css">
   <![CDATA[
    .fil0 {fill:black;fill-rule:nonzero}
   ]]>
  </style>
 </defs>
 <g id="Capa_x0020_1">
  <metadata id="CorelCorpID_0Corel-Layer"/>
  <path class="fil0" d="M2.1167 0.3527c0.3135,0 0.6076,0.0793 0.8805,0.2374 0.2737,0.1588 0.4891,0.3745 0.6469,0.6479 0.1572,0.2725 0.2364,0.5662 0.2364,0.8803 0,0.3134 -0.0792,0.6064 -0.2378,0.8789 -0.1578,0.2734 -0.3739,0.4891 -0.6476,0.6465 -0.273,0.1581 -0.5662,0.2368 -0.8784,0.2368 -0.3123,0 -0.6055,-0.0787 -0.8785,-0.2368 -0.2737,-0.1574 -0.4898,-0.3731 -0.6476,-0.6465 -0.1586,-0.2725 -0.2379,-0.5655 -0.2379,-0.8789 0,-0.3141 0.0793,-0.6078 0.2365,-0.8818 0.1578,-0.274 0.3732,-0.4897 0.6469,-0.6471 0.2729,-0.1581 0.567,-0.2367 0.8806,-0.2367zm0 3.2622c0.4083,0 0.7599,-0.1468 1.0552,-0.4413 0.2954,-0.2944 0.4434,-0.6457 0.4434,-1.0553 0,-0.2656 -0.0673,-0.5151 -0.2013,-0.7476 -0.1348,-0.2325 -0.3179,-0.4167 -0.5501,-0.5509 -0.2323,-0.1348 -0.4813,-0.2016 -0.7472,-0.2016 -0.4112,0 -0.7634,0.1475 -1.0574,0.4427 -0.294,0.2951 -0.4413,0.6478 -0.4413,1.0574 0,0.4096 0.148,0.7609 0.4434,1.0553 0.2953,0.2945 0.6469,0.4413 1.0553,0.4413zm-0.4463 -1.5416c0.1137,-0.1742 0.2709,-0.2613 0.4708,-0.2613 0.1607,0 0.2968,0.0597 0.4091,0.1791 0.1123,0.1194 0.1683,0.2719 0.1683,0.4567 0,0.1869 -0.0554,0.345 -0.1669,0.4757 -0.1123,0.1307 -0.2611,0.1953 -0.4476,0.1953 -0.186,0 -0.346,-0.0695 -0.4786,-0.2086 -0.1333,-0.1391 -0.1992,-0.3872 -0.1992,-0.7441 0,-0.3486 0.0603,-0.6106 0.1802,-0.7862 0.1208,-0.1757 0.2947,-0.2635 0.5227,-0.2635 0.1467,0 0.2702,0.04 0.372,0.1216 0.101,0.0807 0.162,0.2015 0.183,0.3618l-0.2384 0.0266c-0.0218,-0.1053 -0.0611,-0.1847 -0.1166,-0.2375 -0.0554,-0.0526 -0.1277,-0.0793 -0.2168,-0.0793 -0.122,0 -0.2266,0.0625 -0.3143,0.1862 -0.0877,0.1244 -0.1319,0.3169 -0.1319,0.5775l0.0042 0zm0.4301 0.846c0.1109,0 0.2007,-0.0443 0.2702,-0.1335 0.0687,-0.0892 0.1038,-0.1982 0.1038,-0.3253 0,-0.1279 -0.0358,-0.2326 -0.106,-0.3148 -0.0708,-0.0829 -0.1627,-0.1237 -0.2764,-0.1237 -0.106,0 -0.1965,0.0386 -0.2736,0.1174 -0.0765,0.078 -0.1151,0.1812 -0.1151,0.3084 0,0.1307 0.0379,0.2417 0.113,0.3337 0.0758,0.0921 0.1697,0.1378 0.2841,0.1378z"/>
 </g>
</svg>
